<?xml version="1.0" encoding="utf-8"?>
<svg viewBox="174.099 1.024 957.543 822.36" width="957.543" height="822.36" xmlns="http://www.w3.org/2000/svg">
  <defs>
    <clipPath id="awqPqltexAlh">
      <path fill="none" stroke="none" d=" M 0 0 L 1540 0 L 1540 892 L 0 892 L 0 0 Z"/>
    </clipPath>
  </defs>
  <path fill="rgb(21,101,192)" stroke="none" paint-order="stroke fill markers" fill-rule="evenodd" d="M 241.093 728.53 L 241.093 227.001 L 282.887 227.001 L 282.887 728.53 Z" fill-opacity="0.09803921568627451" clip-path="url(#awqPqltexAlh)"/>
  <path fill="rgb(21,101,192)" stroke="none" paint-order="stroke fill markers" fill-rule="evenodd" d="M 1032.421 228.101 L 1032.421 729.63 L 1074.215 729.63 L 1074.215 228.101 Z" fill-opacity="0.09803921568627451" clip-path="url(#awqPqltexAlh)"/>
  <path fill="none" stroke="rgb(97,97,97)" paint-order="fill stroke markers" d="M 490.769 562.453 C 583.433 562.453 674.286 536.781 753.247 488.285" stroke-opacity="0.8" stroke-linecap="round" stroke-linejoin="round" stroke-miterlimit="10" stroke-width="2.5" clip-path="url(#awqPqltexAlh)"/>
  <path fill="rgb(219,97,20)" stroke="none" paint-order="stroke fill markers" d="M 532.563 562.453 C 532.563 585.536 513.851 604.247 490.769 604.247 C 467.687 604.247 448.975 585.536 448.975 562.453 C 448.975 539.371 467.687 520.659 490.769 520.659 C 513.851 520.659 532.563 539.371 532.563 562.453 Z" fill-opacity="0.2980392156862745" clip-path="url(#awqPqltexAlh)"/>
  <path fill="none" stroke="rgb(219,97,20)" paint-order="fill stroke markers" d="M 532.563 562.453 C 532.563 585.536 513.851 604.247 490.769 604.247 C 467.687 604.247 448.975 585.536 448.975 562.453 C 448.975 539.371 467.687 520.659 490.769 520.659 C 513.851 520.659 532.563 539.371 532.563 562.453 Z" stroke-opacity="0.8" stroke-linecap="round" stroke-linejoin="round" stroke-miterlimit="10" stroke-width="2.5" clip-path="url(#awqPqltexAlh)"/>
  <path fill="rgb(219,97,20)" stroke="none" paint-order="stroke fill markers" d="M 795.041 488.285 C 795.041 511.367 776.329 530.079 753.247 530.079 C 730.164 530.079 711.452 511.367 711.452 488.285 C 711.452 465.203 730.164 446.491 753.247 446.491 C 776.329 446.491 795.041 465.203 795.041 488.285 Z" fill-opacity="0.2980392156862745" clip-path="url(#awqPqltexAlh)"/>
  <path fill="none" stroke="rgb(219,97,20)" paint-order="fill stroke markers" d="M 795.041 488.285 C 795.041 511.367 776.329 530.079 753.247 530.079 C 730.164 530.079 711.452 511.367 711.452 488.285 C 711.452 465.203 730.164 446.491 753.247 446.491 C 776.329 446.491 795.041 465.203 795.041 488.285 Z" stroke-opacity="0.8" stroke-linecap="round" stroke-linejoin="round" stroke-miterlimit="10" stroke-width="2.5" clip-path="url(#awqPqltexAlh)"/>
  <path fill="none" stroke="rgb(97,97,97)" paint-order="fill stroke markers" d="M 490.769 190 C 514.618 190 538 183.393 558.322 170.912" stroke-opacity="0.8" stroke-linecap="round" stroke-linejoin="round" stroke-miterlimit="10" stroke-width="2.5" clip-path="url(#awqPqltexAlh)"/>
  <path fill="none" stroke="rgb(97,97,97)" paint-order="fill stroke markers" d="M 546.258 488.285 C 546.258 457.639 521.415 432.796 490.769 432.796" stroke-opacity="0.8" stroke-linecap="round" stroke-linejoin="round" stroke-miterlimit="10" stroke-width="2.5" clip-path="url(#awqPqltexAlh)"/>
  <path fill="none" stroke="rgb(97,97,97)" paint-order="fill stroke markers" d="M 753.247 618 C 777.213 618 800.711 611.36 821.134 598.817" stroke-opacity="0.8" stroke-linecap="round" stroke-linejoin="round" stroke-miterlimit="10" stroke-width="2.5" clip-path="url(#awqPqltexAlh)"/>
  <path fill="none" stroke="rgb(97,97,97)" paint-order="fill stroke markers" d="M 807.6 752.3 C 807.6 737.802 801.808 723.905 791.511 713.698 C 781.215 703.492 767.267 697.821 752.77 697.949" stroke-opacity="0.8" stroke-linecap="round" stroke-linejoin="round" stroke-miterlimit="10" stroke-width="2.5" clip-path="url(#awqPqltexAlh)"/>
  <path fill="none" stroke="rgb(97,97,97)" paint-order="fill stroke markers" d="M 490.769 60.924 L 915.4 752.3" stroke-opacity="0.8" stroke-linecap="round" stroke-linejoin="round" stroke-miterlimit="10" stroke-width="2.5" clip-path="url(#awqPqltexAlh)"/>
  <path fill="none" stroke="rgb(21,101,192)" paint-order="fill stroke markers" d="M 241.093 728.53 L 241.093 227.001" stroke-opacity="0.8" stroke-linecap="round" stroke-linejoin="round" stroke-miterlimit="10" stroke-width="2.5" clip-path="url(#awqPqltexAlh)"/>
  <path fill="none" stroke="rgb(21,101,192)" paint-order="fill stroke markers" d="M 241.093 227.001 L 282.887 227.001" stroke-opacity="0.8" stroke-linecap="round" stroke-linejoin="round" stroke-miterlimit="10" stroke-width="2.5" clip-path="url(#awqPqltexAlh)"/>
  <path fill="none" stroke="rgb(21,101,192)" paint-order="fill stroke markers" d="M 282.887 227.001 L 282.887 728.53" stroke-opacity="0.8" stroke-linecap="round" stroke-linejoin="round" stroke-miterlimit="10" stroke-width="2.5" clip-path="url(#awqPqltexAlh)"/>
  <path fill="none" stroke="rgb(21,101,192)" paint-order="fill stroke markers" d="M 282.887 728.53 L 241.093 728.53" stroke-opacity="0.8" stroke-linecap="round" stroke-linejoin="round" stroke-miterlimit="10" stroke-width="2.5" clip-path="url(#awqPqltexAlh)"/>
  <path fill="none" stroke="rgb(21,101,192)" paint-order="fill stroke markers" d="M 1032.421 228.101 L 1032.421 729.63" stroke-opacity="0.8" stroke-linecap="round" stroke-linejoin="round" stroke-miterlimit="10" stroke-width="2.5" clip-path="url(#awqPqltexAlh)"/>
  <path fill="none" stroke="rgb(21,101,192)" paint-order="fill stroke markers" d="M 1032.421 729.63 L 1074.215 729.63" stroke-opacity="0.8" stroke-linecap="round" stroke-linejoin="round" stroke-miterlimit="10" stroke-width="2.5" clip-path="url(#awqPqltexAlh)"/>
  <path fill="none" stroke="rgb(21,101,192)" paint-order="fill stroke markers" d="M 1074.215 729.63 L 1074.215 228.101" stroke-opacity="0.8" stroke-linecap="round" stroke-linejoin="round" stroke-miterlimit="10" stroke-width="2.5" clip-path="url(#awqPqltexAlh)"/>
  <path fill="none" stroke="rgb(21,101,192)" paint-order="fill stroke markers" d="M 1074.215 228.101 L 1032.421 228.101" stroke-opacity="0.8" stroke-linecap="round" stroke-linejoin="round" stroke-miterlimit="10" stroke-width="2.5" clip-path="url(#awqPqltexAlh)"/>
  <path fill="none" stroke="rgb(97,97,97)" paint-order="fill stroke markers" d="M 490.769 60.924 L 490.769 562.453" stroke-opacity="0.8" stroke-linecap="round" stroke-linejoin="round" stroke-miterlimit="10" stroke-width="2.5" clip-path="url(#awqPqltexAlh)"/>
  <path fill="none" stroke="rgb(97,97,97)" paint-order="fill stroke markers" d="M 753.247 488.285 L 490.769 60.924" stroke-opacity="0.8" stroke-linecap="round" stroke-linejoin="round" stroke-miterlimit="10" stroke-width="2.5" clip-path="url(#awqPqltexAlh)"/>
  <path fill="none" stroke="rgb(97,97,97)" paint-order="fill stroke markers" d="M 490.769 488.285 L 753.247 488.285" stroke-opacity="0.8" stroke-linecap="round" stroke-linejoin="round" stroke-miterlimit="10" stroke-width="2.5" clip-path="url(#awqPqltexAlh)"/>
  <path fill="none" stroke="rgb(97,97,97)" paint-order="fill stroke markers" d="M 753.247 488.285 L 915.4 752.3" stroke-opacity="0.8" stroke-linecap="round" stroke-linejoin="round" stroke-miterlimit="10" stroke-width="2.5" clip-path="url(#awqPqltexAlh)"/>
  <path fill="none" stroke="rgb(97,97,97)" paint-order="fill stroke markers" d="M 465.5 488.285 L 427 488.285" stroke-opacity="0.8" stroke-linecap="round" stroke-linejoin="round" stroke-miterlimit="10" stroke-width="2.5" clip-path="url(#awqPqltexAlh)"/>
  <path fill="none" stroke="rgb(97,97,97)" paint-order="fill stroke markers" d="M 465.5 562.453 L 427 562.453" stroke-opacity="0.8" stroke-linecap="round" stroke-linejoin="round" stroke-miterlimit="10" stroke-width="2.5" clip-path="url(#awqPqltexAlh)"/>
  <path fill="none" stroke="rgb(97,97,97)" paint-order="fill stroke markers" d="M 465.5 60.924 L 427 60.924" stroke-opacity="0.8" stroke-linecap="round" stroke-linejoin="round" stroke-miterlimit="10" stroke-width="2.5" clip-path="url(#awqPqltexAlh)"/>
  <path fill="none" stroke="rgb(97,97,97)" paint-order="fill stroke markers" d="M 804.569 456.764 L 775.943 474.345" stroke-opacity="0.8" stroke-linecap="round" stroke-linejoin="round" stroke-miterlimit="10" stroke-width="2.5" clip-path="url(#awqPqltexAlh)"/>
  <path fill="none" stroke="rgb(97,97,97)" paint-order="fill stroke markers" d="M 542.091 29.403 L 513.465 46.984" stroke-opacity="0.8" stroke-linecap="round" stroke-linejoin="round" stroke-miterlimit="10" stroke-width="2.5" clip-path="url(#awqPqltexAlh)"/>
  <path fill="none" stroke="rgb(97,97,97)" paint-order="fill stroke markers" d="M 753.247 488.285 L 753.247 752.3" stroke-opacity="0.8" stroke-linecap="round" stroke-linejoin="round" stroke-miterlimit="10" stroke-width="2.5" clip-path="url(#awqPqltexAlh)"/>
  <path fill="none" stroke="rgb(21,101,192)" paint-order="fill stroke markers" d="M 753.247 488.285 L 885.4 488.285" stroke-opacity="0.8" stroke-linecap="round" stroke-linejoin="round" stroke-miterlimit="10" stroke-width="5" clip-path="url(#awqPqltexAlh)"/>
  <path fill="rgb(21,101,192)" stroke="none" paint-order="stroke fill markers" fill-rule="evenodd" d="M 915.4 488.285 L 885.4 495.785 L 885.4 480.785 Z" fill-opacity="0.8" clip-path="url(#awqPqltexAlh)"/>
  <path fill="none" stroke="rgb(21,101,192)" paint-order="fill stroke markers" d="M 753.247 752.3 L 885.4 752.3" stroke-opacity="0.8" stroke-linecap="round" stroke-linejoin="round" stroke-miterlimit="10" stroke-width="5" clip-path="url(#awqPqltexAlh)"/>
  <path fill="rgb(21,101,192)" stroke="none" paint-order="stroke fill markers" fill-rule="evenodd" d="M 915.4 752.3 L 885.4 759.8 L 885.4 744.8 Z" fill-opacity="0.8" clip-path="url(#awqPqltexAlh)"/>
  <path fill="none" stroke="rgb(219,97,20)" paint-order="fill stroke markers" d="M 753.247 488.285 L 753.247 722.3" stroke-opacity="0.8" stroke-linecap="round" stroke-linejoin="round" stroke-miterlimit="10" stroke-width="5" clip-path="url(#awqPqltexAlh)"/>
  <path fill="rgb(219,97,20)" stroke="none" paint-order="stroke fill markers" fill-rule="evenodd" d="M 753.247 752.3 L 745.747 722.3 L 760.747 722.3 Z" fill-opacity="0.8" clip-path="url(#awqPqltexAlh)"/>
  <path fill="none" stroke="rgb(46,125,50)" paint-order="fill stroke markers" d="M 753.247 488.285 L 621.093 488.285" stroke-opacity="0.8" stroke-linecap="round" stroke-linejoin="round" stroke-miterlimit="10" stroke-width="5" clip-path="url(#awqPqltexAlh)"/>
  <path fill="rgb(46,125,50)" stroke="none" paint-order="stroke fill markers" fill-rule="evenodd" d="M 591.093 488.285 L 621.093 480.785 L 621.093 495.785 Z" fill-opacity="0.8" clip-path="url(#awqPqltexAlh)"/>
  <path fill="none" stroke="rgb(97,97,97)" paint-order="fill stroke markers" d="M 659.017 251.874 L 536.675 52.68" stroke-opacity="0.8" stroke-linecap="round" stroke-linejoin="round" stroke-miterlimit="10" stroke-width="2.5" clip-path="url(#awqPqltexAlh)"/>
  <path fill="rgb(97,97,97)" stroke="none" paint-order="stroke fill markers" fill-rule="evenodd" d="M 527.778 38.194 L 540.297 50.455 L 533.054 54.904 Z" fill-opacity="0.8" clip-path="url(#awqPqltexAlh)"/>
  <path fill="none" stroke="rgb(97,97,97)" paint-order="fill stroke markers" d="M 659.017 251.874 L 781.359 451.069" stroke-opacity="0.8" stroke-linecap="round" stroke-linejoin="round" stroke-miterlimit="10" stroke-width="2.5" clip-path="url(#awqPqltexAlh)"/>
  <path fill="rgb(97,97,97)" stroke="none" paint-order="stroke fill markers" fill-rule="evenodd" d="M 790.256 465.554 L 777.737 453.293 L 784.98 448.844 Z" fill-opacity="0.8" clip-path="url(#awqPqltexAlh)"/>
  <path fill="none" stroke="rgb(97,97,97)" paint-order="fill stroke markers" d="M 446.25 274.605 L 446.25 77.924" stroke-opacity="0.8" stroke-linecap="round" stroke-linejoin="round" stroke-miterlimit="10" stroke-width="2.5" clip-path="url(#awqPqltexAlh)"/>
  <path fill="rgb(97,97,97)" stroke="none" paint-order="stroke fill markers" fill-rule="evenodd" d="M 446.25 60.924 L 450.5 77.924 L 442 77.924 Z" fill-opacity="0.8" clip-path="url(#awqPqltexAlh)"/>
  <path fill="none" stroke="rgb(97,97,97)" paint-order="fill stroke markers" d="M 446.25 274.605 L 446.25 471.285" stroke-opacity="0.8" stroke-linecap="round" stroke-linejoin="round" stroke-miterlimit="10" stroke-width="2.5" clip-path="url(#awqPqltexAlh)"/>
  <path fill="rgb(97,97,97)" stroke="none" paint-order="stroke fill markers" fill-rule="evenodd" d="M 446.25 488.285 L 442 471.285 L 450.5 471.285 Z" fill-opacity="0.8" clip-path="url(#awqPqltexAlh)"/>
  <path fill="none" stroke="rgb(97,97,97)" paint-order="fill stroke markers" d="M 446.25 525.369 L 446.25 505.285" stroke-opacity="0.8" stroke-linecap="round" stroke-linejoin="round" stroke-miterlimit="10" stroke-width="2.5" clip-path="url(#awqPqltexAlh)"/>
  <path fill="rgb(97,97,97)" stroke="none" paint-order="stroke fill markers" fill-rule="evenodd" d="M 446.25 488.285 L 450.5 505.285 L 442 505.285 Z" fill-opacity="0.8" clip-path="url(#awqPqltexAlh)"/>
  <path fill="none" stroke="rgb(97,97,97)" paint-order="fill stroke markers" d="M 446.25 525.369 L 446.25 545.453" stroke-opacity="0.8" stroke-linecap="round" stroke-linejoin="round" stroke-miterlimit="10" stroke-width="2.5" clip-path="url(#awqPqltexAlh)"/>
  <path fill="rgb(97,97,97)" stroke="none" paint-order="stroke fill markers" fill-rule="evenodd" d="M 446.25 562.453 L 442 545.453 L 450.5 545.453 Z" fill-opacity="0.8" clip-path="url(#awqPqltexAlh)"/>
  <path fill="rgb(21,101,192)" stroke="none" paint-order="stroke fill markers" d="M 495.769 562.453 C 495.769 565.215 493.531 567.453 490.769 567.453 C 488.008 567.453 485.769 565.215 485.769 562.453 C 485.769 559.692 488.008 557.453 490.769 557.453 C 493.531 557.453 495.769 559.692 495.769 562.453 Z" fill-opacity="1" clip-path="url(#awqPqltexAlh)"/>
  <path fill="none" stroke="rgb(0,0,0)" paint-order="fill stroke markers" d="M 495.769 562.453 C 495.769 565.215 493.531 567.453 490.769 567.453 C 488.008 567.453 485.769 565.215 485.769 562.453 C 485.769 559.692 488.008 557.453 490.769 557.453 C 493.531 557.453 495.769 559.692 495.769 562.453 Z" stroke-opacity="1" stroke-linecap="round" stroke-linejoin="round" stroke-miterlimit="10" clip-path="url(#awqPqltexAlh)"/>
  <path fill="rgb(21,101,192)" stroke="none" paint-order="stroke fill markers" d="M 495.769 60.924 C 495.769 63.686 493.531 65.924 490.769 65.924 C 488.008 65.924 485.769 63.686 485.769 60.924 C 485.769 58.163 488.008 55.924 490.769 55.924 C 493.531 55.924 495.769 58.163 495.769 60.924 Z" fill-opacity="1" clip-path="url(#awqPqltexAlh)"/>
  <path fill="none" stroke="rgb(0,0,0)" paint-order="fill stroke markers" d="M 495.769 60.924 C 495.769 63.686 493.531 65.924 490.769 65.924 C 488.008 65.924 485.769 63.686 485.769 60.924 C 485.769 58.163 488.008 55.924 490.769 55.924 C 493.531 55.924 495.769 58.163 495.769 60.924 Z" stroke-opacity="1" stroke-linecap="round" stroke-linejoin="round" stroke-miterlimit="10" clip-path="url(#awqPqltexAlh)"/>
  <path fill="rgb(97,97,97)" stroke="none" paint-order="stroke fill markers" d="M 757.247 488.285 C 757.247 490.494 755.456 492.285 753.247 492.285 C 751.037 492.285 749.247 490.494 749.247 488.285 C 749.247 486.076 751.037 484.285 753.247 484.285 C 755.456 484.285 757.247 486.076 757.247 488.285 Z" fill-opacity="1" clip-path="url(#awqPqltexAlh)"/>
  <path fill="none" stroke="rgb(0,0,0)" paint-order="fill stroke markers" d="M 757.247 488.285 C 757.247 490.494 755.456 492.285 753.247 492.285 C 751.037 492.285 749.247 490.494 749.247 488.285 C 749.247 486.076 751.037 484.285 753.247 484.285 C 755.456 484.285 757.247 486.076 757.247 488.285 Z" stroke-opacity="1" stroke-linecap="round" stroke-linejoin="round" stroke-miterlimit="10" clip-path="url(#awqPqltexAlh)"/>
  <path fill="rgb(97,97,97)" stroke="none" paint-order="stroke fill markers" d="M 494.769 488.285 C 494.769 490.494 492.978 492.285 490.769 492.285 C 488.56 492.285 486.769 490.494 486.769 488.285 C 486.769 486.076 488.56 484.285 490.769 484.285 C 492.978 484.285 494.769 486.076 494.769 488.285 Z" fill-opacity="1" clip-path="url(#awqPqltexAlh)"/>
  <path fill="none" stroke="rgb(0,0,0)" paint-order="fill stroke markers" d="M 494.769 488.285 C 494.769 490.494 492.978 492.285 490.769 492.285 C 488.56 492.285 486.769 490.494 486.769 488.285 C 486.769 486.076 488.56 484.285 490.769 484.285 C 492.978 484.285 494.769 486.076 494.769 488.285 Z" stroke-opacity="1" stroke-linecap="round" stroke-linejoin="round" stroke-miterlimit="10" clip-path="url(#awqPqltexAlh)"/>
  <path fill="rgb(97,97,97)" stroke="none" paint-order="stroke fill markers" d="M 757.247 752.3 C 757.247 754.509 755.456 756.3 753.247 756.3 C 751.037 756.3 749.247 754.509 749.247 752.3 C 749.247 750.091 751.037 748.3 753.247 748.3 C 755.456 748.3 757.247 750.091 757.247 752.3 Z" fill-opacity="1" clip-path="url(#awqPqltexAlh)"/>
  <path fill="none" stroke="rgb(0,0,0)" paint-order="fill stroke markers" d="M 757.247 752.3 C 757.247 754.509 755.456 756.3 753.247 756.3 C 751.037 756.3 749.247 754.509 749.247 752.3 C 749.247 750.091 751.037 748.3 753.247 748.3 C 755.456 748.3 757.247 750.091 757.247 752.3 Z" stroke-opacity="1" stroke-linecap="round" stroke-linejoin="round" stroke-miterlimit="10" clip-path="url(#awqPqltexAlh)"/>
  <path fill="rgb(97,97,97)" stroke="none" paint-order="stroke fill markers" d="M 776.463 733.083 C 776.463 735.292 774.673 737.083 772.463 737.083 C 770.254 737.083 768.463 735.292 768.463 733.083 C 768.463 730.874 770.254 729.083 772.463 729.083 C 774.673 729.083 776.463 730.874 776.463 733.083 Z" fill-opacity="1" clip-path="url(#awqPqltexAlh)"/>
  <path fill="none" stroke="rgb(0,0,0)" paint-order="fill stroke markers" d="M 776.463 733.083 C 776.463 735.292 774.673 737.083 772.463 737.083 C 770.254 737.083 768.463 735.292 768.463 733.083 C 768.463 730.874 770.254 729.083 772.463 729.083 C 774.673 729.083 776.463 730.874 776.463 733.083 Z" stroke-opacity="1" stroke-linecap="round" stroke-linejoin="round" stroke-miterlimit="10" clip-path="url(#awqPqltexAlh)"/>
  <path fill="rgb(97,97,97)" stroke="none" paint-order="stroke fill markers" d="M 514.387 468.667 C 514.387 470.876 512.597 472.667 510.387 472.667 C 508.178 472.667 506.387 470.876 506.387 468.667 C 506.387 466.458 508.178 464.667 510.387 464.667 C 512.597 464.667 514.387 466.458 514.387 468.667 Z" fill-opacity="1" clip-path="url(#awqPqltexAlh)"/>
  <path fill="none" stroke="rgb(0,0,0)" paint-order="fill stroke markers" d="M 514.387 468.667 C 514.387 470.876 512.597 472.667 510.387 472.667 C 508.178 472.667 506.387 470.876 506.387 468.667 C 506.387 466.458 508.178 464.667 510.387 464.667 C 512.597 464.667 514.387 466.458 514.387 468.667 Z" stroke-opacity="1" stroke-linecap="round" stroke-linejoin="round" stroke-miterlimit="10" clip-path="url(#awqPqltexAlh)"/>
  <text fill="rgb(0,0,0)" stroke="none" font-family="geogebra-sans-serif, sans-serif" font-size="32px" font-style="normal" font-weight="normal" text-decoration="normal" x="1045" y="282" text-anchor="start" dominant-baseline="alphabetic" fill-opacity="1" style="white-space: pre; font-size: 32px;" clip-path="url(#awqPqltexAlh)">−</text>
  <text fill="rgb(0,0,0)" stroke="none" font-family="geogebra-sans-serif, sans-serif" font-size="32px" font-style="normal" font-weight="normal" text-decoration="normal" x="253" y="283" text-anchor="start" dominant-baseline="alphabetic" fill-opacity="1" style="white-space: pre; font-size: 32px;" clip-path="url(#awqPqltexAlh)">+</text>
  <text fill="rgb(0,0,0)" stroke="none" font-family="geogebra-sans-serif, sans-serif" font-size="32px" font-style="normal" font-weight="normal" text-decoration="normal" x="253" y="364" text-anchor="start" dominant-baseline="alphabetic" fill-opacity="1" style="white-space: pre; font-size: 32px;" clip-path="url(#awqPqltexAlh)">+</text>
  <text fill="rgb(0,0,0)" stroke="none" font-family="geogebra-sans-serif, sans-serif" font-size="32px" font-style="normal" font-weight="normal" text-decoration="normal" x="253" y="447" text-anchor="start" dominant-baseline="alphabetic" fill-opacity="1" style="white-space: pre; font-size: 32px;" clip-path="url(#awqPqltexAlh)">+</text>
  <text fill="rgb(0,0,0)" stroke="none" font-family="geogebra-sans-serif, sans-serif" font-size="32px" font-style="normal" font-weight="normal" text-decoration="normal" x="253" y="531" text-anchor="start" dominant-baseline="alphabetic" fill-opacity="1" style="white-space: pre; font-size: 32px;" clip-path="url(#awqPqltexAlh)">+</text>
  <text fill="rgb(0,0,0)" stroke="none" font-family="geogebra-sans-serif, sans-serif" font-size="32px" font-style="normal" font-weight="normal" text-decoration="normal" x="253" y="614" text-anchor="start" dominant-baseline="alphabetic" fill-opacity="1" style="white-space: pre; font-size: 32px;" clip-path="url(#awqPqltexAlh)">+</text>
  <text fill="rgb(0,0,0)" stroke="none" font-family="geogebra-sans-serif, sans-serif" font-size="32px" font-style="normal" font-weight="normal" text-decoration="normal" x="253" y="696" text-anchor="start" dominant-baseline="alphabetic" fill-opacity="1" style="white-space: pre; font-size: 32px;" clip-path="url(#awqPqltexAlh)">+</text>
  <text fill="rgb(0,0,0)" stroke="none" font-family="geogebra-sans-serif, sans-serif" font-size="32px" font-style="normal" font-weight="normal" text-decoration="normal" x="1045" y="449" text-anchor="start" dominant-baseline="alphabetic" fill-opacity="1" style="white-space: pre; font-size: 32px;" clip-path="url(#awqPqltexAlh)">−</text>
  <text fill="rgb(0,0,0)" stroke="none" font-family="geogebra-sans-serif, sans-serif" font-size="32px" font-style="normal" font-weight="normal" text-decoration="normal" x="1045" y="366" text-anchor="start" dominant-baseline="alphabetic" fill-opacity="1" style="white-space: pre; font-size: 32px;" clip-path="url(#awqPqltexAlh)">−</text>
  <text fill="rgb(0,0,0)" stroke="none" font-family="geogebra-sans-serif, sans-serif" font-size="32px" font-style="normal" font-weight="normal" text-decoration="normal" x="1045" y="533" text-anchor="start" dominant-baseline="alphabetic" fill-opacity="1" style="white-space: pre; font-size: 32px;" clip-path="url(#awqPqltexAlh)">−</text>
  <text fill="rgb(0,0,0)" stroke="none" font-family="geogebra-sans-serif, sans-serif" font-size="32px" font-style="normal" font-weight="normal" text-decoration="normal" x="1045" y="616" text-anchor="start" dominant-baseline="alphabetic" fill-opacity="1" style="white-space: pre; font-size: 32px;" clip-path="url(#awqPqltexAlh)">−</text>
  <text fill="rgb(0,0,0)" stroke="none" font-family="geogebra-sans-serif, sans-serif" font-size="32px" font-style="normal" font-weight="normal" text-decoration="normal" x="1045" y="700" text-anchor="start" dominant-baseline="alphabetic" fill-opacity="1" style="white-space: pre; font-size: 32px;" clip-path="url(#awqPqltexAlh)">−</text>
  <g transform="matrix(35, 0, 0, 35, 0, 0)" clip-path="url(#awqPqltexAlh)">
    <g transform="translate(14.4,4.4591264285714285)">
      <path fill="rgb(0,0,0)" stroke="none" paint-order="stroke fill markers" d=" M 0.47700000000000004 -0.23600000000000002 L 0.47700000000000004 -0.23600000000000002 L 0.47700000000000004 -0.17400000000000002 Q 0.542 -0.255 0.5750000000000001 -0.372 Q 0.585 -0.392 0.59 -0.393 Q 0.602 -0.393 0.602 -0.383 Q 0.602 -0.366 0.579 -0.307 Q 0.545 -0.221 0.487 -0.148 Q 0.47700000000000004 -0.128 0.47700000000000004 -0.113 Q 0.47700000000000004 -0.011 0.508 -0.011 Q 0.539 -0.011 0.558 -0.046 Q 0.561 -0.052000000000000005 0.5640000000000001 -0.06 Q 0.5680000000000001 -0.07 0.577 -0.07 Q 0.589 -0.07 0.589 -0.06 Q 0.589 -0.041 0.5640000000000001 -0.015 Q 0.538 0.011 0.505 0.011 Q 0.442 0.011 0.418 -0.058 Q 0.41600000000000004 -0.065 0.41400000000000003 -0.073 Q 0.309 0.011 0.203 0.011 Q 0.109 0.011 0.065 -0.064 Q 0.041 -0.105 0.041 -0.158 Q 0.041 -0.26 0.11900000000000001 -0.34700000000000003 Q 0.196 -0.433 0.293 -0.441 Q 0.302 -0.442 0.31 -0.442 Q 0.394 -0.442 0.44 -0.376 Q 0.44 -0.375 0.441 -0.375 Q 0.47700000000000004 -0.322 0.47700000000000004 -0.23600000000000002 M 0.41000000000000003 -0.099 L 0.41000000000000003 -0.099 Q 0.40800000000000003 -0.116 0.40800000000000003 -0.211 Q 0.40800000000000003 -0.334 0.381 -0.379 Q 0.369 -0.399 0.352 -0.40900000000000003 L 0.35100000000000003 -0.41000000000000003 L 0.35100000000000003 -0.41000000000000003 L 0.35000000000000003 -0.41000000000000003 Q 0.332 -0.42 0.309 -0.42 Q 0.23800000000000002 -0.42 0.181 -0.34 L 0.17300000000000001 -0.328 Q 0.137 -0.27 0.12 -0.166 Q 0.115 -0.138 0.115 -0.12 Q 0.115 -0.036000000000000004 0.17400000000000002 -0.016 Q 0.188 -0.011 0.20500000000000002 -0.011 Q 0.309 -0.011 0.41000000000000003 -0.099 Z"/>
    </g>
  </g>
  <g transform="matrix(35, 0, 0, 35, 0, 0)" clip-path="url(#awqPqltexAlh)">
    <g transform="translate(21.857142857142858,16.77341214285714)">
      <path fill="rgb(0,0,0)" stroke="none" paint-order="stroke fill markers" d=" M 0.47700000000000004 -0.23600000000000002 L 0.47700000000000004 -0.23600000000000002 L 0.47700000000000004 -0.17400000000000002 Q 0.542 -0.255 0.5750000000000001 -0.372 Q 0.585 -0.392 0.59 -0.393 Q 0.602 -0.393 0.602 -0.383 Q 0.602 -0.366 0.579 -0.307 Q 0.545 -0.221 0.487 -0.148 Q 0.47700000000000004 -0.128 0.47700000000000004 -0.113 Q 0.47700000000000004 -0.011 0.508 -0.011 Q 0.539 -0.011 0.558 -0.046 Q 0.561 -0.052000000000000005 0.5640000000000001 -0.06 Q 0.5680000000000001 -0.07 0.577 -0.07 Q 0.589 -0.07 0.589 -0.06 Q 0.589 -0.041 0.5640000000000001 -0.015 Q 0.538 0.011 0.505 0.011 Q 0.442 0.011 0.418 -0.058 Q 0.41600000000000004 -0.065 0.41400000000000003 -0.073 Q 0.309 0.011 0.203 0.011 Q 0.109 0.011 0.065 -0.064 Q 0.041 -0.105 0.041 -0.158 Q 0.041 -0.26 0.11900000000000001 -0.34700000000000003 Q 0.196 -0.433 0.293 -0.441 Q 0.302 -0.442 0.31 -0.442 Q 0.394 -0.442 0.44 -0.376 Q 0.44 -0.375 0.441 -0.375 Q 0.47700000000000004 -0.322 0.47700000000000004 -0.23600000000000002 M 0.41000000000000003 -0.099 L 0.41000000000000003 -0.099 Q 0.40800000000000003 -0.116 0.40800000000000003 -0.211 Q 0.40800000000000003 -0.334 0.381 -0.379 Q 0.369 -0.399 0.352 -0.40900000000000003 L 0.35100000000000003 -0.41000000000000003 L 0.35100000000000003 -0.41000000000000003 L 0.35000000000000003 -0.41000000000000003 Q 0.332 -0.42 0.309 -0.42 Q 0.23800000000000002 -0.42 0.181 -0.34 L 0.17300000000000001 -0.328 Q 0.137 -0.27 0.12 -0.166 Q 0.115 -0.138 0.115 -0.12 Q 0.115 -0.036000000000000004 0.17400000000000002 -0.016 Q 0.188 -0.011 0.20500000000000002 -0.011 Q 0.309 -0.011 0.41000000000000003 -0.099 Z"/>
    </g>
  </g>
  <g transform="matrix(35, 0, 0, 35, 0, 0)" clip-path="url(#awqPqltexAlh)">
    <g transform="translate(23.571428571428573,13.397617714285714)">
      <path fill="rgb(0,0,0)" stroke="none" paint-order="stroke fill markers" d=" M 0.303 -0.325 L 0.241 -0.076 Q 0.23700000000000002 -0.061 0.23700000000000002 -0.053 Q 0.23700000000000002 -0.039 0.25 -0.036000000000000004 Q 0.257 -0.034 0.269 -0.033 Q 0.294 -0.031 0.321 -0.031 Q 0.34600000000000003 -0.031 0.34900000000000003 -0.03 L 0.354 -0.023 Q 0.355 -0.021 0.355 -0.019 Q 0.355 0 0.334 0 L 0.186 -0.003 L 0.185 -0.003 L 0.054 0 L 0.053 0 Q 0.038 0 0.038 -0.012 Q 0.038 -0.029 0.054 -0.031 L 0.066 -0.031 Q 0.131 -0.031 0.14400000000000002 -0.045 Q 0.15 -0.052000000000000005 0.156 -0.073 Q 0.156 -0.074 0.157 -0.078 L 0.289 -0.607 Q 0.294 -0.625 0.294 -0.631 Q 0.294 -0.648 0.248 -0.649 L 0.247 -0.649 L 0.229 -0.649 Q 0.203 -0.649 0.201 -0.66 Q 0.201 -0.678 0.217 -0.68 L 0.231 -0.68 L 0.721 -0.68 Q 0.745 -0.68 0.747 -0.673 L 0.748 -0.673 Q 0.75 -0.667 0.748 -0.653 L 0.728 -0.48 Q 0.721 -0.457 0.714 -0.455 Q 0.7020000000000001 -0.455 0.7020000000000001 -0.467 Q 0.7020000000000001 -0.47200000000000003 0.704 -0.485 Q 0.707 -0.512 0.707 -0.539 Q 0.707 -0.606 0.673 -0.628 L 0.672 -0.629 Q 0.64 -0.649 0.561 -0.649 L 0.429 -0.649 Q 0.392 -0.649 0.385 -0.638 L 0.384 -0.638 L 0.384 -0.637 Q 0.381 -0.633 0.379 -0.625 L 0.379 -0.624 L 0.378 -0.623 Q 0.377 -0.619 0.375 -0.61 L 0.311 -0.356 L 0.402 -0.356 Q 0.47500000000000003 -0.356 0.5 -0.383 L 0.501 -0.384 Q 0.518 -0.403 0.531 -0.452 Q 0.536 -0.47100000000000003 0.546 -0.47300000000000003 Q 0.557 -0.47300000000000003 0.558 -0.462 Q 0.558 -0.457 0.555 -0.446 L 0.5 -0.229 Q 0.49 -0.209 0.485 -0.20800000000000002 Q 0.47300000000000003 -0.20800000000000002 0.47300000000000003 -0.22 Q 0.47300000000000003 -0.224 0.47600000000000003 -0.231 Q 0.483 -0.261 0.483 -0.28 Q 0.483 -0.309 0.461 -0.318 L 0.461 -0.318 Q 0.442 -0.325 0.4 -0.325 L 0.303 -0.325 Z"/>
    </g>
    <g transform="translate(24.214485571428572,13.547617714285714) scale(0.7,0.7)">
      <path fill="rgb(0,0,0)" stroke="none" paint-order="stroke fill markers" d=" M 0.187 -0.231 L 0.134 -0.231 Q 0.11800000000000001 -0.166 0.11800000000000001 -0.127 Q 0.11800000000000001 -0.048 0.164 -0.021 Q 0.181 -0.011 0.20500000000000002 -0.011 Q 0.295 -0.011 0.367 -0.07100000000000001 Q 0.388 -0.088 0.405 -0.11 Q 0.41200000000000003 -0.12 0.418 -0.12 Q 0.427 -0.12 0.43 -0.107 Q 0.43 -0.096 0.396 -0.064 Q 0.313 0.011 0.203 0.011 Q 0.113 0.011 0.07100000000000001 -0.066 Q 0.046 -0.111 0.046 -0.17 Q 0.046 -0.301 0.148 -0.382 Q 0.223 -0.442 0.308 -0.442 Q 0.38 -0.442 0.406 -0.392 Q 0.41500000000000004 -0.376 0.41500000000000004 -0.357 Q 0.41500000000000004 -0.305 0.37 -0.271 L 0.369 -0.27 Q 0.356 -0.261 0.34 -0.254 Q 0.28500000000000003 -0.231 0.187 -0.231 M 0.14 -0.253 L 0.181 -0.253 Q 0.382 -0.253 0.382 -0.357 Q 0.382 -0.397 0.343 -0.41400000000000003 L 0.343 -0.41400000000000003 Q 0.329 -0.419 0.308 -0.42 Q 0.252 -0.42 0.20500000000000002 -0.374 Q 0.16 -0.33 0.14 -0.253 Z"/>
    </g>
    <g transform="translate(24.540424471428572,13.547617714285714) scale(0.7,0.7)">
      <path fill="rgb(0,0,0)" stroke="none" paint-order="stroke fill markers" d=" M 0.258 -0.683 L 0.114 -0.105 Q 0.108 -0.082 0.108 -0.057 Q 0.108 -0.011 0.138 -0.011 Q 0.177 -0.011 0.203 -0.097 Q 0.20800000000000002 -0.112 0.214 -0.135 Q 0.222 -0.152 0.228 -0.153 Q 0.24 -0.153 0.24 -0.14300000000000002 Q 0.24 -0.128 0.222 -0.074 Q 0.216 -0.057 0.21 -0.045 Q 0.184 0.011 0.135 0.011 Q 0.083 0.011 0.057 -0.031 Q 0.044 -0.053 0.044 -0.081 Q 0.044 -0.097 0.049 -0.115 L 0.17500000000000002 -0.615 L 0.178 -0.635 Q 0.178 -0.646 0.164 -0.649 Q 0.152 -0.652 0.129 -0.652 Q 0.106 -0.652 0.10400000000000001 -0.663 Q 0.10400000000000001 -0.681 0.123 -0.684 L 0.245 -0.6940000000000001 Q 0.258 -0.6940000000000001 0.258 -0.683 Z"/>
    </g>
  </g>
  <g transform="matrix(35, 0, 0, 35, 0, 0)" clip-path="url(#awqPqltexAlh)">
    <g transform="translate(18.571428571428573,13.369046285714285)">
      <path fill="rgb(0,0,0)" stroke="none" paint-order="stroke fill markers" d=" M 0.303 -0.325 L 0.241 -0.076 Q 0.23700000000000002 -0.061 0.23700000000000002 -0.053 Q 0.23700000000000002 -0.039 0.25 -0.036000000000000004 Q 0.257 -0.034 0.269 -0.033 Q 0.294 -0.031 0.321 -0.031 Q 0.34600000000000003 -0.031 0.34900000000000003 -0.03 L 0.354 -0.023 Q 0.355 -0.021 0.355 -0.019 Q 0.355 0 0.334 0 L 0.186 -0.003 L 0.185 -0.003 L 0.054 0 L 0.053 0 Q 0.038 0 0.038 -0.012 Q 0.038 -0.029 0.054 -0.031 L 0.066 -0.031 Q 0.131 -0.031 0.14400000000000002 -0.045 Q 0.15 -0.052000000000000005 0.156 -0.073 Q 0.156 -0.074 0.157 -0.078 L 0.289 -0.607 Q 0.294 -0.625 0.294 -0.631 Q 0.294 -0.648 0.248 -0.649 L 0.247 -0.649 L 0.229 -0.649 Q 0.203 -0.649 0.201 -0.66 Q 0.201 -0.678 0.217 -0.68 L 0.231 -0.68 L 0.721 -0.68 Q 0.745 -0.68 0.747 -0.673 L 0.748 -0.673 Q 0.75 -0.667 0.748 -0.653 L 0.728 -0.48 Q 0.721 -0.457 0.714 -0.455 Q 0.7020000000000001 -0.455 0.7020000000000001 -0.467 Q 0.7020000000000001 -0.47200000000000003 0.704 -0.485 Q 0.707 -0.512 0.707 -0.539 Q 0.707 -0.606 0.673 -0.628 L 0.672 -0.629 Q 0.64 -0.649 0.561 -0.649 L 0.429 -0.649 Q 0.392 -0.649 0.385 -0.638 L 0.384 -0.638 L 0.384 -0.637 Q 0.381 -0.633 0.379 -0.625 L 0.379 -0.624 L 0.378 -0.623 Q 0.377 -0.619 0.375 -0.61 L 0.311 -0.356 L 0.402 -0.356 Q 0.47500000000000003 -0.356 0.5 -0.383 L 0.501 -0.384 Q 0.518 -0.403 0.531 -0.452 Q 0.536 -0.47100000000000003 0.546 -0.47300000000000003 Q 0.557 -0.47300000000000003 0.558 -0.462 Q 0.558 -0.457 0.555 -0.446 L 0.5 -0.229 Q 0.49 -0.209 0.485 -0.20800000000000002 Q 0.47300000000000003 -0.20800000000000002 0.47300000000000003 -0.22 Q 0.47300000000000003 -0.224 0.47600000000000003 -0.231 Q 0.483 -0.261 0.483 -0.28 Q 0.483 -0.309 0.461 -0.318 L 0.461 -0.318 Q 0.442 -0.325 0.4 -0.325 L 0.303 -0.325 Z"/>
    </g>
    <g transform="translate(19.214485571428572,13.519046285714285) scale(0.7,0.7)">
      <path fill="rgb(0,0,0)" stroke="none" paint-order="stroke fill markers" d=" M 0.375 -0.614 L 0.31 -0.353 L 0.422 -0.353 Q 0.533 -0.353 0.591 -0.41100000000000003 Q 0.635 -0.455 0.645 -0.533 L 0.645 -0.534 Q 0.646 -0.545 0.646 -0.553 Q 0.646 -0.642 0.52 -0.651 L 0.518 -0.651 Q 0.499 -0.652 0.464 -0.652 Q 0.41200000000000003 -0.652 0.403 -0.651 Q 0.385 -0.648 0.379 -0.629 L 0.379 -0.629 Q 0.378 -0.624 0.375 -0.614 M 0.519 -0.34 L 0.519 -0.34 Q 0.605 -0.308 0.612 -0.23500000000000001 Q 0.613 -0.229 0.613 -0.222 Q 0.613 -0.203 0.609 -0.17500000000000002 Q 0.599 -0.095 0.599 -0.061 Q 0.599 -0.009000000000000001 0.625 -0.002 L 0.626 -0.002 Q 0.632 0 0.639 0 Q 0.682 0 0.712 -0.052000000000000005 Q 0.723 -0.069 0.73 -0.091 Q 0.734 -0.105 0.743 -0.105 Q 0.755 -0.105 0.755 -0.093 Q 0.755 -0.073 0.731 -0.037 Q 0.712 -0.008 0.687 0.008 Q 0.663 0.022 0.635 0.022 Q 0.552 0.022 0.519 -0.027 Q 0.502 -0.051000000000000004 0.502 -0.08600000000000001 Q 0.502 -0.107 0.518 -0.171 Q 0.532 -0.225 0.532 -0.24 Q 0.532 -0.302 0.47600000000000003 -0.322 L 0.47600000000000003 -0.323 Q 0.453 -0.331 0.423 -0.331 L 0.304 -0.331 L 0.23800000000000002 -0.066 L 0.23500000000000001 -0.049 Q 0.23500000000000001 -0.032 0.281 -0.031 L 0.281 -0.031 L 0.281 -0.031 L 0.3 -0.031 Q 0.326 -0.031 0.328 -0.02 Q 0.328 0 0.308 0 L 0.182 -0.003 L 0.181 -0.003 L 0.056 0 L 0.055 0 Q 0.041 0 0.041 -0.011 Q 0.041 -0.029 0.056 -0.031 L 0.068 -0.031 Q 0.133 -0.031 0.146 -0.045 Q 0.152 -0.052000000000000005 0.158 -0.073 Q 0.158 -0.074 0.159 -0.078 L 0.293 -0.615 Q 0.297 -0.631 0.297 -0.634 Q 0.297 -0.646 0.281 -0.649 L 0.28 -0.649 L 0.279 -0.649 Q 0.276 -0.649 0.27 -0.65 Q 0.253 -0.652 0.232 -0.652 Q 0.20600000000000002 -0.652 0.20400000000000001 -0.663 Q 0.20400000000000001 -0.681 0.219 -0.683 L 0.233 -0.683 L 0.518 -0.683 Q 0.643 -0.683 0.704 -0.617 Q 0.739 -0.581 0.739 -0.533 Q 0.739 -0.446 0.632 -0.384 Q 0.58 -0.353 0.519 -0.34 Z"/>
    </g>
  </g>
  <g transform="matrix(35, 0, 0, 35, 0, 0)" clip-path="url(#awqPqltexAlh)">
    <g transform="translate(19.97142857142857,19.169046285714284)">
      <path fill="rgb(0,0,0)" stroke="none" paint-order="stroke fill markers" d=" M 0.303 -0.325 L 0.241 -0.076 Q 0.23700000000000002 -0.061 0.23700000000000002 -0.053 Q 0.23700000000000002 -0.039 0.25 -0.036000000000000004 Q 0.257 -0.034 0.269 -0.033 Q 0.294 -0.031 0.321 -0.031 Q 0.34600000000000003 -0.031 0.34900000000000003 -0.03 L 0.354 -0.023 Q 0.355 -0.021 0.355 -0.019 Q 0.355 0 0.334 0 L 0.186 -0.003 L 0.185 -0.003 L 0.054 0 L 0.053 0 Q 0.038 0 0.038 -0.012 Q 0.038 -0.029 0.054 -0.031 L 0.066 -0.031 Q 0.131 -0.031 0.14400000000000002 -0.045 Q 0.15 -0.052000000000000005 0.156 -0.073 Q 0.156 -0.074 0.157 -0.078 L 0.289 -0.607 Q 0.294 -0.625 0.294 -0.631 Q 0.294 -0.648 0.248 -0.649 L 0.247 -0.649 L 0.229 -0.649 Q 0.203 -0.649 0.201 -0.66 Q 0.201 -0.678 0.217 -0.68 L 0.231 -0.68 L 0.721 -0.68 Q 0.745 -0.68 0.747 -0.673 L 0.748 -0.673 Q 0.75 -0.667 0.748 -0.653 L 0.728 -0.48 Q 0.721 -0.457 0.714 -0.455 Q 0.7020000000000001 -0.455 0.7020000000000001 -0.467 Q 0.7020000000000001 -0.47200000000000003 0.704 -0.485 Q 0.707 -0.512 0.707 -0.539 Q 0.707 -0.606 0.673 -0.628 L 0.672 -0.629 Q 0.64 -0.649 0.561 -0.649 L 0.429 -0.649 Q 0.392 -0.649 0.385 -0.638 L 0.384 -0.638 L 0.384 -0.637 Q 0.381 -0.633 0.379 -0.625 L 0.379 -0.624 L 0.378 -0.623 Q 0.377 -0.619 0.375 -0.61 L 0.311 -0.356 L 0.402 -0.356 Q 0.47500000000000003 -0.356 0.5 -0.383 L 0.501 -0.384 Q 0.518 -0.403 0.531 -0.452 Q 0.536 -0.47100000000000003 0.546 -0.47300000000000003 Q 0.557 -0.47300000000000003 0.558 -0.462 Q 0.558 -0.457 0.555 -0.446 L 0.5 -0.229 Q 0.49 -0.209 0.485 -0.20800000000000002 Q 0.47300000000000003 -0.20800000000000002 0.47300000000000003 -0.22 Q 0.47300000000000003 -0.224 0.47600000000000003 -0.231 Q 0.483 -0.261 0.483 -0.28 Q 0.483 -0.309 0.461 -0.318 L 0.461 -0.318 Q 0.442 -0.325 0.4 -0.325 L 0.303 -0.325 Z"/>
    </g>
    <g transform="translate(20.61448557142857,19.319046285714283) scale(0.7,0.7)">
      <path fill="rgb(0,0,0)" stroke="none" paint-order="stroke fill markers" d=" M 0.76 -0.6950000000000001 L 0.6970000000000001 -0.44 Q 0.6920000000000001 -0.422 0.687 -0.421 L 0.686 -0.42 L 0.679 -0.42 Q 0.664 -0.42 0.664 -0.43 L 0.667 -0.47900000000000004 L 0.667 -0.481 Q 0.667 -0.605 0.589 -0.652 L 0.588 -0.653 Q 0.553 -0.674 0.506 -0.674 Q 0.399 -0.674 0.303 -0.593 Q 0.276 -0.5710000000000001 0.256 -0.545 Q 0.16 -0.427 0.14300000000000002 -0.255 Q 0.14100000000000001 -0.234 0.14100000000000001 -0.219 Q 0.14100000000000001 -0.082 0.245 -0.031 Q 0.289 -0.009000000000000001 0.342 -0.009000000000000001 Q 0.427 -0.009000000000000001 0.483 -0.052000000000000005 Q 0.523 -0.082 0.535 -0.13 Q 0.556 -0.20800000000000002 0.556 -0.221 Q 0.556 -0.234 0.541 -0.23800000000000002 Q 0.536 -0.23900000000000002 0.525 -0.24 Q 0.502 -0.242 0.47200000000000003 -0.242 Q 0.445 -0.242 0.443 -0.248 Q 0.442 -0.249 0.442 -0.253 Q 0.442 -0.273 0.463 -0.273 L 0.602 -0.27 L 0.603 -0.27 L 0.707 -0.273 L 0.708 -0.273 Q 0.721 -0.273 0.721 -0.262 Q 0.721 -0.242 0.705 -0.242 Q 0.659 -0.241 0.65 -0.232 Q 0.644 -0.225 0.636 -0.194 Q 0.636 -0.196 0.626 -0.155 Q 0.624 -0.148 0.623 -0.14300000000000002 L 0.604 -0.066 Q 0.59 -0.008 0.587 -0.005 Q 0.587 -0.001 0.58 -0.001 Q 0.5690000000000001 -0.001 0.546 -0.039 Q 0.539 -0.052000000000000005 0.535 -0.063 Q 0.501 -0.025 0.458 -0.006 L 0.448 -0.002 Q 0.39 0.022 0.323 0.022 Q 0.188 0.022 0.111 -0.07200000000000001 Q 0.05 -0.146 0.05 -0.252 Q 0.05 -0.401 0.159 -0.531 Q 0.26 -0.652 0.398 -0.6910000000000001 Q 0.449 -0.705 0.498 -0.705 Q 0.607 -0.705 0.664 -0.616 L 0.734 -0.6930000000000001 Q 0.746 -0.705 0.749 -0.705 Q 0.76 -0.705 0.76 -0.6950000000000001 Z"/>
    </g>
  </g>
  <g transform="matrix(35, 0, 0, 35, 0, 0)" clip-path="url(#awqPqltexAlh)">
    <g transform="translate(22.885714285714286,22.569046285714286)">
      <path fill="rgb(0,0,0)" stroke="none" paint-order="stroke fill markers" d=" M 0.303 -0.325 L 0.241 -0.076 Q 0.23700000000000002 -0.061 0.23700000000000002 -0.053 Q 0.23700000000000002 -0.039 0.25 -0.036000000000000004 Q 0.257 -0.034 0.269 -0.033 Q 0.294 -0.031 0.321 -0.031 Q 0.34600000000000003 -0.031 0.34900000000000003 -0.03 L 0.354 -0.023 Q 0.355 -0.021 0.355 -0.019 Q 0.355 0 0.334 0 L 0.186 -0.003 L 0.185 -0.003 L 0.054 0 L 0.053 0 Q 0.038 0 0.038 -0.012 Q 0.038 -0.029 0.054 -0.031 L 0.066 -0.031 Q 0.131 -0.031 0.14400000000000002 -0.045 Q 0.15 -0.052000000000000005 0.156 -0.073 Q 0.156 -0.074 0.157 -0.078 L 0.289 -0.607 Q 0.294 -0.625 0.294 -0.631 Q 0.294 -0.648 0.248 -0.649 L 0.247 -0.649 L 0.229 -0.649 Q 0.203 -0.649 0.201 -0.66 Q 0.201 -0.678 0.217 -0.68 L 0.231 -0.68 L 0.721 -0.68 Q 0.745 -0.68 0.747 -0.673 L 0.748 -0.673 Q 0.75 -0.667 0.748 -0.653 L 0.728 -0.48 Q 0.721 -0.457 0.714 -0.455 Q 0.7020000000000001 -0.455 0.7020000000000001 -0.467 Q 0.7020000000000001 -0.47200000000000003 0.704 -0.485 Q 0.707 -0.512 0.707 -0.539 Q 0.707 -0.606 0.673 -0.628 L 0.672 -0.629 Q 0.64 -0.649 0.561 -0.649 L 0.429 -0.649 Q 0.392 -0.649 0.385 -0.638 L 0.384 -0.638 L 0.384 -0.637 Q 0.381 -0.633 0.379 -0.625 L 0.379 -0.624 L 0.378 -0.623 Q 0.377 -0.619 0.375 -0.61 L 0.311 -0.356 L 0.402 -0.356 Q 0.47500000000000003 -0.356 0.5 -0.383 L 0.501 -0.384 Q 0.518 -0.403 0.531 -0.452 Q 0.536 -0.47100000000000003 0.546 -0.47300000000000003 Q 0.557 -0.47300000000000003 0.558 -0.462 Q 0.558 -0.457 0.555 -0.446 L 0.5 -0.229 Q 0.49 -0.209 0.485 -0.20800000000000002 Q 0.47300000000000003 -0.20800000000000002 0.47300000000000003 -0.22 Q 0.47300000000000003 -0.224 0.47600000000000003 -0.231 Q 0.483 -0.261 0.483 -0.28 Q 0.483 -0.309 0.461 -0.318 L 0.461 -0.318 Q 0.442 -0.325 0.4 -0.325 L 0.303 -0.325 Z"/>
    </g>
    <g transform="translate(23.528771285714285,22.719046285714285) scale(0.7,0.7)">
      <path fill="rgb(0,0,0)" stroke="none" paint-order="stroke fill markers" d=" M 0.187 -0.231 L 0.134 -0.231 Q 0.11800000000000001 -0.166 0.11800000000000001 -0.127 Q 0.11800000000000001 -0.048 0.164 -0.021 Q 0.181 -0.011 0.20500000000000002 -0.011 Q 0.295 -0.011 0.367 -0.07100000000000001 Q 0.388 -0.088 0.405 -0.11 Q 0.41200000000000003 -0.12 0.418 -0.12 Q 0.427 -0.12 0.43 -0.107 Q 0.43 -0.096 0.396 -0.064 Q 0.313 0.011 0.203 0.011 Q 0.113 0.011 0.07100000000000001 -0.066 Q 0.046 -0.111 0.046 -0.17 Q 0.046 -0.301 0.148 -0.382 Q 0.223 -0.442 0.308 -0.442 Q 0.38 -0.442 0.406 -0.392 Q 0.41500000000000004 -0.376 0.41500000000000004 -0.357 Q 0.41500000000000004 -0.305 0.37 -0.271 L 0.369 -0.27 Q 0.356 -0.261 0.34 -0.254 Q 0.28500000000000003 -0.231 0.187 -0.231 M 0.14 -0.253 L 0.181 -0.253 Q 0.382 -0.253 0.382 -0.357 Q 0.382 -0.397 0.343 -0.41400000000000003 L 0.343 -0.41400000000000003 Q 0.329 -0.419 0.308 -0.42 Q 0.252 -0.42 0.20500000000000002 -0.374 Q 0.16 -0.33 0.14 -0.253 Z"/>
    </g>
    <g transform="translate(23.854710185714286,22.719046285714285) scale(0.7,0.7)">
      <path fill="rgb(0,0,0)" stroke="none" paint-order="stroke fill markers" d=" M 0.258 -0.683 L 0.114 -0.105 Q 0.108 -0.082 0.108 -0.057 Q 0.108 -0.011 0.138 -0.011 Q 0.177 -0.011 0.203 -0.097 Q 0.20800000000000002 -0.112 0.214 -0.135 Q 0.222 -0.152 0.228 -0.153 Q 0.24 -0.153 0.24 -0.14300000000000002 Q 0.24 -0.128 0.222 -0.074 Q 0.216 -0.057 0.21 -0.045 Q 0.184 0.011 0.135 0.011 Q 0.083 0.011 0.057 -0.031 Q 0.044 -0.053 0.044 -0.081 Q 0.044 -0.097 0.049 -0.115 L 0.17500000000000002 -0.615 L 0.178 -0.635 Q 0.178 -0.646 0.164 -0.649 Q 0.152 -0.652 0.129 -0.652 Q 0.106 -0.652 0.10400000000000001 -0.663 Q 0.10400000000000001 -0.681 0.123 -0.684 L 0.245 -0.6940000000000001 Q 0.258 -0.6940000000000001 0.258 -0.683 Z"/>
    </g>
  </g>
  <g transform="matrix(35, 0, 0, 35, 0, 0)" clip-path="url(#awqPqltexAlh)">
    <g transform="translate(19.6,7.654760571428572)">
      <path fill="rgb(0,0,0)" stroke="none" paint-order="stroke fill markers" d=" M 0.374 -0.605 L 0.23900000000000002 -0.065 Q 0.234 -0.047 0.234 -0.042 Q 0.234 -0.034 0.243 -0.032 L 0.243 -0.032 L 0.243 -0.032 L 0.247 -0.032 Q 0.253 -0.031 0.269 -0.031 L 0.363 -0.031 Q 0.509 -0.031 0.5750000000000001 -0.147 Q 0.592 -0.177 0.614 -0.23700000000000002 Q 0.622 -0.256 0.627 -0.257 L 0.628 -0.258 L 0.631 -0.258 Q 0.642 -0.258 0.643 -0.247 Q 0.643 -0.244 0.639 -0.233 L 0.56 -0.017 Q 0.555 -0.002 0.547 -0.001 L 0.547 -0.001 L 0.546 -0.001 Q 0.542 0 0.529 0 L 0.066 0 Q 0.041 0 0.039 -0.011 Q 0.039 -0.029 0.054 -0.031 L 0.066 -0.031 Q 0.131 -0.031 0.14400000000000002 -0.045 Q 0.15 -0.052000000000000005 0.156 -0.073 Q 0.156 -0.074 0.157 -0.078 L 0.291 -0.615 Q 0.295 -0.631 0.295 -0.634 Q 0.295 -0.646 0.279 -0.649 L 0.278 -0.649 L 0.277 -0.649 Q 0.274 -0.649 0.268 -0.65 Q 0.251 -0.652 0.23 -0.652 Q 0.20400000000000001 -0.652 0.202 -0.663 Q 0.202 -0.683 0.221 -0.683 L 0.353 -0.68 L 0.354 -0.68 L 0.501 -0.683 L 0.502 -0.683 Q 0.518 -0.683 0.518 -0.671 Q 0.518 -0.655 0.505 -0.653 Q 0.499 -0.652 0.48 -0.652 Q 0.401 -0.652 0.386 -0.635 Q 0.38 -0.628 0.374 -0.605 Z"/>
    </g>
  </g>
  <g transform="matrix(35, 0, 0, 35, 0, 0)" clip-path="url(#awqPqltexAlh)">
    <g transform="translate(9.685714285714285,9.123016428571429)">
      <path fill="rgb(0,0,0)" stroke="none" paint-order="stroke fill markers" d=" M 0.374 -0.605 L 0.23900000000000002 -0.065 Q 0.234 -0.047 0.234 -0.042 Q 0.234 -0.034 0.243 -0.032 L 0.243 -0.032 L 0.243 -0.032 L 0.247 -0.032 Q 0.253 -0.031 0.269 -0.031 L 0.363 -0.031 Q 0.509 -0.031 0.5750000000000001 -0.147 Q 0.592 -0.177 0.614 -0.23700000000000002 Q 0.622 -0.256 0.627 -0.257 L 0.628 -0.258 L 0.631 -0.258 Q 0.642 -0.258 0.643 -0.247 Q 0.643 -0.244 0.639 -0.233 L 0.56 -0.017 Q 0.555 -0.002 0.547 -0.001 L 0.547 -0.001 L 0.546 -0.001 Q 0.542 0 0.529 0 L 0.066 0 Q 0.041 0 0.039 -0.011 Q 0.039 -0.029 0.054 -0.031 L 0.066 -0.031 Q 0.131 -0.031 0.14400000000000002 -0.045 Q 0.15 -0.052000000000000005 0.156 -0.073 Q 0.156 -0.074 0.157 -0.078 L 0.291 -0.615 Q 0.295 -0.631 0.295 -0.634 Q 0.295 -0.646 0.279 -0.649 L 0.278 -0.649 L 0.277 -0.649 Q 0.274 -0.649 0.268 -0.65 Q 0.251 -0.652 0.23 -0.652 Q 0.20400000000000001 -0.652 0.202 -0.663 Q 0.202 -0.683 0.221 -0.683 L 0.353 -0.68 L 0.354 -0.68 L 0.501 -0.683 L 0.502 -0.683 Q 0.518 -0.683 0.518 -0.671 Q 0.518 -0.655 0.505 -0.653 Q 0.499 -0.652 0.48 -0.652 Q 0.401 -0.652 0.386 -0.635 Q 0.38 -0.628 0.374 -0.605 Z"/>
    </g>
    <g transform="translate(10.588494174603174,9.123016428571429)">
      <path fill="rgb(0,0,0)" stroke="none" paint-order="stroke fill markers" d=" M 0.661 -0.23 L 0.116 -0.23 Q 0.084 -0.23 0.083 -0.25 Q 0.083 -0.27 0.116 -0.27 L 0.661 -0.27 Q 0.6930000000000001 -0.27 0.6940000000000001 -0.25 Q 0.6940000000000001 -0.23 0.661 -0.23 Z"/>
    </g>
    <g transform="translate(11.588498063492061,9.123016428571429)">
      <path fill="rgb(0,0,0)" stroke="none" paint-order="stroke fill markers" d=" M 0.28700000000000003 -0.683 L 0.209 -0.365 Q 0.271 -0.442 0.357 -0.442 Q 0.446 -0.442 0.467 -0.373 L 0.467 -0.372 Q 0.47200000000000003 -0.355 0.47200000000000003 -0.335 Q 0.47200000000000003 -0.279 0.41100000000000003 -0.115 Q 0.393 -0.07100000000000001 0.393 -0.044 Q 0.393 -0.011 0.417 -0.011 Q 0.47900000000000004 -0.011 0.515 -0.121 L 0.519 -0.135 Q 0.524 -0.151 0.529 -0.152 L 0.529 -0.153 L 0.534 -0.153 Q 0.546 -0.153 0.546 -0.14300000000000002 Q 0.546 -0.126 0.525 -0.08 Q 0.482 0.011 0.41500000000000004 0.011 Q 0.364 0.011 0.342 -0.032 Q 0.333 -0.05 0.333 -0.07100000000000001 Q 0.333 -0.089 0.34600000000000003 -0.126 Q 0.40800000000000003 -0.28400000000000003 0.40800000000000003 -0.35000000000000003 Q 0.40800000000000003 -0.42 0.354 -0.42 Q 0.306 -0.42 0.258 -0.385 Q 0.221 -0.356 0.193 -0.299 L 0.19 -0.293 Q 0.186 -0.269 0.179 -0.248 Q 0.17400000000000002 -0.225 0.162 -0.181 L 0.14 -0.091 L 0.121 -0.015 Q 0.114 0.006 0.09 0.01 Q 0.08700000000000001 0.011 0.084 0.011 Q 0.06 0.011 0.056 -0.01 Q 0.055 -0.014 0.055 -0.017 Q 0.055 -0.025 0.059000000000000004 -0.039 L 0.20400000000000001 -0.615 L 0.20700000000000002 -0.635 Q 0.20700000000000002 -0.646 0.193 -0.649 L 0.193 -0.649 Q 0.181 -0.652 0.157 -0.652 Q 0.135 -0.652 0.133 -0.664 Q 0.133 -0.681 0.152 -0.684 L 0.274 -0.6940000000000001 Q 0.28700000000000003 -0.6940000000000001 0.28700000000000003 -0.683 Z"/>
    </g>
  </g>
  <g transform="matrix(35, 0, 0, 35, 0, 0)" clip-path="url(#awqPqltexAlh)">
    <g transform="translate(11.514285714285714,15.294445)">
      <path fill="rgb(0,0,0)" stroke="none" paint-order="stroke fill markers" d=" M 0.28700000000000003 -0.683 L 0.209 -0.365 Q 0.271 -0.442 0.357 -0.442 Q 0.446 -0.442 0.467 -0.373 L 0.467 -0.372 Q 0.47200000000000003 -0.355 0.47200000000000003 -0.335 Q 0.47200000000000003 -0.279 0.41100000000000003 -0.115 Q 0.393 -0.07100000000000001 0.393 -0.044 Q 0.393 -0.011 0.417 -0.011 Q 0.47900000000000004 -0.011 0.515 -0.121 L 0.519 -0.135 Q 0.524 -0.151 0.529 -0.152 L 0.529 -0.153 L 0.534 -0.153 Q 0.546 -0.153 0.546 -0.14300000000000002 Q 0.546 -0.126 0.525 -0.08 Q 0.482 0.011 0.41500000000000004 0.011 Q 0.364 0.011 0.342 -0.032 Q 0.333 -0.05 0.333 -0.07100000000000001 Q 0.333 -0.089 0.34600000000000003 -0.126 Q 0.40800000000000003 -0.28400000000000003 0.40800000000000003 -0.35000000000000003 Q 0.40800000000000003 -0.42 0.354 -0.42 Q 0.306 -0.42 0.258 -0.385 Q 0.221 -0.356 0.193 -0.299 L 0.19 -0.293 Q 0.186 -0.269 0.179 -0.248 Q 0.17400000000000002 -0.225 0.162 -0.181 L 0.14 -0.091 L 0.121 -0.015 Q 0.114 0.006 0.09 0.01 Q 0.08700000000000001 0.011 0.084 0.011 Q 0.06 0.011 0.056 -0.01 Q 0.055 -0.014 0.055 -0.017 Q 0.055 -0.025 0.059000000000000004 -0.039 L 0.20400000000000001 -0.615 L 0.20700000000000002 -0.635 Q 0.20700000000000002 -0.646 0.193 -0.649 L 0.193 -0.649 Q 0.181 -0.652 0.157 -0.652 Q 0.135 -0.652 0.133 -0.664 Q 0.133 -0.681 0.152 -0.684 L 0.274 -0.6940000000000001 Q 0.28700000000000003 -0.6940000000000001 0.28700000000000003 -0.683 Z"/>
    </g>
  </g>
  <g transform="matrix(35, 0, 0, 35, 0, 0)" clip-path="url(#awqPqltexAlh)">
    <g transform="translate(16.942857142857143,14.887697857142857)">
      <path fill="rgb(0,0,0)" stroke="none" paint-order="stroke fill markers" d=" M 0.391 -0.374 L 0.391 -0.374 Q 0.37 -0.418 0.301 -0.42 Q 0.22 -0.42 0.195 -0.359 Q 0.189 -0.34400000000000003 0.189 -0.33 Q 0.189 -0.291 0.23700000000000002 -0.277 L 0.23700000000000002 -0.277 L 0.23800000000000002 -0.276 Q 0.245 -0.274 0.265 -0.27 Q 0.327 -0.257 0.34800000000000003 -0.242 Q 0.357 -0.23600000000000002 0.365 -0.228 Q 0.396 -0.197 0.396 -0.155 Q 0.396 -0.10300000000000001 0.357 -0.056 Q 0.301 0.011 0.195 0.011 Q 0.10200000000000001 0.011 0.066 -0.041 Q 0.052000000000000005 -0.061 0.052000000000000005 -0.08600000000000001 Q 0.052000000000000005 -0.135 0.09 -0.149 Q 0.099 -0.152 0.108 -0.152 Q 0.14100000000000001 -0.147 0.145 -0.117 Q 0.145 -0.08600000000000001 0.11800000000000001 -0.07100000000000001 Q 0.10200000000000001 -0.061 0.082 -0.064 Q 0.105 -0.011 0.196 -0.011 Q 0.299 -0.011 0.331 -0.08600000000000001 Q 0.339 -0.105 0.339 -0.121 Q 0.339 -0.169 0.28 -0.187 L 0.28 -0.187 L 0.279 -0.187 Q 0.264 -0.191 0.23500000000000001 -0.197 Q 0.145 -0.216 0.134 -0.277 Q 0.132 -0.28600000000000003 0.132 -0.296 Q 0.132 -0.34600000000000003 0.17 -0.389 Q 0.217 -0.442 0.301 -0.442 Q 0.38 -0.442 0.41000000000000003 -0.393 Q 0.42 -0.376 0.42 -0.356 Q 0.42 -0.311 0.386 -0.302 Q 0.38 -0.3 0.374 -0.3 Q 0.34600000000000003 -0.304 0.343 -0.329 Q 0.343 -0.356 0.37 -0.369 Q 0.38 -0.374 0.391 -0.374 Z"/>
    </g>
  </g>
</svg>