<?xml version="1.0" encoding="utf-8"?>
<svg viewBox="245.787 265.245 839.77 456.753" width="839.77" height="456.753" xmlns="http://www.w3.org/2000/svg">
  <defs>
    <clipPath id="TKblEXoTDliO">
      <path fill="none" stroke="none" d=" M 0 0 L 1540 0 L 1540 892 L 0 892 L 0 0 Z"/>
    </clipPath>
  </defs>
  <path fill="none" stroke="rgb(97,97,97)" paint-order="fill stroke markers" d="M 1013.768 286.213 L 1013.768 696.488" stroke-opacity="0.8" stroke-linecap="round" stroke-linejoin="round" stroke-miterlimit="10" stroke-width="2.5" clip-path="url(#TKblEXoTDliO)"/>
  <path fill="none" stroke="rgb(21,101,192)" paint-order="fill stroke markers" d="M 1013.768 446 L 1013.768 594.356" stroke-opacity="0.8" stroke-linecap="round" stroke-linejoin="round" stroke-miterlimit="10" stroke-width="5" clip-path="url(#TKblEXoTDliO)"/>
  <path fill="none" stroke="rgb(21,101,192)" paint-order="fill stroke markers" d="M 642 446 L 642 518.152" stroke-opacity="0.8" stroke-linecap="round" stroke-linejoin="round" stroke-miterlimit="10" stroke-width="5" clip-path="url(#TKblEXoTDliO)"/>
  <path fill="none" stroke="rgb(97,97,97)" paint-order="fill stroke markers" d="M 290 446 L 1013.768 446" stroke-opacity="0.8" stroke-linecap="round" stroke-linejoin="round" stroke-miterlimit="10" stroke-width="2.5" clip-path="url(#TKblEXoTDliO)"/>
  <path fill="none" stroke="rgb(97,97,97)" paint-order="fill stroke markers" d="M 290 446 L 1013.768 594.356" stroke-opacity="0.8" stroke-linecap="round" stroke-linejoin="round" stroke-miterlimit="10" stroke-width="2.5" clip-path="url(#TKblEXoTDliO)"/>
  <path fill="none" stroke="rgb(97,97,97)" paint-order="fill stroke markers" d="M 290 341.567 L 290 381.156" stroke-opacity="0.8" stroke-linecap="round" stroke-linejoin="round" stroke-miterlimit="10" stroke-width="2.5" clip-path="url(#TKblEXoTDliO)"/>
  <path fill="none" stroke="rgb(97,97,97)" paint-order="fill stroke markers" d="M 290 381.156 L 290 420.744" stroke-opacity="0.8" stroke-linecap="round" stroke-linejoin="round" stroke-miterlimit="10" stroke-width="2.5" clip-path="url(#TKblEXoTDliO)"/>
  <path fill="none" stroke="rgb(97,97,97)" paint-order="fill stroke markers" d="M 642 381.156 L 642 420.744" stroke-opacity="0.8" stroke-linecap="round" stroke-linejoin="round" stroke-miterlimit="10" stroke-width="2.5" clip-path="url(#TKblEXoTDliO)"/>
  <path fill="none" stroke="rgb(97,97,97)" paint-order="fill stroke markers" d="M 1013.768 341.567 L 1013.768 381.156" stroke-opacity="0.8" stroke-linecap="round" stroke-linejoin="round" stroke-miterlimit="10" stroke-width="2.5" clip-path="url(#TKblEXoTDliO)"/>
  <path fill="none" stroke="rgb(97,97,97)" paint-order="fill stroke markers" d="M 651.884 361.361 L 996.768 361.361" stroke-opacity="0.8" stroke-linecap="round" stroke-linejoin="round" stroke-miterlimit="10" stroke-width="2.5" clip-path="url(#TKblEXoTDliO)"/>
  <path fill="rgb(97,97,97)" stroke="none" paint-order="stroke fill markers" fill-rule="evenodd" d="M 1013.768 361.361 L 996.768 365.611 L 996.768 357.111 Z" fill-opacity="0.8" clip-path="url(#TKblEXoTDliO)"/>
  <path fill="none" stroke="rgb(97,97,97)" paint-order="fill stroke markers" d="M 651.884 361.361 L 307 361.361" stroke-opacity="0.8" stroke-linecap="round" stroke-linejoin="round" stroke-miterlimit="10" stroke-width="2.5" clip-path="url(#TKblEXoTDliO)"/>
  <path fill="rgb(97,97,97)" stroke="none" paint-order="stroke fill markers" fill-rule="evenodd" d="M 290 361.361 L 307 357.111 L 307 365.611 Z" fill-opacity="0.8" clip-path="url(#TKblEXoTDliO)"/>
  <path fill="none" stroke="rgb(97,97,97)" paint-order="fill stroke markers" d="M 466 400.95 L 625 400.95" stroke-opacity="0.8" stroke-linecap="round" stroke-linejoin="round" stroke-miterlimit="10" stroke-width="2.5" clip-path="url(#TKblEXoTDliO)"/>
  <path fill="rgb(97,97,97)" stroke="none" paint-order="stroke fill markers" fill-rule="evenodd" d="M 642 400.95 L 625 405.2 L 625 396.7 Z" fill-opacity="0.8" clip-path="url(#TKblEXoTDliO)"/>
  <path fill="none" stroke="rgb(97,97,97)" paint-order="fill stroke markers" d="M 466 400.95 L 307 400.95" stroke-opacity="0.8" stroke-linecap="round" stroke-linejoin="round" stroke-miterlimit="10" stroke-width="2.5" clip-path="url(#TKblEXoTDliO)"/>
  <path fill="rgb(97,97,97)" stroke="none" paint-order="stroke fill markers" fill-rule="evenodd" d="M 290 400.95 L 307 396.7 L 307 405.2 Z" fill-opacity="0.8" clip-path="url(#TKblEXoTDliO)"/>
  <path fill="rgb(255,215,0)" stroke="none" paint-order="stroke fill markers" d="M 299 446 C 299 450.971 294.971 455 290 455 C 285.029 455 281 450.971 281 446 C 281 441.029 285.029 437 290 437 C 294.971 437 299 441.029 299 446 Z" fill-opacity="1" clip-path="url(#TKblEXoTDliO)"/>
  <path fill="none" stroke="rgb(0,0,0)" paint-order="fill stroke markers" d="M 299 446 C 299 450.971 294.971 455 290 455 C 285.029 455 281 450.971 281 446 C 281 441.029 285.029 437 290 437 C 294.971 437 299 441.029 299 446 Z" stroke-opacity="1" stroke-linecap="round" stroke-linejoin="round" stroke-miterlimit="10" clip-path="url(#TKblEXoTDliO)"/>
  <path fill="rgb(219,97,20)" stroke="none" paint-order="stroke fill markers" d="M 651 446 C 651 450.971 646.971 455 642 455 C 637.029 455 633 450.971 633 446 C 633 441.029 637.029 437 642 437 C 646.971 437 651 441.029 651 446 Z" fill-opacity="1" clip-path="url(#TKblEXoTDliO)"/>
  <path fill="rgb(219,97,20)" stroke="none" paint-order="stroke fill markers" d="M 651 518.152 C 651 523.122 646.971 527.152 642 527.152 C 637.029 527.152 633 523.122 633 518.152 C 633 513.181 637.029 509.152 642 509.152 C 646.971 509.152 651 513.181 651 518.152 Z" fill-opacity="1" clip-path="url(#TKblEXoTDliO)"/>
  <path fill="rgb(219,97,20)" stroke="none" paint-order="stroke fill markers" d="M 1022.768 446 C 1022.768 450.971 1018.738 455 1013.768 455 C 1008.797 455 1004.768 450.971 1004.768 446 C 1004.768 441.029 1008.797 437 1013.768 437 C 1018.738 437 1022.768 441.029 1022.768 446 Z" fill-opacity="1" clip-path="url(#TKblEXoTDliO)"/>
  <path fill="rgb(219,97,20)" stroke="none" paint-order="stroke fill markers" d="M 1022.768 594.356 C 1022.768 599.326 1018.738 603.356 1013.768 603.356 C 1008.797 603.356 1004.768 599.326 1004.768 594.356 C 1004.768 589.385 1008.797 585.356 1013.768 585.356 C 1018.738 585.356 1022.768 589.385 1022.768 594.356 Z" fill-opacity="1" clip-path="url(#TKblEXoTDliO)"/>
  <g transform="matrix(35, 0, 0, 35, 0, 0)" clip-path="url(#TKblEXoTDliO)">
    <g transform="translate(19.085714285714285,14.059126428571428)">
      <path fill="rgb(0,0,0)" stroke="none" paint-order="stroke fill markers" d=" M 0.391 -0.374 L 0.391 -0.374 Q 0.37 -0.418 0.301 -0.42 Q 0.22 -0.42 0.195 -0.359 Q 0.189 -0.34400000000000003 0.189 -0.33 Q 0.189 -0.291 0.23700000000000002 -0.277 L 0.23700000000000002 -0.277 L 0.23800000000000002 -0.276 Q 0.245 -0.274 0.265 -0.27 Q 0.327 -0.257 0.34800000000000003 -0.242 Q 0.357 -0.23600000000000002 0.365 -0.228 Q 0.396 -0.197 0.396 -0.155 Q 0.396 -0.10300000000000001 0.357 -0.056 Q 0.301 0.011 0.195 0.011 Q 0.10200000000000001 0.011 0.066 -0.041 Q 0.052000000000000005 -0.061 0.052000000000000005 -0.08600000000000001 Q 0.052000000000000005 -0.135 0.09 -0.149 Q 0.099 -0.152 0.108 -0.152 Q 0.14100000000000001 -0.147 0.145 -0.117 Q 0.145 -0.08600000000000001 0.11800000000000001 -0.07100000000000001 Q 0.10200000000000001 -0.061 0.082 -0.064 Q 0.105 -0.011 0.196 -0.011 Q 0.299 -0.011 0.331 -0.08600000000000001 Q 0.339 -0.105 0.339 -0.121 Q 0.339 -0.169 0.28 -0.187 L 0.28 -0.187 L 0.279 -0.187 Q 0.264 -0.191 0.23500000000000001 -0.197 Q 0.145 -0.216 0.134 -0.277 Q 0.132 -0.28600000000000003 0.132 -0.296 Q 0.132 -0.34600000000000003 0.17 -0.389 Q 0.217 -0.442 0.301 -0.442 Q 0.38 -0.442 0.41000000000000003 -0.393 Q 0.42 -0.376 0.42 -0.356 Q 0.42 -0.311 0.386 -0.302 Q 0.38 -0.3 0.374 -0.3 Q 0.34600000000000003 -0.304 0.343 -0.329 Q 0.343 -0.356 0.37 -0.369 Q 0.38 -0.374 0.391 -0.374 Z"/>
    </g>
  </g>
  <g transform="matrix(35, 0, 0, 35, 0, 0)" clip-path="url(#TKblEXoTDliO)">
    <g transform="translate(29.885714285714286,14.887496185714285)">
      <path fill="rgb(0,0,0)" stroke="none" paint-order="stroke fill markers" d=" M 0.391 -0.374 L 0.391 -0.374 Q 0.37 -0.418 0.301 -0.42 Q 0.22 -0.42 0.195 -0.359 Q 0.189 -0.34400000000000003 0.189 -0.33 Q 0.189 -0.291 0.23700000000000002 -0.277 L 0.23700000000000002 -0.277 L 0.23800000000000002 -0.276 Q 0.245 -0.274 0.265 -0.27 Q 0.327 -0.257 0.34800000000000003 -0.242 Q 0.357 -0.23600000000000002 0.365 -0.228 Q 0.396 -0.197 0.396 -0.155 Q 0.396 -0.10300000000000001 0.357 -0.056 Q 0.301 0.011 0.195 0.011 Q 0.10200000000000001 0.011 0.066 -0.041 Q 0.052000000000000005 -0.061 0.052000000000000005 -0.08600000000000001 Q 0.052000000000000005 -0.135 0.09 -0.149 Q 0.099 -0.152 0.108 -0.152 Q 0.14100000000000001 -0.147 0.145 -0.117 Q 0.145 -0.08600000000000001 0.11800000000000001 -0.07100000000000001 Q 0.10200000000000001 -0.061 0.082 -0.064 Q 0.105 -0.011 0.196 -0.011 Q 0.299 -0.011 0.331 -0.08600000000000001 Q 0.339 -0.105 0.339 -0.121 Q 0.339 -0.169 0.28 -0.187 L 0.28 -0.187 L 0.279 -0.187 Q 0.264 -0.191 0.23500000000000001 -0.197 Q 0.145 -0.216 0.134 -0.277 Q 0.132 -0.28600000000000003 0.132 -0.296 Q 0.132 -0.34600000000000003 0.17 -0.389 Q 0.217 -0.442 0.301 -0.442 Q 0.38 -0.442 0.41000000000000003 -0.393 Q 0.42 -0.376 0.42 -0.356 Q 0.42 -0.311 0.386 -0.302 Q 0.38 -0.3 0.374 -0.3 Q 0.34600000000000003 -0.304 0.343 -0.329 Q 0.343 -0.356 0.37 -0.369 Q 0.38 -0.374 0.391 -0.374 Z"/>
    </g>
    <g transform="translate(30.354464285714286,14.474604185714286) scale(0.7,0.7)">
      <path fill="rgb(0,0,0)" stroke="none" paint-order="stroke fill markers" d=" M 0.255 -0.47900000000000004 L 0.076 -0.059000000000000004 Q 0.07 -0.045 0.063 -0.045 Q 0.045 -0.045 0.033 -0.056 Q 0.029 -0.059000000000000004 0.029 -0.063 Q 0.029 -0.065 0.032 -0.077 L 0.153 -0.513 Q 0.166 -0.554 0.197 -0.558 Q 0.202 -0.559 0.20600000000000002 -0.559 Q 0.24 -0.559 0.256 -0.53 Q 0.262 -0.519 0.262 -0.507 Q 0.262 -0.494 0.255 -0.47900000000000004 Z"/>
    </g>
  </g>
  <g transform="matrix(35, 0, 0, 35, 0, 0)" clip-path="url(#TKblEXoTDliO)">
    <g transform="translate(13.114285714285714,12.373412142857143)">
      <path fill="rgb(0,0,0)" stroke="none" paint-order="stroke fill markers" d=" M 0.373 -0.378 Q 0.378 -0.41200000000000003 0.404 -0.42 Q 0.40900000000000003 -0.422 0.41500000000000004 -0.422 Q 0.441 -0.422 0.444 -0.395 Q 0.444 -0.389 0.437 -0.361 L 0.401 -0.221 Q 0.386 -0.158 0.379 -0.131 Q 0.366 -0.079 0.366 -0.057 Q 0.366 -0.011 0.396 -0.011 Q 0.434 -0.011 0.46 -0.091 Q 0.465 -0.108 0.47200000000000003 -0.135 Q 0.48 -0.152 0.486 -0.153 Q 0.498 -0.153 0.498 -0.14300000000000002 Q 0.498 -0.128 0.48 -0.073 Q 0.47400000000000003 -0.056 0.468 -0.044 Q 0.44 0.011 0.394 0.011 Q 0.338 0.011 0.313 -0.037 Q 0.306 -0.049 0.303 -0.064 Q 0.24 0.011 0.17300000000000001 0.011 Q 0.098 0.011 0.062 -0.057 Q 0.04 -0.097 0.04 -0.149 Q 0.04 -0.257 0.115 -0.34900000000000003 Q 0.185 -0.433 0.267 -0.441 Q 0.274 -0.442 0.281 -0.442 Q 0.342 -0.442 0.373 -0.378 M 0.308 -0.11900000000000001 L 0.308 -0.11900000000000001 L 0.358 -0.315 Q 0.361 -0.33 0.361 -0.332 Q 0.361 -0.353 0.343 -0.383 Q 0.321 -0.42 0.28200000000000003 -0.42 Q 0.23 -0.42 0.183 -0.352 Q 0.17400000000000002 -0.339 0.166 -0.324 Q 0.137 -0.266 0.117 -0.159 Q 0.111 -0.125 0.111 -0.105 Q 0.111 -0.037 0.149 -0.017 Q 0.16 -0.011 0.17500000000000002 -0.011 Q 0.231 -0.011 0.28800000000000003 -0.082 Q 0.302 -0.098 0.307 -0.115 L 0.307 -0.116 Q 0.308 -0.11800000000000001 0.308 -0.11900000000000001 Z"/>
    </g>
  </g>
  <g transform="matrix(35, 0, 0, 35, 0, 0)" clip-path="url(#TKblEXoTDliO)">
    <g transform="translate(18.02857142857143,9.716067614285715)">
      <path fill="rgb(0,0,0)" stroke="none" paint-order="stroke fill markers" d=" M 0.373 -0.378 Q 0.378 -0.41200000000000003 0.404 -0.42 Q 0.40900000000000003 -0.422 0.41500000000000004 -0.422 Q 0.441 -0.422 0.444 -0.395 Q 0.444 -0.389 0.437 -0.361 L 0.401 -0.221 Q 0.386 -0.158 0.379 -0.131 Q 0.366 -0.079 0.366 -0.057 Q 0.366 -0.011 0.396 -0.011 Q 0.434 -0.011 0.46 -0.091 Q 0.465 -0.108 0.47200000000000003 -0.135 Q 0.48 -0.152 0.486 -0.153 Q 0.498 -0.153 0.498 -0.14300000000000002 Q 0.498 -0.128 0.48 -0.073 Q 0.47400000000000003 -0.056 0.468 -0.044 Q 0.44 0.011 0.394 0.011 Q 0.338 0.011 0.313 -0.037 Q 0.306 -0.049 0.303 -0.064 Q 0.24 0.011 0.17300000000000001 0.011 Q 0.098 0.011 0.062 -0.057 Q 0.04 -0.097 0.04 -0.149 Q 0.04 -0.257 0.115 -0.34900000000000003 Q 0.185 -0.433 0.267 -0.441 Q 0.274 -0.442 0.281 -0.442 Q 0.342 -0.442 0.373 -0.378 M 0.308 -0.11900000000000001 L 0.308 -0.11900000000000001 L 0.358 -0.315 Q 0.361 -0.33 0.361 -0.332 Q 0.361 -0.353 0.343 -0.383 Q 0.321 -0.42 0.28200000000000003 -0.42 Q 0.23 -0.42 0.183 -0.352 Q 0.17400000000000002 -0.339 0.166 -0.324 Q 0.137 -0.266 0.117 -0.159 Q 0.111 -0.125 0.111 -0.105 Q 0.111 -0.037 0.149 -0.017 Q 0.16 -0.011 0.17500000000000002 -0.011 Q 0.231 -0.011 0.28800000000000003 -0.082 Q 0.302 -0.098 0.307 -0.115 L 0.307 -0.116 Q 0.308 -0.11800000000000001 0.308 -0.11900000000000001 Z"/>
    </g>
    <g transform="translate(18.55716142857143,9.303175614285715) scale(0.7,0.7)">
      <path fill="rgb(0,0,0)" stroke="none" paint-order="stroke fill markers" d=" M 0.255 -0.47900000000000004 L 0.076 -0.059000000000000004 Q 0.07 -0.045 0.063 -0.045 Q 0.045 -0.045 0.033 -0.056 Q 0.029 -0.059000000000000004 0.029 -0.063 Q 0.029 -0.065 0.032 -0.077 L 0.153 -0.513 Q 0.166 -0.554 0.197 -0.558 Q 0.202 -0.559 0.20600000000000002 -0.559 Q 0.24 -0.559 0.256 -0.53 Q 0.262 -0.519 0.262 -0.507 Q 0.262 -0.494 0.255 -0.47900000000000004 Z"/>
    </g>
  </g>
</svg>