<?xml version="1.0" encoding="utf-8"?>
<svg viewBox="20.663 15.205 513.835 602.172" width="513.835" height="602.172" xmlns="http://www.w3.org/2000/svg" xmlns:bx="https://boxy-svg.com">
  <line style="stroke: rgb(0, 0, 0);" x1="67.556" y1="30.981" x2="67.556" y2="156.566"/>
  <line style="stroke: rgb(0, 0, 0);" x1="67.556" y1="523.851" x2="67.556" y2="185.038" transform="matrix(-1, 0, 0, -1, 135.112, 708.889038)"/>
  <line style="stroke: rgb(0, 0, 0);" x1="67.556" y1="546.859" x2="67.556" y2="605.302"/>
  <line style="stroke: rgb(253, 1, 1);" x1="67.556" y1="170.045" x2="514.081" y2="36.738"/>
  <line style="stroke: rgb(255, 3, 3);" x1="68.616" y1="535.233" x2="514.081" y2="402.243"/>
  <line style="stroke: rgb(164, 163, 163);" x1="-48.613" y1="387.065" x2="285.637" y2="287.273" transform="matrix(0, 1, -1, 0, 455.681, 218.656998)"/>
  <path style="stroke: rgb(0, 0, 0); fill: none;" d="M 158.482 470.572 C 137.914 478.408 128.842 494.174 134.077 515.964"/>
  <ellipse style="" cx="152.404" cy="496.547" rx="2.924" ry="2.924"/>
  <line style="stroke: rgb(164, 163, 163);" x1="68.616" y1="170.045" x2="514.081" y2="170.045"/>
  <path style="fill: none; stroke: rgb(79, 130, 187);" d="M 153.826 144.07 C 156.778 154.163 156.602 155.524 157.207 170.06"/>
  <path d="M 144.237 156.016 C 143.837 156.016 143.837 156.016 143.717 156.466 C 143.327 157.866 142.687 159.246 141.967 160.346 L 141.967 159.666 C 141.947 158.896 141.897 158.566 141.807 158.106 C 141.307 156.136 139.957 154.876 137.847 154.876 C 137.657 154.876 137.477 154.896 137.337 154.896 C 134.457 155.196 131.947 157.826 131.487 160.586 C 131.437 160.836 131.417 161.216 131.417 161.566 C 131.417 161.756 131.417 161.936 131.437 162.076 C 131.737 164.026 133.077 165.476 135.367 165.476 C 137.967 165.476 140.237 163.576 140.237 163.606 C 140.237 163.606 140.277 163.696 140.307 163.766 C 140.607 164.706 141.217 165.446 142.437 165.446 L 142.597 165.446 C 143.467 165.446 144.147 164.816 144.447 164.206 C 144.537 164.026 144.587 163.886 144.587 163.786 C 144.587 163.626 144.447 163.576 144.117 163.576 C 143.747 163.576 143.717 163.606 143.647 163.816 C 143.487 164.236 143.067 164.556 142.647 164.606 C 142.527 164.606 142.507 164.606 142.437 164.556 C 142.197 164.346 142.057 163.626 142.017 162.336 L 141.987 161.776 L 142.247 161.446 C 143.327 160.026 144.187 158.286 144.637 156.586 C 144.707 156.346 144.727 156.256 144.727 156.206 C 144.727 156.016 144.587 156.016 144.237 156.016 Z M 133.447 162.406 C 133.447 161.776 133.587 161.006 133.917 159.806 C 134.197 158.736 134.497 158.036 134.897 157.446 C 135.647 156.396 136.727 155.736 137.727 155.736 C 139.887 155.736 139.957 158.146 139.997 160.956 C 140.027 161.846 140.047 162.576 140.047 162.596 C 140.067 162.616 139.717 162.926 139.397 163.156 C 138.547 163.786 137.687 164.206 136.837 164.416 C 136.377 164.536 135.887 164.606 135.487 164.606 C 134.177 164.606 133.447 163.746 133.447 162.406 Z" transform="matrix(1, 0, 0, 1, 0, 0)" style="fill: rgb(51, 51, 51); white-space: pre;"/>
  <path style="fill: none; stroke: rgb(40, 180, 40);" d="M 115.137 170.568 C 112.831 205.509 86.982 217.816 67.395 218.113"/>
  <path style="fill: none; stroke: rgb(40, 180, 40);" d="M 67.597 141.478 C 89.835 142.088 96.648 158.322 97.038 170.441"/>
  <ellipse style="fill: rgb(40, 180, 40);" cx="79.814" cy="158.44" rx="2.535" ry="2.535"/>
  <path style="fill: none; stroke: rgb(255, 191, 0);" d="M 67.515 80.731 C 112.07 83.306 141.264 106.958 153.782 144.354"/>
  <path d="M 96.215 135.057 L 96.575 135.057 C 96.985 135.057 97.065 135.027 97.115 134.887 L 98.865 127.987 C 98.975 127.877 99.495 130.027 102.445 130.027 C 102.795 130.027 103.175 130.027 103.455 129.977 C 106.725 129.457 109.975 126.837 109.975 122.877 C 109.975 121.347 109.405 120.117 108.585 119.297 L 108.225 118.947 C 109.945 117.797 111.065 115.997 111.065 114.197 C 111.065 111.987 109.455 110.507 107.195 110.507 C 106.975 110.507 106.755 110.537 106.615 110.537 C 105.665 110.677 104.705 111.087 103.865 111.797 C 103.475 112.067 102.855 112.747 102.555 113.127 C 101.675 114.227 100.965 115.617 100.505 117.067 C 100.365 117.527 96.055 134.697 96.055 134.837 C 96.055 134.887 96.165 134.997 96.215 135.057 Z M 105.065 117.987 C 103.535 117.987 102.825 118.207 102.555 118.757 C 102.495 118.887 102.465 119.027 102.465 119.137 C 102.465 119.897 103.665 119.987 104.625 119.987 C 105.685 119.987 106.205 119.847 106.945 119.597 C 107.575 120.227 107.905 120.937 107.905 122.137 L 107.905 122.307 C 107.735 125.797 105.995 129.047 102.525 129.047 C 100.695 129.047 99.545 127.787 99.545 125.747 C 99.545 125.527 99.545 125.307 99.575 125.167 C 99.625 124.817 101.375 117.877 101.545 117.337 C 102.495 114.337 104.185 112.177 106.075 111.657 C 106.375 111.577 106.725 111.547 107.055 111.547 C 108.175 111.547 108.885 112.067 109.125 112.937 C 109.155 113.077 109.155 113.327 109.155 113.567 C 109.155 113.897 109.155 114.227 109.105 114.467 C 108.855 116.057 108.285 117.417 107.245 118.177 L 107.085 118.317 C 106.425 118.097 105.935 117.987 105.065 117.987 Z" transform="matrix(1, 0, 0, 1, 0, 0)" style="fill: rgb(51, 51, 51); white-space: pre;"/>
  <path style="fill: none; stroke: rgb(255, 191, 0);" d="M 157.208 170.138 C 154.984 224.832 113.2 251.159 93.671 255.638"/>
  <path d="M 112.877 216.308 L 113.177 216.308 C 113.527 216.308 113.597 216.288 113.647 216.168 L 115.147 210.248 C 115.237 210.158 115.687 211.998 118.207 211.998 C 118.517 211.998 118.847 211.998 119.077 211.958 C 121.887 211.508 124.667 209.268 124.667 205.868 C 124.667 204.558 124.177 203.508 123.477 202.808 L 123.167 202.498 C 124.647 201.518 125.607 199.978 125.607 198.428 C 125.607 196.538 124.227 195.268 122.287 195.268 C 122.097 195.268 121.907 195.298 121.787 195.298 C 120.977 195.408 120.157 195.758 119.427 196.368 C 119.097 196.608 118.557 197.188 118.307 197.518 C 117.557 198.458 116.947 199.648 116.547 200.888 C 116.437 201.288 112.737 216.008 112.737 216.118 C 112.737 216.168 112.827 216.258 112.877 216.308 Z M 120.457 201.678 C 119.147 201.678 118.537 201.868 118.307 202.338 C 118.257 202.458 118.237 202.568 118.237 202.668 C 118.237 203.318 119.267 203.388 120.087 203.388 C 120.997 203.388 121.437 203.278 122.067 203.068 C 122.607 203.598 122.887 204.208 122.887 205.238 L 122.887 205.378 C 122.747 208.378 121.257 211.158 118.277 211.158 C 116.717 211.158 115.727 210.088 115.727 208.328 C 115.727 208.138 115.727 207.958 115.757 207.838 C 115.797 207.528 117.297 201.588 117.437 201.118 C 118.257 198.548 119.707 196.698 121.327 196.258 C 121.577 196.188 121.887 196.158 122.167 196.158 C 123.127 196.158 123.737 196.608 123.947 197.358 C 123.967 197.468 123.967 197.678 123.967 197.888 C 123.967 198.168 123.967 198.458 123.917 198.668 C 123.707 200.018 123.217 201.188 122.327 201.848 L 122.187 201.968 C 121.627 201.778 121.207 201.678 120.457 201.678 Z" transform="matrix(1, 0, 0, 1, 0, 0)" style="fill: rgb(51, 51, 51); white-space: pre;"/>
  <path style="fill: none; stroke: rgb(79, 130, 187);" d="M 94.221 255.522 C 83.185 258.301 77.841 259.207 67.397 259.549"/>
  <path style="fill: rgb(216, 216, 216); stroke: rgb(0, 0, 0);" d="M 92.183 178.444"/>
  <path d="M 84.645 237.705 C 84.245 237.705 84.245 237.705 84.125 238.155 C 83.735 239.555 83.095 240.935 82.375 242.035 L 82.375 241.355 C 82.355 240.585 82.305 240.255 82.215 239.795 C 81.715 237.825 80.365 236.565 78.255 236.565 C 78.065 236.565 77.885 236.585 77.745 236.585 C 74.865 236.885 72.355 239.515 71.895 242.275 C 71.845 242.525 71.825 242.905 71.825 243.255 C 71.825 243.445 71.825 243.625 71.845 243.765 C 72.145 245.715 73.485 247.165 75.775 247.165 C 78.375 247.165 80.645 245.265 80.645 245.295 C 80.645 245.295 80.685 245.385 80.715 245.455 C 81.015 246.395 81.625 247.135 82.845 247.135 L 83.005 247.135 C 83.875 247.135 84.555 246.505 84.855 245.895 C 84.945 245.715 84.995 245.575 84.995 245.475 C 84.995 245.315 84.855 245.265 84.525 245.265 C 84.155 245.265 84.125 245.295 84.055 245.505 C 83.895 245.925 83.475 246.245 83.055 246.295 C 82.935 246.295 82.915 246.295 82.845 246.245 C 82.605 246.035 82.465 245.315 82.425 244.025 L 82.395 243.465 L 82.655 243.135 C 83.735 241.715 84.595 239.975 85.045 238.275 C 85.115 238.035 85.135 237.945 85.135 237.895 C 85.135 237.705 84.995 237.705 84.645 237.705 Z M 73.855 244.095 C 73.855 243.465 73.995 242.695 74.325 241.495 C 74.605 240.425 74.905 239.725 75.305 239.135 C 76.055 238.085 77.135 237.425 78.135 237.425 C 80.295 237.425 80.365 239.835 80.405 242.645 C 80.435 243.535 80.455 244.265 80.455 244.285 C 80.475 244.305 80.125 244.615 79.805 244.845 C 78.955 245.475 78.095 245.895 77.245 246.105 C 76.785 246.225 76.295 246.295 75.895 246.295 C 74.585 246.295 73.855 245.435 73.855 244.095 Z" transform="matrix(1, 0, 0, 1, 0, 0)" style="fill: rgb(51, 51, 51); white-space: pre;"/>
  <path style="fill: none; stroke: rgb(40, 180, 40);" d="M 104.323 159.221 C 112.468 189.064 87.872 203.476 79.407 206.367"/>
  <path style="fill: rgb(216, 216, 216); stroke: rgb(0, 0, 0);" d="M 80.502 80.151"/>
  <path style="fill: rgb(216, 216, 216); stroke: rgb(0, 0, 0);" d="M 80.45 117.27"/>
  <path style="fill: rgb(216, 216, 216); stroke: rgb(0, 0, 0);" d="M 122.026 106.42"/>
  <ellipse style="fill: rgb(40, 180, 40);" cx="84.363" cy="181.475" rx="2.535" ry="2.535"/>
  <path style="fill: rgb(216, 216, 216); stroke: rgb(0, 0, 0);" d="M 53.251 130.278"/>
  <g style="" transform="matrix(1.95333, 0, 0, 1.95333, -31.171976, -29.535109)">
    <line style="stroke: rgb(88, 102, 192);" x1="243.446" y1="44.46" x2="258.24" y2="40.224" transform="matrix(0, 1, -1, 0, 293.184994, -208.500996)"/>
    <line style="stroke: rgb(88, 102, 192);" x1="246.694" y1="43.443" x2="261.488" y2="39.207" transform="matrix(0, 1, -1, 0, 295.416004, -212.766003)"/>
  </g>
  <g transform="matrix(1.95333, 0, 0, 1.95333, -21.698862, 332.013153)" style="">
    <line style="stroke: rgb(88, 102, 192);" x1="243.446" y1="44.46" x2="258.24" y2="40.224" transform="matrix(0, 1, -1, 0, 293.184994, -208.500996)"/>
    <line style="stroke: rgb(88, 102, 192);" x1="246.694" y1="43.443" x2="261.488" y2="39.207" transform="matrix(0, 1, -1, 0, 295.416004, -212.766003)"/>
  </g>
  <line style="stroke: rgb(164, 163, 163);" x1="62.124" y1="170.045" x2="34.892" y2="170.045"/>
  <line style="stroke: rgb(164, 163, 163);" x1="59.931" y1="535.233" x2="32.698" y2="535.233"/>
  <path d="M 46.642 353.201 C 46.642 353.291 46.552 353.791 46.242 354.951 C 46.022 355.911 45.772 356.791 45.742 356.881 C 45.402 357.881 44.462 358.911 43.522 359.381 C 42.902 359.721 42.592 359.751 41.652 359.751 C 40.902 359.751 40.002 359.721 39.782 359.661 L 39.752 359.661 C 39.752 359.591 40.562 359.101 40.562 358.001 C 40.562 357.251 39.972 356.761 39.252 356.761 C 38.062 356.761 37.252 357.781 37.252 358.811 C 37.252 359.061 37.282 359.341 37.412 359.561 C 37.842 360.471 39.252 360.941 41.652 360.941 C 44.742 360.941 47.492 359.281 48.272 357.041 C 48.332 356.911 51.922 342.961 51.922 342.251 C 51.922 341.751 51.392 341.371 50.892 341.371 C 50.392 341.371 49.832 341.691 49.582 342.091 C 49.512 342.181 49.452 342.251 49.452 342.251 C 48.762 341.441 48.052 340.751 46.742 340.751 C 45.712 340.751 44.932 341.001 44.022 341.441 C 42.282 342.311 40.842 343.811 39.902 345.771 C 39.282 347.021 39.002 348.331 39.002 349.551 C 39.002 352.291 40.562 354.541 43.372 354.541 C 44.862 354.541 46.272 353.541 46.642 353.201 Z M 48.922 344.311 L 47.272 350.861 L 47.022 351.171 C 46.272 352.171 44.962 353.351 43.592 353.351 C 42.182 353.351 41.652 352.291 41.652 350.891 C 41.652 349.981 41.782 349.391 42.182 347.771 C 42.772 345.431 43.152 344.461 43.842 343.561 C 44.462 342.721 45.302 342.121 46.112 341.941 C 46.212 341.941 46.362 341.901 46.492 341.901 C 48.022 341.901 48.482 342.961 48.922 344.311 Z" transform="matrix(1, 0, 0, 1, 0, 0)" style="fill: rgb(51, 51, 51); white-space: pre;"/>
  <path d="M 76.825 347.584 H 215.517 L 215.517 343.677 L 225.284 348.561 L 215.517 353.444 L 215.517 349.537 H 76.825 V 347.584 Z" transform="matrix(0, -1, 1, 0, -302.907532, 395.849304)" style="stroke: rgb(0, 0, 0); stroke-width: 0px;" bx:shape="arrow 76.825 343.677 148.459 9.767 1.953 9.767 0 1@a8c5af22"/>
  <path d="M 71.942 409.697 H 216.269 L 216.269 405.791 L 226.036 410.674 L 216.269 415.557 L 216.269 411.651 H 71.942 V 409.697 Z" transform="matrix(0, 1, -1, 0, 456.326324, 309.197662)" style="stroke: rgb(0, 0, 0); stroke-width: 0px;" bx:shape="arrow 71.942 405.791 154.094 9.767 1.953 9.767 0 1@faaa9ebf"/>
  <line style="stroke: rgb(164, 163, 163);" x1="61.814" y1="555.366" x2="86.498" y2="548.299" transform="matrix(0, 1, -1, 0, 625.988525, 477.676514)"/>
  <line style="stroke: rgb(164, 163, 163);" x1="160.612" y1="525.831" x2="186.958" y2="518.288" transform="matrix(0, 1, -1, 0, 695.844482, 348.274506)"/>
  <path d="M 147.728 570.703 C 147.698 570.733 147.598 570.803 147.508 570.833 C 147.318 570.983 131.318 592.703 131.318 592.823 C 131.318 592.853 131.348 592.923 131.378 592.953 C 131.438 593.013 132.248 593.013 142.798 593.013 L 154.188 593.013 L 154.308 592.923 C 154.338 592.853 154.408 592.763 154.408 592.763 C 154.408 592.643 149.258 570.983 149.198 570.893 C 149.198 570.833 149.098 570.763 149.038 570.733 C 148.908 570.673 148.848 570.673 148.378 570.673 C 148.068 570.673 147.788 570.703 147.728 570.703 Z M 148.508 582.213 C 149.568 586.613 150.408 590.233 150.438 590.263 C 150.438 590.333 150.068 590.333 142.578 590.333 C 138.238 590.333 134.718 590.333 134.718 590.303 C 134.718 590.263 146.568 574.203 146.608 574.233 L 148.508 582.213 ZM 159.48 588.023 C 158.33 588.023 157.45 588.993 157.45 590.303 C 157.45 590.793 157.48 590.983 157.67 591.393 C 158.2 592.573 159.73 593.323 161.88 593.323 C 164.79 593.323 166.66 592.143 167.62 590.143 C 167.97 589.393 168.16 588.923 168.16 587.923 C 168.12 587.493 168.12 587.363 168.06 587.113 C 167.75 586.153 167.09 585.373 166.1 584.933 C 165.66 584.713 165.38 584.653 164.22 584.403 C 163.1 584.153 162.94 584.123 162.63 583.843 C 162.32 583.563 162.16 583.283 162.16 582.843 C 162.16 581.373 163.48 580.373 165.07 580.373 C 166.35 580.373 167.31 581.033 167.31 581.193 C 167.31 581.223 167.31 581.223 167.25 581.223 C 167.22 581.223 167.09 581.283 166.97 581.343 C 166.41 581.623 166.03 582.213 166.03 582.843 C 166.03 583.493 166.5 583.903 167.16 583.903 C 168.22 583.903 168.87 583.063 168.87 581.933 C 168.87 581.723 168.87 581.503 168.81 581.343 C 168.4 579.943 167.13 579.223 165.16 579.223 C 163.38 579.223 162.04 579.843 161.17 580.843 C 160.45 581.623 159.89 582.683 159.89 583.993 C 159.89 585.243 160.42 586.023 161.17 586.553 C 161.85 587.023 162.13 587.023 163.29 587.273 C 164.35 587.493 164.54 587.523 164.85 587.713 C 165.44 587.993 165.88 588.453 165.88 589.203 C 165.88 589.673 165.69 590.173 165.41 590.643 C 164.75 591.673 163.72 592.173 162.07 592.173 C 161.07 592.173 160.29 592.013 159.7 591.703 C 159.51 591.613 159.17 591.363 159.14 591.293 C 159.11 591.263 159.17 591.233 159.26 591.203 C 159.36 591.203 159.54 591.113 159.7 591.043 C 160.39 590.703 160.79 589.953 160.79 589.273 C 160.79 588.523 160.29 588.023 159.48 588.023 Z" transform="matrix(0.9600690603256226, -0.27976199984550476, 0.27976199984550476, 0.9600690603256226, -186.31117248535156, 25.06692886352539)" style="fill: rgb(51, 51, 51); white-space: pre;"/>
  <path d="M 177.033 561.991 H 196.211 L 196.211 558.084 L 205.978 562.968 L 196.211 567.851 L 196.211 563.944 H 177.033 V 561.991 Z" transform="matrix(0.960972, -0.276644, 0.276644, 0.960972, -180.004517, 40.412975)" style="stroke: rgb(0, 0, 0); stroke-width: 0px;" bx:shape="arrow 177.033 558.084 28.945 9.767 1.953 9.767 0 1@e3f98e9c"/>
  <path d="M 134.887 574.634 H 152.734 L 152.734 570.727 L 162.5 575.611 L 152.734 580.494 L 152.734 576.587 H 134.887 V 574.634 Z" transform="matrix(-0.961524, 0.274721, -0.274721, -0.961524, 389.924927, 1061.985352)" style="stroke: rgb(0, 0, 0); stroke-width: 0px;" bx:shape="arrow 134.887 570.727 27.613 9.767 1.953 9.767 0 1@e2799f88"/>
</svg>