<?xml version="1.0" encoding="utf-8"?>
<svg viewBox="45.922 29.85 556.917 231.487" width="556.917" height="231.487" xmlns="http://www.w3.org/2000/svg" xmlns:bx="https://boxy-svg.com">
  <line style="stroke: rgb(22, 148, 202);" x1="70.89" y1="207.757" x2="497.59" y2="63.091"/>
  <line style="stroke: rgb(22, 148, 202);" x1="70.89" y1="207.757" x2="497.59" y2="207.757"/>
  <line style="stroke: rgb(0, 0, 0);" x1="497.59" y1="63.091" x2="497.59" y2="207.757"/>
  <path style="stroke: rgb(0, 0, 0); fill: none;" d="M 201.066 206.959 C 202.557 192.895 202.132 181.146 191.179 166.609" transform="matrix(0.999977, 0.006767, -0.006767, 0.999977, 1.273627, -1.319484)"/>
  <path style="stroke: rgb(0, 0, 0); fill: none;" d="M 456.588 207.76 C 457.106 201.085 457.558 168.642 497.59 166.004"/>
  <circle style="" cx="481.663" cy="192.165" r="2.242"/>
  <g transform="matrix(1.344396, 0, 0, 1.344396, -17.172319, -10.011095)" style="">
    <path d="M 397.458 106.524 L 397.358 106.524 C 396.998 106.524 397.028 106.544 396.878 107.054 C 396.548 108.344 396.278 108.994 395.898 109.354 C 395.728 109.474 395.608 109.544 395.418 109.574 C 394.868 109.574 394.748 109.134 394.748 108.564 C 394.748 107.744 396.548 101.384 396.548 100.734 C 396.548 100.334 396.138 100.064 395.748 100.064 C 395.248 100.064 394.868 100.374 394.648 100.784 C 394.148 100.164 393.518 99.614 392.488 99.614 C 391.358 99.614 390.398 100.044 389.558 100.694 C 388.098 101.794 386.828 103.784 386.588 105.894 C 386.558 106.044 386.558 106.234 386.558 106.424 C 386.558 107.574 386.778 108.374 387.278 109.114 C 387.858 109.854 388.598 110.434 389.898 110.434 C 390.138 110.434 390.348 110.434 390.498 110.414 C 391.268 110.244 392.028 109.784 392.778 109.094 C 392.948 108.944 392.948 108.924 392.968 108.974 C 392.968 109.014 393.038 109.134 393.088 109.254 C 393.448 109.954 394.188 110.434 395.198 110.434 C 395.558 110.434 395.588 110.434 395.778 110.384 C 396.068 110.264 396.278 110.144 396.548 109.884 C 397.068 109.354 397.478 108.494 397.838 107.094 C 397.888 106.904 397.908 106.814 397.908 106.734 C 397.908 106.524 397.818 106.524 397.458 106.524 Z M 388.598 107.654 C 388.598 107.454 388.628 107.264 388.628 107.094 C 388.748 106.234 389.268 104.074 389.608 103.164 C 390.038 101.964 391.028 100.474 392.418 100.474 C 393.138 100.474 393.618 100.884 393.928 101.504 C 394.028 101.694 394.188 102.104 394.188 102.324 C 394.188 102.584 392.988 107.434 392.918 107.554 C 392.798 107.794 391.958 108.734 391.548 108.994 C 391.028 109.374 390.518 109.574 390.068 109.574 C 389.058 109.574 388.598 108.754 388.598 107.654 Z" transform="matrix(1, 0, 0, 1, 0, 0)" style="fill: rgb(51, 51, 51); white-space: pre;"/>
    <path d="M 400.405 112.698 C 400.605 112.698 400.825 112.578 400.915 112.378 C 400.955 112.308 401.035 112.018 401.375 110.688 L 401.765 109.078 L 401.855 108.928 C 402.265 108.238 402.715 107.868 403.285 107.748 C 403.375 107.718 403.445 107.718 403.595 107.718 C 404.035 107.718 404.185 107.968 404.185 108.428 C 404.185 108.588 404.165 108.768 404.145 108.888 C 404.045 109.388 403.835 110.068 403.475 111.018 C 403.325 111.408 403.305 111.418 403.305 111.688 C 403.305 111.958 403.445 112.228 403.595 112.398 C 403.785 112.568 404.035 112.688 404.375 112.688 C 404.605 112.688 404.695 112.678 404.885 112.578 C 405.425 112.278 405.815 111.728 406.015 111.008 C 406.045 110.928 406.065 110.868 406.065 110.828 C 406.065 110.718 405.995 110.728 405.825 110.728 C 405.635 110.728 405.605 110.748 405.585 110.828 C 405.415 111.448 405.035 112.258 404.435 112.258 C 404.265 112.258 404.225 112.148 404.225 111.948 C 404.225 111.728 404.265 111.568 404.445 111.088 C 404.795 110.168 405.025 109.448 405.105 108.988 C 405.125 108.868 405.145 108.688 405.145 108.538 C 405.145 107.688 404.545 107.268 403.685 107.268 C 402.925 107.268 402.445 107.598 402.025 108.028 L 401.885 108.168 C 401.875 108.168 401.875 108.148 401.875 108.138 C 401.875 108.108 401.795 107.888 401.745 107.808 C 401.565 107.488 401.215 107.268 400.725 107.268 C 400.645 107.268 400.565 107.278 400.525 107.288 C 399.935 107.418 399.595 108.168 399.415 108.868 C 399.385 108.988 399.355 109.108 399.355 109.128 C 399.355 109.158 399.405 109.208 399.425 109.228 L 399.595 109.228 C 399.775 109.228 399.805 109.218 399.825 109.158 C 399.825 109.148 399.865 109.028 399.895 108.908 C 399.965 108.618 400.075 108.298 400.145 108.148 C 400.285 107.888 400.415 107.708 400.655 107.708 C 400.865 107.708 400.945 107.908 400.945 108.178 C 400.945 108.268 400.945 108.388 400.925 108.448 C 400.855 108.868 399.995 112.088 399.995 112.368 C 399.995 112.578 400.195 112.698 400.405 112.698 Z" transform="matrix(1, 0, 0, 1, 0, 0)" style="fill: rgb(51, 51, 51); white-space: pre;"/>
  </g>
  <path d="M 295.776 230.868 C 295.686 230.868 295.586 230.968 295.396 231.188 C 293.966 232.838 291.836 233.938 289.416 233.938 C 287.506 233.938 286.706 232.548 286.706 230.648 C 286.706 229.898 286.836 229.058 287.056 228.058 C 287.096 227.868 287.126 227.708 287.126 227.638 C 287.156 227.578 287.186 227.578 288.346 227.578 C 290.486 227.538 291.546 227.418 292.676 227.118 C 294.486 226.668 295.686 225.828 296.196 224.118 C 296.266 223.888 296.266 223.598 296.266 223.308 C 296.266 223.088 296.266 222.858 296.236 222.728 C 295.846 221.378 294.486 220.498 292.676 220.498 L 292.586 220.498 C 292.326 220.498 292.096 220.498 292.066 220.538 C 288.026 220.988 285.056 223.668 284.186 226.928 C 284.026 227.668 283.926 228.578 283.926 229.348 C 283.926 230.898 284.346 232.028 284.996 232.998 C 285.286 233.418 285.836 233.998 286.286 234.258 C 287.156 234.878 288.126 235.138 289.286 235.138 C 291.706 235.138 293.906 234.228 295.526 232.808 C 295.876 232.488 296.526 231.838 296.526 231.608 C 296.526 231.448 295.976 230.868 295.776 230.868 Z M 294.716 223.378 C 294.716 223.798 294.686 224.058 294.486 224.478 C 293.676 225.698 292.616 226.118 290.096 226.318 C 289.646 226.348 288.736 226.378 288.126 226.378 C 287.736 226.378 287.476 226.378 287.476 226.348 C 287.476 226.288 287.706 225.638 287.836 225.278 C 288.346 223.928 289.096 222.988 290.196 222.338 C 290.906 221.958 291.746 221.698 292.516 221.698 C 293.746 221.698 294.586 222.248 294.716 223.378 Z" transform="matrix(1, 0, 0, 1, 0, 0)" style="fill: rgb(51, 51, 51); white-space: pre;"/>
  <text style="fill: rgb(51, 51, 51); font-family: &quot;Source Serif Pro&quot;; font-size: 21.5px; white-space: pre;" x="46.634" y="260.065">Gitter</text>
  <text style="fill: rgb(51, 51, 51); font-family: &quot;Source Serif Pro&quot;; font-size: 21.5px; white-space: pre;" x="464.046" y="256.999">Schirm</text>
  <line style="stroke: rgb(107, 107, 107);" x1="70.89" y1="234.967" x2="70.89" y2="33.205"/>
  <line style="stroke: rgb(107, 107, 107);" x1="497.59" y1="234.967" x2="497.59" y2="33.205"/>
  <path d="M -273.127 -225.705 H -78.262 L -78.262 -228.385 L -71.564 -225.035 L -78.262 -221.686 L -78.262 -224.366 H -273.127 V -225.705 Z" transform="matrix(-1, 0, 0, -1, 0, 0)" style="stroke: rgb(0, 0, 0); stroke-width: 0px;" bx:shape="arrow -273.127 -228.385 201.563 6.699 1.339 6.699 0 1@a42b7121"/>
  <path d="M 312.657 224.365 H 490.119 L 490.119 221.688 L 496.811 225.034 L 490.119 228.38 L 490.119 225.703 H 312.657 V 224.365 Z" style="stroke: rgb(0, 0, 0); stroke-width: 0px;" bx:shape="arrow 312.657 221.688 184.154 6.692 1.339 6.692 0 1@1698edef"/>
  <path d="M 525.785 57.855 L 525.785 67.425 L 524.725 67.425 L 524.725 60.605 C 524.725 60.038 524.742 59.502 524.775 58.995 C 524.682 59.088 524.578 59.185 524.465 59.285 C 524.352 59.385 523.835 59.812 522.915 60.565 L 522.335 59.815 L 524.865 57.855 L 525.785 57.855 ZM 529.751 66.735 C 529.751 66.442 529.818 66.218 529.951 66.065 C 530.085 65.918 530.278 65.845 530.531 65.845 C 530.785 65.845 530.981 65.918 531.121 66.065 C 531.261 66.218 531.331 66.442 531.331 66.735 C 531.331 67.015 531.261 67.232 531.121 67.385 C 530.975 67.538 530.778 67.615 530.531 67.615 C 530.305 67.615 530.118 67.545 529.971 67.405 C 529.825 67.272 529.751 67.048 529.751 66.735 ZM 542.243 67.425 L 541.353 67.425 L 538.103 58.945 L 538.053 58.945 C 538.113 59.618 538.143 60.418 538.143 61.345 L 538.143 67.425 L 537.123 67.425 L 537.123 57.855 L 538.793 57.855 L 541.823 65.745 L 541.873 65.745 L 544.933 57.855 L 546.593 57.855 L 546.593 67.425 L 545.483 67.425 L 545.483 61.265 C 545.483 60.558 545.513 59.788 545.573 58.955 L 545.523 58.955 L 542.243 67.425 ZM 554.262 67.425 L 553.452 67.425 L 553.242 66.405 L 553.182 66.405 C 552.829 66.852 552.472 67.155 552.112 67.315 C 551.759 67.475 551.315 67.555 550.782 67.555 C 550.075 67.555 549.519 67.372 549.112 67.005 C 548.712 66.638 548.512 66.118 548.512 65.445 C 548.512 63.998 549.669 63.238 551.982 63.165 L 553.202 63.125 L 553.202 62.685 C 553.202 62.118 553.079 61.702 552.832 61.435 C 552.592 61.168 552.205 61.035 551.672 61.035 C 551.079 61.035 550.402 61.218 549.642 61.585 L 549.312 60.755 C 549.665 60.562 550.052 60.408 550.472 60.295 C 550.892 60.188 551.315 60.135 551.742 60.135 C 552.595 60.135 553.229 60.325 553.642 60.705 C 554.055 61.085 554.262 61.695 554.262 62.535 L 554.262 67.425 Z M 551.002 66.655 C 551.675 66.655 552.205 66.472 552.592 66.105 C 552.979 65.732 553.172 65.212 553.172 64.545 L 553.172 63.895 L 552.082 63.945 C 551.222 63.972 550.602 64.105 550.222 64.345 C 549.835 64.585 549.642 64.955 549.642 65.455 C 549.642 65.848 549.762 66.148 550.002 66.355 C 550.242 66.555 550.575 66.655 551.002 66.655 ZM 555.599 67.425 L 558.219 63.755 L 555.729 60.255 L 556.959 60.255 L 558.849 63.005 L 560.739 60.255 L 561.959 60.255 L 559.469 63.755 L 562.089 67.425 L 560.859 67.425 L 558.849 64.515 L 556.829 67.425 L 555.599 67.425 ZM 564.595 60.255 L 564.595 67.425 L 563.505 67.425 L 563.505 60.255 L 564.595 60.255 Z M 563.415 58.315 C 563.415 58.062 563.475 57.878 563.595 57.765 C 563.721 57.652 563.875 57.595 564.055 57.595 C 564.228 57.595 564.378 57.652 564.505 57.765 C 564.631 57.885 564.695 58.068 564.695 58.315 C 564.695 58.555 564.631 58.735 564.505 58.855 C 564.378 58.975 564.228 59.035 564.055 59.035 C 563.875 59.035 563.721 58.975 563.595 58.855 C 563.475 58.735 563.415 58.555 563.415 58.315 ZM 577.121 67.425 L 576.031 67.425 L 576.031 62.755 C 576.031 62.188 575.911 61.762 575.671 61.475 C 575.425 61.188 575.045 61.045 574.531 61.045 C 573.851 61.045 573.351 61.238 573.031 61.625 C 572.705 62.018 572.541 62.618 572.541 63.425 L 572.541 67.425 L 571.461 67.425 L 571.461 62.755 C 571.461 62.188 571.338 61.762 571.091 61.475 C 570.851 61.188 570.471 61.045 569.951 61.045 C 569.271 61.045 568.771 61.248 568.451 61.655 C 568.138 62.062 567.981 62.732 567.981 63.665 L 567.981 67.425 L 566.891 67.425 L 566.891 60.255 L 567.771 60.255 L 567.951 61.235 L 568.001 61.235 C 568.208 60.888 568.498 60.615 568.871 60.415 C 569.245 60.222 569.661 60.125 570.121 60.125 C 571.248 60.125 571.981 60.532 572.321 61.345 L 572.371 61.345 C 572.591 60.965 572.901 60.668 573.301 60.455 C 573.708 60.235 574.171 60.125 574.691 60.125 C 575.505 60.125 576.111 60.332 576.511 60.745 C 576.918 61.165 577.121 61.832 577.121 62.745 L 577.121 67.425 ZM 579.267 60.255 L 580.367 60.255 L 580.367 64.905 C 580.367 65.492 580.5 65.928 580.767 66.215 C 581.033 66.502 581.45 66.645 582.017 66.645 C 582.77 66.645 583.32 66.442 583.667 66.035 C 584.013 65.622 584.187 64.952 584.187 64.025 L 584.187 60.255 L 585.267 60.255 L 585.267 67.425 L 584.377 67.425 L 584.217 66.465 L 584.157 66.465 C 583.937 66.818 583.627 67.088 583.227 67.275 C 582.833 67.462 582.383 67.555 581.877 67.555 C 581.01 67.555 580.357 67.348 579.917 66.935 C 579.483 66.522 579.267 65.858 579.267 64.945 L 579.267 60.255 ZM 597.795 67.425 L 596.705 67.425 L 596.705 62.755 C 596.705 62.188 596.585 61.762 596.345 61.475 C 596.098 61.188 595.718 61.045 595.205 61.045 C 594.525 61.045 594.025 61.238 593.705 61.625 C 593.378 62.018 593.215 62.618 593.215 63.425 L 593.215 67.425 L 592.135 67.425 L 592.135 62.755 C 592.135 62.188 592.012 61.762 591.765 61.475 C 591.525 61.188 591.145 61.045 590.625 61.045 C 589.945 61.045 589.445 61.248 589.125 61.655 C 588.812 62.062 588.655 62.732 588.655 63.665 L 588.655 67.425 L 587.565 67.425 L 587.565 60.255 L 588.445 60.255 L 588.625 61.235 L 588.675 61.235 C 588.882 60.888 589.172 60.615 589.545 60.415 C 589.918 60.222 590.335 60.125 590.795 60.125 C 591.922 60.125 592.655 60.532 592.995 61.345 L 593.045 61.345 C 593.265 60.965 593.575 60.668 593.975 60.455 C 594.382 60.235 594.845 60.125 595.365 60.125 C 596.178 60.125 596.785 60.332 597.185 60.745 C 597.592 61.165 597.795 61.832 597.795 62.745 L 597.795 67.425 Z" transform="matrix(1, 0, 0, 1, 0, 0)" style="fill: rgb(51, 51, 51); white-space: pre;"/>
  <path d="M 528.086 206.886 C 528.086 208.539 527.826 209.776 527.306 210.596 C 526.786 211.409 525.989 211.816 524.916 211.816 C 523.889 211.816 523.106 211.399 522.566 210.566 C 522.033 209.726 521.766 208.499 521.766 206.886 C 521.766 205.219 522.026 203.983 522.546 203.176 C 523.059 202.369 523.849 201.966 524.916 201.966 C 525.956 201.966 526.746 202.389 527.286 203.236 C 527.819 204.076 528.086 205.293 528.086 206.886 Z M 522.866 206.886 C 522.866 208.279 523.029 209.293 523.356 209.926 C 523.683 210.566 524.203 210.886 524.916 210.886 C 525.643 210.886 526.166 210.563 526.486 209.916 C 526.813 209.276 526.976 208.266 526.976 206.886 C 526.976 205.513 526.813 204.506 526.486 203.866 C 526.166 203.233 525.643 202.916 524.916 202.916 C 524.203 202.916 523.683 203.229 523.356 203.856 C 523.029 204.489 522.866 205.499 522.866 206.886 ZM 529.742 210.996 C 529.742 210.703 529.809 210.479 529.942 210.326 C 530.076 210.179 530.269 210.106 530.522 210.106 C 530.776 210.106 530.972 210.179 531.112 210.326 C 531.252 210.479 531.322 210.703 531.322 210.996 C 531.322 211.276 531.252 211.493 531.112 211.646 C 530.966 211.799 530.769 211.876 530.522 211.876 C 530.296 211.876 530.109 211.806 529.962 211.666 C 529.816 211.533 529.742 211.309 529.742 210.996 ZM 542.234 211.686 L 541.344 211.686 L 538.094 203.206 L 538.044 203.206 C 538.104 203.879 538.134 204.679 538.134 205.606 L 538.134 211.686 L 537.114 211.686 L 537.114 202.116 L 538.784 202.116 L 541.814 210.006 L 541.864 210.006 L 544.924 202.116 L 546.584 202.116 L 546.584 211.686 L 545.474 211.686 L 545.474 205.526 C 545.474 204.819 545.504 204.049 545.564 203.216 L 545.514 203.216 L 542.234 211.686 ZM 554.253 211.686 L 553.443 211.686 L 553.233 210.666 L 553.173 210.666 C 552.82 211.113 552.463 211.416 552.103 211.576 C 551.75 211.736 551.306 211.816 550.773 211.816 C 550.066 211.816 549.51 211.633 549.103 211.266 C 548.703 210.899 548.503 210.379 548.503 209.706 C 548.503 208.259 549.66 207.499 551.973 207.426 L 553.193 207.386 L 553.193 206.946 C 553.193 206.379 553.07 205.963 552.823 205.696 C 552.583 205.429 552.196 205.296 551.663 205.296 C 551.07 205.296 550.393 205.479 549.633 205.846 L 549.303 205.016 C 549.656 204.823 550.043 204.669 550.463 204.556 C 550.883 204.449 551.306 204.396 551.733 204.396 C 552.586 204.396 553.22 204.586 553.633 204.966 C 554.046 205.346 554.253 205.956 554.253 206.796 L 554.253 211.686 Z M 550.993 210.916 C 551.666 210.916 552.196 210.733 552.583 210.366 C 552.97 209.993 553.163 209.473 553.163 208.806 L 553.163 208.156 L 552.073 208.206 C 551.213 208.233 550.593 208.366 550.213 208.606 C 549.826 208.846 549.633 209.216 549.633 209.716 C 549.633 210.109 549.753 210.409 549.993 210.616 C 550.233 210.816 550.566 210.916 550.993 210.916 ZM 555.59 211.686 L 558.21 208.016 L 555.72 204.516 L 556.95 204.516 L 558.84 207.266 L 560.73 204.516 L 561.95 204.516 L 559.46 208.016 L 562.08 211.686 L 560.85 211.686 L 558.84 208.776 L 556.82 211.686 L 555.59 211.686 ZM 564.586 204.516 L 564.586 211.686 L 563.496 211.686 L 563.496 204.516 L 564.586 204.516 Z M 563.406 202.576 C 563.406 202.323 563.466 202.139 563.586 202.026 C 563.712 201.913 563.866 201.856 564.046 201.856 C 564.219 201.856 564.369 201.913 564.496 202.026 C 564.622 202.146 564.686 202.329 564.686 202.576 C 564.686 202.816 564.622 202.996 564.496 203.116 C 564.369 203.236 564.219 203.296 564.046 203.296 C 563.866 203.296 563.712 203.236 563.586 203.116 C 563.466 202.996 563.406 202.816 563.406 202.576 ZM 577.112 211.686 L 576.022 211.686 L 576.022 207.016 C 576.022 206.449 575.902 206.023 575.662 205.736 C 575.416 205.449 575.036 205.306 574.522 205.306 C 573.842 205.306 573.342 205.499 573.022 205.886 C 572.696 206.279 572.532 206.879 572.532 207.686 L 572.532 211.686 L 571.452 211.686 L 571.452 207.016 C 571.452 206.449 571.329 206.023 571.082 205.736 C 570.842 205.449 570.462 205.306 569.942 205.306 C 569.262 205.306 568.762 205.509 568.442 205.916 C 568.129 206.323 567.972 206.993 567.972 207.926 L 567.972 211.686 L 566.882 211.686 L 566.882 204.516 L 567.762 204.516 L 567.942 205.496 L 567.992 205.496 C 568.199 205.149 568.489 204.876 568.862 204.676 C 569.236 204.483 569.652 204.386 570.112 204.386 C 571.239 204.386 571.972 204.793 572.312 205.606 L 572.362 205.606 C 572.582 205.226 572.892 204.929 573.292 204.716 C 573.699 204.496 574.162 204.386 574.682 204.386 C 575.496 204.386 576.102 204.593 576.502 205.006 C 576.909 205.426 577.112 206.093 577.112 207.006 L 577.112 211.686 ZM 579.258 204.516 L 580.358 204.516 L 580.358 209.166 C 580.358 209.753 580.491 210.189 580.758 210.476 C 581.024 210.763 581.441 210.906 582.008 210.906 C 582.761 210.906 583.311 210.703 583.658 210.296 C 584.004 209.883 584.178 209.213 584.178 208.286 L 584.178 204.516 L 585.258 204.516 L 585.258 211.686 L 584.368 211.686 L 584.208 210.726 L 584.148 210.726 C 583.928 211.079 583.618 211.349 583.218 211.536 C 582.824 211.723 582.374 211.816 581.868 211.816 C 581.001 211.816 580.348 211.609 579.908 211.196 C 579.474 210.783 579.258 210.119 579.258 209.206 L 579.258 204.516 ZM 597.786 211.686 L 596.696 211.686 L 596.696 207.016 C 596.696 206.449 596.576 206.023 596.336 205.736 C 596.089 205.449 595.709 205.306 595.196 205.306 C 594.516 205.306 594.016 205.499 593.696 205.886 C 593.369 206.279 593.206 206.879 593.206 207.686 L 593.206 211.686 L 592.126 211.686 L 592.126 207.016 C 592.126 206.449 592.003 206.023 591.756 205.736 C 591.516 205.449 591.136 205.306 590.616 205.306 C 589.936 205.306 589.436 205.509 589.116 205.916 C 588.803 206.323 588.646 206.993 588.646 207.926 L 588.646 211.686 L 587.556 211.686 L 587.556 204.516 L 588.436 204.516 L 588.616 205.496 L 588.666 205.496 C 588.873 205.149 589.163 204.876 589.536 204.676 C 589.909 204.483 590.326 204.386 590.786 204.386 C 591.913 204.386 592.646 204.793 592.986 205.606 L 593.036 205.606 C 593.256 205.226 593.566 204.929 593.966 204.716 C 594.373 204.496 594.836 204.386 595.356 204.386 C 596.169 204.386 596.776 204.593 597.176 205.006 C 597.583 205.426 597.786 206.093 597.786 207.006 L 597.786 211.686 Z" transform="matrix(1, 0, 0, 1, 0, 0)" style="fill: rgb(51, 51, 51); white-space: pre;"/>
  <line style="stroke: rgb(107, 107, 107);" x1="498.181" y1="207.76" x2="515.275" y2="207.76"/>
  <line style="stroke: rgb(107, 107, 107);" x1="498.308" y1="63.136" x2="514.66" y2="63.136"/>
  <path d="M 543.496 131.929 H 588.676 L 588.676 129.133 L 595.665 132.628 L 588.676 136.122 L 588.676 133.327 H 543.496 V 131.929 Z" transform="matrix(0, -1, 1, 0, 376.940796, 659.230713)" style="stroke: rgb(0, 0, 0); stroke-width: 0px;" bx:shape="arrow 543.496 129.133 52.17 6.989 1.399 6.989 0 1@f708d7e7"/>
  <path d="M 540.777 160.077 H 596.22 L 596.22 157.309 L 603.141 160.77 L 596.22 164.23 L 596.22 161.462 H 540.777 V 160.077 Z" transform="matrix(0, 1, -1, 0, 671.083008, -396.056183)" style="stroke: rgb(0, 0, 0); stroke-width: 0px;" bx:shape="arrow 540.777 157.309 62.364 6.921 1.385 6.921 0 1@6960fa79"/>
  <path d="M 184.285 185.516 C 183.875 185.516 183.875 185.516 183.755 185.966 C 183.345 187.406 182.695 188.826 181.955 189.956 L 181.955 189.256 C 181.935 188.466 181.885 188.126 181.785 187.646 C 181.285 185.636 179.895 184.336 177.735 184.336 C 177.535 184.336 177.345 184.366 177.205 184.366 C 174.255 184.676 171.685 187.366 171.205 190.196 C 171.155 190.456 171.135 190.846 171.135 191.206 C 171.135 191.396 171.135 191.586 171.155 191.726 C 171.465 193.726 172.835 195.206 175.185 195.206 C 177.855 195.206 180.175 193.266 180.175 193.286 C 180.175 193.286 180.225 193.386 180.255 193.456 C 180.565 194.416 181.185 195.186 182.435 195.186 L 182.605 195.186 C 183.495 195.186 184.185 194.536 184.495 193.916 C 184.595 193.726 184.645 193.576 184.645 193.486 C 184.645 193.316 184.495 193.266 184.165 193.266 C 183.775 193.266 183.755 193.286 183.685 193.506 C 183.515 193.936 183.085 194.276 182.655 194.326 C 182.535 194.326 182.505 194.326 182.435 194.276 C 182.195 194.056 182.055 193.316 182.005 191.996 L 181.975 191.416 L 182.245 191.086 C 183.345 189.616 184.235 187.846 184.695 186.086 C 184.765 185.846 184.785 185.756 184.785 185.706 C 184.785 185.516 184.645 185.516 184.285 185.516 Z M 173.215 192.066 C 173.215 191.416 173.365 190.626 173.695 189.406 C 173.985 188.296 174.295 187.576 174.705 186.976 C 175.475 185.896 176.575 185.226 177.615 185.226 C 179.815 185.226 179.895 187.696 179.935 190.576 C 179.965 191.486 179.985 192.236 179.985 192.256 C 180.015 192.286 179.655 192.596 179.315 192.836 C 178.455 193.486 177.565 193.916 176.695 194.126 C 176.215 194.246 175.715 194.326 175.305 194.326 C 173.965 194.326 173.215 193.436 173.215 192.066 Z" transform="matrix(1, 0, 0, 1, 0, 0)" style="fill: rgb(51, 51, 51); white-space: pre;"/>
  <line style="stroke: rgb(22, 148, 202);" x1="497.46634447727354" y1="207.50009600199098" x2="497.46634447727354" y2="63.325583337936166"/>
</svg>