<?xml version="1.0" encoding="utf-8"?>
<svg viewBox="259.552 -39.886 491.096 519.367" width="491.096" height="519.367" xmlns="http://www.w3.org/2000/svg">
  <path d="M 370.867 187.078 C 380.883 187.117 549.028 193.762 681.274 137.014" style="fill: none; stroke: rgb(255, 178, 117); stroke-width: 2px;"/>
  <path d="M 681.274 137.014 L 881.537 46.894" style="fill: none; stroke: rgb(255, 178, 117); stroke-width: 2px;"/>
  <circle cx="521.065" cy="36.879" r="10.015" style="fill: none; stroke: rgb(0, 0, 0); stroke-linecap: round; stroke-width: 2px;"/>
  <circle cx="521.065" cy="337.272" r="10.015" style="fill: none; stroke: rgb(0, 0, 0); stroke-linecap: round; stroke-width: 2px;"/>
  <path d="M 481.011 337.272 L 501.036 337.272" style="fill: none; stroke: rgb(0, 0, 0); stroke-linecap: round; stroke-width: 2px;"/>
  <path d="M 521.065 76.934 L 521.065 46.894 L 521.065 56.907" style="fill: none; stroke: rgb(0, 0, 0); stroke-linecap: round; stroke-width: 2px;"/>
  <path d="M 521.065 327.263 L 521.065 297.223 L 521.065 307.237" style="fill: none; stroke: rgb(0, 0, 0); stroke-linecap: round; stroke-width: 2px;"/>
  <g style="" transform="matrix(3.532418, 0, 0, 3.532418, -169.844452, -73.264252)">
    <path d="M133.228,104.882l5.67,0" style="fill:none;stroke:#000;stroke-width:1px;stroke-linecap:round;"/>
    <path d="M136.063,102.047l0,5.67" style="fill:none;stroke:#000;stroke-width:1px;stroke-linecap:round;"/>
  </g>
  <g style="" transform="matrix(3.532418, 0, 0, 3.532418, -169.844452, -73.264252)">
    <path d="M133.228,42.52l5.67,0" style="fill:none;stroke:#000;stroke-width:1px;stroke-linecap:round;"/>
    <path d="M136.063,39.685l0,5.669" style="fill:none;stroke:#000;stroke-width:1px;stroke-linecap:round;"/>
  </g>
  <g style="" transform="matrix(3.532418, 0, 0, 3.532418, -169.844452, -73.264252)">
    <path d="M184.252,31.181l5.669,0" style="fill:none;stroke:#000;stroke-width:1px;stroke-linecap:round;"/>
    <path d="M187.087,28.346l0,5.67" style="fill:none;stroke:#000;stroke-width:1px;stroke-linecap:round;"/>
  </g>
  <ellipse cx="270.735" cy="187.078" rx="6.395" ry="30.04" style="fill: none; stroke: rgb(179, 179, 179); stroke-linecap: round; stroke-width: 2px;"/>
  <ellipse cx="271.43" cy="187.078" rx="29.347" ry="130.169" style="fill: none; stroke: rgb(179, 179, 179); stroke-linecap: round; stroke-width: 2px;"/>
  <path d="M 150.576 187.078 L 370.867 187.078" style="fill: none; stroke: rgb(138, 201, 255); stroke-linecap: round; stroke-width: 2px; stroke-dasharray: 4px;"/>
  <path d="M 370.867 79.135 L 681.274 79.135" style="fill: none; stroke: rgb(0, 0, 0); stroke-width: 2px;"/>
  <path d="M 370.867 297.223 L 681.274 297.223" style="fill: none; stroke: rgb(0, 0, 0); stroke-width: 2px;"/>
  <path d="M 370.867 417.383 L 681.274 417.383" style="fill: none; stroke: rgb(115, 140, 136); stroke-width: 0.5px;"/>
  <path d="M 681.274 80.93 L 681.274 293.831" style="fill: none; stroke: rgb(115, 140, 136); stroke-width: 0.5px;"/>
  <path d="M 516.924 457.813 C 517.124 457.813 517.294 457.773 517.464 457.743 C 518.494 457.503 519.284 456.683 519.934 455.173 C 520.234 454.453 520.714 452.813 520.714 452.513 C 520.714 452.163 520.614 452.203 520.064 452.203 L 519.934 452.203 C 519.414 452.203 519.454 452.233 519.244 452.953 C 518.694 455.143 518.224 456.063 517.534 456.443 C 517.334 456.543 516.884 456.543 516.714 456.473 C 516.304 456.233 516.234 455.893 516.234 455.213 C 516.234 455.003 516.274 454.763 516.274 454.593 C 516.444 453.463 521.334 434.653 521.334 433.973 C 521.334 433.763 521.094 433.703 520.924 433.703 C 520.884 433.703 515.994 434.043 515.824 434.113 C 515.684 434.173 515.654 434.283 515.514 434.823 C 515.414 435.273 515.414 435.303 515.444 435.413 C 515.554 435.613 515.624 435.643 516.404 435.643 C 517.364 435.683 518.044 435.583 517.944 436.363 C 517.914 436.473 516.954 440.433 515.794 445.123 L 513.564 453.943 C 513.534 454.113 513.534 454.323 513.534 454.523 C 513.534 456.583 514.904 457.813 516.924 457.813 Z" transform="matrix(1, 0, 0, 1, 0, 0)" style="white-space: pre;"/>
  <path d="M 671.26 283.818 L 681.274 293.831 L 691.288 283.818" style="fill: none; stroke: rgb(115, 140, 136); stroke-width: 0.5px;"/>
  <path d="M 681.274 336.947 L 877.811 336.947" style="fill: none; stroke: rgb(115, 140, 136); stroke-width: 0.5px;"/>
  <path d="M 681.274 316.916 L 681.274 356.971" style="fill: none; stroke: rgb(115, 140, 136); stroke-width: 0.5px;"/>
  <path d="M 681.274 397.354 L 681.274 437.406" style="fill: none; stroke: rgb(115, 140, 136); stroke-width: 0.5px;"/>
  <path d="M 370.867 397.354 L 370.867 437.406" style="fill: none; stroke: rgb(115, 140, 136); stroke-width: 0.5px;"/>
  <path d="M 691.288 326.93 L 681.274 336.947 L 691.288 346.955" style="fill: none; stroke: rgb(115, 140, 136); stroke-width: 0.5px;"/>
  <path d="M 380.881 407.368 L 370.867 417.383 L 380.881 427.393" style="fill: none; stroke: rgb(115, 140, 136); stroke-width: 0.5px;"/>
  <path d="M 671.26 407.368 L 681.274 417.383 L 671.26 427.393" style="fill: none; stroke: rgb(115, 140, 136); stroke-width: 0.5px;"/>
  <path d="M 671.26 90.617 L 681.274 80.606 L 691.288 90.617" style="fill: none; stroke: rgb(115, 140, 136); stroke-width: 0.5px;"/>
  <path d="M 704.237 201.33 C 702.937 201.4 701.847 201.5 701.777 201.5 C 701.497 201.5 701.437 201.74 701.327 202.15 C 701.157 202.9 701.227 202.84 701.467 203.07 L 702.187 203.07 C 702.937 203.11 703.347 203.18 703.557 203.25 C 703.727 203.35 703.757 203.48 703.757 203.79 C 703.727 204 701.947 211.15 701.877 211.32 C 701.877 211.39 701.847 211.35 701.707 211.18 C 701.127 210.32 699.997 209.74 698.837 209.74 C 698.387 209.74 697.907 209.81 697.427 209.95 C 695.687 210.39 694.077 211.52 692.707 213.2 C 691.587 214.7 690.387 216.99 690.387 219.49 C 690.387 221.13 690.697 222.26 691.407 223.32 C 692.237 224.38 693.297 225.2 695.137 225.2 C 695.477 225.2 695.787 225.2 695.997 225.17 C 697.087 224.93 698.187 224.28 699.247 223.29 C 699.487 223.08 699.487 223.05 699.517 223.12 C 699.517 223.18 699.617 223.36 699.687 223.53 C 700.197 224.52 701.257 225.2 702.697 225.2 C 703.207 225.2 703.247 225.2 703.517 225.13 C 703.927 224.96 704.237 224.79 704.617 224.42 C 705.367 223.66 705.947 222.43 706.457 220.45 C 706.527 220.17 706.567 220.04 706.567 219.9 C 706.567 219.66 706.387 219.63 705.917 219.63 L 705.777 219.63 C 705.267 219.63 705.297 219.66 705.087 220.38 C 704.617 222.23 704.237 223.15 703.687 223.66 C 703.447 223.83 703.277 223.94 703.007 223.97 C 702.217 223.97 702.047 223.36 702.047 222.53 C 702.047 222.36 702.047 222.19 702.087 222.02 C 702.147 221.54 707.147 201.81 707.147 201.4 C 707.147 201.19 706.907 201.13 706.737 201.13 C 706.627 201.13 705.507 201.23 704.237 201.33 Z M 701.297 213.71 L 699.447 221.13 L 699.177 221.51 C 698.317 222.57 696.887 223.97 695.377 223.97 C 693.947 223.97 693.297 222.81 693.297 221.23 C 693.297 220.96 693.327 220.69 693.327 220.45 C 693.497 219.22 694.247 216.14 694.727 214.84 C 695.347 213.13 696.747 211.01 698.727 211.01 C 700.237 211.01 700.887 212.24 701.297 213.71 Z" transform="matrix(1, 0, 0, 1, 0, 0)" style="white-space: pre;"/>
  <path d="M 370.867 36.879 L 370.867 187.078 L 951.628 187.078" style="fill: none; stroke: rgb(242, 13, 13); stroke-dasharray: 2px;"/>
  <path d="M 360.853 46.894 L 370.867 36.879 L 380.881 46.894" style="fill: none; stroke: rgb(242, 13, 13); stroke-dasharray: 2px;"/>
  <path d="M 356.059 47.606 C 355.479 47.606 354.859 47.946 354.589 48.526 C 354.489 48.736 354.249 49.626 353.149 53.896 C 352.469 56.736 351.849 59.066 351.849 59.136 C 351.069 60.156 350.079 61.426 348.399 61.426 C 346.859 61.426 346.479 60.326 346.479 58.756 C 346.479 58.486 346.479 58.246 346.519 57.966 C 346.719 56.666 347.099 55.366 348.189 52.396 C 348.469 51.706 348.709 51.056 348.709 50.926 C 348.779 50.786 348.779 50.516 348.809 50.206 C 348.809 48.326 347.579 47.226 345.659 47.226 C 344.669 47.226 343.919 47.676 343.239 48.326 C 342.349 49.146 341.529 50.546 341.079 52.056 C 341.009 52.296 340.979 52.426 340.979 52.526 C 340.979 52.666 341.109 52.766 341.179 52.836 L 341.659 52.836 C 342.309 52.836 342.209 52.836 342.349 52.526 C 342.719 51.096 343.299 49.966 344.019 49.246 C 344.539 48.736 344.979 48.526 345.529 48.526 L 345.699 48.526 C 346.109 48.526 346.179 48.766 346.179 49.386 C 346.179 50.106 346.139 50.276 345.419 52.186 C 344.429 54.856 344.059 56.016 343.849 57.216 C 343.779 57.656 343.779 57.796 343.779 58.486 C 343.779 59.096 343.779 59.306 343.819 59.546 C 344.259 61.596 345.829 62.726 348.159 62.726 C 348.599 62.726 349.079 62.656 349.489 62.556 C 350.519 62.176 351.239 61.596 351.239 61.626 C 351.239 61.666 350.959 62.656 350.859 62.966 C 350.039 65.526 348.329 67.506 346.619 67.986 C 346.309 68.056 346.179 68.056 345.729 68.056 L 345.459 68.056 C 345.049 68.056 344.739 67.986 344.359 67.856 C 344.089 67.746 343.679 67.476 343.649 67.406 C 343.649 67.406 343.679 67.376 343.749 67.376 C 343.819 67.336 344.019 67.266 344.189 67.166 C 344.839 66.856 345.389 66.206 345.389 65.326 C 345.389 64.366 344.769 63.886 343.889 63.886 C 343.339 63.886 342.819 64.126 342.379 64.536 C 341.899 65.016 341.729 65.556 341.729 66.346 C 341.729 66.966 341.829 67.376 342.069 67.716 C 342.649 68.746 344.019 69.356 345.599 69.356 C 346.859 69.356 347.849 69.046 349.049 68.466 C 351.169 67.376 352.879 65.386 353.629 63.136 C 353.869 62.446 357.219 49.246 357.219 48.566 C 357.219 47.946 356.639 47.606 356.059 47.606 Z" transform="matrix(1, 0, 0, 1, 0, 0)" style="white-space: pre;"/>
  <path d="M -29.661 307.237 C 97.958 325.03 682.857 396.194 881.537 397.354 C 1009.927 398.105 1012.732 -32.783 881.537 -33.21 C 683.45 -33.862 56.319 58.588 -29.661 66.92" style="fill: none; stroke: rgb(194, 224, 229); stroke-width: 2px;"/>
  <path d="M 557.418 125.982 C 557.418 126.502 554.328 138.592 554.258 138.682 C 554.168 138.842 554.058 138.912 553.828 138.952 C 553.588 138.972 552.978 139.022 552.488 139.022 C 551.908 139.022 551.908 139.022 551.798 139.492 C 551.748 139.672 551.728 139.762 551.728 139.802 C 551.728 139.852 551.748 139.872 551.768 139.922 C 551.818 140.012 551.838 140.032 552.128 140.032 C 552.958 140.032 553.748 140.012 555.068 140.012 C 556.428 140.012 557.238 140.052 558.138 140.052 C 558.428 140.052 558.428 140.012 558.488 139.942 C 558.538 139.852 558.648 139.402 558.648 139.272 C 558.648 139.152 558.558 139.092 558.518 139.022 L 557.818 139.022 C 557.148 139.002 556.678 138.952 556.588 138.912 C 556.548 138.892 556.518 138.842 556.518 138.732 C 556.518 138.682 556.808 137.452 557.188 135.972 L 557.868 133.312 L 559.988 133.312 C 561.828 133.292 562.148 133.292 562.348 133.262 C 563.958 132.992 565.298 132.342 566.328 131.342 C 567.118 130.572 567.588 129.792 567.768 128.922 C 567.808 128.742 567.808 128.452 567.808 128.182 C 567.808 127.952 567.808 127.732 567.788 127.602 C 567.428 126.032 566.108 125.112 564.428 124.822 C 564.138 124.772 564.088 124.772 559.878 124.752 C 555.688 124.752 555.598 124.752 555.538 124.802 C 555.448 124.862 555.308 125.312 555.308 125.532 C 555.308 125.782 555.358 125.782 556.138 125.782 C 556.808 125.802 557.418 125.782 557.418 125.982 Z M 565.438 127.642 C 565.438 128.092 565.388 128.362 565.208 129.102 C 564.918 130.242 564.678 130.802 564.208 131.272 C 563.668 131.832 562.908 132.192 561.898 132.342 C 561.668 132.372 561.378 132.372 559.838 132.392 C 558.088 132.392 558.018 132.392 558.018 132.342 C 558.068 132.302 559.518 126.342 559.638 126.012 C 559.698 125.892 559.818 125.832 560.038 125.802 C 560.128 125.802 560.888 125.782 561.738 125.782 C 563.088 125.802 563.328 125.802 563.528 125.832 C 564.608 126.032 565.438 126.412 565.438 127.642 Z" transform="matrix(1, 0, 0, 1, 0, 0)" style="white-space: pre;"/>
  <path d="M 568.943 133.822 C 568.943 134.702 568.999 135.542 569.113 136.342 C 569.226 137.142 569.416 137.939 569.683 138.732 C 569.956 139.525 570.313 140.339 570.753 141.172 C 571.193 142.005 571.739 142.902 572.393 143.862 L 571.813 144.332 C 568.679 141.419 567.113 137.915 567.113 133.822 C 567.113 129.735 568.679 126.235 571.813 123.322 L 572.393 123.792 C 571.739 124.759 571.193 125.659 570.753 126.492 C 570.313 127.319 569.956 128.129 569.683 128.922 C 569.416 129.709 569.226 130.502 569.113 131.302 C 568.999 132.102 568.943 132.942 568.943 133.822 Z" transform="matrix(1, 0, 0, 1, 0, 0)" style="white-space: pre;"/>
  <path d="M 574.253 133.822 L 574.563 133.822 C 574.993 133.822 574.973 133.802 575.033 133.552 C 575.373 132.372 576.353 131.002 577.813 131.002 C 578.513 131.002 578.913 131.452 578.913 132.172 C 578.913 132.412 578.863 132.682 578.803 133.042 C 578.573 133.732 577.773 137.652 577.303 138.462 C 576.913 139.112 576.423 139.472 575.913 139.472 C 575.753 139.472 575.483 139.422 575.323 139.362 C 575.213 139.312 574.993 139.182 574.993 139.152 C 574.993 139.152 575.033 139.132 575.063 139.132 C 575.103 139.112 575.233 139.062 575.353 139.002 C 575.773 138.802 576.133 138.372 576.133 137.792 C 576.133 137.162 575.753 136.852 575.173 136.852 C 574.293 136.852 573.733 137.612 573.733 138.462 C 573.733 138.772 573.803 139.092 573.963 139.362 C 574.273 139.892 574.853 140.272 575.793 140.272 C 576.133 140.272 576.183 140.272 576.383 140.232 C 577.033 140.012 577.613 139.532 578.033 138.892 C 578.483 139.672 579.223 140.302 580.413 140.302 C 581.373 140.302 582.003 139.962 582.633 139.472 C 583.323 138.862 583.933 138.012 584.193 137.052 C 584.223 136.942 584.243 136.872 584.243 136.802 C 584.243 136.652 584.133 136.622 583.813 136.622 C 583.433 136.622 583.413 136.622 583.323 136.912 C 583.013 138.062 581.933 139.472 580.593 139.472 C 579.893 139.472 579.453 139.022 579.453 138.302 C 579.453 138.102 579.473 137.852 579.513 137.632 C 579.583 137.272 580.703 132.772 580.793 132.522 C 581.043 131.832 581.553 131.252 582.043 131.052 C 582.183 131.002 582.223 131.002 582.473 131.002 C 582.763 131.002 582.943 131.022 583.123 131.132 C 583.253 131.202 583.373 131.272 583.373 131.292 C 582.783 131.492 582.253 131.922 582.253 132.702 C 582.253 133.242 582.633 133.602 583.213 133.602 C 584.083 133.602 584.643 132.862 584.643 131.962 C 584.643 130.982 583.843 130.152 582.583 130.152 C 581.893 130.152 581.223 130.492 580.683 131.092 C 580.503 131.272 580.433 131.402 580.323 131.562 C 579.943 130.782 579.003 130.152 577.923 130.152 C 577.773 130.152 577.613 130.172 577.453 130.192 C 576.443 130.352 575.483 131.022 574.813 132.032 C 574.523 132.482 574.163 133.262 574.113 133.582 C 574.113 133.712 574.183 133.762 574.253 133.822 Z" transform="matrix(1, 0, 0, 1, 0, 0)" style="white-space: pre;"/>
  <path d="M 585.8 143.632 L 591.79 124.152 L 593.11 124.152 L 587.13 143.632 L 585.8 143.632 Z" transform="matrix(1, 0, 0, 1, 0, 0)" style="white-space: pre;"/>
  <path d="M 603.499 130.402 C 603.119 130.402 602.709 130.622 602.539 131.002 C 602.469 131.132 602.309 131.722 601.589 134.522 C 601.149 136.382 600.739 137.902 600.739 137.942 C 600.229 138.622 599.579 139.452 598.479 139.452 C 597.469 139.452 597.229 138.732 597.229 137.702 C 597.229 137.522 597.229 137.362 597.249 137.182 C 597.379 136.332 597.629 135.482 598.349 133.532 C 598.529 133.082 598.679 132.662 598.679 132.572 C 598.729 132.482 598.729 132.302 598.749 132.102 C 598.749 130.872 597.939 130.152 596.689 130.152 C 596.039 130.152 595.549 130.442 595.099 130.872 C 594.519 131.402 593.979 132.322 593.689 133.312 C 593.639 133.462 593.619 133.552 593.619 133.622 C 593.619 133.712 593.709 133.782 593.749 133.822 L 594.069 133.822 C 594.489 133.822 594.429 133.822 594.519 133.622 C 594.759 132.682 595.139 131.942 595.609 131.472 C 595.949 131.132 596.239 131.002 596.599 131.002 L 596.709 131.002 C 596.979 131.002 597.029 131.162 597.029 131.562 C 597.029 132.032 596.999 132.142 596.529 133.402 C 595.879 135.142 595.639 135.912 595.499 136.692 C 595.459 136.982 595.459 137.072 595.459 137.522 C 595.459 137.922 595.459 138.062 595.479 138.212 C 595.769 139.562 596.799 140.302 598.319 140.302 C 598.619 140.302 598.929 140.252 599.199 140.182 C 599.869 139.942 600.339 139.562 600.339 139.582 C 600.339 139.602 600.159 140.252 600.089 140.452 C 599.559 142.132 598.439 143.432 597.319 143.752 C 597.109 143.792 597.029 143.792 596.729 143.792 L 596.549 143.792 C 596.289 143.792 596.079 143.752 595.839 143.662 C 595.659 143.592 595.389 143.412 595.369 143.372 C 595.369 143.372 595.389 143.342 595.429 143.342 C 595.479 143.322 595.609 143.282 595.729 143.212 C 596.149 143.012 596.509 142.582 596.509 142.002 C 596.509 141.372 596.109 141.062 595.519 141.062 C 595.169 141.062 594.829 141.212 594.539 141.482 C 594.229 141.802 594.109 142.162 594.109 142.672 C 594.109 143.072 594.179 143.342 594.339 143.572 C 594.719 144.242 595.609 144.642 596.639 144.642 C 597.469 144.642 598.119 144.442 598.909 144.062 C 600.299 143.342 601.419 142.042 601.909 140.572 C 602.069 140.122 604.259 131.472 604.259 131.022 C 604.259 130.622 603.879 130.402 603.499 130.402 Z" transform="matrix(1, 0, 0, 1, 0, 0)" style="white-space: pre;"/>
  <path d="M 607.7 133.822 C 607.7 134.702 607.757 135.542 607.87 136.342 C 607.984 137.142 608.174 137.939 608.44 138.732 C 608.714 139.525 609.07 140.339 609.51 141.172 C 609.95 142.005 610.497 142.902 611.15 143.862 L 610.57 144.332 C 607.437 141.419 605.87 137.915 605.87 133.822 C 605.87 129.735 607.437 126.235 610.57 123.322 L 611.15 123.792 C 610.497 124.759 609.95 125.659 609.51 126.492 C 609.07 127.319 608.714 128.129 608.44 128.922 C 608.174 129.709 607.984 130.502 607.87 131.302 C 607.757 132.102 607.7 132.942 607.7 133.822 Z" transform="matrix(1, 0, 0, 1, 0, 0)" style="white-space: pre;"/>
  <path d="M 613.011 133.822 L 613.321 133.822 C 613.751 133.822 613.731 133.802 613.791 133.552 C 614.131 132.372 615.111 131.002 616.571 131.002 C 617.271 131.002 617.671 131.452 617.671 132.172 C 617.671 132.412 617.621 132.682 617.561 133.042 C 617.331 133.732 616.531 137.652 616.061 138.462 C 615.671 139.112 615.181 139.472 614.671 139.472 C 614.511 139.472 614.241 139.422 614.081 139.362 C 613.971 139.312 613.751 139.182 613.751 139.152 C 613.751 139.152 613.791 139.132 613.821 139.132 C 613.861 139.112 613.991 139.062 614.111 139.002 C 614.531 138.802 614.891 138.372 614.891 137.792 C 614.891 137.162 614.511 136.852 613.931 136.852 C 613.051 136.852 612.491 137.612 612.491 138.462 C 612.491 138.772 612.561 139.092 612.721 139.362 C 613.031 139.892 613.611 140.272 614.551 140.272 C 614.891 140.272 614.941 140.272 615.141 140.232 C 615.791 140.012 616.371 139.532 616.791 138.892 C 617.241 139.672 617.981 140.302 619.171 140.302 C 620.131 140.302 620.761 139.962 621.391 139.472 C 622.081 138.862 622.691 138.012 622.951 137.052 C 622.981 136.942 623.001 136.872 623.001 136.802 C 623.001 136.652 622.891 136.622 622.571 136.622 C 622.191 136.622 622.171 136.622 622.081 136.912 C 621.771 138.062 620.691 139.472 619.351 139.472 C 618.651 139.472 618.211 139.022 618.211 138.302 C 618.211 138.102 618.231 137.852 618.271 137.632 C 618.341 137.272 619.461 132.772 619.551 132.522 C 619.801 131.832 620.311 131.252 620.801 131.052 C 620.941 131.002 620.981 131.002 621.231 131.002 C 621.521 131.002 621.701 131.022 621.881 131.132 C 622.011 131.202 622.131 131.272 622.131 131.292 C 621.541 131.492 621.011 131.922 621.011 132.702 C 621.011 133.242 621.391 133.602 621.971 133.602 C 622.841 133.602 623.401 132.862 623.401 131.962 C 623.401 130.982 622.601 130.152 621.341 130.152 C 620.651 130.152 619.981 130.492 619.441 131.092 C 619.261 131.272 619.191 131.402 619.081 131.562 C 618.701 130.782 617.761 130.152 616.681 130.152 C 616.531 130.152 616.371 130.172 616.211 130.192 C 615.201 130.352 614.241 131.022 613.571 132.032 C 613.281 132.482 612.921 133.262 612.871 133.582 C 612.871 133.712 612.941 133.762 613.011 133.822 Z" transform="matrix(1, 0, 0, 1, 0, 0)" style="white-space: pre;"/>
  <path d="M 628.528 133.822 C 628.528 132.942 628.471 132.102 628.358 131.302 C 628.244 130.502 628.054 129.709 627.788 128.922 C 627.521 128.129 627.168 127.319 626.728 126.492 C 626.288 125.659 625.738 124.759 625.078 123.792 L 625.658 123.322 C 628.798 126.235 630.368 129.735 630.368 133.822 C 630.368 137.915 628.798 141.419 625.658 144.332 L 625.078 143.862 C 625.738 142.902 626.288 142.005 626.728 141.172 C 627.168 140.339 627.521 139.525 627.788 138.732 C 628.054 137.939 628.244 137.142 628.358 136.342 C 628.471 135.542 628.528 134.702 628.528 133.822 ZM 635.021 133.822 C 635.021 132.942 634.964 132.102 634.851 131.302 C 634.738 130.502 634.548 129.709 634.281 128.922 C 634.014 128.129 633.661 127.319 633.221 126.492 C 632.781 125.659 632.231 124.759 631.571 123.792 L 632.151 123.322 C 635.291 126.235 636.861 129.735 636.861 133.822 C 636.861 137.915 635.291 141.419 632.151 144.332 L 631.571 143.862 C 632.231 142.902 632.781 142.005 633.221 141.172 C 633.661 140.339 634.014 139.525 634.281 138.732 C 634.548 137.939 634.738 137.142 634.851 136.342 C 634.964 135.542 635.021 134.702 635.021 133.822 Z" transform="matrix(1, 0, 0, 1, 0, 0)" style="white-space: pre;"/>
  <line style="stroke: rgb(0, 0, 0); stroke-dasharray: 4px;" x1="630.861" y1="186.697" x2="630.861" y2="155.868"/>
  <circle style="fill: rgb(2, 2, 2);" cx="630.879" cy="154.996" r="3.715"/>
  <line style="stroke: rgb(0, 0, 0); stroke-dasharray: 4px;" x1="501.353" y1="285.008" x2="501.353" y2="25.084" transform="matrix(0, 1, -1, 0, 656.398987, -346.307007)"/>
  <path d="M 337.373 150.562 C 336.993 150.562 336.583 150.782 336.413 151.162 C 336.343 151.292 336.183 151.882 335.463 154.682 C 335.023 156.542 334.613 158.062 334.613 158.102 C 334.103 158.782 333.453 159.612 332.353 159.612 C 331.343 159.612 331.103 158.892 331.103 157.862 C 331.103 157.682 331.103 157.522 331.123 157.342 C 331.253 156.492 331.503 155.642 332.223 153.692 C 332.403 153.242 332.553 152.822 332.553 152.732 C 332.603 152.642 332.603 152.462 332.623 152.262 C 332.623 151.032 331.813 150.312 330.563 150.312 C 329.913 150.312 329.423 150.602 328.973 151.032 C 328.393 151.562 327.853 152.482 327.563 153.472 C 327.513 153.622 327.493 153.712 327.493 153.782 C 327.493 153.872 327.583 153.942 327.623 153.982 L 327.943 153.982 C 328.363 153.982 328.303 153.982 328.393 153.782 C 328.633 152.842 329.013 152.102 329.483 151.632 C 329.823 151.292 330.113 151.162 330.473 151.162 L 330.583 151.162 C 330.853 151.162 330.903 151.322 330.903 151.722 C 330.903 152.192 330.873 152.302 330.403 153.562 C 329.753 155.302 329.513 156.072 329.373 156.852 C 329.333 157.142 329.333 157.232 329.333 157.682 C 329.333 158.082 329.333 158.222 329.353 158.372 C 329.643 159.722 330.673 160.462 332.193 160.462 C 332.493 160.462 332.803 160.412 333.073 160.342 C 333.743 160.102 334.213 159.722 334.213 159.742 C 334.213 159.762 334.033 160.412 333.963 160.612 C 333.433 162.292 332.313 163.592 331.193 163.912 C 330.983 163.952 330.903 163.952 330.603 163.952 L 330.423 163.952 C 330.163 163.952 329.953 163.912 329.713 163.822 C 329.533 163.752 329.263 163.572 329.243 163.532 C 329.243 163.532 329.263 163.502 329.303 163.502 C 329.353 163.482 329.483 163.442 329.603 163.372 C 330.023 163.172 330.383 162.742 330.383 162.162 C 330.383 161.532 329.983 161.222 329.393 161.222 C 329.043 161.222 328.703 161.372 328.413 161.642 C 328.103 161.962 327.983 162.322 327.983 162.832 C 327.983 163.232 328.053 163.502 328.213 163.732 C 328.593 164.402 329.483 164.802 330.513 164.802 C 331.343 164.802 331.993 164.602 332.783 164.222 C 334.173 163.502 335.293 162.202 335.783 160.732 C 335.943 160.282 338.133 151.632 338.133 151.182 C 338.133 150.782 337.753 150.562 337.373 150.562 Z" transform="matrix(1, 0, 0, 1, 0, 0)" style="white-space: pre;"/>
  <path d="M 341.574 153.982 C 341.574 154.862 341.631 155.702 341.744 156.502 C 341.858 157.302 342.048 158.099 342.314 158.892 C 342.588 159.685 342.944 160.499 343.384 161.332 C 343.824 162.165 344.371 163.062 345.024 164.022 L 344.444 164.492 C 341.311 161.579 339.744 158.075 339.744 153.982 C 339.744 149.895 341.311 146.395 344.444 143.482 L 345.024 143.952 C 344.371 144.919 343.824 145.819 343.384 146.652 C 342.944 147.479 342.588 148.289 342.314 149.082 C 342.048 149.869 341.858 150.662 341.744 151.462 C 341.631 152.262 341.574 153.102 341.574 153.982 Z" transform="matrix(1, 0, 0, 1, 0, 0)" style="white-space: pre;"/>
  <path d="M 346.885 153.982 L 347.195 153.982 C 347.625 153.982 347.605 153.962 347.665 153.712 C 348.005 152.532 348.985 151.162 350.445 151.162 C 351.145 151.162 351.545 151.612 351.545 152.332 C 351.545 152.572 351.495 152.842 351.435 153.202 C 351.205 153.892 350.405 157.812 349.935 158.622 C 349.545 159.272 349.055 159.632 348.545 159.632 C 348.385 159.632 348.115 159.582 347.955 159.522 C 347.845 159.472 347.625 159.342 347.625 159.312 C 347.625 159.312 347.665 159.292 347.695 159.292 C 347.735 159.272 347.865 159.222 347.985 159.162 C 348.405 158.962 348.765 158.532 348.765 157.952 C 348.765 157.322 348.385 157.012 347.805 157.012 C 346.925 157.012 346.365 157.772 346.365 158.622 C 346.365 158.932 346.435 159.252 346.595 159.522 C 346.905 160.052 347.485 160.432 348.425 160.432 C 348.765 160.432 348.815 160.432 349.015 160.392 C 349.665 160.172 350.245 159.692 350.665 159.052 C 351.115 159.832 351.855 160.462 353.045 160.462 C 354.005 160.462 354.635 160.122 355.265 159.632 C 355.955 159.022 356.565 158.172 356.825 157.212 C 356.855 157.102 356.875 157.032 356.875 156.962 C 356.875 156.812 356.765 156.782 356.445 156.782 C 356.065 156.782 356.045 156.782 355.955 157.072 C 355.645 158.222 354.565 159.632 353.225 159.632 C 352.525 159.632 352.085 159.182 352.085 158.462 C 352.085 158.262 352.105 158.012 352.145 157.792 C 352.215 157.432 353.335 152.932 353.425 152.682 C 353.675 151.992 354.185 151.412 354.675 151.212 C 354.815 151.162 354.855 151.162 355.105 151.162 C 355.395 151.162 355.575 151.182 355.755 151.292 C 355.885 151.362 356.005 151.432 356.005 151.452 C 355.415 151.652 354.885 152.082 354.885 152.862 C 354.885 153.402 355.265 153.762 355.845 153.762 C 356.715 153.762 357.275 153.022 357.275 152.122 C 357.275 151.142 356.475 150.312 355.215 150.312 C 354.525 150.312 353.855 150.652 353.315 151.252 C 353.135 151.432 353.065 151.562 352.955 151.722 C 352.575 150.942 351.635 150.312 350.555 150.312 C 350.405 150.312 350.245 150.332 350.085 150.352 C 349.075 150.512 348.115 151.182 347.445 152.192 C 347.155 152.642 346.795 153.422 346.745 153.742 C 346.745 153.872 346.815 153.922 346.885 153.982 Z" transform="matrix(1, 0, 0, 1, 0, 0)" style="white-space: pre;"/>
  <path d="M 362.402 153.982 C 362.402 153.102 362.345 152.262 362.232 151.462 C 362.119 150.662 361.929 149.869 361.662 149.082 C 361.395 148.289 361.042 147.479 360.602 146.652 C 360.162 145.819 359.612 144.919 358.952 143.952 L 359.532 143.482 C 362.672 146.395 364.242 149.895 364.242 153.982 C 364.242 158.075 362.672 161.579 359.532 164.492 L 358.952 164.022 C 359.612 163.062 360.162 162.165 360.602 161.332 C 361.042 160.499 361.395 159.685 361.662 158.892 C 361.929 158.099 362.119 157.302 362.232 156.502 C 362.345 155.702 362.402 154.862 362.402 153.982 Z" transform="matrix(1, 0, 0, 1, 0, 0)" style="white-space: pre;"/>
  <path d="M 625.163 200.803 L 625.473 200.803 C 625.903 200.803 625.883 200.783 625.943 200.533 C 626.283 199.353 627.263 197.983 628.723 197.983 C 629.423 197.983 629.823 198.433 629.823 199.153 C 629.823 199.393 629.773 199.663 629.713 200.023 C 629.483 200.713 628.683 204.633 628.213 205.443 C 627.823 206.093 627.333 206.453 626.823 206.453 C 626.663 206.453 626.393 206.403 626.233 206.343 C 626.123 206.293 625.903 206.163 625.903 206.133 C 625.903 206.133 625.943 206.113 625.973 206.113 C 626.013 206.093 626.143 206.043 626.263 205.983 C 626.683 205.783 627.043 205.353 627.043 204.773 C 627.043 204.143 626.663 203.833 626.083 203.833 C 625.203 203.833 624.643 204.593 624.643 205.443 C 624.643 205.753 624.713 206.073 624.873 206.343 C 625.183 206.873 625.763 207.253 626.703 207.253 C 627.043 207.253 627.093 207.253 627.293 207.213 C 627.943 206.993 628.523 206.513 628.943 205.873 C 629.393 206.653 630.133 207.283 631.323 207.283 C 632.283 207.283 632.913 206.943 633.543 206.453 C 634.233 205.843 634.843 204.993 635.103 204.033 C 635.133 203.923 635.153 203.853 635.153 203.783 C 635.153 203.633 635.043 203.603 634.723 203.603 C 634.343 203.603 634.323 203.603 634.233 203.893 C 633.923 205.043 632.843 206.453 631.503 206.453 C 630.803 206.453 630.363 206.003 630.363 205.283 C 630.363 205.083 630.383 204.833 630.423 204.613 C 630.493 204.253 631.613 199.753 631.703 199.503 C 631.953 198.813 632.463 198.233 632.953 198.033 C 633.093 197.983 633.133 197.983 633.383 197.983 C 633.673 197.983 633.853 198.003 634.033 198.113 C 634.163 198.183 634.283 198.253 634.283 198.273 C 633.693 198.473 633.163 198.903 633.163 199.683 C 633.163 200.223 633.543 200.583 634.123 200.583 C 634.993 200.583 635.553 199.843 635.553 198.943 C 635.553 197.963 634.753 197.133 633.493 197.133 C 632.803 197.133 632.133 197.473 631.593 198.073 C 631.413 198.253 631.343 198.383 631.233 198.543 C 630.853 197.763 629.913 197.133 628.833 197.133 C 628.683 197.133 628.523 197.153 628.363 197.173 C 627.353 197.333 626.393 198.003 625.723 199.013 C 625.433 199.463 625.073 200.243 625.023 200.563 C 625.023 200.693 625.093 200.743 625.163 200.803 Z" transform="matrix(1, 0, 0, 1, 0, 0)" style="white-space: pre;"/>
  <path d="M 554.132 29.642 C 554.132 29.252 554.162 28.862 554.202 28.622 C 554.372 27.072 558.062 12.792 558.132 12.682 C 558.442 12.192 558.862 12.232 560.512 12.192 C 561.082 12.192 561.602 12.162 561.642 12.162 C 561.782 12.092 561.852 11.982 561.992 11.452 C 562.092 10.932 562.092 10.932 562.022 10.822 C 561.952 10.652 561.922 10.612 561.502 10.612 C 560.092 10.612 558.652 10.652 557.002 10.652 C 555.352 10.652 553.672 10.652 552.232 10.582 C 551.842 10.582 551.702 10.582 551.632 10.612 C 551.492 10.722 551.462 10.792 551.322 11.312 C 551.212 11.842 551.212 11.842 551.282 11.952 C 551.352 12.162 551.392 12.192 552.552 12.192 C 553.562 12.232 554.552 12.192 554.552 12.512 C 554.552 13.172 551.142 26.372 550.972 27.252 C 550.932 27.572 550.902 28.162 550.902 28.692 C 550.902 29.002 550.902 29.292 550.932 29.502 C 551.422 32.942 554.232 35.322 558.022 35.322 C 562.872 35.322 566.762 31.152 568.022 27.352 C 568.092 27.112 568.902 23.952 569.782 20.372 C 571.042 15.422 571.462 13.772 571.532 13.602 C 572.032 12.612 573.182 12.262 574.662 12.192 C 575.262 12.192 575.362 12.162 575.432 12.022 C 575.502 11.952 575.712 11.142 575.712 10.962 C 575.712 10.682 575.572 10.612 575.192 10.612 C 574.132 10.612 573.112 10.682 571.432 10.682 C 569.672 10.682 568.552 10.582 567.362 10.582 C 566.902 10.582 566.972 10.722 566.802 11.382 C 566.692 11.842 566.692 11.842 566.762 11.952 C 566.832 12.162 566.942 12.192 567.572 12.192 C 568.522 12.262 569.812 12.402 569.812 13.282 C 569.812 13.672 569.502 14.862 568.172 20.302 L 566.382 27.352 C 565.292 30.582 562.302 33.712 558.232 33.712 C 555.632 33.712 554.132 32.232 554.132 29.642 Z" transform="matrix(1, 0, 0, 1, 0, 0)" style="white-space: pre;"/>
  <path d="M 577.891 33.729 C 577.541 33.729 577.171 33.939 577.001 34.289 C 576.941 34.409 576.801 34.949 576.141 37.519 C 575.721 39.229 575.351 40.629 575.351 40.669 C 574.881 41.289 574.281 42.049 573.271 42.049 C 572.351 42.049 572.121 41.389 572.121 40.449 C 572.121 40.279 572.121 40.139 572.141 39.969 C 572.261 39.189 572.491 38.409 573.151 36.619 C 573.311 36.199 573.461 35.809 573.461 35.729 C 573.501 35.649 573.501 35.479 573.521 35.299 C 573.521 34.159 572.781 33.499 571.621 33.499 C 571.031 33.499 570.571 33.769 570.161 34.159 C 569.631 34.659 569.131 35.499 568.861 36.409 C 568.821 36.549 568.801 36.639 568.801 36.699 C 568.801 36.779 568.891 36.839 568.931 36.879 L 569.211 36.879 C 569.611 36.879 569.541 36.879 569.631 36.699 C 569.851 35.829 570.201 35.149 570.641 34.719 C 570.951 34.409 571.211 34.289 571.541 34.289 L 571.651 34.289 C 571.891 34.289 571.931 34.429 571.931 34.799 C 571.931 35.239 571.911 35.339 571.481 36.489 C 570.881 38.099 570.661 38.799 570.531 39.519 C 570.491 39.789 570.491 39.869 570.491 40.279 C 570.491 40.649 570.491 40.779 570.511 40.919 C 570.781 42.159 571.731 42.839 573.131 42.839 C 573.401 42.839 573.681 42.799 573.931 42.729 C 574.551 42.509 574.981 42.159 574.981 42.179 C 574.981 42.199 574.821 42.799 574.761 42.979 C 574.261 44.529 573.231 45.719 572.201 46.009 C 572.021 46.049 571.931 46.049 571.671 46.049 L 571.501 46.049 C 571.251 46.049 571.071 46.009 570.841 45.929 C 570.681 45.859 570.431 45.699 570.411 45.659 C 570.411 45.659 570.431 45.639 570.471 45.639 C 570.511 45.619 570.641 45.579 570.741 45.509 C 571.131 45.329 571.461 44.939 571.461 44.399 C 571.461 43.829 571.091 43.539 570.551 43.539 C 570.221 43.539 569.911 43.679 569.651 43.929 C 569.361 44.219 569.261 44.549 569.261 45.019 C 569.261 45.389 569.321 45.639 569.461 45.839 C 569.811 46.459 570.641 46.829 571.581 46.829 C 572.351 46.829 572.941 46.649 573.661 46.299 C 574.941 45.639 575.971 44.439 576.421 43.079 C 576.571 42.669 578.591 34.719 578.591 34.309 C 578.591 33.939 578.241 33.729 577.891 33.729 Z" transform="matrix(1, 0, 0, 1, 0, 0)" style="white-space: pre;"/>
  <circle style="fill: rgb(249, 1, 1);" cx="370.523" cy="186.91" r="3.715"/>
  <path d="M 368.44 197.337 C 366.52 197.507 364.6 198.377 362.87 199.817 C 362.51 200.127 361.74 200.897 361.43 201.257 C 359.92 203.027 358.93 205.137 358.64 207.297 C 358.62 207.537 358.62 207.947 358.62 208.377 C 358.62 210.567 359.27 211.977 360.44 213.137 C 361.55 214.187 363.06 214.767 364.72 214.767 C 366.71 214.767 368.41 214.017 369.78 213.137 C 371.03 212.337 372.2 211.217 373.09 209.937 C 374.44 208.067 375.18 205.857 375.18 203.797 C 375.18 200.247 373.09 197.797 370 197.367 C 369.76 197.337 369.25 197.337 368.84 197.337 L 368.44 197.337 Z M 372.71 202.817 C 372.71 203.917 372.47 205.237 372.01 206.727 C 371.15 209.537 369.71 211.647 367.84 212.867 C 367.09 213.347 366.04 213.777 364.96 213.777 C 364.55 213.777 364.16 213.707 363.78 213.587 C 362.12 213.037 361.19 211.337 361.19 209.057 C 361.19 206.057 362.44 202.817 363.83 201.037 C 364.14 200.677 364.81 199.977 365.15 199.717 C 366.01 199.017 367.04 198.537 367.96 198.377 C 368.24 198.297 368.56 198.277 368.84 198.277 C 369.11 198.277 369.37 198.297 369.59 198.347 C 371.51 198.737 372.71 200.367 372.71 202.817 Z" transform="matrix(1, 0, 0, 1, 0, 0)" style="fill: rgb(51, 51, 51); white-space: pre;"/>
  <path d="M 379.565 207.567 C 379.565 208.507 379.625 209.407 379.745 210.267 C 379.865 211.12 380.068 211.97 380.355 212.817 C 380.641 213.67 381.021 214.544 381.495 215.437 C 381.968 216.33 382.558 217.29 383.265 218.317 L 382.635 218.817 C 379.275 215.697 377.595 211.947 377.595 207.567 C 377.595 203.18 379.275 199.427 382.635 196.307 L 383.265 196.817 C 382.558 197.857 381.968 198.82 381.495 199.707 C 381.021 200.594 380.641 201.46 380.355 202.307 C 380.068 203.154 379.865 204.007 379.745 204.867 C 379.625 205.72 379.565 206.62 379.565 207.567 ZM 387.077 206.507 C 387.077 207.914 387.151 209.07 387.297 209.977 C 387.451 210.884 387.657 211.6 387.917 212.127 C 388.171 212.654 388.471 213.017 388.817 213.217 C 389.157 213.417 389.511 213.517 389.877 213.517 C 390.231 213.517 390.577 213.417 390.917 213.217 C 391.251 213.017 391.551 212.654 391.817 212.127 C 392.077 211.6 392.284 210.884 392.437 209.977 C 392.591 209.07 392.667 207.914 392.667 206.507 C 392.667 205.1 392.591 203.944 392.437 203.037 C 392.284 202.137 392.077 201.424 391.817 200.897 C 391.551 200.364 391.251 199.997 390.917 199.797 C 390.577 199.597 390.231 199.497 389.877 199.497 C 389.511 199.497 389.157 199.597 388.817 199.797 C 388.471 199.997 388.171 200.357 387.917 200.877 C 387.657 201.397 387.451 202.114 387.297 203.027 C 387.151 203.94 387.077 205.1 387.077 206.507 Z M 389.877 198.417 C 390.504 198.417 391.121 198.564 391.727 198.857 C 392.334 199.144 392.871 199.604 393.337 200.237 C 393.804 200.864 394.181 201.694 394.467 202.727 C 394.754 203.76 394.897 205.02 394.897 206.507 C 394.897 207.994 394.754 209.254 394.467 210.287 C 394.181 211.32 393.804 212.154 393.337 212.787 C 392.871 213.42 392.334 213.88 391.727 214.167 C 391.121 214.454 390.504 214.597 389.877 214.597 C 389.237 214.597 388.614 214.454 388.007 214.167 C 387.401 213.88 386.864 213.42 386.397 212.787 C 385.937 212.154 385.564 211.32 385.277 210.287 C 384.984 209.254 384.837 207.994 384.837 206.507 C 384.837 205.02 384.984 203.76 385.277 202.727 C 385.564 201.694 385.937 200.864 386.397 200.237 C 386.864 199.604 387.401 199.144 388.007 198.857 C 388.614 198.564 389.237 198.417 389.877 198.417 ZM 395.879 218.077 L 402.289 197.197 L 403.699 197.197 L 397.289 218.077 L 395.879 218.077 ZM 406.965 206.507 C 406.965 207.914 407.039 209.07 407.185 209.977 C 407.339 210.884 407.545 211.6 407.805 212.127 C 408.059 212.654 408.359 213.017 408.705 213.217 C 409.045 213.417 409.399 213.517 409.765 213.517 C 410.119 213.517 410.465 213.417 410.805 213.217 C 411.139 213.017 411.439 212.654 411.705 212.127 C 411.965 211.6 412.172 210.884 412.325 209.977 C 412.479 209.07 412.555 207.914 412.555 206.507 C 412.555 205.1 412.479 203.944 412.325 203.037 C 412.172 202.137 411.965 201.424 411.705 200.897 C 411.439 200.364 411.139 199.997 410.805 199.797 C 410.465 199.597 410.119 199.497 409.765 199.497 C 409.399 199.497 409.045 199.597 408.705 199.797 C 408.359 199.997 408.059 200.357 407.805 200.877 C 407.545 201.397 407.339 202.114 407.185 203.027 C 407.039 203.94 406.965 205.1 406.965 206.507 Z M 409.765 198.417 C 410.392 198.417 411.009 198.564 411.615 198.857 C 412.222 199.144 412.759 199.604 413.225 200.237 C 413.692 200.864 414.069 201.694 414.355 202.727 C 414.642 203.76 414.785 205.02 414.785 206.507 C 414.785 207.994 414.642 209.254 414.355 210.287 C 414.069 211.32 413.692 212.154 413.225 212.787 C 412.759 213.42 412.222 213.88 411.615 214.167 C 411.009 214.454 410.392 214.597 409.765 214.597 C 409.125 214.597 408.502 214.454 407.895 214.167 C 407.289 213.88 406.752 213.42 406.285 212.787 C 405.825 212.154 405.452 211.32 405.165 210.287 C 404.872 209.254 404.725 207.994 404.725 206.507 C 404.725 205.02 404.872 203.76 405.165 202.727 C 405.452 201.694 405.825 200.864 406.285 200.237 C 406.752 199.604 407.289 199.144 407.895 198.857 C 408.502 198.564 409.125 198.417 409.765 198.417 ZM 420.017 207.567 C 420.017 206.62 419.957 205.72 419.837 204.867 C 419.717 204.007 419.51 203.154 419.217 202.307 C 418.93 201.46 418.55 200.594 418.077 199.707 C 417.61 198.82 417.023 197.857 416.317 196.817 L 416.937 196.307 C 420.297 199.427 421.977 203.18 421.977 207.567 C 421.977 211.947 420.297 215.697 416.937 218.817 L 416.317 218.317 C 417.023 217.29 417.61 216.33 418.077 215.437 C 418.55 214.544 418.93 213.67 419.217 212.817 C 419.51 211.97 419.717 211.12 419.837 210.267 C 419.957 209.407 420.017 208.507 420.017 207.567 Z" transform="matrix(1, 0, 0, 1, 0, 0)" style="fill: rgb(51, 51, 51); white-space: pre;"/>
</svg>