<?xml version="1.0" encoding="utf-8"?>
<svg viewBox="29.539 -138.965 694.11 469.358" width="694.11" height="469.358" xmlns="http://www.w3.org/2000/svg" xmlns:bx="https://boxy-svg.com">
  <path d="M 451.227 207.369 C 460.141 207.404 609.768 213.317 727.45 162.819" style="fill: none; stroke: rgb(255, 178, 117); stroke-width: 2px;" transform="matrix(1, 0, 0, 1, -286.741913, -130.203491)"/>
  <path d="M 727.45 162.819 L 905.657 82.624" style="fill: none; stroke: rgb(255, 178, 117); stroke-width: 2px;" transform="matrix(1, 0, 0, 1, -286.741913, -130.203491)"/>
  <circle cx="584.884" cy="73.712" r="8.912" style="fill: none; stroke: rgb(0, 0, 0); stroke-linecap: round; stroke-width: 2px;" transform="matrix(1, 0, 0, 1, -286.741913, -130.203491)"/>
  <circle cx="584.884" cy="341.023" r="8.912" style="fill: none; stroke: rgb(0, 0, 0); stroke-linecap: round; stroke-width: 2px;" transform="matrix(1, 0, 0, 1, -286.741913, -130.203491)"/>
  <path d="M 549.241 341.023 L 567.061 341.023" style="fill: none; stroke: rgb(0, 0, 0); stroke-linecap: round; stroke-width: 2px;" transform="matrix(1, 0, 0, 1, -286.741913, -130.203491)"/>
  <path d="M 584.884 109.355 L 584.884 82.624 L 584.884 91.533" style="fill: none; stroke: rgb(0, 0, 0); stroke-linecap: round; stroke-width: 2px;" transform="matrix(1, 0, 0, 1, -286.741913, -130.203491)"/>
  <path d="M 584.884 332.115 L 584.884 305.383 L 584.884 314.295" style="fill: none; stroke: rgb(0, 0, 0); stroke-linecap: round; stroke-width: 2px;" transform="matrix(1, 0, 0, 1, -286.741913, -130.203491)"/>
  <g style="" transform="matrix(3.143394, 0, 0, 3.143394, -316.67746, -154.505386)">
    <path d="M133.228,104.882l5.67,0" style="fill:none;stroke:#000;stroke-width:1px;stroke-linecap:round;"/>
    <path d="M136.063,102.047l0,5.67" style="fill:none;stroke:#000;stroke-width:1px;stroke-linecap:round;"/>
  </g>
  <g style="" transform="matrix(3.143394, 0, 0, 3.143394, -316.67746, -154.505386)">
    <path d="M133.228,42.52l5.67,0" style="fill:none;stroke:#000;stroke-width:1px;stroke-linecap:round;"/>
    <path d="M136.063,39.685l0,5.669" style="fill:none;stroke:#000;stroke-width:1px;stroke-linecap:round;"/>
  </g>
  <g style="" transform="matrix(3.143394, 0, 0, 3.143394, -316.67746, -154.505386)">
    <path d="M184.252,31.181l5.669,0" style="fill:none;stroke:#000;stroke-width:1px;stroke-linecap:round;"/>
    <path d="M187.087,28.346l0,5.67" style="fill:none;stroke:#000;stroke-width:1px;stroke-linecap:round;"/>
  </g>
  <path d="M 290.838 358.846 L 326.481 358.846 L 326.481 305.383 L 348.825 305.383" style="fill: none; stroke: rgb(0, 0, 0); stroke-linecap: round; stroke-width: 2px;" transform="matrix(1, 0, 0, 1, -286.741913, -130.203491)"/>
  <ellipse cx="362.122" cy="207.369" rx="5.691" ry="26.731" style="fill: none; stroke: rgb(179, 179, 179); stroke-linecap: round; stroke-width: 2px;" transform="matrix(1, 0, 0, 1, -286.741913, -130.203491)"/>
  <ellipse cx="362.741" cy="207.369" rx="26.115" ry="115.834" style="fill: none; stroke: rgb(179, 179, 179); stroke-linecap: round; stroke-width: 2px;" transform="matrix(1, 0, 0, 1, -286.741913, -130.203491)"/>
  <path d="M 255.198 207.369 L 451.227 207.369" style="fill: none; stroke: rgb(138, 201, 255); stroke-linecap: round; stroke-width: 2px; stroke-dasharray: 4px;" transform="matrix(1, 0, 0, 1, -286.741913, -130.203491)"/>
  <path d="M 905.657 38.073 L 905.657 376.667" style="fill: none; stroke: rgb(128, 128, 128); stroke-width: 2px; stroke-linecap: round;" transform="matrix(1, 0, 0, 1, -286.741913, -130.203491)"/>
  <path d="M 451.227 111.314 L 727.45 111.314" style="fill: none; stroke: rgb(0, 0, 0); stroke-width: 2px;" transform="matrix(1, 0, 0, 1, -286.741913, -130.203491)"/>
  <path d="M 451.227 305.383 L 727.45 305.383" style="fill: none; stroke: rgb(0, 0, 0); stroke-width: 2px;" transform="matrix(1, 0, 0, 1, -286.741913, -130.203491)"/>
  <path d="M 451.227 412.31 L 727.45 412.31" style="fill: none; stroke: rgb(115, 140, 136); stroke-width: 0.5px;" transform="matrix(1, 0, 0, 1, -286.741913, -130.203491)"/>
  <path d="M 727.45 113.21 L 727.45 303.686" style="fill: none; stroke: rgb(115, 140, 136); stroke-width: 0.5px;" transform="matrix(1, 0, 0, 1, -286.741913, -130.203491)"/>
  <path d="M 581.205 448.289 C 581.385 448.289 581.535 448.249 581.695 448.219 C 582.605 448.009 583.305 447.279 583.885 445.939 C 584.165 445.299 584.585 443.829 584.585 443.559 C 584.585 443.249 584.495 443.279 584.005 443.279 L 583.885 443.279 C 583.435 443.279 583.465 443.309 583.275 443.949 C 582.785 445.909 582.365 446.729 581.755 447.069 C 581.565 447.159 581.175 447.159 581.025 447.099 C 580.655 446.879 580.595 446.579 580.595 445.969 C 580.595 445.779 580.625 445.569 580.625 445.419 C 580.775 444.409 585.135 427.639 585.135 427.029 C 585.135 426.839 584.925 426.779 584.775 426.779 C 584.745 426.779 580.375 427.089 580.225 427.149 C 580.105 427.209 580.075 427.299 579.955 427.789 C 579.865 428.189 579.865 428.219 579.895 428.309 C 579.985 428.489 580.045 428.519 580.745 428.519 C 581.605 428.549 582.205 428.459 582.115 429.159 C 582.085 429.249 581.235 432.789 580.195 436.969 L 578.215 444.839 C 578.185 444.989 578.185 445.169 578.185 445.359 C 578.185 447.189 579.405 448.289 581.205 448.289 Z" transform="matrix(1, 0, 0, 1, -286.7419128417969, -130.2034912109375)" style="white-space: pre;"/>
  <path d="M 718.538 295.058 L 727.45 303.969 L 736.361 295.058" style="fill: none; stroke: rgb(115, 140, 136); stroke-width: 0.5px;" transform="matrix(1, 0, 0, 1, -286.741913, -130.203491)"/>
  <path d="M 727.45 340.732 L 902.341 340.732" style="fill: none; stroke: rgb(115, 140, 136); stroke-width: 0.5px;" transform="matrix(1, 0, 0, 1, -286.741913, -130.203491)"/>
  <path d="M 727.45 322.908 L 727.45 358.551" style="fill: none; stroke: rgb(115, 140, 136); stroke-width: 0.5px;" transform="matrix(1, 0, 0, 1, -286.741913, -130.203491)"/>
  <path d="M 727.45 394.487 L 727.45 430.129" style="fill: none; stroke: rgb(115, 140, 136); stroke-width: 0.5px;" transform="matrix(1, 0, 0, 1, -286.741913, -130.203491)"/>
  <path d="M 451.227 394.487 L 451.227 430.129" style="fill: none; stroke: rgb(115, 140, 136); stroke-width: 0.5px;" transform="matrix(1, 0, 0, 1, -286.741913, -130.203491)"/>
  <path d="M 736.361 331.819 L 727.45 340.732 L 736.361 349.639" style="fill: none; stroke: rgb(115, 140, 136); stroke-width: 0.5px;" transform="matrix(1, 0, 0, 1, -286.741913, -130.203491)"/>
  <path d="M 893.433 331.819 L 902.341 340.732 L 893.433 349.639" style="fill: none; stroke: rgb(115, 140, 136); stroke-width: 0.5px;" transform="matrix(1, 0, 0, 1, -286.741913, -130.203491)"/>
  <path d="M 460.139 403.398 L 451.227 412.31 L 460.139 421.218" style="fill: none; stroke: rgb(115, 140, 136); stroke-width: 0.5px;" transform="matrix(1, 0, 0, 1, -286.741913, -130.203491)"/>
  <path d="M 718.538 403.398 L 727.45 412.31 L 718.538 421.218" style="fill: none; stroke: rgb(115, 140, 136); stroke-width: 0.5px;" transform="matrix(1, 0, 0, 1, -286.741913, -130.203491)"/>
  <path d="M 718.538 121.612 L 727.45 112.704 L 736.361 121.612" style="fill: none; stroke: rgb(115, 140, 136); stroke-width: 0.5px;" transform="matrix(1, 0, 0, 1, -286.741913, -130.203491)"/>
  <path d="M 747.719 214.961 C 746.559 215.021 745.579 215.111 745.519 215.111 C 745.279 215.111 745.219 215.321 745.129 215.691 C 744.969 216.361 745.029 216.301 745.249 216.511 L 745.889 216.511 C 746.559 216.541 746.929 216.601 747.109 216.661 C 747.259 216.761 747.289 216.881 747.289 217.151 C 747.259 217.331 745.679 223.711 745.609 223.861 C 745.609 223.921 745.579 223.891 745.459 223.741 C 744.939 222.981 743.939 222.461 742.899 222.461 C 742.499 222.461 742.079 222.521 741.649 222.641 C 740.089 223.041 738.659 224.051 737.439 225.541 C 736.429 226.881 735.369 228.931 735.369 231.151 C 735.369 232.621 735.639 233.621 736.279 234.571 C 737.009 235.511 737.959 236.241 739.609 236.241 C 739.909 236.241 740.189 236.241 740.369 236.211 C 741.339 236.001 742.319 235.421 743.269 234.541 C 743.479 234.351 743.479 234.321 743.509 234.381 C 743.509 234.451 743.599 234.601 743.659 234.751 C 744.119 235.641 745.069 236.241 746.349 236.241 C 746.799 236.241 746.829 236.241 747.079 236.181 C 747.439 236.031 747.719 235.881 748.049 235.541 C 748.729 234.871 749.239 233.771 749.699 232.011 C 749.759 231.761 749.789 231.641 749.789 231.521 C 749.789 231.301 749.639 231.271 749.209 231.271 L 749.089 231.271 C 748.629 231.271 748.659 231.301 748.479 231.941 C 748.049 233.591 747.719 234.421 747.229 234.871 C 747.019 235.021 746.859 235.121 746.619 235.151 C 745.919 235.151 745.769 234.601 745.769 233.871 C 745.769 233.711 745.769 233.561 745.799 233.411 C 745.859 232.981 750.309 215.381 750.309 215.021 C 750.309 214.831 750.099 214.771 749.949 214.771 C 749.849 214.771 748.849 214.861 747.719 214.961 Z M 745.099 226.001 L 743.449 232.621 L 743.209 232.951 C 742.439 233.901 741.159 235.151 739.819 235.151 C 738.539 235.151 737.959 234.111 737.959 232.711 C 737.959 232.461 737.989 232.221 737.989 232.011 C 738.139 230.911 738.809 228.161 739.239 227.001 C 739.789 225.481 741.039 223.591 742.809 223.591 C 744.149 223.591 744.729 224.691 745.099 226.001 Z" transform="matrix(1, 0, 0, 1, -286.7419128417969, -130.2034912109375)" style="white-space: pre;"/>
  <path d="M 654.668 -17.937 C 654.238 -17.937 653.788 -17.687 653.588 -17.257 C 653.508 -17.107 653.338 -16.457 652.528 -13.317 C 652.028 -11.237 651.578 -9.527 651.578 -9.477 C 650.998 -8.727 650.268 -7.797 649.038 -7.797 C 647.908 -7.797 647.638 -8.597 647.638 -9.757 C 647.638 -9.957 647.638 -10.127 647.658 -10.327 C 647.808 -11.287 648.088 -12.237 648.888 -14.417 C 649.088 -14.927 649.268 -15.397 649.268 -15.497 C 649.318 -15.597 649.318 -15.797 649.348 -16.027 C 649.348 -17.407 648.438 -18.207 647.038 -18.207 C 646.308 -18.207 645.758 -17.887 645.248 -17.407 C 644.598 -16.807 643.998 -15.777 643.668 -14.677 C 643.618 -14.497 643.598 -14.397 643.598 -14.317 C 643.598 -14.217 643.698 -14.147 643.748 -14.097 L 644.098 -14.097 C 644.578 -14.097 644.498 -14.097 644.598 -14.317 C 644.878 -15.377 645.298 -16.207 645.828 -16.727 C 646.208 -17.107 646.528 -17.257 646.938 -17.257 L 647.058 -17.257 C 647.358 -17.257 647.408 -17.077 647.408 -16.627 C 647.408 -16.107 647.388 -15.977 646.858 -14.567 C 646.128 -12.617 645.858 -11.757 645.708 -10.887 C 645.658 -10.557 645.658 -10.457 645.658 -9.957 C 645.658 -9.497 645.658 -9.347 645.678 -9.177 C 646.008 -7.667 647.158 -6.837 648.868 -6.837 C 649.188 -6.837 649.548 -6.887 649.848 -6.967 C 650.598 -7.247 651.128 -7.667 651.128 -7.647 C 651.128 -7.617 650.928 -6.887 650.848 -6.667 C 650.248 -4.787 648.988 -3.327 647.738 -2.977 C 647.508 -2.927 647.408 -2.927 647.088 -2.927 L 646.888 -2.927 C 646.578 -2.927 646.358 -2.977 646.078 -3.077 C 645.878 -3.147 645.578 -3.347 645.548 -3.407 C 645.548 -3.407 645.578 -3.427 645.628 -3.427 C 645.678 -3.457 645.828 -3.507 645.958 -3.577 C 646.428 -3.807 646.838 -4.277 646.838 -4.937 C 646.838 -5.637 646.378 -5.987 645.728 -5.987 C 645.328 -5.987 644.948 -5.807 644.628 -5.507 C 644.268 -5.157 644.148 -4.757 644.148 -4.177 C 644.148 -3.727 644.218 -3.427 644.398 -3.177 C 644.828 -2.427 645.828 -1.967 646.988 -1.967 C 647.908 -1.967 648.638 -2.197 649.518 -2.627 C 651.078 -3.427 652.328 -4.887 652.878 -6.537 C 653.058 -7.037 655.518 -16.727 655.518 -17.237 C 655.518 -17.687 655.088 -17.937 654.668 -17.937 Z" transform="matrix(1, 0, 0, 1, 0, 0)" style="white-space: pre;"/>
  <path d="M 817.46 362.582 C 816.33 362.582 815.48 363.532 815.48 364.812 C 815.48 365.292 815.51 365.482 815.69 365.872 C 816.21 367.032 817.7 367.762 819.81 367.762 C 822.64 367.762 824.47 366.612 825.42 364.652 C 825.75 363.922 825.94 363.462 825.94 362.492 C 825.91 362.062 825.91 361.942 825.85 361.702 C 825.54 360.752 824.9 359.992 823.92 359.562 C 823.5 359.352 823.22 359.292 822.09 359.042 C 821 358.802 820.84 358.772 820.54 358.492 C 820.23 358.222 820.08 357.942 820.08 357.522 C 820.08 356.082 821.36 355.112 822.92 355.112 C 824.17 355.112 825.11 355.752 825.11 355.902 C 825.11 355.932 825.11 355.932 825.05 355.932 C 825.02 355.932 824.9 355.992 824.78 356.052 C 824.23 356.332 823.86 356.912 823.86 357.522 C 823.86 358.162 824.32 358.552 824.96 358.552 C 826 358.552 826.64 357.732 826.64 356.632 C 826.64 356.422 826.64 356.212 826.58 356.052 C 826.18 354.682 824.93 353.982 823.01 353.982 C 821.27 353.982 819.96 354.592 819.11 355.572 C 818.4 356.332 817.86 357.362 817.86 358.652 C 817.86 359.872 818.37 360.632 819.11 361.152 C 819.78 361.602 820.05 361.602 821.18 361.852 C 822.22 362.062 822.4 362.092 822.71 362.282 C 823.28 362.552 823.71 363.012 823.71 363.742 C 823.71 364.202 823.53 364.682 823.25 365.142 C 822.61 366.152 821.61 366.642 819.99 366.642 C 819.01 366.642 818.25 366.482 817.67 366.182 C 817.49 366.092 817.15 365.842 817.12 365.782 C 817.09 365.752 817.15 365.722 817.25 365.692 C 817.34 365.692 817.52 365.602 817.67 365.542 C 818.34 365.202 818.74 364.472 818.74 363.802 C 818.74 363.072 818.25 362.582 817.46 362.582 Z" transform="matrix(1, 0, 0, 1, -286.7419128417969, -130.2034912109375)" style="white-space: pre;"/>
  <path d="M 914.566 207.369 L 932.39 207.6" style="fill: none; stroke: rgb(115, 140, 136); stroke-width: 0.5px;" transform="matrix(1, 0, 0, 1, -286.741913, -130.203491)"/>
  <path d="M 914.566 82.624 L 932.39 82.624" style="fill: none; stroke: rgb(115, 140, 136); stroke-width: 0.5px;" transform="matrix(1, 0, 0, 1, -286.741913, -130.203491)"/>
  <path d="M 636.736 -47.579 L 636.736 32.256" style="fill: none; stroke: rgb(115, 140, 136); stroke-width: 0.5px;"/>
  <path d="M 628.029 23.52 L 636.941 32.432 L 645.853 23.52" style="fill: none; stroke: rgb(115, 140, 136); stroke-width: 0.5px;"/>
  <path d="M 914.566 91.533 L 923.478 82.624 L 932.39 91.533" style="fill: none; stroke: rgb(115, 140, 136); stroke-width: 0.5px;" transform="matrix(1, 0, 0, 1, -286.741913, -130.203491)"/>
  <path d="M 451.227 73.712 L 451.227 207.369 L 968.029 207.369" style="fill: none; stroke: rgb(242, 13, 13); stroke-dasharray: 2px;" transform="matrix(1, 0, 0, 1, -286.741913, -130.203491)"/>
  <path d="M 442.316 82.624 L 451.227 73.712 L 460.139 82.624" style="fill: none; stroke: rgb(242, 13, 13); stroke-dasharray: 2px;" transform="matrix(1, 0, 0, 1, -286.741913, -130.203491)"/>
  <path d="M 959.121 198.457 L 968.029 207.369 L 959.121 216.277" style="fill: none; stroke: rgb(242, 13, 13); stroke-dasharray: 2px;" transform="matrix(1, 0, 0, 1, -286.741913, -130.203491)"/>
  <path d="M 438.08 83.225 C 437.56 83.225 437.01 83.535 436.77 84.055 C 436.68 84.235 436.46 85.025 435.49 88.845 C 434.88 91.375 434.33 93.445 434.33 93.505 C 433.63 94.425 432.74 95.555 431.25 95.555 C 429.88 95.555 429.54 94.575 429.54 93.175 C 429.54 92.925 429.54 92.715 429.57 92.475 C 429.75 91.315 430.09 90.155 431.07 87.495 C 431.31 86.885 431.52 86.315 431.52 86.185 C 431.58 86.065 431.58 85.825 431.62 85.545 C 431.62 83.875 430.52 82.895 428.81 82.895 C 427.92 82.895 427.25 83.295 426.64 83.875 C 425.85 84.605 425.12 85.855 424.72 87.195 C 424.66 87.405 424.63 87.525 424.63 87.625 C 424.63 87.745 424.75 87.835 424.81 87.895 L 425.24 87.895 C 425.82 87.895 425.73 87.895 425.85 87.625 C 426.19 86.345 426.7 85.335 427.34 84.695 C 427.8 84.235 428.2 84.055 428.69 84.055 L 428.84 84.055 C 429.21 84.055 429.27 84.265 429.27 84.815 C 429.27 85.455 429.24 85.605 428.6 87.315 C 427.71 89.695 427.38 90.735 427.19 91.795 C 427.13 92.195 427.13 92.315 427.13 92.925 C 427.13 93.475 427.13 93.665 427.16 93.875 C 427.56 95.705 428.96 96.715 431.04 96.715 C 431.43 96.715 431.86 96.645 432.22 96.555 C 433.14 96.225 433.78 95.705 433.78 95.735 C 433.78 95.765 433.54 96.645 433.45 96.925 C 432.71 99.215 431.19 100.985 429.66 101.405 C 429.39 101.465 429.27 101.465 428.87 101.465 L 428.63 101.465 C 428.26 101.465 427.99 101.405 427.65 101.285 C 427.41 101.195 427.04 100.955 427.01 100.885 C 427.01 100.885 427.04 100.855 427.1 100.855 C 427.16 100.825 427.34 100.765 427.5 100.675 C 428.08 100.405 428.57 99.825 428.57 99.025 C 428.57 98.175 428.02 97.745 427.22 97.745 C 426.74 97.745 426.28 97.965 425.88 98.325 C 425.45 98.755 425.3 99.245 425.3 99.945 C 425.3 100.495 425.39 100.855 425.61 101.165 C 426.12 102.075 427.34 102.625 428.75 102.625 C 429.88 102.625 430.76 102.355 431.83 101.835 C 433.72 100.855 435.24 99.085 435.92 97.075 C 436.13 96.465 439.12 84.695 439.12 84.085 C 439.12 83.535 438.6 83.225 438.08 83.225 Z" transform="matrix(1, 0, 0, 1, -286.7419128417969, -130.2034912109375)" style="white-space: pre;"/>
  <path d="M 963.223 229.33 L 963.653 229.33 C 964.233 229.33 964.203 229.3 964.293 228.96 C 964.743 227.35 966.093 225.49 968.073 225.49 C 969.013 225.49 969.563 226.1 969.563 227.07 C 969.563 227.41 969.503 227.78 969.413 228.26 C 969.113 229.21 968.013 234.55 967.373 235.64 C 966.853 236.53 966.183 237.02 965.483 237.02 C 965.263 237.02 964.903 236.96 964.683 236.86 C 964.533 236.8 964.233 236.62 964.233 236.59 C 964.233 236.59 964.293 236.56 964.323 236.56 C 964.383 236.53 964.563 236.47 964.713 236.38 C 965.293 236.1 965.783 235.52 965.783 234.73 C 965.783 233.88 965.263 233.45 964.473 233.45 C 963.283 233.45 962.523 234.49 962.523 235.64 C 962.523 236.07 962.613 236.5 962.823 236.86 C 963.253 237.6 964.043 238.11 965.323 238.11 C 965.783 238.11 965.843 238.11 966.123 238.05 C 967.003 237.75 967.793 237.11 968.373 236.22 C 968.983 237.29 969.993 238.15 971.613 238.15 C 972.923 238.15 973.773 237.69 974.633 237.02 C 975.573 236.19 976.403 235.03 976.763 233.72 C 976.793 233.57 976.823 233.48 976.823 233.39 C 976.823 233.17 976.673 233.14 976.243 233.14 C 975.723 233.14 975.693 233.14 975.573 233.54 C 975.143 235.1 973.683 237.02 971.853 237.02 C 970.913 237.02 970.303 236.41 970.303 235.43 C 970.303 235.16 970.333 234.82 970.393 234.52 C 970.483 234.03 972.003 227.9 972.123 227.56 C 972.463 226.62 973.163 225.82 973.833 225.55 C 974.023 225.49 974.083 225.49 974.413 225.49 C 974.813 225.49 975.053 225.52 975.303 225.67 C 975.483 225.76 975.633 225.85 975.633 225.88 C 974.843 226.16 974.113 226.74 974.113 227.81 C 974.113 228.54 974.633 229.03 975.423 229.03 C 976.613 229.03 977.373 228.02 977.373 226.8 C 977.373 225.46 976.273 224.33 974.573 224.33 C 973.623 224.33 972.703 224.79 971.973 225.61 C 971.733 225.85 971.643 226.04 971.483 226.25 C 970.973 225.18 969.683 224.33 968.223 224.33 C 968.013 224.33 967.793 224.36 967.583 224.39 C 966.213 224.6 964.903 225.52 963.983 226.89 C 963.583 227.5 963.103 228.57 963.043 229 C 963.043 229.18 963.133 229.24 963.223 229.33 Z" transform="matrix(1, 0, 0, 1, -286.7419128417969, -130.2034912109375)" style="white-space: pre;"/>
  <path d="M 94.81 314.295 C 208.374 330.129 728.858 393.455 905.657 394.487 C 1019.908 395.156 1022.403 11.721 905.657 11.341 C 729.386 10.762 171.32 93.029 94.81 100.443" style="fill: none; stroke: rgb(194, 224, 229); stroke-width: 2px;" transform="matrix(1, 0, 0, 1, -286.741913, -130.203491)"/>
  <path d="M 328.829 19.35 C 328.829 19.81 326.069 30.61 326.009 30.69 C 325.929 30.83 325.829 30.89 325.629 30.93 C 325.409 30.95 324.869 30.99 324.429 30.99 C 323.909 30.99 323.909 30.99 323.809 31.41 C 323.769 31.57 323.749 31.65 323.749 31.69 C 323.749 31.73 323.769 31.75 323.789 31.79 C 323.829 31.87 323.849 31.89 324.109 31.89 C 324.849 31.89 325.549 31.87 326.729 31.87 C 327.949 31.87 328.669 31.91 329.469 31.91 C 329.729 31.91 329.729 31.87 329.789 31.81 C 329.829 31.73 329.929 31.33 329.929 31.21 C 329.929 31.11 329.849 31.05 329.809 30.99 L 329.189 30.99 C 328.589 30.97 328.169 30.93 328.089 30.89 C 328.049 30.87 328.029 30.83 328.029 30.73 C 328.029 30.69 328.289 29.59 328.629 28.27 L 329.229 25.89 L 331.129 25.89 C 332.769 25.87 333.049 25.87 333.229 25.85 C 334.669 25.61 335.869 25.03 336.789 24.13 C 337.489 23.45 337.909 22.75 338.069 21.97 C 338.109 21.81 338.109 21.55 338.109 21.31 C 338.109 21.11 338.109 20.91 338.089 20.79 C 337.769 19.39 336.589 18.57 335.089 18.31 C 334.829 18.27 334.789 18.27 331.029 18.25 C 327.289 18.25 327.209 18.25 327.149 18.29 C 327.069 18.35 326.949 18.75 326.949 18.95 C 326.949 19.17 326.989 19.17 327.689 19.17 C 328.289 19.19 328.829 19.17 328.829 19.35 Z M 335.989 20.83 C 335.989 21.23 335.949 21.47 335.789 22.13 C 335.529 23.15 335.309 23.65 334.889 24.07 C 334.409 24.57 333.729 24.89 332.829 25.03 C 332.629 25.05 332.369 25.05 330.989 25.07 C 329.429 25.07 329.369 25.07 329.369 25.03 C 329.409 24.99 330.709 19.67 330.809 19.37 C 330.869 19.27 330.969 19.21 331.169 19.19 C 331.249 19.19 331.929 19.17 332.689 19.17 C 333.889 19.19 334.109 19.19 334.289 19.21 C 335.249 19.39 335.989 19.73 335.989 20.83 Z" transform="matrix(1, 0, 0, 1, 0, 0)" style="white-space: pre;"/>
  <path d="M 339.123 26.35 C 339.123 27.137 339.173 27.887 339.273 28.6 C 339.373 29.313 339.543 30.023 339.783 30.73 C 340.023 31.437 340.34 32.163 340.733 32.91 C 341.126 33.657 341.616 34.457 342.203 35.31 L 341.683 35.73 C 338.883 33.13 337.483 30.003 337.483 26.35 C 337.483 22.697 338.883 19.57 341.683 16.97 L 342.203 17.39 C 341.616 18.257 341.126 19.06 340.733 19.8 C 340.34 20.54 340.023 21.263 339.783 21.97 C 339.543 22.677 339.373 23.387 339.273 24.1 C 339.173 24.813 339.123 25.563 339.123 26.35 Z" transform="matrix(1, 0, 0, 1, 0, 0)" style="white-space: pre;"/>
  <path d="M 343.86 26.35 L 344.14 26.35 C 344.52 26.35 344.5 26.33 344.56 26.11 C 344.86 25.05 345.74 23.83 347.04 23.83 C 347.66 23.83 348.02 24.23 348.02 24.87 C 348.02 25.09 347.98 25.33 347.92 25.65 C 347.72 26.27 347 29.77 346.58 30.49 C 346.24 31.07 345.8 31.39 345.34 31.39 C 345.2 31.39 344.96 31.35 344.82 31.29 C 344.72 31.25 344.52 31.13 344.52 31.11 C 344.52 31.11 344.56 31.09 344.58 31.09 C 344.62 31.07 344.74 31.03 344.84 30.97 C 345.22 30.79 345.54 30.41 345.54 29.89 C 345.54 29.33 345.2 29.05 344.68 29.05 C 343.9 29.05 343.4 29.73 343.4 30.49 C 343.4 30.77 343.46 31.05 343.6 31.29 C 343.88 31.77 344.4 32.11 345.24 32.11 C 345.54 32.11 345.58 32.11 345.76 32.07 C 346.34 31.87 346.86 31.45 347.24 30.87 C 347.64 31.57 348.3 32.13 349.36 32.13 C 350.22 32.13 350.78 31.83 351.34 31.39 C 351.96 30.85 352.5 30.09 352.74 29.23 C 352.76 29.13 352.78 29.07 352.78 29.01 C 352.78 28.87 352.68 28.85 352.4 28.85 C 352.06 28.85 352.04 28.85 351.96 29.11 C 351.68 30.13 350.72 31.39 349.52 31.39 C 348.9 31.39 348.5 30.99 348.5 30.35 C 348.5 30.17 348.52 29.95 348.56 29.75 C 348.62 29.43 349.62 25.41 349.7 25.19 C 349.92 24.57 350.38 24.05 350.82 23.87 C 350.94 23.83 350.98 23.83 351.2 23.83 C 351.46 23.83 351.62 23.85 351.78 23.95 C 351.9 24.01 352 24.07 352 24.09 C 351.48 24.27 351 24.65 351 25.35 C 351 25.83 351.34 26.15 351.86 26.15 C 352.64 26.15 353.14 25.49 353.14 24.69 C 353.14 23.81 352.42 23.07 351.3 23.07 C 350.68 23.07 350.08 23.37 349.6 23.91 C 349.44 24.07 349.38 24.19 349.28 24.33 C 348.94 23.63 348.1 23.07 347.14 23.07 C 347 23.07 346.86 23.09 346.72 23.11 C 345.82 23.25 344.96 23.85 344.36 24.75 C 344.1 25.15 343.78 25.85 343.74 26.13 C 343.74 26.25 343.8 26.29 343.86 26.35 Z" transform="matrix(1, 0, 0, 1, 0, 0)" style="white-space: pre;"/>
  <path d="M 354.174 35.11 L 359.514 17.71 L 360.694 17.71 L 355.354 35.11 L 354.174 35.11 Z" transform="matrix(1, 0, 0, 1, 0, 0)" style="white-space: pre;"/>
  <path d="M 369.971 23.29 C 369.631 23.29 369.271 23.49 369.111 23.83 C 369.051 23.95 368.911 24.47 368.271 26.97 C 367.871 28.63 367.511 29.99 367.511 30.03 C 367.051 30.63 366.471 31.37 365.491 31.37 C 364.591 31.37 364.371 30.73 364.371 29.81 C 364.371 29.65 364.371 29.51 364.391 29.35 C 364.511 28.59 364.731 27.83 365.371 26.09 C 365.531 25.69 365.671 25.31 365.671 25.23 C 365.711 25.15 365.711 24.99 365.731 24.81 C 365.731 23.71 365.011 23.07 363.891 23.07 C 363.311 23.07 362.871 23.33 362.471 23.71 C 361.951 24.19 361.471 25.01 361.211 25.89 C 361.171 26.03 361.151 26.11 361.151 26.17 C 361.151 26.25 361.231 26.31 361.271 26.35 L 361.551 26.35 C 361.931 26.35 361.871 26.35 361.951 26.17 C 362.171 25.33 362.511 24.67 362.931 24.25 C 363.231 23.95 363.491 23.83 363.811 23.83 L 363.911 23.83 C 364.151 23.83 364.191 23.97 364.191 24.33 C 364.191 24.75 364.171 24.85 363.751 25.97 C 363.171 27.53 362.951 28.21 362.831 28.91 C 362.791 29.17 362.791 29.25 362.791 29.65 C 362.791 30.01 362.791 30.13 362.811 30.27 C 363.071 31.47 363.991 32.13 365.351 32.13 C 365.611 32.13 365.891 32.09 366.131 32.03 C 366.731 31.81 367.151 31.47 367.151 31.49 C 367.151 31.51 366.991 32.09 366.931 32.27 C 366.451 33.77 365.451 34.93 364.451 35.21 C 364.271 35.25 364.191 35.25 363.931 35.25 L 363.771 35.25 C 363.531 35.25 363.351 35.21 363.131 35.13 C 362.971 35.07 362.731 34.91 362.711 34.87 C 362.711 34.87 362.731 34.85 362.771 34.85 C 362.811 34.83 362.931 34.79 363.031 34.73 C 363.411 34.55 363.731 34.17 363.731 33.65 C 363.731 33.09 363.371 32.81 362.851 32.81 C 362.531 32.81 362.231 32.95 361.971 33.19 C 361.691 33.47 361.591 33.79 361.591 34.25 C 361.591 34.61 361.651 34.85 361.791 35.05 C 362.131 35.65 362.931 36.01 363.851 36.01 C 364.591 36.01 365.171 35.83 365.871 35.49 C 367.111 34.85 368.111 33.69 368.551 32.37 C 368.691 31.97 370.651 24.25 370.651 23.85 C 370.651 23.49 370.311 23.29 369.971 23.29 Z" transform="matrix(1, 0, 0, 1, 0, 0)" style="white-space: pre;"/>
  <path d="M 373.727 26.35 C 373.727 27.137 373.777 27.887 373.877 28.6 C 373.977 29.313 374.147 30.023 374.387 30.73 C 374.627 31.437 374.943 32.163 375.337 32.91 C 375.73 33.657 376.22 34.457 376.807 35.31 L 376.287 35.73 C 373.487 33.13 372.087 30.003 372.087 26.35 C 372.087 22.697 373.487 19.57 376.287 16.97 L 376.807 17.39 C 376.22 18.257 375.73 19.06 375.337 19.8 C 374.943 20.54 374.627 21.263 374.387 21.97 C 374.147 22.677 373.977 23.387 373.877 24.1 C 373.777 24.813 373.727 25.563 373.727 26.35 Z" transform="matrix(1, 0, 0, 1, 0, 0)" style="white-space: pre;"/>
  <path d="M 378.463 26.35 L 378.743 26.35 C 379.123 26.35 379.103 26.33 379.163 26.11 C 379.463 25.05 380.343 23.83 381.643 23.83 C 382.263 23.83 382.623 24.23 382.623 24.87 C 382.623 25.09 382.583 25.33 382.523 25.65 C 382.323 26.27 381.603 29.77 381.183 30.49 C 380.843 31.07 380.403 31.39 379.943 31.39 C 379.803 31.39 379.563 31.35 379.423 31.29 C 379.323 31.25 379.123 31.13 379.123 31.11 C 379.123 31.11 379.163 31.09 379.183 31.09 C 379.223 31.07 379.343 31.03 379.443 30.97 C 379.823 30.79 380.143 30.41 380.143 29.89 C 380.143 29.33 379.803 29.05 379.283 29.05 C 378.503 29.05 378.003 29.73 378.003 30.49 C 378.003 30.77 378.063 31.05 378.203 31.29 C 378.483 31.77 379.003 32.11 379.843 32.11 C 380.143 32.11 380.183 32.11 380.363 32.07 C 380.943 31.87 381.463 31.45 381.843 30.87 C 382.243 31.57 382.903 32.13 383.963 32.13 C 384.823 32.13 385.383 31.83 385.943 31.39 C 386.563 30.85 387.103 30.09 387.343 29.23 C 387.363 29.13 387.383 29.07 387.383 29.01 C 387.383 28.87 387.283 28.85 387.003 28.85 C 386.663 28.85 386.643 28.85 386.563 29.11 C 386.283 30.13 385.323 31.39 384.123 31.39 C 383.503 31.39 383.103 30.99 383.103 30.35 C 383.103 30.17 383.123 29.95 383.163 29.75 C 383.223 29.43 384.223 25.41 384.303 25.19 C 384.523 24.57 384.983 24.05 385.423 23.87 C 385.543 23.83 385.583 23.83 385.803 23.83 C 386.063 23.83 386.223 23.85 386.383 23.95 C 386.503 24.01 386.603 24.07 386.603 24.09 C 386.083 24.27 385.603 24.65 385.603 25.35 C 385.603 25.83 385.943 26.15 386.463 26.15 C 387.243 26.15 387.743 25.49 387.743 24.69 C 387.743 23.81 387.023 23.07 385.903 23.07 C 385.283 23.07 384.683 23.37 384.203 23.91 C 384.043 24.07 383.983 24.19 383.883 24.33 C 383.543 23.63 382.703 23.07 381.743 23.07 C 381.603 23.07 381.463 23.09 381.323 23.11 C 380.423 23.25 379.563 23.85 378.963 24.75 C 378.703 25.15 378.383 25.85 378.343 26.13 C 378.343 26.25 378.403 26.29 378.463 26.35 Z" transform="matrix(1, 0, 0, 1, 0, 0)" style="white-space: pre;"/>
  <path d="M 392.318 26.35 C 392.318 25.563 392.268 24.813 392.168 24.1 C 392.068 23.387 391.898 22.677 391.658 21.97 C 391.418 21.263 391.101 20.54 390.708 19.8 C 390.315 19.06 389.825 18.257 389.238 17.39 L 389.758 16.97 C 392.558 19.57 393.958 22.697 393.958 26.35 C 393.958 30.003 392.558 33.13 389.758 35.73 L 389.238 35.31 C 389.825 34.457 390.315 33.657 390.708 32.91 C 391.101 32.163 391.418 31.437 391.658 30.73 C 391.898 30.023 392.068 29.313 392.168 28.6 C 392.268 27.887 392.318 27.137 392.318 26.35 ZM 398.115 26.35 C 398.115 25.563 398.065 24.813 397.965 24.1 C 397.865 23.387 397.695 22.677 397.455 21.97 C 397.215 21.263 396.899 20.54 396.505 19.8 C 396.112 19.06 395.622 18.257 395.035 17.39 L 395.555 16.97 C 398.355 19.57 399.755 22.697 399.755 26.35 C 399.755 30.003 398.355 33.13 395.555 35.73 L 395.035 35.31 C 395.622 34.457 396.112 33.657 396.505 32.91 C 396.899 32.163 397.215 31.437 397.455 30.73 C 397.695 30.023 397.865 29.313 397.965 28.6 C 398.065 27.887 398.115 27.137 398.115 26.35 Z" transform="matrix(1, 0, 0, 1, 0, 0)" style="white-space: pre;"/>
  <line style="stroke: rgb(0, 0, 0); stroke-dasharray: 4px;" x1="682.5875697331114" y1="207.02911405398294" x2="682.5875697331114" y2="179.59529462454714" transform="matrix(1, 0, 0, 1, -286.741913, -130.203491)"/>
  <circle style="fill: rgb(2, 2, 2);" cx="682.605" cy="178.82" r="3.306" transform="matrix(1, 0, 0, 1, -286.741913, -130.203491)"/>
  <line style="stroke: rgb(0, 0, 0); stroke-dasharray: 4px;" x1="567.343" y1="294.514" x2="567.343" y2="63.214" transform="matrix(0, 1, -1, 0, 459.465118, -518.682495)"/>
  <path d="M 418.21 175.263 C 417.87 175.263 417.51 175.463 417.35 175.803 C 417.29 175.923 417.15 176.443 416.51 178.943 C 416.11 180.603 415.75 181.963 415.75 182.003 C 415.29 182.603 414.71 183.343 413.73 183.343 C 412.83 183.343 412.61 182.703 412.61 181.783 C 412.61 181.623 412.61 181.483 412.63 181.323 C 412.75 180.563 412.97 179.803 413.61 178.063 C 413.77 177.663 413.91 177.283 413.91 177.203 C 413.95 177.123 413.95 176.963 413.97 176.783 C 413.97 175.683 413.25 175.043 412.13 175.043 C 411.55 175.043 411.11 175.303 410.71 175.683 C 410.19 176.163 409.71 176.983 409.45 177.863 C 409.41 178.003 409.39 178.083 409.39 178.143 C 409.39 178.223 409.47 178.283 409.51 178.323 L 409.79 178.323 C 410.17 178.323 410.11 178.323 410.19 178.143 C 410.41 177.303 410.75 176.643 411.17 176.223 C 411.47 175.923 411.73 175.803 412.05 175.803 L 412.15 175.803 C 412.39 175.803 412.43 175.943 412.43 176.303 C 412.43 176.723 412.41 176.823 411.99 177.943 C 411.41 179.503 411.19 180.183 411.07 180.883 C 411.03 181.143 411.03 181.223 411.03 181.623 C 411.03 181.983 411.03 182.103 411.05 182.243 C 411.31 183.443 412.23 184.103 413.59 184.103 C 413.85 184.103 414.13 184.063 414.37 184.003 C 414.97 183.783 415.39 183.443 415.39 183.463 C 415.39 183.483 415.23 184.063 415.17 184.243 C 414.69 185.743 413.69 186.903 412.69 187.183 C 412.51 187.223 412.43 187.223 412.17 187.223 L 412.01 187.223 C 411.77 187.223 411.59 187.183 411.37 187.103 C 411.21 187.043 410.97 186.883 410.95 186.843 C 410.95 186.843 410.97 186.823 411.01 186.823 C 411.05 186.803 411.17 186.763 411.27 186.703 C 411.65 186.523 411.97 186.143 411.97 185.623 C 411.97 185.063 411.61 184.783 411.09 184.783 C 410.77 184.783 410.47 184.923 410.21 185.163 C 409.93 185.443 409.83 185.763 409.83 186.223 C 409.83 186.583 409.89 186.823 410.03 187.023 C 410.37 187.623 411.17 187.983 412.09 187.983 C 412.83 187.983 413.41 187.803 414.11 187.463 C 415.35 186.823 416.35 185.663 416.79 184.343 C 416.93 183.943 418.89 176.223 418.89 175.823 C 418.89 175.463 418.55 175.263 418.21 175.263 Z" transform="matrix(1, 0, 0, 1, -286.7419128417969, -130.2034912109375)" style="white-space: pre;"/>
  <path d="M 421.965 178.323 C 421.965 179.11 422.015 179.86 422.115 180.573 C 422.215 181.286 422.385 181.996 422.625 182.703 C 422.865 183.41 423.182 184.136 423.575 184.883 C 423.969 185.63 424.459 186.43 425.045 187.283 L 424.525 187.703 C 421.725 185.103 420.325 181.976 420.325 178.323 C 420.325 174.67 421.725 171.543 424.525 168.943 L 425.045 169.363 C 424.459 170.23 423.969 171.033 423.575 171.773 C 423.182 172.513 422.865 173.236 422.625 173.943 C 422.385 174.65 422.215 175.36 422.115 176.073 C 422.015 176.786 421.965 177.536 421.965 178.323 Z" transform="matrix(1, 0, 0, 1, -286.7419128417969, -130.2034912109375)" style="white-space: pre;"/>
  <path d="M 426.702 178.323 L 426.982 178.323 C 427.362 178.323 427.342 178.303 427.402 178.083 C 427.702 177.023 428.582 175.803 429.882 175.803 C 430.502 175.803 430.862 176.203 430.862 176.843 C 430.862 177.063 430.822 177.303 430.762 177.623 C 430.562 178.243 429.842 181.743 429.422 182.463 C 429.082 183.043 428.642 183.363 428.182 183.363 C 428.042 183.363 427.802 183.323 427.662 183.263 C 427.562 183.223 427.362 183.103 427.362 183.083 C 427.362 183.083 427.402 183.063 427.422 183.063 C 427.462 183.043 427.582 183.003 427.682 182.943 C 428.062 182.763 428.382 182.383 428.382 181.863 C 428.382 181.303 428.042 181.023 427.522 181.023 C 426.742 181.023 426.242 181.703 426.242 182.463 C 426.242 182.743 426.302 183.023 426.442 183.263 C 426.722 183.743 427.242 184.083 428.082 184.083 C 428.382 184.083 428.422 184.083 428.602 184.043 C 429.182 183.843 429.702 183.423 430.082 182.843 C 430.482 183.543 431.142 184.103 432.202 184.103 C 433.062 184.103 433.622 183.803 434.182 183.363 C 434.802 182.823 435.342 182.063 435.582 181.203 C 435.602 181.103 435.622 181.043 435.622 180.983 C 435.622 180.843 435.522 180.823 435.242 180.823 C 434.902 180.823 434.882 180.823 434.802 181.083 C 434.522 182.103 433.562 183.363 432.362 183.363 C 431.742 183.363 431.342 182.963 431.342 182.323 C 431.342 182.143 431.362 181.923 431.402 181.723 C 431.462 181.403 432.462 177.383 432.542 177.163 C 432.762 176.543 433.222 176.023 433.662 175.843 C 433.782 175.803 433.822 175.803 434.042 175.803 C 434.302 175.803 434.462 175.823 434.622 175.923 C 434.742 175.983 434.842 176.043 434.842 176.063 C 434.322 176.243 433.842 176.623 433.842 177.323 C 433.842 177.803 434.182 178.123 434.702 178.123 C 435.482 178.123 435.982 177.463 435.982 176.663 C 435.982 175.783 435.262 175.043 434.142 175.043 C 433.522 175.043 432.922 175.343 432.442 175.883 C 432.282 176.043 432.222 176.163 432.122 176.303 C 431.782 175.603 430.942 175.043 429.982 175.043 C 429.842 175.043 429.702 175.063 429.562 175.083 C 428.662 175.223 427.802 175.823 427.202 176.723 C 426.942 177.123 426.622 177.823 426.582 178.103 C 426.582 178.223 426.642 178.263 426.702 178.323 Z" transform="matrix(1, 0, 0, 1, -286.7419128417969, -130.2034912109375)" style="white-space: pre;"/>
  <path d="M 440.557 178.323 C 440.557 177.536 440.507 176.786 440.407 176.073 C 440.307 175.36 440.137 174.65 439.897 173.943 C 439.657 173.236 439.34 172.513 438.947 171.773 C 438.553 171.033 438.063 170.23 437.477 169.363 L 437.997 168.943 C 440.797 171.543 442.197 174.67 442.197 178.323 C 442.197 181.976 440.797 185.103 437.997 187.703 L 437.477 187.283 C 438.063 186.43 438.553 185.63 438.947 184.883 C 439.34 184.136 439.657 183.41 439.897 182.703 C 440.137 181.996 440.307 181.286 440.407 180.573 C 440.507 179.86 440.557 179.11 440.557 178.323 Z" transform="matrix(1, 0, 0, 1, -286.7419128417969, -130.2034912109375)" style="white-space: pre;"/>
  <path d="M 677.521 219.566 L 677.801 219.566 C 678.181 219.566 678.161 219.546 678.221 219.326 C 678.521 218.266 679.401 217.046 680.701 217.046 C 681.321 217.046 681.681 217.446 681.681 218.086 C 681.681 218.306 681.641 218.546 681.581 218.866 C 681.381 219.486 680.661 222.986 680.241 223.706 C 679.901 224.286 679.461 224.606 679.001 224.606 C 678.861 224.606 678.621 224.566 678.481 224.506 C 678.381 224.466 678.181 224.346 678.181 224.326 C 678.181 224.326 678.221 224.306 678.241 224.306 C 678.281 224.286 678.401 224.246 678.501 224.186 C 678.881 224.006 679.201 223.626 679.201 223.106 C 679.201 222.546 678.861 222.266 678.341 222.266 C 677.561 222.266 677.061 222.946 677.061 223.706 C 677.061 223.986 677.121 224.266 677.261 224.506 C 677.541 224.986 678.061 225.326 678.901 225.326 C 679.201 225.326 679.241 225.326 679.421 225.286 C 680.001 225.086 680.521 224.666 680.901 224.086 C 681.301 224.786 681.961 225.346 683.021 225.346 C 683.881 225.346 684.441 225.046 685.001 224.606 C 685.621 224.066 686.161 223.306 686.401 222.446 C 686.421 222.346 686.441 222.286 686.441 222.226 C 686.441 222.086 686.341 222.066 686.061 222.066 C 685.721 222.066 685.701 222.066 685.621 222.326 C 685.341 223.346 684.381 224.606 683.181 224.606 C 682.561 224.606 682.161 224.206 682.161 223.566 C 682.161 223.386 682.181 223.166 682.221 222.966 C 682.281 222.646 683.281 218.626 683.361 218.406 C 683.581 217.786 684.041 217.266 684.481 217.086 C 684.601 217.046 684.641 217.046 684.861 217.046 C 685.121 217.046 685.281 217.066 685.441 217.166 C 685.561 217.226 685.661 217.286 685.661 217.306 C 685.141 217.486 684.661 217.866 684.661 218.566 C 684.661 219.046 685.001 219.366 685.521 219.366 C 686.301 219.366 686.801 218.706 686.801 217.906 C 686.801 217.026 686.081 216.286 684.961 216.286 C 684.341 216.286 683.741 216.586 683.261 217.126 C 683.101 217.286 683.041 217.406 682.941 217.546 C 682.601 216.846 681.761 216.286 680.801 216.286 C 680.661 216.286 680.521 216.306 680.381 216.326 C 679.481 216.466 678.621 217.066 678.021 217.966 C 677.761 218.366 677.441 219.066 677.401 219.346 C 677.401 219.466 677.461 219.506 677.521 219.566 Z" transform="matrix(1, 0, 0, 1, -286.7419128417969, -130.2034912109375)" style="white-space: pre;"/>
  <path d="M 611.443 66.355 C 611.443 65.965 611.473 65.575 611.513 65.335 C 611.683 63.785 615.373 49.505 615.443 49.395 C 615.753 48.905 616.173 48.945 617.823 48.905 C 618.393 48.905 618.913 48.875 618.953 48.875 C 619.093 48.805 619.163 48.695 619.303 48.165 C 619.403 47.645 619.403 47.645 619.333 47.535 C 619.263 47.365 619.233 47.325 618.813 47.325 C 617.403 47.325 615.963 47.365 614.313 47.365 C 612.663 47.365 610.983 47.365 609.543 47.295 C 609.153 47.295 609.013 47.295 608.943 47.325 C 608.803 47.435 608.773 47.505 608.633 48.025 C 608.523 48.555 608.523 48.555 608.593 48.665 C 608.663 48.875 608.703 48.905 609.863 48.905 C 610.873 48.945 611.863 48.905 611.863 49.225 C 611.863 49.885 608.453 63.085 608.283 63.965 C 608.243 64.285 608.213 64.875 608.213 65.405 C 608.213 65.715 608.213 66.005 608.243 66.215 C 608.733 69.655 611.543 72.035 615.333 72.035 C 620.183 72.035 624.073 67.865 625.333 64.065 C 625.403 63.825 626.213 60.665 627.093 57.085 C 628.353 52.135 628.773 50.485 628.843 50.315 C 629.343 49.325 630.493 48.975 631.973 48.905 C 632.573 48.905 632.673 48.875 632.743 48.735 C 632.813 48.665 633.023 47.855 633.023 47.675 C 633.023 47.395 632.883 47.325 632.503 47.325 C 631.443 47.325 630.423 47.395 628.743 47.395 C 626.983 47.395 625.863 47.295 624.673 47.295 C 624.213 47.295 624.283 47.435 624.113 48.095 C 624.003 48.555 624.003 48.555 624.073 48.665 C 624.143 48.875 624.253 48.905 624.883 48.905 C 625.833 48.975 627.123 49.115 627.123 49.995 C 627.123 50.385 626.813 51.575 625.483 57.015 L 623.693 64.065 C 622.603 67.295 619.613 70.425 615.543 70.425 C 612.943 70.425 611.443 68.945 611.443 66.355 Z" transform="matrix(1, 0, 0, 1, -286.7419128417969, -130.2034912109375)" style="white-space: pre;"/>
  <path d="M 635.202 70.442 C 634.852 70.442 634.482 70.652 634.312 71.002 C 634.252 71.122 634.112 71.662 633.452 74.232 C 633.032 75.942 632.662 77.342 632.662 77.382 C 632.192 78.002 631.592 78.762 630.582 78.762 C 629.662 78.762 629.432 78.102 629.432 77.162 C 629.432 76.992 629.432 76.852 629.452 76.682 C 629.572 75.902 629.802 75.122 630.462 73.332 C 630.622 72.912 630.772 72.522 630.772 72.442 C 630.812 72.362 630.812 72.192 630.832 72.012 C 630.832 70.872 630.092 70.212 628.932 70.212 C 628.342 70.212 627.882 70.482 627.472 70.872 C 626.942 71.372 626.442 72.212 626.172 73.122 C 626.132 73.262 626.112 73.352 626.112 73.412 C 626.112 73.492 626.202 73.552 626.242 73.592 L 626.522 73.592 C 626.922 73.592 626.852 73.592 626.942 73.412 C 627.162 72.542 627.512 71.862 627.952 71.432 C 628.262 71.122 628.522 71.002 628.852 71.002 L 628.962 71.002 C 629.202 71.002 629.242 71.142 629.242 71.512 C 629.242 71.952 629.222 72.052 628.792 73.202 C 628.192 74.812 627.972 75.512 627.842 76.232 C 627.802 76.502 627.802 76.582 627.802 76.992 C 627.802 77.362 627.802 77.492 627.822 77.632 C 628.092 78.872 629.042 79.552 630.442 79.552 C 630.712 79.552 630.992 79.512 631.242 79.442 C 631.862 79.222 632.292 78.872 632.292 78.892 C 632.292 78.912 632.132 79.512 632.072 79.692 C 631.572 81.242 630.542 82.432 629.512 82.722 C 629.332 82.762 629.242 82.762 628.982 82.762 L 628.812 82.762 C 628.562 82.762 628.382 82.722 628.152 82.642 C 627.992 82.572 627.742 82.412 627.722 82.372 C 627.722 82.372 627.742 82.352 627.782 82.352 C 627.822 82.332 627.952 82.292 628.052 82.222 C 628.442 82.042 628.772 81.652 628.772 81.112 C 628.772 80.542 628.402 80.252 627.862 80.252 C 627.532 80.252 627.222 80.392 626.962 80.642 C 626.672 80.932 626.572 81.262 626.572 81.732 C 626.572 82.102 626.632 82.352 626.772 82.552 C 627.122 83.172 627.952 83.542 628.892 83.542 C 629.662 83.542 630.252 83.362 630.972 83.012 C 632.252 82.352 633.282 81.152 633.732 79.792 C 633.882 79.382 635.902 71.432 635.902 71.022 C 635.902 70.652 635.552 70.442 635.202 70.442 Z" transform="matrix(1, 0, 0, 1, -286.7419128417969, -130.2034912109375)" style="white-space: pre;"/>
  <circle style="fill: rgb(2, 2, 2);" cx="905.566" cy="83.214" r="3.306" transform="matrix(1, 0, 0, 1, -286.741913, -130.203491)"/>
  <path d="M 600.44 -49.52 C 600.44 -48.18 600.78 -47.24 602.08 -47.24 C 602.42 -47.24 602.76 -47.32 603.08 -47.46 C 604.12 -47.98 604.86 -49.28 605.3 -50.58 C 605.42 -50.98 605.44 -51.08 605.44 -51.16 C 605.42 -51.26 605.32 -51.34 605.22 -51.34 C 605.1 -51.34 605.04 -51.26 604.96 -51.06 C 604.72 -50.24 603.84 -49.48 602.78 -49.48 C 601.92 -49.48 601.64 -49.86 601.42 -50.86 C 601.38 -51 601.36 -51.14 601.34 -51.18 L 601.34 -51.28 L 601.68 -51.44 C 604.52 -52.74 607.26 -56.08 607.26 -59.82 C 607.26 -62.78 605.52 -64.82 602.94 -65.18 C 602.74 -65.2 602.32 -65.2 601.98 -65.2 L 601.64 -65.2 C 600.04 -65.06 598.44 -64.34 597 -63.14 C 596.7 -62.88 596.06 -62.24 595.8 -61.94 C 594.54 -60.46 593.72 -58.7 593.48 -56.9 C 593.46 -56.7 593.46 -56.36 593.46 -56 C 593.46 -54.18 594 -53 594.98 -52.04 C 595.92 -51.14 597.14 -50.68 598.52 -50.68 C 599.06 -50.68 599.62 -50.76 600.2 -50.9 L 600.5 -50.98 L 600.5 -50.9 C 600.5 -50.58 600.44 -49.94 600.44 -49.52 Z M 599.4 -54.22 C 598.38 -54.22 597.18 -53.28 597.18 -52.04 C 597.18 -52 597.22 -51.88 597.18 -51.88 C 597.14 -51.88 596.78 -52.14 596.6 -52.3 C 595.86 -53.02 595.52 -53.96 595.52 -55.44 C 595.52 -55.74 595.52 -56.04 595.54 -56.26 C 595.94 -59.62 597.58 -62.72 600.04 -63.92 C 600.72 -64.26 601.38 -64.42 602 -64.42 C 602.78 -64.42 603.32 -64.2 603.82 -63.82 C 604.72 -63.16 605.18 -62.1 605.18 -60.48 C 605.18 -60.16 605.18 -59.82 605.16 -59.62 C 604.76 -56.52 603.52 -53.84 601.42 -52.4 L 601.16 -52.22 C 601.02 -53.5 600.36 -54.22 599.4 -54.22 Z M 598.74 -51.48 C 598.2 -51.48 597.94 -51.72 597.94 -52.16 C 597.94 -52.78 598.44 -53.26 598.94 -53.42 C 599.06 -53.46 599.12 -53.48 599.2 -53.48 C 599.26 -53.48 599.3 -53.46 599.4 -53.46 C 599.56 -53.46 599.66 -53.44 599.78 -53.42 C 600.24 -53.26 600.46 -52.88 600.52 -52.1 L 600.54 -51.9 C 600.04 -51.66 599.32 -51.48 598.74 -51.48 Z" transform="matrix(1, 0, 0, 1, 0, 0)" style="white-space: pre;"/>
  <path d="M 460.308 43.615 C 460.308 44.075 457.548 54.875 457.488 54.955 C 457.408 55.095 457.308 55.155 457.108 55.195 C 456.888 55.215 456.348 55.255 455.908 55.255 L 455.788 55.255 C 455.388 55.255 455.408 55.275 455.288 55.695 C 455.248 55.855 455.228 55.935 455.228 55.975 C 455.228 56.135 455.308 56.155 455.568 56.155 C 456.388 56.155 457.228 56.135 458.168 56.135 C 459.128 56.135 460.068 56.135 460.788 56.175 L 461.088 56.175 C 461.208 56.055 461.208 56.075 461.288 55.795 C 461.388 55.375 461.348 55.415 461.228 55.255 L 460.608 55.255 C 460.008 55.235 459.588 55.195 459.508 55.155 C 459.468 55.135 459.448 55.095 459.448 54.995 C 459.448 54.975 459.748 53.755 460.108 52.315 L 460.748 49.715 L 462.128 49.715 C 463.688 49.735 463.648 49.715 464.048 49.915 C 464.548 50.195 464.908 50.635 464.908 51.395 C 464.908 51.815 464.808 52.095 464.608 52.855 C 464.368 53.795 464.308 53.835 464.308 54.535 C 464.328 54.895 464.368 55.075 464.508 55.335 C 464.908 56.155 465.868 56.595 467.208 56.595 C 467.568 56.595 467.628 56.595 467.788 56.555 C 468.308 56.415 468.808 56.015 469.188 55.455 C 469.408 55.095 469.668 54.495 469.668 54.315 C 469.668 54.135 469.568 54.075 469.268 54.075 C 468.948 54.075 468.928 54.095 468.808 54.475 C 468.608 55.115 468.188 55.635 467.728 55.815 C 467.648 55.855 467.508 55.855 467.368 55.855 C 466.668 55.855 466.608 55.415 466.608 54.575 C 466.608 54.155 466.608 53.955 466.708 52.995 C 466.768 52.375 466.808 51.815 466.808 51.715 C 466.808 50.795 466.308 49.995 465.468 49.515 C 465.368 49.455 465.308 49.415 465.328 49.415 C 465.408 49.415 466.068 49.175 466.328 49.075 C 467.908 48.375 468.968 47.355 469.268 46.195 C 469.308 45.995 469.348 45.795 469.348 45.595 C 469.348 44.955 469.088 44.335 468.608 43.815 C 467.968 43.155 467.068 42.755 465.848 42.575 C 465.568 42.535 465.488 42.535 462.128 42.515 C 459.368 42.515 458.688 42.515 458.648 42.535 C 458.568 42.575 458.548 42.635 458.468 42.935 C 458.408 43.235 458.408 43.235 458.448 43.295 C 458.488 43.415 458.508 43.435 459.168 43.435 C 459.768 43.455 460.308 43.435 460.308 43.615 Z M 466.848 44.135 C 467.068 44.375 467.168 44.655 467.168 45.095 C 467.168 45.875 466.848 47.035 466.408 47.655 C 465.968 48.255 465.248 48.695 464.408 48.835 C 463.888 48.955 463.808 48.955 462.328 48.975 C 461.348 48.975 460.948 48.975 460.948 48.955 C 460.948 48.895 462.248 43.715 462.288 43.635 C 462.348 43.535 462.448 43.475 462.648 43.455 C 462.748 43.455 463.268 43.435 463.808 43.435 C 465.288 43.435 466.228 43.495 466.848 44.135 Z" transform="matrix(1, 0, 0, 1, 0, 0)" style="white-space: pre;"/>
  <path d="M 472.941 50.615 C 472.941 51.402 472.991 52.152 473.091 52.865 C 473.191 53.578 473.361 54.288 473.601 54.995 C 473.841 55.702 474.158 56.428 474.551 57.175 C 474.944 57.922 475.434 58.722 476.021 59.575 L 475.501 59.995 C 472.701 57.395 471.301 54.268 471.301 50.615 C 471.301 46.962 472.701 43.835 475.501 41.235 L 476.021 41.655 C 475.434 42.522 474.944 43.325 474.551 44.065 C 474.158 44.805 473.841 45.528 473.601 46.235 C 473.361 46.942 473.191 47.652 473.091 48.365 C 472.991 49.078 472.941 49.828 472.941 50.615 Z" transform="matrix(1, 0, 0, 1, 0, 0)" style="white-space: pre;"/>
  <path d="M 479.258 56.395 C 479.378 56.395 479.478 56.375 479.578 56.355 C 480.178 56.215 480.638 55.735 481.018 54.855 C 481.198 54.435 481.478 53.475 481.478 53.295 C 481.478 53.095 481.418 53.115 481.098 53.115 L 481.018 53.115 C 480.718 53.115 480.738 53.135 480.618 53.555 C 480.298 54.835 480.018 55.375 479.618 55.595 C 479.498 55.655 479.238 55.655 479.138 55.615 C 478.898 55.475 478.858 55.275 478.858 54.875 C 478.858 54.755 478.878 54.615 478.878 54.515 C 478.978 53.855 481.838 42.855 481.838 42.455 C 481.838 42.335 481.698 42.295 481.598 42.295 C 481.578 42.295 478.718 42.495 478.618 42.535 C 478.538 42.575 478.518 42.635 478.438 42.955 C 478.378 43.215 478.378 43.235 478.398 43.295 C 478.458 43.415 478.498 43.435 478.958 43.435 C 479.518 43.455 479.918 43.395 479.858 43.855 C 479.838 43.915 479.278 46.235 478.598 48.975 L 477.298 54.135 C 477.278 54.235 477.278 54.355 477.278 54.475 C 477.278 55.675 478.078 56.395 479.258 56.395 Z" transform="matrix(1, 0, 0, 1, 0, 0)" style="white-space: pre;"/>
  <path d="M 482.515 59.375 L 487.855 41.975 L 489.035 41.975 L 483.695 59.375 L 482.515 59.375 Z" transform="matrix(1, 0, 0, 1, 0, 0)" style="white-space: pre;"/>
  <path d="M 498.312 47.555 C 497.972 47.555 497.612 47.755 497.452 48.095 C 497.392 48.215 497.252 48.735 496.612 51.235 C 496.212 52.895 495.852 54.255 495.852 54.295 C 495.392 54.895 494.812 55.635 493.832 55.635 C 492.932 55.635 492.712 54.995 492.712 54.075 C 492.712 53.915 492.712 53.775 492.732 53.615 C 492.852 52.855 493.072 52.095 493.712 50.355 C 493.872 49.955 494.012 49.575 494.012 49.495 C 494.052 49.415 494.052 49.255 494.072 49.075 C 494.072 47.975 493.352 47.335 492.232 47.335 C 491.652 47.335 491.212 47.595 490.812 47.975 C 490.292 48.455 489.812 49.275 489.552 50.155 C 489.512 50.295 489.492 50.375 489.492 50.435 C 489.492 50.515 489.572 50.575 489.612 50.615 L 489.892 50.615 C 490.272 50.615 490.212 50.615 490.292 50.435 C 490.512 49.595 490.852 48.935 491.272 48.515 C 491.572 48.215 491.832 48.095 492.152 48.095 L 492.252 48.095 C 492.492 48.095 492.532 48.235 492.532 48.595 C 492.532 49.015 492.512 49.115 492.092 50.235 C 491.512 51.795 491.292 52.475 491.172 53.175 C 491.132 53.435 491.132 53.515 491.132 53.915 C 491.132 54.275 491.132 54.395 491.152 54.535 C 491.412 55.735 492.332 56.395 493.692 56.395 C 493.952 56.395 494.232 56.355 494.472 56.295 C 495.072 56.075 495.492 55.735 495.492 55.755 C 495.492 55.775 495.332 56.355 495.272 56.535 C 494.792 58.035 493.792 59.195 492.792 59.475 C 492.612 59.515 492.532 59.515 492.272 59.515 L 492.112 59.515 C 491.872 59.515 491.692 59.475 491.472 59.395 C 491.312 59.335 491.072 59.175 491.052 59.135 C 491.052 59.135 491.072 59.115 491.112 59.115 C 491.152 59.095 491.272 59.055 491.372 58.995 C 491.752 58.815 492.072 58.435 492.072 57.915 C 492.072 57.355 491.712 57.075 491.192 57.075 C 490.872 57.075 490.572 57.215 490.312 57.455 C 490.032 57.735 489.932 58.055 489.932 58.515 C 489.932 58.875 489.992 59.115 490.132 59.315 C 490.472 59.915 491.272 60.275 492.192 60.275 C 492.932 60.275 493.512 60.095 494.212 59.755 C 495.452 59.115 496.452 57.955 496.892 56.635 C 497.032 56.235 498.992 48.515 498.992 48.115 C 498.992 47.755 498.652 47.555 498.312 47.555 Z" transform="matrix(1, 0, 0, 1, 0, 0)" style="white-space: pre;"/>
  <path d="M 502.067 50.615 C 502.067 51.402 502.117 52.152 502.217 52.865 C 502.317 53.578 502.487 54.288 502.727 54.995 C 502.967 55.702 503.284 56.428 503.677 57.175 C 504.07 57.922 504.56 58.722 505.147 59.575 L 504.627 59.995 C 501.827 57.395 500.427 54.268 500.427 50.615 C 500.427 46.962 501.827 43.835 504.627 41.235 L 505.147 41.655 C 504.56 42.522 504.07 43.325 503.677 44.065 C 503.284 44.805 502.967 45.528 502.727 46.235 C 502.487 46.942 502.317 47.652 502.217 48.365 C 502.117 49.078 502.067 49.828 502.067 50.615 Z" transform="matrix(1, 0, 0, 1, 0, 0)" style="white-space: pre;"/>
  <path d="M 508.384 56.395 C 508.504 56.395 508.604 56.375 508.704 56.355 C 509.304 56.215 509.764 55.735 510.144 54.855 C 510.324 54.435 510.604 53.475 510.604 53.295 C 510.604 53.095 510.544 53.115 510.224 53.115 L 510.144 53.115 C 509.844 53.115 509.864 53.135 509.744 53.555 C 509.424 54.835 509.144 55.375 508.744 55.595 C 508.624 55.655 508.364 55.655 508.264 55.615 C 508.024 55.475 507.984 55.275 507.984 54.875 C 507.984 54.755 508.004 54.615 508.004 54.515 C 508.104 53.855 510.964 42.855 510.964 42.455 C 510.964 42.335 510.824 42.295 510.724 42.295 C 510.704 42.295 507.844 42.495 507.744 42.535 C 507.664 42.575 507.644 42.635 507.564 42.955 C 507.504 43.215 507.504 43.235 507.524 43.295 C 507.584 43.415 507.624 43.435 508.084 43.435 C 508.644 43.455 509.044 43.395 508.984 43.855 C 508.964 43.915 508.404 46.235 507.724 48.975 L 506.424 54.135 C 506.404 54.235 506.404 54.355 506.404 54.475 C 506.404 55.675 507.204 56.395 508.384 56.395 Z" transform="matrix(1, 0, 0, 1, 0, 0)" style="white-space: pre;"/>
  <path d="M 515.181 50.615 C 515.181 49.828 515.131 49.078 515.031 48.365 C 514.931 47.652 514.761 46.942 514.521 46.235 C 514.281 45.528 513.964 44.805 513.571 44.065 C 513.178 43.325 512.688 42.522 512.101 41.655 L 512.621 41.235 C 515.421 43.835 516.821 46.962 516.821 50.615 C 516.821 54.268 515.421 57.395 512.621 59.995 L 512.101 59.575 C 512.688 58.722 513.178 57.922 513.571 57.175 C 513.964 56.428 514.281 55.702 514.521 54.995 C 514.761 54.288 514.931 53.578 515.031 52.865 C 515.131 52.152 515.181 51.402 515.181 50.615 ZM 520.978 50.615 C 520.978 49.828 520.928 49.078 520.828 48.365 C 520.728 47.652 520.558 46.942 520.318 46.235 C 520.078 45.528 519.762 44.805 519.368 44.065 C 518.975 43.325 518.485 42.522 517.898 41.655 L 518.418 41.235 C 521.218 43.835 522.618 46.962 522.618 50.615 C 522.618 54.268 521.218 57.395 518.418 59.995 L 517.898 59.575 C 518.485 58.722 518.975 57.922 519.368 57.175 C 519.762 56.428 520.078 55.702 520.318 54.995 C 520.558 54.288 520.728 53.578 520.828 52.865 C 520.928 52.152 520.978 51.402 520.978 50.615 Z" transform="matrix(1, 0, 0, 1, 0, 0)" style="white-space: pre;"/>
  <line style="stroke: rgb(0, 0, 0); stroke-dasharray: 4px;" x1="529.825" y1="121.629" x2="529.825" y2="-56.254" transform="matrix(0, 1, -1, 0, 562.512512, -497.137512)"/>
  <path d="M 628.029 32.602 L 645.853 32.602" style="fill: none; stroke: rgb(115, 140, 136); stroke-width: 0.5px;"/>
  <path d="M 654.872 -8.115 C 654.872 -7.835 653.212 -1.355 653.182 -1.305 C 653.132 -1.225 653.072 -1.185 652.952 -1.165 C 652.822 -1.155 652.492 -1.125 652.232 -1.125 C 651.922 -1.125 651.922 -1.125 651.862 -0.875 C 651.832 -0.775 651.822 -0.735 651.822 -0.705 C 651.822 -0.685 651.832 -0.675 651.852 -0.645 C 651.872 -0.595 651.882 -0.585 652.042 -0.585 C 652.482 -0.585 652.902 -0.595 653.612 -0.595 C 654.342 -0.595 654.772 -0.575 655.252 -0.575 C 655.412 -0.575 655.412 -0.595 655.452 -0.635 C 655.472 -0.685 655.532 -0.925 655.532 -0.995 C 655.532 -1.055 655.482 -1.095 655.462 -1.125 L 655.092 -1.125 C 654.732 -1.135 654.472 -1.165 654.432 -1.185 C 654.402 -1.195 654.392 -1.225 654.392 -1.275 C 654.392 -1.295 654.512 -1.815 654.672 -2.435 L 654.942 -3.555 L 655.762 -4.185 C 656.202 -4.535 656.562 -4.825 656.572 -4.825 L 657.272 -3.165 C 657.812 -1.885 657.982 -1.495 657.982 -1.425 C 657.982 -1.235 657.762 -1.125 657.382 -1.125 C 657.262 -1.125 657.262 -1.125 657.222 -1.095 C 657.192 -1.055 657.172 -1.035 657.142 -0.895 C 657.082 -0.655 657.102 -0.655 657.192 -0.575 L 657.312 -0.575 C 657.522 -0.615 658.572 -0.615 658.952 -0.615 C 659.382 -0.615 659.772 -0.595 660.092 -0.575 L 660.222 -0.575 C 660.292 -0.645 660.292 -0.635 660.342 -0.805 C 660.402 -1.055 660.382 -1.035 660.312 -1.125 L 660.052 -1.125 C 659.722 -1.135 659.562 -1.175 659.442 -1.255 C 659.322 -1.345 659.362 -1.295 658.422 -3.505 C 657.952 -4.645 657.562 -5.575 657.562 -5.595 C 657.572 -5.605 659.982 -7.495 660.022 -7.515 C 660.032 -7.525 660.092 -7.555 660.162 -7.605 C 660.652 -7.975 661.222 -8.185 661.792 -8.215 C 661.962 -8.215 662.002 -8.235 662.022 -8.275 C 662.052 -8.305 662.122 -8.575 662.122 -8.635 C 662.122 -8.775 662.052 -8.775 661.832 -8.755 C 661.712 -8.745 661.342 -8.735 660.942 -8.735 C 660.402 -8.735 659.982 -8.755 659.562 -8.755 C 659.412 -8.755 659.382 -8.745 659.362 -8.695 C 659.332 -8.665 659.262 -8.385 659.262 -8.355 C 659.262 -8.265 659.352 -8.215 659.452 -8.215 C 659.622 -8.205 659.752 -8.145 659.752 -8.015 C 659.752 -7.945 659.712 -7.855 659.592 -7.735 C 659.512 -7.665 655.132 -4.235 655.122 -4.235 C 655.122 -4.235 656.032 -7.965 656.092 -8.055 C 656.202 -8.215 656.352 -8.205 656.922 -8.215 C 657.172 -8.215 657.282 -8.235 657.312 -8.245 C 657.352 -8.255 657.372 -8.305 657.412 -8.495 C 657.442 -8.565 657.452 -8.625 657.452 -8.665 C 657.452 -8.735 657.402 -8.755 657.252 -8.755 C 656.772 -8.755 656.272 -8.745 655.712 -8.745 C 655.152 -8.745 654.572 -8.745 654.082 -8.775 C 653.932 -8.775 653.902 -8.775 653.872 -8.755 C 653.832 -8.725 653.812 -8.675 653.772 -8.505 C 653.732 -8.355 653.732 -8.335 653.742 -8.305 C 653.782 -8.235 653.792 -8.215 654.192 -8.215 C 654.552 -8.205 654.872 -8.215 654.872 -8.115 ZM 668.272 -6.815 C 668.272 -6.655 668.232 -6.395 668.232 -6.275 C 668.222 -6.225 668.222 -6.175 668.222 -6.155 C 668.222 -6.055 668.282 -6.045 668.462 -6.045 C 668.612 -6.045 668.612 -6.045 668.652 -6.085 C 668.712 -6.145 669.372 -8.855 669.372 -8.955 C 669.372 -9.035 669.302 -9.035 669.212 -9.035 C 669.172 -9.035 669.132 -9.025 669.112 -9.025 C 668.962 -8.875 668.422 -8.255 668.402 -8.255 C 668.062 -8.775 667.522 -9.025 666.652 -9.025 L 666.512 -9.025 C 666.502 -9.025 666.432 -9.025 666.382 -9.015 C 665.812 -8.925 665.292 -8.685 664.912 -8.355 C 664.282 -7.895 663.742 -6.935 663.742 -6.115 C 663.742 -5.265 664.222 -4.645 664.912 -4.435 C 664.972 -4.405 666.532 -3.995 666.602 -3.985 C 666.972 -3.815 667.222 -3.495 667.222 -2.935 C 667.222 -2.805 667.222 -2.665 667.202 -2.565 C 667.032 -1.755 666.362 -1.055 665.612 -0.885 C 665.532 -0.875 665.432 -0.865 665.332 -0.865 C 664.172 -0.865 663.392 -1.345 663.332 -2.415 C 663.332 -2.635 663.352 -2.785 663.392 -3.025 C 663.442 -3.255 663.422 -3.225 663.352 -3.295 L 663.192 -3.295 C 663.012 -3.295 662.972 -3.285 662.952 -3.225 C 662.932 -3.135 662.252 -0.445 662.252 -0.405 C 662.252 -0.345 662.332 -0.315 662.412 -0.315 C 662.472 -0.315 662.492 -0.315 662.532 -0.335 C 662.552 -0.345 662.722 -0.525 662.902 -0.735 L 663.242 -1.105 L 663.362 -0.975 C 663.782 -0.555 664.372 -0.315 665.212 -0.315 C 665.372 -0.315 665.542 -0.325 665.612 -0.335 C 666.692 -0.565 667.492 -1.235 667.942 -2.145 C 668.062 -2.375 668.132 -2.565 668.182 -2.805 C 668.242 -3.035 668.282 -3.265 668.282 -3.475 C 668.282 -4.115 668.032 -4.675 667.562 -5.015 C 667.452 -5.085 667.222 -5.215 667.102 -5.255 C 667.032 -5.275 665.522 -5.665 665.462 -5.695 C 665.062 -5.815 664.792 -6.195 664.792 -6.695 C 664.792 -7.735 665.832 -8.515 666.662 -8.515 C 667.712 -8.515 668.272 -7.885 668.272 -6.815 Z" transform="matrix(1, 0, 0, 1, 0, 0)" style="fill: rgb(51, 51, 51); white-space: pre;"/>
  <path d="M 418.73 29.947 C 418.39 29.947 418.03 30.147 417.87 30.487 C 417.81 30.607 417.67 31.127 417.03 33.627 C 416.63 35.287 416.27 36.647 416.27 36.687 C 415.81 37.287 415.23 38.027 414.25 38.027 C 413.35 38.027 413.13 37.387 413.13 36.467 C 413.13 36.307 413.13 36.167 413.15 36.007 C 413.27 35.247 413.49 34.487 414.13 32.747 C 414.29 32.347 414.43 31.967 414.43 31.887 C 414.47 31.807 414.47 31.647 414.49 31.467 C 414.49 30.367 413.77 29.727 412.65 29.727 C 412.07 29.727 411.63 29.987 411.23 30.367 C 410.71 30.847 410.23 31.667 409.97 32.547 C 409.93 32.687 409.91 32.767 409.91 32.827 C 409.91 32.907 409.99 32.967 410.03 33.007 L 410.31 33.007 C 410.69 33.007 410.63 33.007 410.71 32.827 C 410.93 31.987 411.27 31.327 411.69 30.907 C 411.99 30.607 412.25 30.487 412.57 30.487 L 412.67 30.487 C 412.91 30.487 412.95 30.627 412.95 30.987 C 412.95 31.407 412.93 31.507 412.51 32.627 C 411.93 34.187 411.71 34.867 411.59 35.567 C 411.55 35.827 411.55 35.907 411.55 36.307 C 411.55 36.667 411.55 36.787 411.57 36.927 C 411.83 38.127 412.75 38.787 414.11 38.787 C 414.37 38.787 414.65 38.747 414.89 38.687 C 415.49 38.467 415.91 38.127 415.91 38.147 C 415.91 38.167 415.75 38.747 415.69 38.927 C 415.21 40.427 414.21 41.587 413.21 41.867 C 413.03 41.907 412.95 41.907 412.69 41.907 L 412.53 41.907 C 412.29 41.907 412.11 41.867 411.89 41.787 C 411.73 41.727 411.49 41.567 411.47 41.527 C 411.47 41.527 411.49 41.507 411.53 41.507 C 411.57 41.487 411.69 41.447 411.79 41.387 C 412.17 41.207 412.49 40.827 412.49 40.307 C 412.49 39.747 412.13 39.467 411.61 39.467 C 411.29 39.467 410.99 39.607 410.73 39.847 C 410.45 40.127 410.35 40.447 410.35 40.907 C 410.35 41.267 410.41 41.507 410.55 41.707 C 410.89 42.307 411.69 42.667 412.61 42.667 C 413.35 42.667 413.93 42.487 414.63 42.147 C 415.87 41.507 416.87 40.347 417.31 39.027 C 417.45 38.627 419.41 30.907 419.41 30.507 C 419.41 30.147 419.07 29.947 418.73 29.947 Z" transform="matrix(1, 0, 0, 1, 0, 0)" style="white-space: pre;"/>
  <path d="M 422.485 33.007 C 422.485 33.794 422.535 34.544 422.635 35.257 C 422.735 35.97 422.905 36.68 423.145 37.387 C 423.385 38.094 423.702 38.82 424.095 39.567 C 424.489 40.314 424.979 41.114 425.565 41.967 L 425.045 42.387 C 422.245 39.787 420.845 36.66 420.845 33.007 C 420.845 29.354 422.245 26.227 425.045 23.627 L 425.565 24.047 C 424.979 24.914 424.489 25.717 424.095 26.457 C 423.702 27.197 423.385 27.92 423.145 28.627 C 422.905 29.334 422.735 30.044 422.635 30.757 C 422.535 31.47 422.485 32.22 422.485 33.007 Z" transform="matrix(1, 0, 0, 1, 0, 0)" style="white-space: pre;"/>
  <path d="M 428.802 38.787 C 428.922 38.787 429.022 38.767 429.122 38.747 C 429.722 38.607 430.182 38.127 430.562 37.247 C 430.742 36.827 431.022 35.867 431.022 35.687 C 431.022 35.487 430.962 35.507 430.642 35.507 L 430.562 35.507 C 430.262 35.507 430.282 35.527 430.162 35.947 C 429.842 37.227 429.562 37.767 429.162 37.987 C 429.042 38.047 428.782 38.047 428.682 38.007 C 428.442 37.867 428.402 37.667 428.402 37.267 C 428.402 37.147 428.422 37.007 428.422 36.907 C 428.522 36.247 431.382 25.247 431.382 24.847 C 431.382 24.727 431.242 24.687 431.142 24.687 C 431.122 24.687 428.262 24.887 428.162 24.927 C 428.082 24.967 428.062 25.027 427.982 25.347 C 427.922 25.607 427.922 25.627 427.942 25.687 C 428.002 25.807 428.042 25.827 428.502 25.827 C 429.062 25.847 429.462 25.787 429.402 26.247 C 429.382 26.307 428.822 28.627 428.142 31.367 L 426.842 36.527 C 426.822 36.627 426.822 36.747 426.822 36.867 C 426.822 38.067 427.622 38.787 428.802 38.787 Z" transform="matrix(1, 0, 0, 1, 0, 0)" style="white-space: pre;"/>
  <path d="M 435.599 33.007 C 435.599 32.22 435.549 31.47 435.449 30.757 C 435.349 30.044 435.179 29.334 434.939 28.627 C 434.699 27.92 434.383 27.197 433.989 26.457 C 433.596 25.717 433.106 24.914 432.519 24.047 L 433.039 23.627 C 435.839 26.227 437.239 29.354 437.239 33.007 C 437.239 36.66 435.839 39.787 433.039 42.387 L 432.519 41.967 C 433.106 41.114 433.596 40.314 433.989 39.567 C 434.383 38.82 434.699 38.094 434.939 37.387 C 435.179 36.68 435.349 35.97 435.449 35.257 C 435.549 34.544 435.599 33.794 435.599 33.007 Z" transform="matrix(1, 0, 0, 1, 0, 0)" style="white-space: pre;"/>
  <path d="M 366.735 38.421 H 383.793 L 383.793 35.421 L 390.793 38.921 L 383.793 42.421 L 383.793 39.421 H 366.735 V 38.421 Z" transform="matrix(0.961856, 0.273555, -0.273555, 0.961856, 24.635616, -98.837639)" style="stroke: rgb(0, 0, 0); stroke-width: 0px;" bx:shape="arrow 366.735 35.421 24.058 7 1 7 0 1@9e2ec28d"/>
  <path d="M 454.413 48.823 H 466.279 L 466.279 45.823 L 473.279 49.323 L 466.279 52.823 L 466.279 49.823 H 454.413 V 48.823 Z" transform="matrix(-0.630169, -0.776458, 0.776458, -0.630169, 702.4729, 433.23819)" style="stroke: rgb(0, 0, 0); stroke-width: 0px;" bx:shape="arrow 454.413 45.823 18.866 7 1 7 0 1@06df34d3"/>
  <circle style="fill: rgb(249, 1, 1);" cx="164.274" cy="76.778" r="3.715"/>
  <path d="M 155.521 90.405 C 153.601 90.575 151.681 91.445 149.951 92.885 C 149.591 93.195 148.821 93.965 148.511 94.325 C 147.001 96.095 146.011 98.205 145.721 100.365 C 145.701 100.605 145.701 101.015 145.701 101.445 C 145.701 103.635 146.351 105.045 147.521 106.205 C 148.631 107.255 150.141 107.835 151.801 107.835 C 153.791 107.835 155.491 107.085 156.861 106.205 C 158.111 105.405 159.281 104.285 160.171 103.005 C 161.521 101.135 162.261 98.925 162.261 96.865 C 162.261 93.315 160.171 90.865 157.081 90.435 C 156.841 90.405 156.331 90.405 155.921 90.405 L 155.521 90.405 Z M 159.791 95.885 C 159.791 96.985 159.551 98.305 159.091 99.795 C 158.231 102.605 156.791 104.715 154.921 105.935 C 154.171 106.415 153.121 106.845 152.041 106.845 C 151.631 106.845 151.241 106.775 150.861 106.655 C 149.201 106.105 148.271 104.405 148.271 102.125 C 148.271 99.125 149.521 95.885 150.911 94.105 C 151.221 93.745 151.891 93.045 152.231 92.785 C 153.091 92.085 154.121 91.605 155.041 91.445 C 155.321 91.365 155.641 91.345 155.921 91.345 C 156.191 91.345 156.451 91.365 156.671 91.415 C 158.591 91.805 159.791 93.435 159.791 95.885 Z" transform="matrix(1, 0, 0, 1, 0, 0)" style="fill: rgb(51, 51, 51); white-space: pre;"/>
  <path d="M 166.646 100.635 C 166.646 101.575 166.706 102.475 166.826 103.335 C 166.946 104.188 167.149 105.038 167.436 105.885 C 167.723 106.738 168.103 107.612 168.576 108.505 C 169.049 109.398 169.639 110.358 170.346 111.385 L 169.716 111.885 C 166.356 108.765 164.676 105.015 164.676 100.635 C 164.676 96.248 166.356 92.495 169.716 89.375 L 170.346 89.885 C 169.639 90.925 169.049 91.888 168.576 92.775 C 168.103 93.662 167.723 94.528 167.436 95.375 C 167.149 96.222 166.946 97.075 166.826 97.935 C 166.706 98.788 166.646 99.688 166.646 100.635 ZM 174.159 99.575 C 174.159 100.982 174.232 102.138 174.379 103.045 C 174.532 103.952 174.739 104.668 174.999 105.195 C 175.252 105.722 175.552 106.085 175.899 106.285 C 176.239 106.485 176.592 106.585 176.959 106.585 C 177.312 106.585 177.659 106.485 177.999 106.285 C 178.332 106.085 178.632 105.722 178.899 105.195 C 179.159 104.668 179.365 103.952 179.519 103.045 C 179.672 102.138 179.749 100.982 179.749 99.575 C 179.749 98.168 179.672 97.012 179.519 96.105 C 179.365 95.205 179.159 94.492 178.899 93.965 C 178.632 93.432 178.332 93.065 177.999 92.865 C 177.659 92.665 177.312 92.565 176.959 92.565 C 176.592 92.565 176.239 92.665 175.899 92.865 C 175.552 93.065 175.252 93.425 174.999 93.945 C 174.739 94.465 174.532 95.182 174.379 96.095 C 174.232 97.008 174.159 98.168 174.159 99.575 Z M 176.959 91.485 C 177.585 91.485 178.202 91.632 178.809 91.925 C 179.415 92.212 179.952 92.672 180.419 93.305 C 180.885 93.932 181.262 94.762 181.549 95.795 C 181.835 96.828 181.979 98.088 181.979 99.575 C 181.979 101.062 181.835 102.322 181.549 103.355 C 181.262 104.388 180.885 105.222 180.419 105.855 C 179.952 106.488 179.415 106.948 178.809 107.235 C 178.202 107.522 177.585 107.665 176.959 107.665 C 176.319 107.665 175.695 107.522 175.089 107.235 C 174.482 106.948 173.945 106.488 173.479 105.855 C 173.019 105.222 172.645 104.388 172.359 103.355 C 172.065 102.322 171.919 101.062 171.919 99.575 C 171.919 98.088 172.065 96.828 172.359 95.795 C 172.645 94.762 173.019 93.932 173.479 93.305 C 173.945 92.672 174.482 92.212 175.089 91.925 C 175.695 91.632 176.319 91.485 176.959 91.485 ZM 182.96 111.145 L 189.37 90.265 L 190.78 90.265 L 184.37 111.145 L 182.96 111.145 ZM 194.047 99.575 C 194.047 100.982 194.12 102.138 194.267 103.045 C 194.42 103.952 194.627 104.668 194.887 105.195 C 195.14 105.722 195.44 106.085 195.787 106.285 C 196.127 106.485 196.48 106.585 196.847 106.585 C 197.2 106.585 197.547 106.485 197.887 106.285 C 198.22 106.085 198.52 105.722 198.787 105.195 C 199.047 104.668 199.254 103.952 199.407 103.045 C 199.56 102.138 199.637 100.982 199.637 99.575 C 199.637 98.168 199.56 97.012 199.407 96.105 C 199.254 95.205 199.047 94.492 198.787 93.965 C 198.52 93.432 198.22 93.065 197.887 92.865 C 197.547 92.665 197.2 92.565 196.847 92.565 C 196.48 92.565 196.127 92.665 195.787 92.865 C 195.44 93.065 195.14 93.425 194.887 93.945 C 194.627 94.465 194.42 95.182 194.267 96.095 C 194.12 97.008 194.047 98.168 194.047 99.575 Z M 196.847 91.485 C 197.474 91.485 198.09 91.632 198.697 91.925 C 199.304 92.212 199.84 92.672 200.307 93.305 C 200.774 93.932 201.15 94.762 201.437 95.795 C 201.724 96.828 201.867 98.088 201.867 99.575 C 201.867 101.062 201.724 102.322 201.437 103.355 C 201.15 104.388 200.774 105.222 200.307 105.855 C 199.84 106.488 199.304 106.948 198.697 107.235 C 198.09 107.522 197.474 107.665 196.847 107.665 C 196.207 107.665 195.584 107.522 194.977 107.235 C 194.37 106.948 193.834 106.488 193.367 105.855 C 192.907 105.222 192.534 104.388 192.247 103.355 C 191.954 102.322 191.807 101.062 191.807 99.575 C 191.807 98.088 191.954 96.828 192.247 95.795 C 192.534 94.762 192.907 93.932 193.367 93.305 C 193.834 92.672 194.37 92.212 194.977 91.925 C 195.584 91.632 196.207 91.485 196.847 91.485 ZM 207.098 100.635 C 207.098 99.688 207.038 98.788 206.918 97.935 C 206.798 97.075 206.592 96.222 206.298 95.375 C 206.012 94.528 205.632 93.662 205.158 92.775 C 204.692 91.888 204.105 90.925 203.398 89.885 L 204.018 89.375 C 207.378 92.495 209.058 96.248 209.058 100.635 C 209.058 105.015 207.378 108.765 204.018 111.885 L 203.398 111.385 C 204.105 110.358 204.692 109.398 205.158 108.505 C 205.632 107.612 206.012 106.738 206.298 105.885 C 206.592 105.038 206.798 104.188 206.918 103.335 C 207.038 102.475 207.098 101.575 207.098 100.635 Z" transform="matrix(1, 0, 0, 1, 0, 0)" style="fill: rgb(51, 51, 51); white-space: pre;"/>
</svg>