<?xml version="1.0" encoding="utf-8"?>
<svg viewBox="4.068 112.572 615.435 430.37" width="615.435" height="430.37" xmlns="http://www.w3.org/2000/svg" xmlns:bx="https://boxy-svg.com">
  <line style="stroke: rgb(198, 198, 198); stroke-width: 5px;" x1="23.12" y1="326.619" x2="607.716" y2="326.619"/>
  <line style="stroke: rgb(0, 0, 0); stroke-width: 3px;" x1="178.16" y1="169.094" x2="584.156" y2="169.094"/>
  <line style="stroke: rgb(0, 0, 0); stroke-width: 3px;" x1="178.16" y1="484.868" x2="584.156" y2="484.868"/>
  <line style="stroke: rgb(0, 0, 0); stroke-width: 2px;" x1="381.564" y1="169.094" x2="381.564" y2="123.983"/>
  <line style="stroke: rgb(0, 0, 0); stroke-width: 2px;" x1="381.564" y1="484.868" x2="381.564" y2="529.979"/>
  <path d="M 732.923 613.249 H 822.801 L 822.801 605.736 L 840.332 614.502 L 822.801 623.267 L 822.801 615.754 H 732.923 V 613.249 Z" transform="matrix(0, -1, 1, 0, -321.786011, 1058.262939)" style="stroke: rgb(0, 0, 0); stroke-width: 0px;" bx:shape="arrow 732.923 605.736 107.409 17.531 2.505 17.531 0 1@c8568456"/>
  <path d="M 704.765 648.163 H 794.128 L 794.128 640.939 L 810.984 649.367 L 794.128 657.795 L 794.128 650.571 H 704.765 V 648.163 Z" transform="matrix(0, 1, -1, 0, 941.74469, -379.424957)" style="stroke: rgb(0, 0, 0); stroke-width: 0px;" bx:shape="arrow 704.765 640.939 106.219 16.856 2.408 16.856 0 1@a85532ef"/>
  <g style="" transform="matrix(1.333333, 0, 0, 1.333333, -7.706666, -41.327663)">
    <circle style="stroke: rgb(0, 0, 0); fill: none;" cx="190.15" cy="208.566" r="16.917"/>
    <path d="M 163.837 51.623 H 165.46 V 67.046 H 180.882 V 68.669 H 165.46 V 84.091 H 163.837 V 68.669 H 148.414 V 67.046 H 163.837 Z" transform="matrix(0.707107, -0.707107, 0.707107, 0.707107, 25.74444, 277.007233)" style="stroke: rgb(0, 0, 0);" bx:shape="cross 148.414 51.623 32.468 32.468 1.623 1.623 0.5 1@2455bc4c"/>
  </g>
  <g transform="matrix(1.333333, 0, 0, 1.333333, 83.045387, -41.327663)" style="">
    <circle style="stroke: rgb(0, 0, 0); fill: none;" cx="190.15" cy="208.566" r="16.917"/>
    <path d="M 163.837 51.623 H 165.46 V 67.046 H 180.882 V 68.669 H 165.46 V 84.091 H 163.837 V 68.669 H 148.414 V 67.046 H 163.837 Z" transform="matrix(0.707107, -0.707107, 0.707107, 0.707107, 25.74444, 277.007233)" style="stroke: rgb(0, 0, 0);" bx:shape="cross 148.414 51.623 32.468 32.468 1.623 1.623 0.5 1@2455bc4c"/>
  </g>
  <g transform="matrix(1.333333, 0, 0, 1.333333, 172.171478, -41.327663)" style="">
    <circle style="stroke: rgb(0, 0, 0); fill: none;" cx="190.15" cy="208.566" r="16.917"/>
    <path d="M 163.837 51.623 H 165.46 V 67.046 H 180.882 V 68.669 H 165.46 V 84.091 H 163.837 V 68.669 H 148.414 V 67.046 H 163.837 Z" transform="matrix(0.707107, -0.707107, 0.707107, 0.707107, 25.74444, 277.007233)" style="stroke: rgb(0, 0, 0);" bx:shape="cross 148.414 51.623 32.468 32.468 1.623 1.623 0.5 1@2455bc4c"/>
    <line style="stroke: rgb(0, 0, 0); stroke-width: 2px;" x1="168.264" y1="415.622" x2="180.214" y2="415.622"/>
    <path d="M 173.329 127.513 H 173.984 V 133.729 H 180.2 V 134.384 H 173.984 V 140.6 H 173.329 V 134.384 H 167.113 V 133.729 H 173.329 Z" style="stroke: rgb(0, 0, 0);" bx:shape="cross 167.113 127.513 13.088 13.088 0.655 0.655 0.5 1@1ba383c0"/>
    <line style="stroke: rgb(0, 0, 0); stroke-width: 2px;" x1="-16.143" y1="267.614" x2="-4.193" y2="267.614"/>
  </g>
  <g transform="matrix(1.333333, 0, 0, 1.333333, 262.019257, -41.327663)" style="">
    <circle style="stroke: rgb(0, 0, 0); fill: none;" cx="190.15" cy="208.566" r="16.917"/>
    <path d="M 163.837 51.623 H 165.46 V 67.046 H 180.882 V 68.669 H 165.46 V 84.091 H 163.837 V 68.669 H 148.414 V 67.046 H 163.837 Z" transform="matrix(0.707107, -0.707107, 0.707107, 0.707107, 25.74444, 277.007233)" style="stroke: rgb(0, 0, 0);" bx:shape="cross 148.414 51.623 32.468 32.468 1.623 1.623 0.5 1@2455bc4c"/>
  </g>
  <g transform="matrix(1.333333, 0, 0, 1.333333, -7.706666, 49.124981)" style="">
    <circle style="stroke: rgb(0, 0, 0); fill: none;" cx="190.15" cy="208.566" r="16.917"/>
    <path d="M 163.837 51.623 H 165.46 V 67.046 H 180.882 V 68.669 H 165.46 V 84.091 H 163.837 V 68.669 H 148.414 V 67.046 H 163.837 Z" transform="matrix(0.707107, -0.707107, 0.707107, 0.707107, 25.74444, 277.007233)" style="stroke: rgb(0, 0, 0);" bx:shape="cross 148.414 51.623 32.468 32.468 1.623 1.623 0.5 1@2455bc4c"/>
  </g>
  <g transform="matrix(1.333333, 0, 0, 1.333333, -7.706666, 49.124981)" style="">
    <circle style="stroke: rgb(0, 0, 0); fill: none;" cx="190.15" cy="208.566" r="16.917"/>
    <path d="M 163.837 51.623 H 165.46 V 67.046 H 180.882 V 68.669 H 165.46 V 84.091 H 163.837 V 68.669 H 148.414 V 67.046 H 163.837 Z" transform="matrix(0.707107, -0.707107, 0.707107, 0.707107, 25.74444, 277.007233)" style="stroke: rgb(0, 0, 0);" bx:shape="cross 148.414 51.623 32.468 32.468 1.623 1.623 0.5 1@2455bc4c"/>
  </g>
  <g transform="matrix(1.333333, 0, 0, 1.333333, 83.045387, 49.124981)" style="">
    <circle style="stroke: rgb(0, 0, 0); fill: none;" cx="190.15" cy="208.566" r="16.917"/>
    <path d="M 163.837 51.623 H 165.46 V 67.046 H 180.882 V 68.669 H 165.46 V 84.091 H 163.837 V 68.669 H 148.414 V 67.046 H 163.837 Z" transform="matrix(0.707107, -0.707107, 0.707107, 0.707107, 25.74444, 277.007233)" style="stroke: rgb(0, 0, 0);" bx:shape="cross 148.414 51.623 32.468 32.468 1.623 1.623 0.5 1@2455bc4c"/>
  </g>
  <g transform="matrix(1.333333, 0, 0, 1.333333, 172.171478, 49.124981)" style="">
    <circle style="stroke: rgb(0, 0, 0); fill: none;" cx="190.15" cy="208.566" r="16.917"/>
    <path d="M 163.837 51.623 H 165.46 V 67.046 H 180.882 V 68.669 H 165.46 V 84.091 H 163.837 V 68.669 H 148.414 V 67.046 H 163.837 Z" transform="matrix(0.707107, -0.707107, 0.707107, 0.707107, 25.74444, 277.007233)" style="stroke: rgb(0, 0, 0);" bx:shape="cross 148.414 51.623 32.468 32.468 1.623 1.623 0.5 1@2455bc4c"/>
  </g>
  <g transform="matrix(1.333333, 0, 0, 1.333333, 262.019257, 49.124981)" style="">
    <circle style="stroke: rgb(0, 0, 0); fill: none;" cx="190.15" cy="208.566" r="16.917"/>
    <path d="M 163.837 51.623 H 165.46 V 67.046 H 180.882 V 68.669 H 165.46 V 84.091 H 163.837 V 68.669 H 148.414 V 67.046 H 163.837 Z" transform="matrix(0.707107, -0.707107, 0.707107, 0.707107, 25.74444, 277.007233)" style="stroke: rgb(0, 0, 0);" bx:shape="cross 148.414 51.623 32.468 32.468 1.623 1.623 0.5 1@2455bc4c"/>
  </g>
  <g transform="matrix(1.333333, 0, 0, 1.333333, -7.706666, 138.596542)" style="">
    <circle style="stroke: rgb(0, 0, 0); fill: none;" cx="190.15" cy="208.566" r="16.917"/>
    <path d="M 163.837 51.623 H 165.46 V 67.046 H 180.882 V 68.669 H 165.46 V 84.091 H 163.837 V 68.669 H 148.414 V 67.046 H 163.837 Z" transform="matrix(0.707107, -0.707107, 0.707107, 0.707107, 25.74444, 277.007233)" style="stroke: rgb(0, 0, 0);" bx:shape="cross 148.414 51.623 32.468 32.468 1.623 1.623 0.5 1@2455bc4c"/>
  </g>
  <g transform="matrix(1.333333, 0, 0, 1.333333, 83.045387, 138.596542)" style="">
    <circle style="stroke: rgb(0, 0, 0); fill: none;" cx="190.15" cy="208.566" r="16.917"/>
    <path d="M 163.837 51.623 H 165.46 V 67.046 H 180.882 V 68.669 H 165.46 V 84.091 H 163.837 V 68.669 H 148.414 V 67.046 H 163.837 Z" transform="matrix(0.707107, -0.707107, 0.707107, 0.707107, 25.74444, 277.007233)" style="stroke: rgb(0, 0, 0);" bx:shape="cross 148.414 51.623 32.468 32.468 1.623 1.623 0.5 1@2455bc4c"/>
  </g>
  <g transform="matrix(1.333333, 0, 0, 1.333333, 172.171478, 138.596542)" style="">
    <circle style="stroke: rgb(0, 0, 0); fill: none;" cx="190.15" cy="208.566" r="16.917"/>
    <path d="M 163.837 51.623 H 165.46 V 67.046 H 180.882 V 68.669 H 165.46 V 84.091 H 163.837 V 68.669 H 148.414 V 67.046 H 163.837 Z" transform="matrix(0.707107, -0.707107, 0.707107, 0.707107, 25.74444, 277.007233)" style="stroke: rgb(0, 0, 0);" bx:shape="cross 148.414 51.623 32.468 32.468 1.623 1.623 0.5 1@2455bc4c"/>
  </g>
  <g transform="matrix(1.333333, 0, 0, 1.333333, 262.019257, 138.596542)" style="">
    <circle style="stroke: rgb(0, 0, 0); fill: none;" cx="190.15" cy="208.566" r="16.917"/>
    <path d="M 163.837 51.623 H 165.46 V 67.046 H 180.882 V 68.669 H 165.46 V 84.091 H 163.837 V 68.669 H 148.414 V 67.046 H 163.837 Z" transform="matrix(0.707107, -0.707107, 0.707107, 0.707107, 25.74444, 277.007233)" style="stroke: rgb(0, 0, 0);" bx:shape="cross 148.414 51.623 32.468 32.468 1.623 1.623 0.5 1@2455bc4c"/>
  </g>
  <path d="M 282.096 461.379 C 283.826 461.379 285.616 461.379 286.926 461.439 L 287.476 461.439 C 287.666 461.249 287.636 461.339 287.796 460.829 C 287.956 460.159 287.886 460.189 287.666 459.969 L 286.866 459.969 C 285.556 459.969 284.466 459.899 284.206 459.779 C 284.076 459.739 284.016 459.649 284.016 459.519 C 284.016 459.459 284.466 457.599 285.036 455.359 L 286.066 451.299 L 287.826 451.299 C 289.776 451.299 290.036 451.329 290.516 451.489 C 291.086 451.649 291.316 451.939 291.316 452.669 C 291.316 453.059 291.246 453.569 291.086 454.209 C 290.926 454.819 290.956 454.849 291.216 455.039 L 291.596 455.039 C 292.046 455.039 292.176 455.009 292.236 454.819 C 292.306 454.659 294.316 446.529 294.316 446.399 C 294.316 446.269 294.196 446.139 294.096 446.079 L 293.716 446.079 C 292.976 446.079 293.106 446.179 292.946 446.779 C 292.626 447.999 292.336 448.639 291.826 449.089 C 291.476 449.439 291.026 449.629 290.286 449.759 C 289.996 449.789 289.646 449.789 288.176 449.819 L 286.416 449.819 L 287.436 445.699 C 288.016 443.419 288.496 441.539 288.526 441.499 C 288.596 441.339 288.686 441.279 288.846 441.219 C 289.006 441.179 289.296 441.179 291.536 441.149 C 295.116 441.149 295.826 441.179 296.756 441.569 C 297.776 441.979 298.226 442.779 298.226 444.479 C 298.226 445.019 298.196 445.629 298.096 446.339 C 298.066 446.719 298.036 446.909 298.036 447.039 C 298.036 447.229 298.096 447.229 298.256 447.359 L 298.636 447.359 C 299.086 447.359 299.216 447.329 299.276 447.139 C 299.316 447.039 300.146 440.259 300.146 440.029 C 300.146 439.869 300.016 439.779 299.916 439.679 L 282.676 439.679 C 282.446 439.809 282.476 439.839 282.356 440.349 C 282.196 440.929 282.256 440.929 282.476 441.149 L 283.476 441.149 C 284.336 441.179 285.006 441.249 285.166 441.309 C 285.266 441.309 285.296 441.409 285.296 441.539 C 285.296 441.729 280.876 459.259 280.786 459.489 C 280.656 459.709 280.496 459.809 280.176 459.869 C 279.826 459.899 278.996 459.969 278.256 459.969 C 277.426 459.969 277.426 459.969 277.266 460.639 C 277.196 460.899 277.166 461.019 277.166 461.089 C 277.166 461.149 277.196 461.179 277.236 461.249 C 277.296 461.379 277.326 461.409 277.716 461.409 C 279.056 461.409 280.396 461.379 282.096 461.379 Z" transform="matrix(1, 0, 0, 1, 0, 0)" style="fill: rgb(51, 51, 51); white-space: pre;"/>
  <path d="M 292.975 458.72 C 292.975 459.09 290.765 467.73 290.715 467.79 C 290.655 467.91 290.575 467.95 290.415 467.99 C 290.235 468 289.805 468.03 289.455 468.03 L 289.355 468.03 C 289.035 468.03 289.055 468.05 288.955 468.39 C 288.925 468.5 288.925 468.56 288.925 468.61 C 288.925 468.67 288.945 468.71 288.995 468.74 C 289.035 468.77 289.165 468.77 293.115 468.77 C 297.105 468.77 297.195 468.77 297.245 468.74 C 297.275 468.72 297.295 468.69 297.325 468.63 C 297.475 468.19 298.765 464.66 298.765 464.58 C 298.765 464.5 298.705 464.45 298.675 464.4 L 298.465 464.4 C 298.235 464.4 298.235 464.42 298.195 464.45 C 298.175 464.48 298.115 464.63 298.015 464.9 C 297.565 466.08 297.135 466.99 296.205 467.52 C 295.345 468.03 294.815 468.03 293.395 468.03 C 292.355 468.02 292.305 468.02 292.305 467.94 C 292.305 467.92 292.815 465.87 293.425 463.39 C 294.675 458.45 294.555 458.82 294.715 458.72 C 294.865 458.63 295.155 458.59 296.015 458.58 L 296.625 458.58 C 296.705 458.5 296.705 458.48 296.765 458.27 C 296.845 457.95 296.815 457.95 296.705 457.84 L 296.515 457.84 C 296.415 457.86 295.805 457.86 295.165 457.87 C 294.765 457.87 294.355 457.89 293.915 457.89 C 293.185 457.89 292.465 457.87 291.885 457.84 C 291.555 457.84 291.595 457.84 291.505 458.18 C 291.455 458.42 291.455 458.42 291.485 458.47 C 291.515 458.56 291.535 458.58 292.065 458.58 C 292.545 458.59 292.975 458.58 292.975 458.72 Z" transform="matrix(1, 0, 0, 1, 0, 0)" style="fill: rgb(51, 51, 51); white-space: pre;"/>
  <g transform="matrix(1.333333, 0, 0, 1.333333, -92.087044, -45.022667)" style="">
    <path d="M 283.25 188.747 C 284.55 188.747 285.89 188.747 286.87 188.797 L 287.28 188.797 C 287.43 188.657 287.4 188.727 287.52 188.337 C 287.64 187.837 287.59 187.857 287.43 187.697 L 286.83 187.697 C 285.84 187.697 285.03 187.647 284.83 187.547 C 284.74 187.527 284.69 187.457 284.69 187.357 C 284.69 187.307 285.03 185.917 285.46 184.237 L 286.23 181.187 L 287.55 181.187 C 289.01 181.187 289.2 181.217 289.56 181.337 C 289.99 181.457 290.16 181.667 290.16 182.217 C 290.16 182.507 290.11 182.897 289.99 183.377 C 289.87 183.827 289.9 183.857 290.09 183.997 L 290.38 183.997 C 290.71 183.997 290.81 183.977 290.86 183.827 C 290.91 183.707 292.42 177.617 292.42 177.517 C 292.42 177.417 292.32 177.327 292.25 177.277 L 291.96 177.277 C 291.41 177.277 291.51 177.347 291.39 177.807 C 291.15 178.717 290.93 179.197 290.55 179.537 C 290.28 179.797 289.95 179.937 289.39 180.037 C 289.18 180.057 288.91 180.057 287.81 180.087 L 286.49 180.087 L 287.26 176.987 C 287.69 175.287 288.05 173.867 288.07 173.847 C 288.12 173.727 288.19 173.677 288.31 173.627 C 288.43 173.607 288.65 173.607 290.33 173.577 C 293.02 173.577 293.55 173.607 294.24 173.897 C 295.01 174.207 295.35 174.807 295.35 176.077 C 295.35 176.487 295.32 176.937 295.25 177.467 C 295.23 177.757 295.2 177.897 295.2 177.997 C 295.2 178.137 295.25 178.137 295.37 178.237 L 295.66 178.237 C 295.99 178.237 296.09 178.217 296.14 178.067 C 296.16 177.997 296.79 172.907 296.79 172.737 C 296.79 172.617 296.69 172.547 296.62 172.477 L 283.68 172.477 C 283.51 172.577 283.54 172.597 283.44 172.977 C 283.32 173.417 283.37 173.417 283.54 173.577 L 284.28 173.577 C 284.93 173.607 285.43 173.657 285.55 173.697 C 285.63 173.697 285.65 173.777 285.65 173.867 C 285.65 174.017 282.34 187.167 282.27 187.337 C 282.17 187.497 282.05 187.577 281.81 187.617 C 281.55 187.647 280.92 187.697 280.37 187.697 C 279.75 187.697 279.75 187.697 279.63 188.197 C 279.58 188.387 279.55 188.487 279.55 188.537 C 279.55 188.577 279.58 188.607 279.6 188.657 C 279.65 188.747 279.67 188.777 279.96 188.777 C 280.97 188.777 281.98 188.747 283.25 188.747 Z" transform="matrix(1, 0, 0, 1, 0, 0)" style="fill: rgb(51, 51, 51); white-space: pre;"/>
    <path d="M 292.879 192.278 C 292.849 192.278 292.809 192.308 292.739 192.398 C 292.209 193.008 291.419 193.418 290.519 193.418 C 289.809 193.418 289.509 192.898 289.509 192.188 C 289.509 191.918 289.559 191.608 289.639 191.228 C 289.649 191.158 289.669 191.098 289.669 191.078 C 289.679 191.048 289.689 191.048 290.119 191.048 C 290.909 191.038 291.309 190.988 291.729 190.888 C 292.399 190.718 292.849 190.408 293.039 189.768 C 293.059 189.688 293.059 189.578 293.059 189.468 C 293.059 189.388 293.059 189.298 293.049 189.248 C 292.909 188.748 292.399 188.428 291.729 188.428 L 291.689 188.428 C 291.599 188.428 291.509 188.428 291.499 188.438 C 289.999 188.608 288.899 189.598 288.569 190.808 C 288.509 191.088 288.479 191.428 288.479 191.708 C 288.479 192.288 288.629 192.708 288.869 193.068 C 288.979 193.228 289.189 193.438 289.349 193.538 C 289.679 193.768 290.039 193.858 290.469 193.858 C 291.369 193.858 292.189 193.528 292.789 192.998 C 292.919 192.878 293.159 192.638 293.159 192.548 C 293.159 192.488 292.949 192.278 292.879 192.278 Z M 292.489 189.488 C 292.489 189.648 292.469 189.748 292.399 189.898 C 292.099 190.358 291.709 190.508 290.769 190.588 C 290.599 190.598 290.269 190.608 290.039 190.608 C 289.889 190.608 289.799 190.608 289.799 190.598 C 289.799 190.568 289.879 190.328 289.929 190.198 C 290.119 189.698 290.399 189.348 290.809 189.108 C 291.069 188.968 291.379 188.868 291.669 188.868 C 292.129 188.868 292.439 189.068 292.489 189.488 ZM 295.238 193.858 C 295.318 193.858 295.378 193.848 295.438 193.838 C 295.798 193.748 296.068 193.468 296.298 192.938 C 296.408 192.688 296.578 192.108 296.578 191.998 C 296.578 191.878 296.538 191.888 296.348 191.888 L 296.298 191.888 C 296.118 191.888 296.128 191.908 296.058 192.158 C 295.868 192.928 295.698 193.248 295.458 193.378 C 295.388 193.418 295.228 193.418 295.168 193.388 C 295.028 193.308 294.998 193.188 294.998 192.948 C 294.998 192.878 295.018 192.788 295.018 192.728 C 295.078 192.338 296.788 185.738 296.788 185.498 C 296.788 185.428 296.708 185.398 296.648 185.398 C 296.638 185.398 294.918 185.518 294.858 185.548 C 294.808 185.568 294.798 185.608 294.748 185.798 C 294.718 185.948 294.718 185.968 294.728 185.998 C 294.758 186.068 294.788 186.088 295.058 186.088 C 295.398 186.098 295.638 186.058 295.598 186.338 C 295.588 186.368 295.258 187.768 294.848 189.408 L 294.068 192.508 C 294.058 192.568 294.058 192.638 294.058 192.708 C 294.058 193.428 294.538 193.858 295.238 193.858 Z" transform="matrix(1, 0, 0, 1, 0, 0)" style="fill: rgb(51, 51, 51); white-space: pre;"/>
  </g>
  <circle style="fill: rgb(216, 216, 216);" cx="291.832" cy="326.236" r="7.883"/>
  <path style="fill: none; stroke: rgb(230, 75, 101); stroke-width: 4px;" d="M 178.139 326.662 C 178.139 326.662 466.741 326.662 607.11 206.882"/>
  <path style="fill: none; stroke-width: 4px; stroke: rgb(79, 190, 103);" d="M 178.744 326.662 C 179.147 326.662 436.289 312.158 608.927 486.409"/>
</svg>