<?xml version="1.0" encoding="utf-8"?>
<svg viewBox="11.299 9.04 303.391 392.09" width="303.391" height="392.09" xmlns="http://www.w3.org/2000/svg" xmlns:bx="https://boxy-svg.com">
  <path d="M 43.677 153.863 H 233.356 L 233.356 145.984 L 251.74 155.176 L 233.356 164.368 L 233.356 156.489 H 43.677 V 153.863 Z" style="stroke: rgb(0, 0, 0);" bx:shape="arrow 43.677 145.984 208.063 18.385 2.626 18.385 0 1@153bdc6c"/>
  <path d="M -329.626 -446.026 H -139.671 L -139.671 -453.601 L -121.565 -444.763 L -139.671 -435.925 L -139.671 -443.5 H -329.626 V -446.026 Z" transform="matrix(0, 1, 1, 0, 487.153564, 485.451935)" style="stroke: rgb(0, 0, 0);" bx:shape="arrow -329.626 -453.601 208.061 17.676 2.527 18.106 0 1@854d68c8"/>
  <path d="M 345.166 493.072 H 488.364 L 488.364 484.947 L 507.323 494.427 L 488.364 503.906 L 488.364 495.781 H 345.166 V 493.072 Z" transform="matrix(0.707107, -0.707107, 0.707107, 0.707107, -550.518127, 49.589405)" style="stroke: rgb(0, 0, 0);" bx:shape="arrow 345.166 484.947 162.157 18.959 2.709 18.959 0 1@c7c98d0d"/>
  <path d="M 271.789 189.063 C 275.079 189.063 277.569 186.913 279.669 182.623 C 280.719 180.583 281.369 178.783 282.069 175.943 C 282.709 173.343 283.059 171.543 283.059 170.203 C 283.059 168.353 282.309 166.403 280.569 166.403 C 279.069 166.403 277.569 167.853 277.569 169.403 C 277.569 169.903 277.769 170.353 278.219 170.753 C 279.619 171.993 280.169 173.143 280.169 174.693 C 280.169 175.393 280.069 175.943 279.769 176.983 C 278.419 181.873 276.679 185.073 274.629 186.413 C 273.829 187.013 273.229 187.213 272.229 187.213 C 270.739 187.213 269.489 186.413 269.089 185.073 C 268.889 184.373 268.839 183.823 268.839 182.873 C 268.939 180.883 269.439 178.983 271.289 173.993 C 271.689 172.993 272.039 171.993 272.039 171.793 C 272.139 171.493 272.189 170.953 272.189 170.503 C 272.189 168.103 270.289 166.503 267.739 166.503 C 266.399 166.503 265.499 166.903 264.649 167.553 C 262.899 168.903 261.659 171.093 260.959 173.443 C 260.859 173.843 260.809 174.043 260.809 174.193 C 260.809 174.393 261.009 174.543 261.109 174.643 L 261.809 174.643 C 262.749 174.643 262.599 174.643 262.799 174.193 C 263.599 171.193 265.049 169.003 266.649 168.453 C 266.949 168.353 267.249 168.303 267.439 168.303 C 268.089 168.303 268.389 168.753 268.389 169.553 C 268.389 170.053 268.289 170.653 268.089 171.243 C 268.039 171.493 267.639 172.593 267.289 173.643 C 265.799 177.533 265.249 179.383 264.949 180.983 C 264.899 181.373 264.849 182.023 264.849 182.673 C 264.849 187.013 267.639 189.063 271.789 189.063 Z" transform="matrix(1, 0, 0, 1, 0, 0)" style="fill: rgb(51, 51, 51); white-space: pre;"/>
  <path d="M 290.769 195.044 C 290.689 195.044 290.619 195.114 290.469 195.294 C 289.369 196.564 287.729 197.404 285.859 197.404 C 284.389 197.404 283.769 196.334 283.769 194.864 C 283.769 194.294 283.869 193.644 284.049 192.874 C 284.069 192.724 284.099 192.604 284.099 192.554 C 284.119 192.504 284.149 192.504 285.039 192.504 C 286.689 192.474 287.509 192.374 288.379 192.154 C 289.769 191.804 290.689 191.154 291.089 189.834 C 291.139 189.664 291.139 189.434 291.139 189.214 C 291.139 189.044 291.139 188.864 291.119 188.764 C 290.819 187.724 289.769 187.044 288.379 187.044 L 288.299 187.044 C 288.109 187.044 287.929 187.044 287.909 187.074 C 284.789 187.424 282.499 189.484 281.829 192.004 C 281.709 192.574 281.629 193.274 281.629 193.874 C 281.629 195.064 281.949 195.934 282.449 196.684 C 282.679 197.004 283.099 197.454 283.449 197.654 C 284.119 198.124 284.869 198.324 285.759 198.324 C 287.629 198.324 289.329 197.634 290.569 196.534 C 290.839 196.284 291.339 195.784 291.339 195.614 C 291.339 195.494 290.919 195.044 290.769 195.044 Z M 289.949 189.264 C 289.949 189.584 289.919 189.784 289.769 190.114 C 289.149 191.054 288.329 191.384 286.389 191.534 C 286.039 191.554 285.339 191.584 284.869 191.584 C 284.569 191.584 284.369 191.584 284.369 191.554 C 284.369 191.504 284.539 191.004 284.639 190.734 C 285.039 189.684 285.619 188.964 286.459 188.464 C 287.009 188.164 287.659 187.974 288.249 187.974 C 289.199 187.974 289.849 188.394 289.949 189.264 Z" transform="matrix(1, 0, 0, 1, 0, 0)" style="fill: rgb(51, 51, 51); white-space: pre;"/>
  <path d="M 184.622 31.772 C 184.622 32.922 177.742 59.872 177.592 60.072 C 177.392 60.422 177.142 60.572 176.642 60.662 C 176.092 60.712 174.742 60.812 173.642 60.812 L 173.342 60.812 C 172.352 60.812 172.402 60.862 172.102 61.912 C 172.002 62.262 172.002 62.462 172.002 62.612 C 172.002 62.812 172.052 62.912 172.202 63.012 C 172.352 63.112 172.702 63.112 182.332 63.112 C 188.512 63.112 192.512 63.112 192.852 63.062 C 196.252 62.762 199.542 61.262 201.992 58.922 C 204.082 56.922 205.282 54.432 205.282 52.182 C 205.282 48.442 202.242 45.892 197.942 45.302 L 198.442 45.152 C 201.942 44.402 205.532 42.052 207.032 39.362 C 207.632 38.312 207.972 37.112 207.972 35.962 C 207.972 33.922 207.232 32.722 205.982 31.522 C 204.682 30.282 202.932 29.482 200.592 29.132 C 200.242 29.082 192.702 29.032 186.972 29.032 C 183.422 29.032 180.532 29.032 180.482 29.082 C 180.282 29.182 180.232 29.332 180.032 30.082 C 179.882 30.822 179.882 30.822 179.982 30.972 C 180.082 31.272 180.132 31.322 181.782 31.322 C 183.272 31.372 184.622 31.322 184.622 31.772 Z M 202.642 35.962 C 202.642 37.162 202.292 38.412 201.592 39.662 C 200.242 42.052 197.602 43.902 194.902 44.352 C 194.302 44.452 194.052 44.452 190.262 44.452 L 186.222 44.452 L 187.762 38.162 C 189.012 33.322 189.362 31.872 189.462 31.722 C 189.612 31.522 189.812 31.422 190.362 31.372 C 190.512 31.372 192.562 31.322 194.852 31.322 C 199.042 31.372 199.092 31.372 199.442 31.472 C 201.392 31.972 202.642 33.722 202.642 35.962 Z M 199.942 51.682 C 199.942 56.772 195.702 60.322 191.662 60.762 C 191.312 60.812 189.912 60.812 186.872 60.812 C 182.282 60.762 182.232 60.762 182.232 60.522 C 182.232 60.472 185.672 46.592 185.722 46.342 C 185.772 46.292 188.912 46.292 191.662 46.292 C 193.702 46.292 195.502 46.292 195.802 46.342 C 198.142 46.692 199.942 48.692 199.942 51.682 Z" transform="matrix(1, 0, 0, 1, 0, 0)" style="fill: rgb(51, 51, 51); white-space: pre;"/>
  <path d="M 74.985 373.328 C 77.685 373.328 80.475 373.328 82.525 373.428 L 83.365 373.428 C 83.665 373.128 83.615 373.278 83.865 372.478 C 84.115 371.428 84.015 371.478 83.665 371.128 L 82.425 371.128 C 80.375 371.128 78.675 371.028 78.275 370.838 C 78.085 370.788 77.985 370.638 77.985 370.438 C 77.985 370.338 78.675 367.438 79.575 363.948 L 81.175 357.608 L 83.915 357.608 C 86.965 357.608 87.365 357.658 88.115 357.908 C 89.005 358.158 89.355 358.608 89.355 359.758 C 89.355 360.358 89.255 361.148 89.005 362.148 C 88.755 363.098 88.805 363.148 89.205 363.448 L 89.805 363.448 C 90.505 363.448 90.705 363.398 90.805 363.098 C 90.905 362.848 94.045 350.178 94.045 349.978 C 94.045 349.778 93.845 349.578 93.695 349.478 L 93.105 349.478 C 91.955 349.478 92.155 349.628 91.905 350.578 C 91.405 352.468 90.955 353.468 90.155 354.168 C 89.605 354.718 88.905 355.018 87.765 355.218 C 87.315 355.268 86.765 355.268 84.465 355.318 L 81.725 355.318 L 83.315 348.878 C 84.215 345.338 84.965 342.388 85.015 342.338 C 85.115 342.088 85.265 341.988 85.515 341.888 C 85.765 341.838 86.215 341.838 89.705 341.788 C 95.295 341.788 96.395 341.838 97.845 342.438 C 99.435 343.088 100.135 344.338 100.135 346.978 C 100.135 347.828 100.085 348.778 99.935 349.878 C 99.885 350.478 99.835 350.778 99.835 350.978 C 99.835 351.268 99.935 351.268 100.185 351.468 L 100.785 351.468 C 101.485 351.468 101.685 351.418 101.785 351.118 C 101.835 350.978 103.135 340.398 103.135 340.048 C 103.135 339.798 102.935 339.648 102.785 339.498 L 75.885 339.498 C 75.535 339.698 75.585 339.748 75.385 340.548 C 75.135 341.438 75.235 341.438 75.585 341.788 L 77.135 341.788 C 78.475 341.838 79.525 341.938 79.775 342.038 C 79.925 342.038 79.975 342.188 79.975 342.388 C 79.975 342.688 73.095 370.038 72.945 370.388 C 72.745 370.738 72.495 370.888 71.995 370.978 C 71.445 371.028 70.145 371.128 68.995 371.128 C 67.705 371.128 67.705 371.128 67.455 372.178 C 67.355 372.578 67.305 372.778 67.305 372.878 C 67.305 372.978 67.355 373.028 67.405 373.128 C 67.505 373.328 67.555 373.378 68.155 373.378 C 70.245 373.378 72.345 373.328 74.985 373.328 Z" transform="matrix(1, 0, 0, 1, 0, 0)" style="fill: rgb(51, 51, 51); white-space: pre;"/>
  <path d="M 94.21 368.698 C 94.21 369.278 90.77 382.718 90.7 382.818 C 90.6 382.998 90.47 383.068 90.22 383.118 C 89.95 383.138 89.28 383.188 88.73 383.188 L 88.58 383.188 C 88.08 383.188 88.11 383.218 87.96 383.738 C 87.91 383.918 87.91 384.018 87.91 384.088 C 87.91 384.188 87.93 384.238 88.01 384.288 C 88.08 384.338 88.28 384.338 94.43 384.338 C 100.63 384.338 100.78 384.338 100.85 384.288 C 100.9 384.268 100.93 384.218 100.98 384.118 C 101.2 383.438 103.22 377.938 103.22 377.818 C 103.22 377.688 103.12 377.618 103.07 377.538 L 102.75 377.538 C 102.4 377.538 102.4 377.568 102.32 377.618 C 102.3 377.668 102.2 377.888 102.05 378.308 C 101.35 380.158 100.68 381.578 99.24 382.398 C 97.89 383.188 97.07 383.188 94.85 383.188 C 93.24 383.168 93.16 383.168 93.16 383.048 C 93.16 383.018 93.96 379.828 94.9 375.968 C 96.85 368.278 96.67 368.848 96.92 368.698 C 97.14 368.548 97.59 368.498 98.94 368.478 L 99.88 368.478 C 100.01 368.348 100.01 368.328 100.11 368.008 C 100.23 367.508 100.18 367.508 100.01 367.328 L 99.71 367.328 C 99.56 367.358 98.61 367.358 97.62 367.378 C 97 367.378 96.35 367.408 95.68 367.408 C 94.53 367.408 93.41 367.378 92.51 367.328 C 91.99 367.328 92.07 367.328 91.92 367.858 C 91.84 368.228 91.84 368.228 91.89 368.298 C 91.94 368.448 91.97 368.478 92.79 368.478 C 93.53 368.498 94.21 368.478 94.21 368.698 Z" transform="matrix(1, 0, 0, 1, 0, 0)" style="fill: rgb(51, 51, 51); white-space: pre;"/>
</svg>