<?xml version="1.0" encoding="utf-8"?>
<svg viewBox="146.893 36.723 609.039 434.463" width="609.039" height="434.463" xmlns="http://www.w3.org/2000/svg" xmlns:bx="https://boxy-svg.com">
  <line style="stroke: rgb(198, 198, 198); stroke-width: 5px;" x1="151.729" y1="249.638" x2="305.252" y2="249.638"/>
  <line style="stroke: rgb(0, 0, 0); stroke-width: 3px;" x1="178.16" y1="169.094" x2="584.156" y2="169.094" transform="matrix(1, 0, 0, 1, 128.609283, -76.981003)"/>
  <line style="stroke: rgb(0, 0, 0); stroke-width: 3px;" x1="178.16" y1="484.868" x2="584.156" y2="484.868" transform="matrix(1, 0, 0, 1, 128.609283, -76.981003)"/>
  <line style="stroke: rgb(0, 0, 0); stroke-width: 2px;" x1="381.564" y1="169.094" x2="381.564" y2="123.983" transform="matrix(1, 0, 0, 1, 128.609283, -76.981003)"/>
  <line style="stroke: rgb(0, 0, 0); stroke-width: 2px;" x1="381.564" y1="484.868" x2="381.564" y2="529.979" transform="matrix(1, 0, 0, 1, 128.609283, -76.981003)"/>
  <g style="" transform="matrix(1.333333, 0, 0, 1.333333, 120.902611, -118.308662)">
    <circle style="stroke: rgb(0, 0, 0); fill: none;" cx="190.15" cy="208.566" r="16.917"/>
    <path d="M 163.837 51.623 H 165.46 V 67.046 H 180.882 V 68.669 H 165.46 V 84.091 H 163.837 V 68.669 H 148.414 V 67.046 H 163.837 Z" transform="matrix(0.707107, -0.707107, 0.707107, 0.707107, 25.74444, 277.007233)" style="stroke: rgb(0, 0, 0);" bx:shape="cross 148.414 51.623 32.468 32.468 1.623 1.623 0.5 1@2455bc4c"/>
  </g>
  <g transform="matrix(1.333333, 0, 0, 1.333333, 211.654663, -118.308662)" style="">
    <circle style="stroke: rgb(0, 0, 0); fill: none;" cx="190.15" cy="208.566" r="16.917"/>
    <path d="M 163.837 51.623 H 165.46 V 67.046 H 180.882 V 68.669 H 165.46 V 84.091 H 163.837 V 68.669 H 148.414 V 67.046 H 163.837 Z" transform="matrix(0.707107, -0.707107, 0.707107, 0.707107, 25.74444, 277.007233)" style="stroke: rgb(0, 0, 0);" bx:shape="cross 148.414 51.623 32.468 32.468 1.623 1.623 0.5 1@2455bc4c"/>
  </g>
  <g transform="matrix(1.333333, 0, 0, 1.333333, 300.780762, -118.308662)" style="">
    <circle style="stroke: rgb(0, 0, 0); fill: none;" cx="190.15" cy="208.566" r="16.917"/>
    <path d="M 163.837 51.623 H 165.46 V 67.046 H 180.882 V 68.669 H 165.46 V 84.091 H 163.837 V 68.669 H 148.414 V 67.046 H 163.837 Z" transform="matrix(0.707107, -0.707107, 0.707107, 0.707107, 25.74444, 277.007233)" style="stroke: rgb(0, 0, 0);" bx:shape="cross 148.414 51.623 32.468 32.468 1.623 1.623 0.5 1@2455bc4c"/>
    <line style="stroke: rgb(0, 0, 0); stroke-width: 2px;" x1="168.264" y1="415.622" x2="180.214" y2="415.622"/>
    <path d="M 173.329 127.513 H 173.984 V 133.729 H 180.2 V 134.384 H 173.984 V 140.6 H 173.329 V 134.384 H 167.113 V 133.729 H 173.329 Z" style="stroke: rgb(0, 0, 0);" bx:shape="cross 167.113 127.513 13.088 13.088 0.655 0.655 0.5 1@1ba383c0"/>
    <line style="stroke: rgb(0, 0, 0); stroke-width: 2px;" x1="-16.143" y1="267.614" x2="-4.193" y2="267.614"/>
  </g>
  <g transform="matrix(1.333333, 0, 0, 1.333333, 390.62854, -118.308662)" style="">
    <circle style="stroke: rgb(0, 0, 0); fill: none;" cx="190.15" cy="208.566" r="16.917"/>
    <path d="M 163.837 51.623 H 165.46 V 67.046 H 180.882 V 68.669 H 165.46 V 84.091 H 163.837 V 68.669 H 148.414 V 67.046 H 163.837 Z" transform="matrix(0.707107, -0.707107, 0.707107, 0.707107, 25.74444, 277.007233)" style="stroke: rgb(0, 0, 0);" bx:shape="cross 148.414 51.623 32.468 32.468 1.623 1.623 0.5 1@2455bc4c"/>
  </g>
  <g transform="matrix(1.333333, 0, 0, 1.333333, 120.902611, -27.85602)" style="">
    <circle style="stroke: rgb(0, 0, 0); fill: none;" cx="190.15" cy="208.566" r="16.917"/>
    <path d="M 163.837 51.623 H 165.46 V 67.046 H 180.882 V 68.669 H 165.46 V 84.091 H 163.837 V 68.669 H 148.414 V 67.046 H 163.837 Z" transform="matrix(0.707107, -0.707107, 0.707107, 0.707107, 25.74444, 277.007233)" style="stroke: rgb(0, 0, 0);" bx:shape="cross 148.414 51.623 32.468 32.468 1.623 1.623 0.5 1@2455bc4c"/>
  </g>
  <g transform="matrix(1.333333, 0, 0, 1.333333, 120.902611, -27.85602)" style="">
    <circle style="stroke: rgb(0, 0, 0); fill: none;" cx="190.15" cy="208.566" r="16.917"/>
    <path d="M 163.837 51.623 H 165.46 V 67.046 H 180.882 V 68.669 H 165.46 V 84.091 H 163.837 V 68.669 H 148.414 V 67.046 H 163.837 Z" transform="matrix(0.707107, -0.707107, 0.707107, 0.707107, 25.74444, 277.007233)" style="stroke: rgb(0, 0, 0);" bx:shape="cross 148.414 51.623 32.468 32.468 1.623 1.623 0.5 1@2455bc4c"/>
  </g>
  <g transform="matrix(1.333333, 0, 0, 1.333333, 211.654663, -27.85602)" style="">
    <circle style="stroke: rgb(0, 0, 0); fill: none;" cx="190.15" cy="208.566" r="16.917"/>
    <path d="M 163.837 51.623 H 165.46 V 67.046 H 180.882 V 68.669 H 165.46 V 84.091 H 163.837 V 68.669 H 148.414 V 67.046 H 163.837 Z" transform="matrix(0.707107, -0.707107, 0.707107, 0.707107, 25.74444, 277.007233)" style="stroke: rgb(0, 0, 0);" bx:shape="cross 148.414 51.623 32.468 32.468 1.623 1.623 0.5 1@2455bc4c"/>
  </g>
  <g transform="matrix(1.333333, 0, 0, 1.333333, 300.780762, -27.85602)" style="">
    <circle style="stroke: rgb(0, 0, 0); fill: none;" cx="190.15" cy="208.566" r="16.917"/>
    <path d="M 163.837 51.623 H 165.46 V 67.046 H 180.882 V 68.669 H 165.46 V 84.091 H 163.837 V 68.669 H 148.414 V 67.046 H 163.837 Z" transform="matrix(0.707107, -0.707107, 0.707107, 0.707107, 25.74444, 277.007233)" style="stroke: rgb(0, 0, 0);" bx:shape="cross 148.414 51.623 32.468 32.468 1.623 1.623 0.5 1@2455bc4c"/>
  </g>
  <g transform="matrix(1.333333, 0, 0, 1.333333, 390.62854, -27.85602)" style="">
    <circle style="stroke: rgb(0, 0, 0); fill: none;" cx="190.15" cy="208.566" r="16.917"/>
    <path d="M 163.837 51.623 H 165.46 V 67.046 H 180.882 V 68.669 H 165.46 V 84.091 H 163.837 V 68.669 H 148.414 V 67.046 H 163.837 Z" transform="matrix(0.707107, -0.707107, 0.707107, 0.707107, 25.74444, 277.007233)" style="stroke: rgb(0, 0, 0);" bx:shape="cross 148.414 51.623 32.468 32.468 1.623 1.623 0.5 1@2455bc4c"/>
  </g>
  <g transform="matrix(1.333333, 0, 0, 1.333333, 120.902611, 61.615543)" style="">
    <circle style="stroke: rgb(0, 0, 0); fill: none;" cx="190.15" cy="208.566" r="16.917"/>
    <path d="M 163.837 51.623 H 165.46 V 67.046 H 180.882 V 68.669 H 165.46 V 84.091 H 163.837 V 68.669 H 148.414 V 67.046 H 163.837 Z" transform="matrix(0.707107, -0.707107, 0.707107, 0.707107, 25.74444, 277.007233)" style="stroke: rgb(0, 0, 0);" bx:shape="cross 148.414 51.623 32.468 32.468 1.623 1.623 0.5 1@2455bc4c"/>
  </g>
  <g transform="matrix(1.333333, 0, 0, 1.333333, 211.654663, 61.615543)" style="">
    <circle style="stroke: rgb(0, 0, 0); fill: none;" cx="190.15" cy="208.566" r="16.917"/>
    <path d="M 163.837 51.623 H 165.46 V 67.046 H 180.882 V 68.669 H 165.46 V 84.091 H 163.837 V 68.669 H 148.414 V 67.046 H 163.837 Z" transform="matrix(0.707107, -0.707107, 0.707107, 0.707107, 25.74444, 277.007233)" style="stroke: rgb(0, 0, 0);" bx:shape="cross 148.414 51.623 32.468 32.468 1.623 1.623 0.5 1@2455bc4c"/>
  </g>
  <g transform="matrix(1.333333, 0, 0, 1.333333, 300.780762, 61.615543)" style="">
    <circle style="stroke: rgb(0, 0, 0); fill: none;" cx="190.15" cy="208.566" r="16.917"/>
    <path d="M 163.837 51.623 H 165.46 V 67.046 H 180.882 V 68.669 H 165.46 V 84.091 H 163.837 V 68.669 H 148.414 V 67.046 H 163.837 Z" transform="matrix(0.707107, -0.707107, 0.707107, 0.707107, 25.74444, 277.007233)" style="stroke: rgb(0, 0, 0);" bx:shape="cross 148.414 51.623 32.468 32.468 1.623 1.623 0.5 1@2455bc4c"/>
  </g>
  <g transform="matrix(1.333333, 0, 0, 1.333333, 390.62854, 61.615543)" style="">
    <circle style="stroke: rgb(0, 0, 0); fill: none;" cx="190.15" cy="208.566" r="16.917"/>
    <path d="M 163.837 51.623 H 165.46 V 67.046 H 180.882 V 68.669 H 165.46 V 84.091 H 163.837 V 68.669 H 148.414 V 67.046 H 163.837 Z" transform="matrix(0.707107, -0.707107, 0.707107, 0.707107, 25.74444, 277.007233)" style="stroke: rgb(0, 0, 0);" bx:shape="cross 148.414 51.623 32.468 32.468 1.623 1.623 0.5 1@2455bc4c"/>
  </g>
</svg>