<?xml version="1.0" encoding="utf-8"?>
<svg viewBox="492.596 420.91 473.139 354.341" width="473.139" height="354.341" xmlns="http://www.w3.org/2000/svg">
  <defs>
    <clipPath id="zuftoVzymqeJ">
      <path fill="none" stroke="none" d=" M 0 0 L 1540 0 L 1540 892 L 0 892 L 0 0 Z"/>
    </clipPath>
  </defs>
  <path fill="none" stroke="rgb(21,101,192)" paint-order="fill stroke markers" d="M 675.426 454.619 C 661.008 478.617 668.774 509.761 692.772 524.179" stroke-opacity="0.8" stroke-linecap="round" stroke-linejoin="round" stroke-miterlimit="10" stroke-width="2.5" clip-path="url(#zuftoVzymqeJ)"/>
  <path fill="none" stroke="rgb(219,97,20)" paint-order="fill stroke markers" d="M 681.999 480.744 C 682.009 501.112 698.528 517.616 718.897 517.606" stroke-opacity="0.8" stroke-linecap="round" stroke-linejoin="round" stroke-miterlimit="10" stroke-width="2.5" clip-path="url(#zuftoVzymqeJ)"/>
  <path fill="none" stroke="rgb(255,153,0)" paint-order="fill stroke markers" d="M 648.914 438.69 C 641.28 451.396 637.25 465.941 637.257 480.765" stroke-opacity="0.8" stroke-linecap="round" stroke-linejoin="round" stroke-miterlimit="10" stroke-width="4" clip-path="url(#zuftoVzymqeJ)"/>
  <path fill="none" stroke="rgb(102,204,0)" paint-order="fill stroke markers" d="M 637.257 480.765 C 637.27 509.404 652.293 535.942 676.843 550.692" stroke-opacity="0.8" stroke-linecap="round" stroke-linejoin="round" stroke-miterlimit="10" stroke-width="4" clip-path="url(#zuftoVzymqeJ)"/>
  <path fill="none" stroke="rgb(255,153,0)" paint-order="fill stroke markers" d="M 676.843 550.692 C 689.549 558.326 704.094 562.356 718.918 562.349" stroke-opacity="0.8" stroke-linecap="round" stroke-linejoin="round" stroke-miterlimit="10" stroke-width="4" clip-path="url(#zuftoVzymqeJ)"/>
  <path fill="none" stroke="rgb(97,97,97)" paint-order="fill stroke markers" d="M 659.004 638.657 C 663.104 631.834 664.325 623.662 662.399 615.939 C 660.473 608.216 655.558 601.574 648.735 597.475" stroke-opacity="0.8" stroke-linecap="round" stroke-linejoin="round" stroke-miterlimit="10" stroke-width="2.5" clip-path="url(#zuftoVzymqeJ)"/>
  <path fill="none" stroke="rgb(97,97,97)" paint-order="fill stroke markers" d="M 788.656 596.616 C 774.018 605.429 769.296 624.44 778.11 639.079" stroke-opacity="0.8" stroke-linecap="round" stroke-linejoin="round" stroke-miterlimit="10" stroke-width="2.5" clip-path="url(#zuftoVzymqeJ)"/>
  <path fill="none" stroke="rgb(97,97,97)" paint-order="fill stroke markers" d="M 330.96 480.909 L 524.92 480.818" stroke-opacity="0.8" stroke-linecap="round" stroke-linejoin="round" stroke-miterlimit="10" stroke-width="2.5" clip-path="url(#zuftoVzymqeJ)"/>
  <path fill="none" stroke="rgb(97,97,97)" paint-order="fill stroke markers" d="M 524.92 480.818 L 718.879 480.726" stroke-opacity="0.8" stroke-linecap="round" stroke-linejoin="round" stroke-miterlimit="10" stroke-width="2.5" clip-path="url(#zuftoVzymqeJ)"/>
  <path fill="none" stroke="rgb(97,97,97)" paint-order="fill stroke markers" d="M 718.879 480.726 L 912.839 480.635" stroke-opacity="0.8" stroke-linecap="round" stroke-linejoin="round" stroke-miterlimit="10" stroke-width="2.5" clip-path="url(#zuftoVzymqeJ)"/>
  <path fill="none" stroke="rgb(97,97,97)" paint-order="fill stroke markers" d="M 912.839 480.635 L 1106.799 480.544" stroke-opacity="0.8" stroke-linecap="round" stroke-linejoin="round" stroke-miterlimit="10" stroke-width="2.5" clip-path="url(#zuftoVzymqeJ)"/>
  <path fill="none" stroke="rgb(97,97,97)" paint-order="fill stroke markers" d="M 331.051 674.869 L 525.011 674.777" stroke-opacity="0.8" stroke-linecap="round" stroke-linejoin="round" stroke-miterlimit="10" stroke-width="2.5" clip-path="url(#zuftoVzymqeJ)"/>
  <path fill="none" stroke="rgb(97,97,97)" paint-order="fill stroke markers" d="M 525.011 674.777 L 718.971 674.686" stroke-opacity="0.8" stroke-linecap="round" stroke-linejoin="round" stroke-miterlimit="10" stroke-width="2.5" clip-path="url(#zuftoVzymqeJ)"/>
  <path fill="none" stroke="rgb(97,97,97)" paint-order="fill stroke markers" d="M 718.971 674.686 L 912.93 674.595" stroke-opacity="0.8" stroke-linecap="round" stroke-linejoin="round" stroke-miterlimit="10" stroke-width="2.5" clip-path="url(#zuftoVzymqeJ)"/>
  <path fill="none" stroke="rgb(97,97,97)" paint-order="fill stroke markers" d="M 912.93 674.595 L 1106.89 674.504" stroke-opacity="0.8" stroke-linecap="round" stroke-linejoin="round" stroke-miterlimit="10" stroke-width="2.5" clip-path="url(#zuftoVzymqeJ)"/>
  <path fill="none" stroke="rgb(211,47,47)" paint-order="fill stroke markers" d="M 718.879 480.726 L 181.4 157.8" stroke-opacity="0.8" stroke-linecap="round" stroke-linejoin="round" stroke-miterlimit="10" stroke-width="4" clip-path="url(#zuftoVzymqeJ)"/>
  <path fill="none" stroke="rgb(211,47,47)" paint-order="fill stroke markers" d="M 181.491 351.76 L 718.971 674.686" stroke-opacity="0.8" stroke-linecap="round" stroke-linejoin="round" stroke-miterlimit="10" stroke-width="4" clip-path="url(#zuftoVzymqeJ)"/>
  <path fill="none" stroke="rgb(211,47,47)" paint-order="fill stroke markers" d="M 718.879 480.726 L 1256.055 157.294" stroke-opacity="0.8" stroke-linecap="round" stroke-linejoin="round" stroke-miterlimit="10" stroke-width="4" clip-path="url(#zuftoVzymqeJ)"/>
  <path fill="none" stroke="rgb(211,47,47)" paint-order="fill stroke markers" d="M 1256.146 351.254 L 718.971 674.686" stroke-opacity="0.8" stroke-linecap="round" stroke-linejoin="round" stroke-miterlimit="10" stroke-width="4" clip-path="url(#zuftoVzymqeJ)"/>
  <path fill="none" stroke="rgb(97,97,97)" paint-order="fill stroke markers" d="M 633.278 623.201 L 718.879 480.726" stroke-opacity="0.8" stroke-linecap="round" stroke-linejoin="round" stroke-miterlimit="10" stroke-width="4" clip-path="url(#zuftoVzymqeJ)"/>
  <path fill="none" stroke="rgb(97,97,97)" paint-order="fill stroke markers" d="M 804.614 623.12 L 718.879 480.726" stroke-opacity="0.8" stroke-linecap="round" stroke-linejoin="round" stroke-miterlimit="10" stroke-width="4" clip-path="url(#zuftoVzymqeJ)"/>
  <path fill="none" stroke="rgb(97,97,97)" paint-order="fill stroke markers" d="M 612.62 657.585 L 627.2 633.318" stroke-opacity="0.8" stroke-linecap="round" stroke-linejoin="round" stroke-miterlimit="10" stroke-width="2.5" clip-path="url(#zuftoVzymqeJ)"/>
  <path fill="none" stroke="rgb(97,97,97)" paint-order="fill stroke markers" d="M 712.892 684.803 L 698.312 709.07" stroke-opacity="0.8" stroke-linecap="round" stroke-linejoin="round" stroke-miterlimit="10" stroke-width="2.5" clip-path="url(#zuftoVzymqeJ)"/>
  <path fill="none" stroke="rgb(97,97,97)" paint-order="fill stroke markers" d="M 826.037 658.7 L 811.653 634.811" stroke-opacity="0.8" stroke-linecap="round" stroke-linejoin="round" stroke-miterlimit="10" stroke-width="2.5" clip-path="url(#zuftoVzymqeJ)"/>
  <path fill="none" stroke="rgb(97,97,97)" paint-order="fill stroke markers" d="M 740.393 710.266 L 726.009 686.377" stroke-opacity="0.8" stroke-linecap="round" stroke-linejoin="round" stroke-miterlimit="10" stroke-width="2.5" clip-path="url(#zuftoVzymqeJ)"/>
  <path fill="none" stroke="rgb(97,97,97)" paint-order="fill stroke markers" d="M 718.698 95.698 L 719.033 807.526" stroke-opacity="0.8" stroke-linejoin="round" stroke-miterlimit="10" stroke-width="2.5" stroke-dasharray="10.5,8" clip-path="url(#zuftoVzymqeJ)"/>
  <path fill="none" stroke="rgb(97,97,97)" paint-order="fill stroke markers" d="M 662.756 671.194 L 634.482 654.207" stroke-opacity="0.8" stroke-linecap="round" stroke-linejoin="round" stroke-miterlimit="10" stroke-width="2.5" clip-path="url(#zuftoVzymqeJ)"/>
  <path fill="rgb(97,97,97)" stroke="none" paint-order="stroke fill markers" fill-rule="evenodd" d="M 619.91 645.451 L 636.671 650.564 L 632.293 657.85 Z" fill-opacity="0.8" clip-path="url(#zuftoVzymqeJ)"/>
  <path fill="none" stroke="rgb(97,97,97)" paint-order="fill stroke markers" d="M 662.756 671.194 L 691.03 688.182" stroke-opacity="0.8" stroke-linecap="round" stroke-linejoin="round" stroke-miterlimit="10" stroke-width="2.5" clip-path="url(#zuftoVzymqeJ)"/>
  <path fill="rgb(97,97,97)" stroke="none" paint-order="stroke fill markers" fill-rule="evenodd" d="M 705.602 696.937 L 688.841 691.825 L 693.219 684.539 Z" fill-opacity="0.8" clip-path="url(#zuftoVzymqeJ)"/>
  <path fill="none" stroke="rgb(97,97,97)" paint-order="fill stroke markers" d="M 776.023 672.538 L 804.281 655.524" stroke-opacity="0.8" stroke-linecap="round" stroke-linejoin="round" stroke-miterlimit="10" stroke-width="2.5" clip-path="url(#zuftoVzymqeJ)"/>
  <path fill="rgb(97,97,97)" stroke="none" paint-order="stroke fill markers" fill-rule="evenodd" d="M 818.845 646.755 L 806.473 659.165 L 802.089 651.883 Z" fill-opacity="0.8" clip-path="url(#zuftoVzymqeJ)"/>
  <path fill="none" stroke="rgb(97,97,97)" paint-order="fill stroke markers" d="M 776.023 672.538 L 747.765 689.552" stroke-opacity="0.8" stroke-linecap="round" stroke-linejoin="round" stroke-miterlimit="10" stroke-width="2.5" clip-path="url(#zuftoVzymqeJ)"/>
  <path fill="rgb(97,97,97)" stroke="none" paint-order="stroke fill markers" fill-rule="evenodd" d="M 733.201 698.321 L 745.573 685.911 L 749.957 693.193 Z" fill-opacity="0.8" clip-path="url(#zuftoVzymqeJ)"/>
  <path fill="rgb(21,101,192)" stroke="none" paint-order="stroke fill markers" d="M 532.92 480.818 C 532.92 485.236 529.338 488.818 524.92 488.818 C 520.501 488.818 516.92 485.236 516.92 480.818 C 516.92 476.399 520.501 472.818 524.92 472.818 C 529.338 472.818 532.92 476.399 532.92 480.818 Z" fill-opacity="1" clip-path="url(#zuftoVzymqeJ)"/>
  <path fill="rgb(21,101,192)" stroke="none" paint-order="stroke fill markers" d="M 726.879 480.726 C 726.879 485.145 723.298 488.726 718.879 488.726 C 714.461 488.726 710.879 485.145 710.879 480.726 C 710.879 476.308 714.461 472.726 718.879 472.726 C 723.298 472.726 726.879 476.308 726.879 480.726 Z" fill-opacity="1" clip-path="url(#zuftoVzymqeJ)"/>
  <path fill="rgb(21,101,192)" stroke="none" paint-order="stroke fill markers" d="M 920.839 480.635 C 920.839 485.053 917.257 488.635 912.839 488.635 C 908.421 488.635 904.839 485.053 904.839 480.635 C 904.839 476.217 908.421 472.635 912.839 472.635 C 917.257 472.635 920.839 476.217 920.839 480.635 Z" fill-opacity="1" clip-path="url(#zuftoVzymqeJ)"/>
  <path fill="rgb(21,101,192)" stroke="none" paint-order="stroke fill markers" d="M 533.011 674.777 C 533.011 679.196 529.429 682.777 525.011 682.777 C 520.592 682.777 517.011 679.196 517.011 674.777 C 517.011 670.359 520.592 666.777 525.011 666.777 C 529.429 666.777 533.011 670.359 533.011 674.777 Z" fill-opacity="1" clip-path="url(#zuftoVzymqeJ)"/>
  <path fill="rgb(21,101,192)" stroke="none" paint-order="stroke fill markers" d="M 726.971 674.686 C 726.971 679.104 723.389 682.686 718.971 682.686 C 714.552 682.686 710.971 679.104 710.971 674.686 C 710.971 670.268 714.552 666.686 718.971 666.686 C 723.389 666.686 726.971 670.268 726.971 674.686 Z" fill-opacity="1" clip-path="url(#zuftoVzymqeJ)"/>
  <path fill="rgb(21,101,192)" stroke="none" paint-order="stroke fill markers" d="M 920.93 674.595 C 920.93 679.013 917.349 682.595 912.93 682.595 C 908.512 682.595 904.93 679.013 904.93 674.595 C 904.93 670.177 908.512 666.595 912.93 666.595 C 917.349 666.595 920.93 670.177 920.93 674.595 Z" fill-opacity="1" clip-path="url(#zuftoVzymqeJ)"/>
  <path fill="rgb(21,101,192)" stroke="none" paint-order="stroke fill markers" d="M 723.879 480.726 C 723.879 483.488 721.641 485.726 718.879 485.726 C 716.118 485.726 713.879 483.488 713.879 480.726 C 713.879 477.965 716.118 475.726 718.879 475.726 C 721.641 475.726 723.879 477.965 723.879 480.726 Z" fill-opacity="1" clip-path="url(#zuftoVzymqeJ)"/>
  <path fill="none" stroke="rgb(0,0,0)" paint-order="fill stroke markers" d="M 723.879 480.726 C 723.879 483.488 721.641 485.726 718.879 485.726 C 716.118 485.726 713.879 483.488 713.879 480.726 C 713.879 477.965 716.118 475.726 718.879 475.726 C 721.641 475.726 723.879 477.965 723.879 480.726 Z" stroke-opacity="1" stroke-linecap="round" stroke-linejoin="round" stroke-miterlimit="10" clip-path="url(#zuftoVzymqeJ)"/>
  <path fill="rgb(21,101,192)" stroke="none" paint-order="stroke fill markers" d="M 723.971 674.686 C 723.971 677.447 721.732 679.686 718.971 679.686 C 716.209 679.686 713.971 677.447 713.971 674.686 C 713.971 671.925 716.209 669.686 718.971 669.686 C 721.732 669.686 723.971 671.925 723.971 674.686 Z" fill-opacity="1" clip-path="url(#zuftoVzymqeJ)"/>
  <path fill="none" stroke="rgb(0,0,0)" paint-order="fill stroke markers" d="M 723.971 674.686 C 723.971 677.447 721.732 679.686 718.971 679.686 C 716.209 679.686 713.971 677.447 713.971 674.686 C 713.971 671.925 716.209 669.686 718.971 669.686 C 721.732 669.686 723.971 671.925 723.971 674.686 Z" stroke-opacity="1" stroke-linecap="round" stroke-linejoin="round" stroke-miterlimit="10" clip-path="url(#zuftoVzymqeJ)"/>
  <path fill="rgb(21,101,192)" stroke="none" paint-order="stroke fill markers" d="M 698.286 486.859 C 698.286 489.068 696.495 490.859 694.286 490.859 C 692.077 490.859 690.286 489.068 690.286 486.859 C 690.286 484.65 692.077 482.859 694.286 482.859 C 696.495 482.859 698.286 484.65 698.286 486.859 Z" fill-opacity="1" clip-path="url(#zuftoVzymqeJ)"/>
  <path fill="rgb(219,97,20)" stroke="none" paint-order="stroke fill markers" d="M 709.846 493.771 C 709.846 495.981 708.056 497.771 705.846 497.771 C 703.637 497.771 701.846 495.981 701.846 493.771 C 701.846 491.562 703.637 489.771 705.846 489.771 C 708.056 489.771 709.846 491.562 709.846 493.771 Z" fill-opacity="1" clip-path="url(#zuftoVzymqeJ)"/>
  <path fill="rgb(97,97,97)" stroke="none" paint-order="stroke fill markers" d="M 651.839 619.57 C 651.839 621.779 650.048 623.57 647.839 623.57 C 645.629 623.57 643.839 621.779 643.839 619.57 C 643.839 617.361 645.629 615.57 647.839 615.57 C 650.048 615.57 651.839 617.361 651.839 619.57 Z" fill-opacity="1" clip-path="url(#zuftoVzymqeJ)"/>
  <path fill="rgb(97,97,97)" stroke="none" paint-order="stroke fill markers" d="M 793.601 619.392 C 793.601 621.601 791.81 623.392 789.601 623.392 C 787.392 623.392 785.601 621.601 785.601 619.392 C 785.601 617.182 787.392 615.392 789.601 615.392 C 791.81 615.392 793.601 617.182 793.601 619.392 Z" fill-opacity="1" clip-path="url(#zuftoVzymqeJ)"/>
  <g transform="matrix(25, 0, 0, 25, 0, 0)" clip-path="url(#zuftoVzymqeJ)">
    <g transform="translate(27.88,21.910555000000002)">
      <path fill="rgb(0,0,0)" stroke="none" paint-order="stroke fill markers" d=" M 0.47700000000000004 -0.23600000000000002 L 0.47700000000000004 -0.23600000000000002 L 0.47700000000000004 -0.17400000000000002 Q 0.542 -0.255 0.5750000000000001 -0.372 Q 0.585 -0.392 0.59 -0.393 Q 0.602 -0.393 0.602 -0.383 Q 0.602 -0.366 0.579 -0.307 Q 0.545 -0.221 0.487 -0.148 Q 0.47700000000000004 -0.128 0.47700000000000004 -0.113 Q 0.47700000000000004 -0.011 0.508 -0.011 Q 0.539 -0.011 0.558 -0.046 Q 0.561 -0.052000000000000005 0.5640000000000001 -0.06 Q 0.5680000000000001 -0.07 0.577 -0.07 Q 0.589 -0.07 0.589 -0.06 Q 0.589 -0.041 0.5640000000000001 -0.015 Q 0.538 0.011 0.505 0.011 Q 0.442 0.011 0.418 -0.058 Q 0.41600000000000004 -0.065 0.41400000000000003 -0.073 Q 0.309 0.011 0.203 0.011 Q 0.109 0.011 0.065 -0.064 Q 0.041 -0.105 0.041 -0.158 Q 0.041 -0.26 0.11900000000000001 -0.34700000000000003 Q 0.196 -0.433 0.293 -0.441 Q 0.302 -0.442 0.31 -0.442 Q 0.394 -0.442 0.44 -0.376 Q 0.44 -0.375 0.441 -0.375 Q 0.47700000000000004 -0.322 0.47700000000000004 -0.23600000000000002 M 0.41000000000000003 -0.099 L 0.41000000000000003 -0.099 Q 0.40800000000000003 -0.116 0.40800000000000003 -0.211 Q 0.40800000000000003 -0.334 0.381 -0.379 Q 0.369 -0.399 0.352 -0.40900000000000003 L 0.35100000000000003 -0.41000000000000003 L 0.35100000000000003 -0.41000000000000003 L 0.35000000000000003 -0.41000000000000003 Q 0.332 -0.42 0.309 -0.42 Q 0.23800000000000002 -0.42 0.181 -0.34 L 0.17300000000000001 -0.328 Q 0.137 -0.27 0.12 -0.166 Q 0.115 -0.138 0.115 -0.12 Q 0.115 -0.036000000000000004 0.17400000000000002 -0.016 Q 0.188 -0.011 0.20500000000000002 -0.011 Q 0.309 -0.011 0.41000000000000003 -0.099 Z"/>
    </g>
  </g>
  <g transform="matrix(25, 0, 0, 25, 0, 0)" clip-path="url(#zuftoVzymqeJ)">
    <g transform="translate(25.92,18.830554999999997)">
      <path fill="rgb(0,0,0)" stroke="none" paint-order="stroke fill markers" d=" M 0.47700000000000004 -0.23600000000000002 L 0.47700000000000004 -0.23600000000000002 L 0.47700000000000004 -0.17400000000000002 Q 0.542 -0.255 0.5750000000000001 -0.372 Q 0.585 -0.392 0.59 -0.393 Q 0.602 -0.393 0.602 -0.383 Q 0.602 -0.366 0.579 -0.307 Q 0.545 -0.221 0.487 -0.148 Q 0.47700000000000004 -0.128 0.47700000000000004 -0.113 Q 0.47700000000000004 -0.011 0.508 -0.011 Q 0.539 -0.011 0.558 -0.046 Q 0.561 -0.052000000000000005 0.5640000000000001 -0.06 Q 0.5680000000000001 -0.07 0.577 -0.07 Q 0.589 -0.07 0.589 -0.06 Q 0.589 -0.041 0.5640000000000001 -0.015 Q 0.538 0.011 0.505 0.011 Q 0.442 0.011 0.418 -0.058 Q 0.41600000000000004 -0.065 0.41400000000000003 -0.073 Q 0.309 0.011 0.203 0.011 Q 0.109 0.011 0.065 -0.064 Q 0.041 -0.105 0.041 -0.158 Q 0.041 -0.26 0.11900000000000001 -0.34700000000000003 Q 0.196 -0.433 0.293 -0.441 Q 0.302 -0.442 0.31 -0.442 Q 0.394 -0.442 0.44 -0.376 Q 0.44 -0.375 0.441 -0.375 Q 0.47700000000000004 -0.322 0.47700000000000004 -0.23600000000000002 M 0.41000000000000003 -0.099 L 0.41000000000000003 -0.099 Q 0.40800000000000003 -0.116 0.40800000000000003 -0.211 Q 0.40800000000000003 -0.334 0.381 -0.379 Q 0.369 -0.399 0.352 -0.40900000000000003 L 0.35100000000000003 -0.41000000000000003 L 0.35100000000000003 -0.41000000000000003 L 0.35000000000000003 -0.41000000000000003 Q 0.332 -0.42 0.309 -0.42 Q 0.23800000000000002 -0.42 0.181 -0.34 L 0.17300000000000001 -0.328 Q 0.137 -0.27 0.12 -0.166 Q 0.115 -0.138 0.115 -0.12 Q 0.115 -0.036000000000000004 0.17400000000000002 -0.016 Q 0.188 -0.011 0.20500000000000002 -0.011 Q 0.309 -0.011 0.41000000000000003 -0.099 Z"/>
    </g>
  </g>
  <g transform="matrix(25, 0, 0, 25, 0, 0)" clip-path="url(#zuftoVzymqeJ)">
    <g transform="translate(26.2,20.814445)">
      <path fill="rgb(0,0,0)" stroke="none" paint-order="stroke fill markers" d=" M 0.028 0.169 L 0.18 -0.437 Q 0.209 -0.551 0.292 -0.631 Q 0.37 -0.705 0.456 -0.705 Q 0.539 -0.705 0.5750000000000001 -0.639 Q 0.59 -0.611 0.59 -0.577 Q 0.59 -0.502 0.528 -0.439 Q 0.507 -0.418 0.482 -0.403 Q 0.549 -0.357 0.549 -0.264 Q 0.549 -0.161 0.46900000000000003 -0.076 Q 0.392 0.005 0.296 0.012 L 0.28300000000000003 0.012 Q 0.186 0.012 0.14100000000000001 -0.063 Q 0.129 -0.083 0.123 -0.105 L 0.048 0.188 L 0.047 0.19 Q 0.043000000000000003 0.194 0.037 0.194 Q 0.025 0.194 0.025 0.184 Q 0.025 0.181 0.028 0.169 M 0.328 -0.401 Q 0.34500000000000003 -0.395 0.371 -0.395 Q 0.401 -0.395 0.419 -0.403 Q 0.406 -0.40900000000000003 0.379 -0.40900000000000003 Q 0.34400000000000003 -0.40900000000000003 0.328 -0.401 M 0.45 -0.421 Q 0.511 -0.467 0.525 -0.577 L 0.525 -0.578 L 0.525 -0.58 Q 0.527 -0.594 0.527 -0.602 Q 0.527 -0.673 0.46900000000000003 -0.682 Q 0.462 -0.683 0.455 -0.683 Q 0.372 -0.683 0.299 -0.606 Q 0.23 -0.534 0.2 -0.41600000000000004 L 0.154 -0.231 Q 0.14100000000000001 -0.179 0.14100000000000001 -0.156 Q 0.14100000000000001 -0.074 0.2 -0.034 Q 0.234 -0.01 0.281 -0.01 Q 0.359 -0.01 0.41500000000000004 -0.094 Q 0.422 -0.10300000000000001 0.427 -0.113 Q 0.462 -0.179 0.47400000000000003 -0.274 Q 0.47600000000000003 -0.291 0.47600000000000003 -0.302 Q 0.47600000000000003 -0.355 0.446 -0.386 Q 0.41400000000000003 -0.373 0.371 -0.373 Q 0.303 -0.373 0.303 -0.399 Q 0.303 -0.431 0.381 -0.431 Q 0.422 -0.431 0.45 -0.421 Z"/>
    </g>
  </g>
  <g transform="matrix(35, 0, 0, 35, 377.896667, -5.120551)" clip-path="url(#zuftoVzymqeJ)">
    <g transform="translate(9.942857142857143,17.208730714285714)">
      <path fill="rgb(0,0,0)" stroke="none" paint-order="stroke fill markers" d=" M 0.516 -0.683 L 0.372 -0.105 Q 0.366 -0.08 0.366 -0.057 Q 0.366 -0.011 0.396 -0.011 Q 0.434 -0.011 0.46 -0.091 Q 0.465 -0.108 0.47200000000000003 -0.135 Q 0.48 -0.152 0.486 -0.153 Q 0.498 -0.153 0.498 -0.14300000000000002 Q 0.498 -0.128 0.48 -0.073 Q 0.47400000000000003 -0.056 0.468 -0.044 Q 0.44 0.011 0.394 0.011 Q 0.338 0.011 0.313 -0.037 Q 0.306 -0.049 0.303 -0.064 Q 0.24 0.011 0.17300000000000001 0.011 Q 0.098 0.011 0.062 -0.057 Q 0.04 -0.097 0.04 -0.149 Q 0.04 -0.257 0.115 -0.34900000000000003 Q 0.185 -0.433 0.267 -0.441 Q 0.274 -0.442 0.281 -0.442 Q 0.342 -0.442 0.373 -0.378 L 0.433 -0.615 L 0.436 -0.635 Q 0.436 -0.646 0.422 -0.649 Q 0.41000000000000003 -0.652 0.386 -0.652 Q 0.364 -0.652 0.362 -0.664 Q 0.362 -0.681 0.376 -0.683 Q 0.47000000000000003 -0.6940000000000001 0.503 -0.6940000000000001 Q 0.516 -0.6940000000000001 0.516 -0.683 M 0.308 -0.11900000000000001 L 0.308 -0.11900000000000001 L 0.358 -0.315 Q 0.361 -0.33 0.361 -0.332 Q 0.361 -0.353 0.343 -0.383 Q 0.321 -0.42 0.28200000000000003 -0.42 Q 0.23 -0.42 0.183 -0.352 Q 0.17400000000000002 -0.339 0.166 -0.324 Q 0.137 -0.266 0.117 -0.159 Q 0.111 -0.125 0.111 -0.105 Q 0.111 -0.037 0.149 -0.017 Q 0.16 -0.011 0.17500000000000002 -0.011 Q 0.231 -0.011 0.28800000000000003 -0.082 Q 0.302 -0.098 0.307 -0.115 L 0.307 -0.116 Q 0.308 -0.11800000000000001 0.308 -0.11900000000000001 Z"/>
    </g>
  </g>
  <g transform="matrix(25, 0, 0, 25, 0, 0)" clip-path="url(#zuftoVzymqeJ)">
    <g transform="translate(25.11999999731779,28.203332000000003)">
      <path fill="rgb(0,0,0)" stroke="none" paint-order="stroke fill markers" d=" M 0.442 -0.6980000000000001 L 0.78 -0.02 Q 0.785 -0.011 0.785 -0.008 Q 0.779 0 0.763 0 L 0.069 0 Q 0.048 0 0.047 -0.008 Q 0.047 -0.011 0.052000000000000005 -0.02 L 0.39 -0.6980000000000001 Q 0.398 -0.713 0.406 -0.715 Q 0.41000000000000003 -0.716 0.41600000000000004 -0.716 Q 0.432 -0.716 0.438 -0.705 Q 0.439 -0.7030000000000001 0.442 -0.6980000000000001 M 0.384 -0.616 L 0.114 -0.076 L 0.653 -0.076 L 0.384 -0.616 Z"/>
    </g>
    <g transform="translate(25.95333599731779,28.203332000000003)">
      <path fill="rgb(0,0,0)" stroke="none" paint-order="stroke fill markers" d=" M 0.391 -0.374 L 0.391 -0.374 Q 0.37 -0.418 0.301 -0.42 Q 0.22 -0.42 0.195 -0.359 Q 0.189 -0.34400000000000003 0.189 -0.33 Q 0.189 -0.291 0.23700000000000002 -0.277 L 0.23700000000000002 -0.277 L 0.23800000000000002 -0.276 Q 0.245 -0.274 0.265 -0.27 Q 0.327 -0.257 0.34800000000000003 -0.242 Q 0.357 -0.23600000000000002 0.365 -0.228 Q 0.396 -0.197 0.396 -0.155 Q 0.396 -0.10300000000000001 0.357 -0.056 Q 0.301 0.011 0.195 0.011 Q 0.10200000000000001 0.011 0.066 -0.041 Q 0.052000000000000005 -0.061 0.052000000000000005 -0.08600000000000001 Q 0.052000000000000005 -0.135 0.09 -0.149 Q 0.099 -0.152 0.108 -0.152 Q 0.14100000000000001 -0.147 0.145 -0.117 Q 0.145 -0.08600000000000001 0.11800000000000001 -0.07100000000000001 Q 0.10200000000000001 -0.061 0.082 -0.064 Q 0.105 -0.011 0.196 -0.011 Q 0.299 -0.011 0.331 -0.08600000000000001 Q 0.339 -0.105 0.339 -0.121 Q 0.339 -0.169 0.28 -0.187 L 0.28 -0.187 L 0.279 -0.187 Q 0.264 -0.191 0.23500000000000001 -0.197 Q 0.145 -0.216 0.134 -0.277 Q 0.132 -0.28600000000000003 0.132 -0.296 Q 0.132 -0.34600000000000003 0.17 -0.389 Q 0.217 -0.442 0.301 -0.442 Q 0.38 -0.442 0.41000000000000003 -0.393 Q 0.42 -0.376 0.42 -0.356 Q 0.42 -0.311 0.386 -0.302 Q 0.38 -0.3 0.374 -0.3 Q 0.34600000000000003 -0.304 0.343 -0.329 Q 0.343 -0.356 0.37 -0.369 Q 0.38 -0.374 0.391 -0.374 Z"/>
    </g>
    <rect fill="rgb(0,0,0)" stroke="none" x="25.11999999731779" y="28.609840500000004" width="1.302086" height="0.039999"/>
    <g transform="translate(25.52104199731779,29.565791000000004)">
      <path fill="rgb(0,0,0)" stroke="none" paint-order="stroke fill markers" d=" M 0.449 -0.17400000000000002 L 0.449 -0.17400000000000002 L 0.421 0 L 0.05 0 Q 0.05 -0.025 0.056 -0.032 L 0.061 -0.037 L 0.253 -0.251 Q 0.358 -0.369 0.358 -0.47200000000000003 Q 0.358 -0.561 0.304 -0.607 L 0.303 -0.608 L 0.302 -0.608 Q 0.27 -0.635 0.224 -0.635 Q 0.152 -0.635 0.109 -0.5730000000000001 Q 0.097 -0.555 0.089 -0.533 Q 0.092 -0.534 0.10200000000000001 -0.534 Q 0.14200000000000002 -0.534 0.153 -0.498 L 0.153 -0.497 Q 0.155 -0.49 0.155 -0.482 Q 0.155 -0.442 0.117 -0.431 Q 0.109 -0.429 0.10300000000000001 -0.429 Q 0.066 -0.429 0.054 -0.46 Q 0.05 -0.47100000000000003 0.05 -0.485 Q 0.05 -0.562 0.109 -0.617 Q 0.162 -0.666 0.23700000000000002 -0.666 Q 0.34700000000000003 -0.666 0.40800000000000003 -0.592 Q 0.443 -0.549 0.448 -0.49 Q 0.449 -0.481 0.449 -0.47200000000000003 Q 0.449 -0.399 0.394 -0.333 Q 0.365 -0.299 0.304 -0.243 L 0.243 -0.189 L 0.233 -0.18 L 0.127 -0.077 L 0.307 -0.077 Q 0.395 -0.077 0.402 -0.085 Q 0.41200000000000003 -0.099 0.424 -0.17400000000000002 L 0.449 -0.17400000000000002 Z"/>
    </g>
  </g>
  <g transform="matrix(25, 0, 0, 25, 0, 0)" clip-path="url(#zuftoVzymqeJ)">
    <g transform="translate(31.31999999731779,28.203332000000003)">
      <path fill="rgb(0,0,0)" stroke="none" paint-order="stroke fill markers" d=" M 0.442 -0.6980000000000001 L 0.78 -0.02 Q 0.785 -0.011 0.785 -0.008 Q 0.779 0 0.763 0 L 0.069 0 Q 0.048 0 0.047 -0.008 Q 0.047 -0.011 0.052000000000000005 -0.02 L 0.39 -0.6980000000000001 Q 0.398 -0.713 0.406 -0.715 Q 0.41000000000000003 -0.716 0.41600000000000004 -0.716 Q 0.432 -0.716 0.438 -0.705 Q 0.439 -0.7030000000000001 0.442 -0.6980000000000001 M 0.384 -0.616 L 0.114 -0.076 L 0.653 -0.076 L 0.384 -0.616 Z"/>
    </g>
    <g transform="translate(32.15333599731779,28.203332000000003)">
      <path fill="rgb(0,0,0)" stroke="none" paint-order="stroke fill markers" d=" M 0.391 -0.374 L 0.391 -0.374 Q 0.37 -0.418 0.301 -0.42 Q 0.22 -0.42 0.195 -0.359 Q 0.189 -0.34400000000000003 0.189 -0.33 Q 0.189 -0.291 0.23700000000000002 -0.277 L 0.23700000000000002 -0.277 L 0.23800000000000002 -0.276 Q 0.245 -0.274 0.265 -0.27 Q 0.327 -0.257 0.34800000000000003 -0.242 Q 0.357 -0.23600000000000002 0.365 -0.228 Q 0.396 -0.197 0.396 -0.155 Q 0.396 -0.10300000000000001 0.357 -0.056 Q 0.301 0.011 0.195 0.011 Q 0.10200000000000001 0.011 0.066 -0.041 Q 0.052000000000000005 -0.061 0.052000000000000005 -0.08600000000000001 Q 0.052000000000000005 -0.135 0.09 -0.149 Q 0.099 -0.152 0.108 -0.152 Q 0.14100000000000001 -0.147 0.145 -0.117 Q 0.145 -0.08600000000000001 0.11800000000000001 -0.07100000000000001 Q 0.10200000000000001 -0.061 0.082 -0.064 Q 0.105 -0.011 0.196 -0.011 Q 0.299 -0.011 0.331 -0.08600000000000001 Q 0.339 -0.105 0.339 -0.121 Q 0.339 -0.169 0.28 -0.187 L 0.28 -0.187 L 0.279 -0.187 Q 0.264 -0.191 0.23500000000000001 -0.197 Q 0.145 -0.216 0.134 -0.277 Q 0.132 -0.28600000000000003 0.132 -0.296 Q 0.132 -0.34600000000000003 0.17 -0.389 Q 0.217 -0.442 0.301 -0.442 Q 0.38 -0.442 0.41000000000000003 -0.393 Q 0.42 -0.376 0.42 -0.356 Q 0.42 -0.311 0.386 -0.302 Q 0.38 -0.3 0.374 -0.3 Q 0.34600000000000003 -0.304 0.343 -0.329 Q 0.343 -0.356 0.37 -0.369 Q 0.38 -0.374 0.391 -0.374 Z"/>
    </g>
    <rect fill="rgb(0,0,0)" stroke="none" x="31.31999999731779" y="28.609840500000004" width="1.302086" height="0.039999"/>
    <g transform="translate(31.72104199731779,29.565791000000004)">
      <path fill="rgb(0,0,0)" stroke="none" paint-order="stroke fill markers" d=" M 0.449 -0.17400000000000002 L 0.449 -0.17400000000000002 L 0.421 0 L 0.05 0 Q 0.05 -0.025 0.056 -0.032 L 0.061 -0.037 L 0.253 -0.251 Q 0.358 -0.369 0.358 -0.47200000000000003 Q 0.358 -0.561 0.304 -0.607 L 0.303 -0.608 L 0.302 -0.608 Q 0.27 -0.635 0.224 -0.635 Q 0.152 -0.635 0.109 -0.5730000000000001 Q 0.097 -0.555 0.089 -0.533 Q 0.092 -0.534 0.10200000000000001 -0.534 Q 0.14200000000000002 -0.534 0.153 -0.498 L 0.153 -0.497 Q 0.155 -0.49 0.155 -0.482 Q 0.155 -0.442 0.117 -0.431 Q 0.109 -0.429 0.10300000000000001 -0.429 Q 0.066 -0.429 0.054 -0.46 Q 0.05 -0.47100000000000003 0.05 -0.485 Q 0.05 -0.562 0.109 -0.617 Q 0.162 -0.666 0.23700000000000002 -0.666 Q 0.34700000000000003 -0.666 0.40800000000000003 -0.592 Q 0.443 -0.549 0.448 -0.49 Q 0.449 -0.481 0.449 -0.47200000000000003 Q 0.449 -0.399 0.394 -0.333 Q 0.365 -0.299 0.304 -0.243 L 0.243 -0.189 L 0.233 -0.18 L 0.127 -0.077 L 0.307 -0.077 Q 0.395 -0.077 0.402 -0.085 Q 0.41200000000000003 -0.099 0.424 -0.17400000000000002 L 0.449 -0.17400000000000002 Z"/>
    </g>
  </g>
</svg>