<?xml version="1.0" encoding="utf-8"?>
<svg viewBox="171.196 -12.014 1099.261 710.815" width="1099.261" height="710.815" xmlns="http://www.w3.org/2000/svg">
  <defs>
    <clipPath id="lKGHbFGLyPyx">
      <path fill="none" stroke="none" d=" M 0 0 L 1250 0 L 1250 872 L 0 872 L 0 0 Z"/>
    </clipPath>
  </defs>
  <path fill="none" stroke="rgb(192,192,192)" paint-order="fill stroke markers" d="M 322.5 0.5 L 322.5 661.5 M 433.5 0.5 L 433.5 661.5 M 543.5 0.5 L 543.5 661.5 M 654.5 0.5 L 654.5 661.5 M 764.5 0.5 L 764.5 661.5 M 875.5 0.5 L 875.5 661.5 M 985.5 0.5 L 985.5 661.5 M 1096.5 0.5 L 1096.5 661.5 M 1207.5 0.5 L 1207.5 661.5" stroke-opacity="1" stroke-linejoin="round" stroke-miterlimit="10" stroke-dasharray="5,4" clip-path="url(#lKGHbFGLyPyx)"/>
  <path fill="none" stroke="rgb(192,192,192)" paint-order="fill stroke markers" d="M 211.5 47.5 L 1250.5 47.5 M 211.5 47.5 L 1250.5 47.5 M 211.5 109.5 L 1250.5 109.5 M 211.5 170.5 L 1250.5 170.5 M 211.5 231.5 L 1250.5 231.5 M 211.5 293.5 L 1250.5 293.5 M 211.5 354.5 L 1250.5 354.5 M 211.5 416.5 L 1250.5 416.5 M 211.5 477.5 L 1250.5 477.5 M 211.5 539.5 L 1250.5 539.5 M 211.5 600.5 L 1250.5 600.5" stroke-opacity="1" stroke-linejoin="round" stroke-miterlimit="10" stroke-dasharray="5,4" clip-path="url(#lKGHbFGLyPyx)"/>
  <path fill="none" stroke="rgb(0,0,0)" paint-order="fill stroke markers" d="M 211.5 2.5 L 211.5 661.5" stroke-opacity="1" stroke-miterlimit="10" clip-path="url(#lKGHbFGLyPyx)"/>
  <path fill="rgb(0,0,0)" stroke="none" paint-order="stroke fill markers" fill-rule="evenodd" d="M 211.865 1 L 207.865 17 L 215.865 17" fill-opacity="1" clip-path="url(#lKGHbFGLyPyx)"/>
  <text fill="rgb(0,0,0)" stroke="none" font-family="geogebra-sans-serif, sans-serif" font-size="16px" font-style="normal" font-weight="normal" text-decoration="normal" x="1232" y="657" text-anchor="start" dominant-baseline="alphabetic" fill-opacity="1" style="white-space: pre; font-size: 16px;" clip-path="url(#lKGHbFGLyPyx)">x</text>
  <path fill="none" stroke="rgb(0,0,0)" paint-order="fill stroke markers" d="M 211.5 661.5 L 1248.5 661.5" stroke-opacity="1" stroke-miterlimit="10" clip-path="url(#lKGHbFGLyPyx)"/>
  <path fill="rgb(0,0,0)" stroke="none" paint-order="stroke fill markers" fill-rule="evenodd" d="M 1249 661.932 L 1233 657.932 L 1233 665.932" fill-opacity="1" clip-path="url(#lKGHbFGLyPyx)"/>
  <text fill="none" stroke="rgb(255,255,255)" font-family="geogebra-sans-serif, sans-serif" font-size="12px" font-style="normal" font-weight="normal" text-decoration="normal" x="320" y="677" text-anchor="start" dominant-baseline="alphabetic" stroke-opacity="1" stroke-linejoin="bevel" stroke-miterlimit="10" stroke-width="3" style="white-space: pre; font-size: 12px;" clip-path="url(#lKGHbFGLyPyx)">1</text>
  <text fill="rgb(0,0,0)" stroke="none" font-family="geogebra-sans-serif, sans-serif" font-size="12px" font-style="normal" font-weight="normal" text-decoration="normal" x="320" y="677" text-anchor="start" dominant-baseline="alphabetic" fill-opacity="1" style="white-space: pre; font-size: 12px;" clip-path="url(#lKGHbFGLyPyx)">1</text>
  <text fill="none" stroke="rgb(255,255,255)" font-family="geogebra-sans-serif, sans-serif" font-size="12px" font-style="normal" font-weight="normal" text-decoration="normal" x="431" y="677" text-anchor="start" dominant-baseline="alphabetic" stroke-opacity="1" stroke-linejoin="bevel" stroke-miterlimit="10" stroke-width="3" style="white-space: pre; font-size: 12px;" clip-path="url(#lKGHbFGLyPyx)">2</text>
  <text fill="rgb(0,0,0)" stroke="none" font-family="geogebra-sans-serif, sans-serif" font-size="12px" font-style="normal" font-weight="normal" text-decoration="normal" x="431" y="677" text-anchor="start" dominant-baseline="alphabetic" fill-opacity="1" style="white-space: pre; font-size: 12px;" clip-path="url(#lKGHbFGLyPyx)">2</text>
  <text fill="none" stroke="rgb(255,255,255)" font-family="geogebra-sans-serif, sans-serif" font-size="12px" font-style="normal" font-weight="normal" text-decoration="normal" x="541" y="677" text-anchor="start" dominant-baseline="alphabetic" stroke-opacity="1" stroke-linejoin="bevel" stroke-miterlimit="10" stroke-width="3" style="white-space: pre; font-size: 12px;" clip-path="url(#lKGHbFGLyPyx)">3</text>
  <text fill="rgb(0,0,0)" stroke="none" font-family="geogebra-sans-serif, sans-serif" font-size="12px" font-style="normal" font-weight="normal" text-decoration="normal" x="541" y="677" text-anchor="start" dominant-baseline="alphabetic" fill-opacity="1" style="white-space: pre; font-size: 12px;" clip-path="url(#lKGHbFGLyPyx)">3</text>
  <text fill="none" stroke="rgb(255,255,255)" font-family="geogebra-sans-serif, sans-serif" font-size="12px" font-style="normal" font-weight="normal" text-decoration="normal" x="652" y="677" text-anchor="start" dominant-baseline="alphabetic" stroke-opacity="1" stroke-linejoin="bevel" stroke-miterlimit="10" stroke-width="3" style="white-space: pre; font-size: 12px;" clip-path="url(#lKGHbFGLyPyx)">4</text>
  <text fill="rgb(0,0,0)" stroke="none" font-family="geogebra-sans-serif, sans-serif" font-size="12px" font-style="normal" font-weight="normal" text-decoration="normal" x="652" y="677" text-anchor="start" dominant-baseline="alphabetic" fill-opacity="1" style="white-space: pre; font-size: 12px;" clip-path="url(#lKGHbFGLyPyx)">4</text>
  <text fill="none" stroke="rgb(255,255,255)" font-family="geogebra-sans-serif, sans-serif" font-size="12px" font-style="normal" font-weight="normal" text-decoration="normal" x="762" y="677" text-anchor="start" dominant-baseline="alphabetic" stroke-opacity="1" stroke-linejoin="bevel" stroke-miterlimit="10" stroke-width="3" style="white-space: pre; font-size: 12px;" clip-path="url(#lKGHbFGLyPyx)">5</text>
  <text fill="rgb(0,0,0)" stroke="none" font-family="geogebra-sans-serif, sans-serif" font-size="12px" font-style="normal" font-weight="normal" text-decoration="normal" x="762" y="677" text-anchor="start" dominant-baseline="alphabetic" fill-opacity="1" style="white-space: pre; font-size: 12px;" clip-path="url(#lKGHbFGLyPyx)">5</text>
  <text fill="none" stroke="rgb(255,255,255)" font-family="geogebra-sans-serif, sans-serif" font-size="12px" font-style="normal" font-weight="normal" text-decoration="normal" x="873" y="677" text-anchor="start" dominant-baseline="alphabetic" stroke-opacity="1" stroke-linejoin="bevel" stroke-miterlimit="10" stroke-width="3" style="white-space: pre; font-size: 12px;" clip-path="url(#lKGHbFGLyPyx)">6</text>
  <text fill="rgb(0,0,0)" stroke="none" font-family="geogebra-sans-serif, sans-serif" font-size="12px" font-style="normal" font-weight="normal" text-decoration="normal" x="873" y="677" text-anchor="start" dominant-baseline="alphabetic" fill-opacity="1" style="white-space: pre; font-size: 12px;" clip-path="url(#lKGHbFGLyPyx)">6</text>
  <text fill="none" stroke="rgb(255,255,255)" font-family="geogebra-sans-serif, sans-serif" font-size="12px" font-style="normal" font-weight="normal" text-decoration="normal" x="983" y="677" text-anchor="start" dominant-baseline="alphabetic" stroke-opacity="1" stroke-linejoin="bevel" stroke-miterlimit="10" stroke-width="3" style="white-space: pre; font-size: 12px;" clip-path="url(#lKGHbFGLyPyx)">7</text>
  <text fill="rgb(0,0,0)" stroke="none" font-family="geogebra-sans-serif, sans-serif" font-size="12px" font-style="normal" font-weight="normal" text-decoration="normal" x="983" y="677" text-anchor="start" dominant-baseline="alphabetic" fill-opacity="1" style="white-space: pre; font-size: 12px;" clip-path="url(#lKGHbFGLyPyx)">7</text>
  <text fill="none" stroke="rgb(255,255,255)" font-family="geogebra-sans-serif, sans-serif" font-size="12px" font-style="normal" font-weight="normal" text-decoration="normal" x="1094" y="677" text-anchor="start" dominant-baseline="alphabetic" stroke-opacity="1" stroke-linejoin="bevel" stroke-miterlimit="10" stroke-width="3" style="white-space: pre; font-size: 12px;" clip-path="url(#lKGHbFGLyPyx)">8</text>
  <text fill="rgb(0,0,0)" stroke="none" font-family="geogebra-sans-serif, sans-serif" font-size="12px" font-style="normal" font-weight="normal" text-decoration="normal" x="1094" y="677" text-anchor="start" dominant-baseline="alphabetic" fill-opacity="1" style="white-space: pre; font-size: 12px;" clip-path="url(#lKGHbFGLyPyx)">8</text>
  <text fill="none" stroke="rgb(255,255,255)" font-family="geogebra-sans-serif, sans-serif" font-size="12px" font-style="normal" font-weight="normal" text-decoration="normal" x="1205" y="677" text-anchor="start" dominant-baseline="alphabetic" stroke-opacity="1" stroke-linejoin="bevel" stroke-miterlimit="10" stroke-width="3" style="white-space: pre; font-size: 12px;" clip-path="url(#lKGHbFGLyPyx)">9</text>
  <text fill="rgb(0,0,0)" stroke="none" font-family="geogebra-sans-serif, sans-serif" font-size="12px" font-style="normal" font-weight="normal" text-decoration="normal" x="1205" y="677" text-anchor="start" dominant-baseline="alphabetic" fill-opacity="1" style="white-space: pre; font-size: 12px;" clip-path="url(#lKGHbFGLyPyx)">9</text>
  <text fill="rgb(0,0,0)" stroke="none" font-family="geogebra-sans-serif, sans-serif" font-size="16px" font-style="normal" font-weight="normal" text-decoration="normal" x="216" y="17" text-anchor="start" dominant-baseline="alphabetic" fill-opacity="1" style="white-space: pre; font-size: 16px;" clip-path="url(#lKGHbFGLyPyx)">y</text>
  <text fill="none" stroke="rgb(255,255,255)" font-family="geogebra-sans-serif, sans-serif" font-size="12px" font-style="normal" font-weight="normal" text-decoration="normal" x="191" y="605" text-anchor="start" dominant-baseline="alphabetic" stroke-opacity="1" stroke-linejoin="bevel" stroke-miterlimit="10" stroke-width="3" style="white-space: pre; font-size: 12px;" clip-path="url(#lKGHbFGLyPyx)">10</text>
  <text fill="rgb(0,0,0)" stroke="none" font-family="geogebra-sans-serif, sans-serif" font-size="12px" font-style="normal" font-weight="normal" text-decoration="normal" x="191" y="605" text-anchor="start" dominant-baseline="alphabetic" fill-opacity="1" style="white-space: pre; font-size: 12px;" clip-path="url(#lKGHbFGLyPyx)">10</text>
  <text fill="none" stroke="rgb(255,255,255)" font-family="geogebra-sans-serif, sans-serif" font-size="12px" font-style="normal" font-weight="normal" text-decoration="normal" x="191" y="544" text-anchor="start" dominant-baseline="alphabetic" stroke-opacity="1" stroke-linejoin="bevel" stroke-miterlimit="10" stroke-width="3" style="white-space: pre; font-size: 12px;" clip-path="url(#lKGHbFGLyPyx)">20</text>
  <text fill="rgb(0,0,0)" stroke="none" font-family="geogebra-sans-serif, sans-serif" font-size="12px" font-style="normal" font-weight="normal" text-decoration="normal" x="191" y="544" text-anchor="start" dominant-baseline="alphabetic" fill-opacity="1" style="white-space: pre; font-size: 12px;" clip-path="url(#lKGHbFGLyPyx)">20</text>
  <text fill="none" stroke="rgb(255,255,255)" font-family="geogebra-sans-serif, sans-serif" font-size="12px" font-style="normal" font-weight="normal" text-decoration="normal" x="191" y="482" text-anchor="start" dominant-baseline="alphabetic" stroke-opacity="1" stroke-linejoin="bevel" stroke-miterlimit="10" stroke-width="3" style="white-space: pre; font-size: 12px;" clip-path="url(#lKGHbFGLyPyx)">30</text>
  <text fill="rgb(0,0,0)" stroke="none" font-family="geogebra-sans-serif, sans-serif" font-size="12px" font-style="normal" font-weight="normal" text-decoration="normal" x="191" y="482" text-anchor="start" dominant-baseline="alphabetic" fill-opacity="1" style="white-space: pre; font-size: 12px;" clip-path="url(#lKGHbFGLyPyx)">30</text>
  <text fill="none" stroke="rgb(255,255,255)" font-family="geogebra-sans-serif, sans-serif" font-size="12px" font-style="normal" font-weight="normal" text-decoration="normal" x="191" y="421" text-anchor="start" dominant-baseline="alphabetic" stroke-opacity="1" stroke-linejoin="bevel" stroke-miterlimit="10" stroke-width="3" style="white-space: pre; font-size: 12px;" clip-path="url(#lKGHbFGLyPyx)">40</text>
  <text fill="rgb(0,0,0)" stroke="none" font-family="geogebra-sans-serif, sans-serif" font-size="12px" font-style="normal" font-weight="normal" text-decoration="normal" x="191" y="421" text-anchor="start" dominant-baseline="alphabetic" fill-opacity="1" style="white-space: pre; font-size: 12px;" clip-path="url(#lKGHbFGLyPyx)">40</text>
  <text fill="none" stroke="rgb(255,255,255)" font-family="geogebra-sans-serif, sans-serif" font-size="12px" font-style="normal" font-weight="normal" text-decoration="normal" x="191" y="359" text-anchor="start" dominant-baseline="alphabetic" stroke-opacity="1" stroke-linejoin="bevel" stroke-miterlimit="10" stroke-width="3" style="white-space: pre; font-size: 12px;" clip-path="url(#lKGHbFGLyPyx)">50</text>
  <text fill="rgb(0,0,0)" stroke="none" font-family="geogebra-sans-serif, sans-serif" font-size="12px" font-style="normal" font-weight="normal" text-decoration="normal" x="191" y="359" text-anchor="start" dominant-baseline="alphabetic" fill-opacity="1" style="white-space: pre; font-size: 12px;" clip-path="url(#lKGHbFGLyPyx)">50</text>
  <text fill="none" stroke="rgb(255,255,255)" font-family="geogebra-sans-serif, sans-serif" font-size="12px" font-style="normal" font-weight="normal" text-decoration="normal" x="191" y="298" text-anchor="start" dominant-baseline="alphabetic" stroke-opacity="1" stroke-linejoin="bevel" stroke-miterlimit="10" stroke-width="3" style="white-space: pre; font-size: 12px;" clip-path="url(#lKGHbFGLyPyx)">60</text>
  <text fill="rgb(0,0,0)" stroke="none" font-family="geogebra-sans-serif, sans-serif" font-size="12px" font-style="normal" font-weight="normal" text-decoration="normal" x="191" y="298" text-anchor="start" dominant-baseline="alphabetic" fill-opacity="1" style="white-space: pre; font-size: 12px;" clip-path="url(#lKGHbFGLyPyx)">60</text>
  <text fill="none" stroke="rgb(255,255,255)" font-family="geogebra-sans-serif, sans-serif" font-size="12px" font-style="normal" font-weight="normal" text-decoration="normal" x="191" y="236" text-anchor="start" dominant-baseline="alphabetic" stroke-opacity="1" stroke-linejoin="bevel" stroke-miterlimit="10" stroke-width="3" style="white-space: pre; font-size: 12px;" clip-path="url(#lKGHbFGLyPyx)">70</text>
  <text fill="rgb(0,0,0)" stroke="none" font-family="geogebra-sans-serif, sans-serif" font-size="12px" font-style="normal" font-weight="normal" text-decoration="normal" x="191" y="236" text-anchor="start" dominant-baseline="alphabetic" fill-opacity="1" style="white-space: pre; font-size: 12px;" clip-path="url(#lKGHbFGLyPyx)">70</text>
  <text fill="none" stroke="rgb(255,255,255)" font-family="geogebra-sans-serif, sans-serif" font-size="12px" font-style="normal" font-weight="normal" text-decoration="normal" x="191" y="175" text-anchor="start" dominant-baseline="alphabetic" stroke-opacity="1" stroke-linejoin="bevel" stroke-miterlimit="10" stroke-width="3" style="white-space: pre; font-size: 12px;" clip-path="url(#lKGHbFGLyPyx)">80</text>
  <text fill="rgb(0,0,0)" stroke="none" font-family="geogebra-sans-serif, sans-serif" font-size="12px" font-style="normal" font-weight="normal" text-decoration="normal" x="191" y="175" text-anchor="start" dominant-baseline="alphabetic" fill-opacity="1" style="white-space: pre; font-size: 12px;" clip-path="url(#lKGHbFGLyPyx)">80</text>
  <text fill="none" stroke="rgb(255,255,255)" font-family="geogebra-sans-serif, sans-serif" font-size="12px" font-style="normal" font-weight="normal" text-decoration="normal" x="191" y="114" text-anchor="start" dominant-baseline="alphabetic" stroke-opacity="1" stroke-linejoin="bevel" stroke-miterlimit="10" stroke-width="3" style="white-space: pre; font-size: 12px;" clip-path="url(#lKGHbFGLyPyx)">90</text>
  <text fill="rgb(0,0,0)" stroke="none" font-family="geogebra-sans-serif, sans-serif" font-size="12px" font-style="normal" font-weight="normal" text-decoration="normal" x="191" y="114" text-anchor="start" dominant-baseline="alphabetic" fill-opacity="1" style="white-space: pre; font-size: 12px;" clip-path="url(#lKGHbFGLyPyx)">90</text>
  <text fill="none" stroke="rgb(255,255,255)" font-family="geogebra-sans-serif, sans-serif" font-size="12px" font-style="normal" font-weight="normal" text-decoration="normal" x="184" y="52" text-anchor="start" dominant-baseline="alphabetic" stroke-opacity="1" stroke-linejoin="bevel" stroke-miterlimit="10" stroke-width="3" style="white-space: pre; font-size: 12px;" clip-path="url(#lKGHbFGLyPyx)">100</text>
  <text fill="rgb(0,0,0)" stroke="none" font-family="geogebra-sans-serif, sans-serif" font-size="12px" font-style="normal" font-weight="normal" text-decoration="normal" x="184" y="52" text-anchor="start" dominant-baseline="alphabetic" fill-opacity="1" style="white-space: pre; font-size: 12px;" clip-path="url(#lKGHbFGLyPyx)">100</text>
  <text fill="none" stroke="rgb(255,255,255)" font-family="geogebra-sans-serif, sans-serif" font-size="12px" font-style="normal" font-weight="normal" text-decoration="normal" x="198" y="677" text-anchor="start" dominant-baseline="alphabetic" stroke-opacity="1" stroke-linejoin="bevel" stroke-miterlimit="10" stroke-width="3" style="white-space: pre; font-size: 12px;" clip-path="url(#lKGHbFGLyPyx)">0</text>
  <text fill="rgb(0,0,0)" stroke="none" font-family="geogebra-sans-serif, sans-serif" font-size="12px" font-style="normal" font-weight="normal" text-decoration="normal" x="198" y="677" text-anchor="start" dominant-baseline="alphabetic" fill-opacity="1" style="white-space: pre; font-size: 12px;" clip-path="url(#lKGHbFGLyPyx)">0</text>
  <path fill="none" stroke="rgb(96,96,96)" paint-order="fill stroke markers" d="M 317.45 589.352 L 327.45 599.352" stroke-opacity="1" stroke-linecap="square" stroke-miterlimit="10" stroke-width="2.5" clip-path="url(#lKGHbFGLyPyx)"/>
  <path fill="none" stroke="rgb(96,96,96)" paint-order="fill stroke markers" d="M 317.45 599.352 L 327.45 589.352" stroke-opacity="1" stroke-linecap="square" stroke-miterlimit="10" stroke-width="2.5" clip-path="url(#lKGHbFGLyPyx)"/>
  <path fill="none" stroke="rgb(96,96,96)" paint-order="fill stroke markers" d="M 428.035 515.629 L 438.035 525.629" stroke-opacity="1" stroke-linecap="square" stroke-miterlimit="10" stroke-width="2.5" clip-path="url(#lKGHbFGLyPyx)"/>
  <path fill="none" stroke="rgb(96,96,96)" paint-order="fill stroke markers" d="M 428.035 525.629 L 438.035 515.629" stroke-opacity="1" stroke-linecap="square" stroke-miterlimit="10" stroke-width="2.5" clip-path="url(#lKGHbFGLyPyx)"/>
  <path fill="none" stroke="rgb(96,96,96)" paint-order="fill stroke markers" d="M 538.62 460.336 L 548.62 470.336" stroke-opacity="1" stroke-linecap="square" stroke-miterlimit="10" stroke-width="2.5" clip-path="url(#lKGHbFGLyPyx)"/>
  <path fill="none" stroke="rgb(96,96,96)" paint-order="fill stroke markers" d="M 538.62 470.336 L 548.62 460.336" stroke-opacity="1" stroke-linecap="square" stroke-miterlimit="10" stroke-width="2.5" clip-path="url(#lKGHbFGLyPyx)"/>
  <path fill="none" stroke="rgb(96,96,96)" paint-order="fill stroke markers" d="M 649.206 398.9 L 659.206 408.9" stroke-opacity="1" stroke-linecap="square" stroke-miterlimit="10" stroke-width="2.5" clip-path="url(#lKGHbFGLyPyx)"/>
  <path fill="none" stroke="rgb(96,96,96)" paint-order="fill stroke markers" d="M 649.206 408.9 L 659.206 398.9" stroke-opacity="1" stroke-linecap="square" stroke-miterlimit="10" stroke-width="2.5" clip-path="url(#lKGHbFGLyPyx)"/>
  <path fill="none" stroke="rgb(96,96,96)" paint-order="fill stroke markers" d="M 759.791 319.033 L 769.791 329.033" stroke-opacity="1" stroke-linecap="square" stroke-miterlimit="10" stroke-width="2.5" clip-path="url(#lKGHbFGLyPyx)"/>
  <path fill="none" stroke="rgb(96,96,96)" paint-order="fill stroke markers" d="M 759.791 329.033 L 769.791 319.033" stroke-opacity="1" stroke-linecap="square" stroke-miterlimit="10" stroke-width="2.5" clip-path="url(#lKGHbFGLyPyx)"/>
  <path fill="none" stroke="rgb(96,96,96)" paint-order="fill stroke markers" d="M 870.376 245.309 L 880.376 255.309" stroke-opacity="1" stroke-linecap="square" stroke-miterlimit="10" stroke-width="2.5" clip-path="url(#lKGHbFGLyPyx)"/>
  <path fill="none" stroke="rgb(96,96,96)" paint-order="fill stroke markers" d="M 870.376 255.309 L 880.376 245.309" stroke-opacity="1" stroke-linecap="square" stroke-miterlimit="10" stroke-width="2.5" clip-path="url(#lKGHbFGLyPyx)"/>
  <path fill="none" stroke="rgb(96,96,96)" paint-order="fill stroke markers" d="M 980.961 190.017 L 990.961 200.017" stroke-opacity="1" stroke-linecap="square" stroke-miterlimit="10" stroke-width="2.5" clip-path="url(#lKGHbFGLyPyx)"/>
  <path fill="none" stroke="rgb(96,96,96)" paint-order="fill stroke markers" d="M 980.961 200.017 L 990.961 190.017" stroke-opacity="1" stroke-linecap="square" stroke-miterlimit="10" stroke-width="2.5" clip-path="url(#lKGHbFGLyPyx)"/>
  <path fill="none" stroke="rgb(96,96,96)" paint-order="fill stroke markers" d="M 1091.547 110.15 L 1101.547 120.15" stroke-opacity="1" stroke-linecap="square" stroke-miterlimit="10" stroke-width="2.5" clip-path="url(#lKGHbFGLyPyx)"/>
  <path fill="none" stroke="rgb(96,96,96)" paint-order="fill stroke markers" d="M 1091.547 120.15 L 1101.547 110.15" stroke-opacity="1" stroke-linecap="square" stroke-miterlimit="10" stroke-width="2.5" clip-path="url(#lKGHbFGLyPyx)"/>
  <path fill="none" stroke="rgb(255,0,0)" paint-order="fill stroke markers" d="M 211.865 661.932 L 214.844 660.073 M 214.844 660.073 L 219.727 657.048 L 224.609 654.032 L 229.492 651.023 L 234.375 648.017 M 234.375 648.017 L 239.258 645.015 L 244.141 642.015 L 249.023 639.017 L 253.906 636.021 L 258.789 633.027 L 263.672 630.034 L 268.555 627.043 L 273.438 624.052 L 278.32 621.063 L 283.203 618.075 L 288.086 615.088 L 292.969 612.102 L 297.852 609.117 L 302.734 606.133 L 307.617 603.149 L 312.5 600.166 M 312.5 600.166 L 317.383 597.184 L 322.266 594.202 L 327.148 591.221 L 332.031 588.241 L 336.914 585.261 L 341.797 582.282 L 346.68 579.303 L 351.563 576.325 L 356.445 573.347 L 361.328 570.37 L 366.211 567.393 L 371.094 564.417 L 375.977 561.441 L 380.859 558.466 L 385.742 555.491 L 390.625 552.516 L 395.508 549.542 L 400.391 546.568 L 405.273 543.595 L 410.156 540.621 L 415.039 537.649 L 419.922 534.676 L 424.805 531.704 L 429.688 528.732 L 434.57 525.761 L 439.453 522.79 L 444.336 519.819 L 449.219 516.848 L 454.102 513.878 L 458.984 510.908 L 463.867 507.939 L 468.75 504.969 L 473.633 502 L 478.516 499.031 L 483.398 496.062 L 488.281 493.094 L 493.164 490.126 L 498.047 487.158 L 502.93 484.191 L 507.812 481.223 L 512.695 478.256 L 517.578 475.289 L 522.461 472.322 L 527.344 469.356 L 532.227 466.39 L 537.109 463.424 L 541.992 460.458 L 546.875 457.492 L 551.758 454.527 L 556.641 451.562 L 561.523 448.597 L 566.406 445.632 L 571.289 442.667 L 576.172 439.703 L 581.055 436.738 L 585.938 433.774 L 590.82 430.811 L 595.703 427.847 L 600.586 424.883 L 605.469 421.92 L 610.352 418.957 L 615.234 415.994 L 620.117 413.031 L 625 410.069 M 625 410.069 L 629.883 407.106 L 634.766 404.144 L 639.648 401.182 L 644.531 398.22 L 649.414 395.258 L 654.297 392.296 L 659.18 389.335 L 664.063 386.373 L 668.945 383.412 L 673.828 380.451 L 678.711 377.49 L 683.594 374.529 L 688.477 371.569 L 693.359 368.608 L 698.242 365.648 L 703.125 362.688 L 708.008 359.728 L 712.891 356.768 L 717.773 353.808 L 722.656 350.849 L 727.539 347.889 L 732.422 344.93 L 737.305 341.971 L 742.188 339.012 L 747.07 336.053 L 751.953 333.094 L 756.836 330.135 L 761.719 327.177 L 766.602 324.218 L 771.484 321.26 L 776.367 318.302 L 781.25 315.343 L 786.133 312.386 L 791.016 309.428 L 795.898 306.47 L 800.781 303.512 L 805.664 300.555 L 810.547 297.598 L 815.43 294.64 L 820.313 291.683 L 825.195 288.726 L 830.078 285.769 L 834.961 282.812 L 839.844 279.856 L 844.727 276.899 L 849.609 273.943 L 854.492 270.986 L 859.375 268.03 L 864.258 265.074 L 869.141 262.118 L 874.023 259.162 L 878.906 256.206 L 883.789 253.25 L 888.672 250.295 L 893.555 247.339 L 898.438 244.384 L 903.32 241.429 L 908.203 238.473 L 913.086 235.518 L 917.969 232.563 L 922.852 229.608 L 927.734 226.653 L 932.617 223.699 L 937.5 220.744 L 942.383 217.79 L 947.266 214.835 L 952.148 211.881 L 957.031 208.926 L 961.914 205.972 L 966.797 203.018 L 971.68 200.064 L 976.563 197.11 L 981.445 194.157 L 986.328 191.203 L 991.211 188.249 L 996.094 185.296 L 1000.977 182.342 L 1005.859 179.389 L 1010.742 176.436 L 1015.625 173.482 L 1020.508 170.529 L 1025.391 167.576 L 1030.273 164.623 L 1035.156 161.67 L 1040.039 158.718 L 1044.922 155.765 L 1049.805 152.812 L 1054.688 149.86 L 1059.57 146.907 L 1064.453 143.955 L 1069.336 141.003 L 1074.219 138.051 L 1079.102 135.098 L 1083.984 132.146 L 1088.867 129.194 L 1093.75 126.243 L 1098.633 123.291 L 1103.516 120.339 L 1108.398 117.387 L 1113.281 114.436 L 1118.164 111.484 L 1123.047 108.533 L 1127.93 105.582 L 1132.813 102.63 L 1137.695 99.679 L 1142.578 96.728 L 1147.461 93.777 L 1152.344 90.826 L 1157.227 87.875 L 1162.109 84.924 L 1166.992 81.974 L 1171.875 79.023 L 1176.758 76.072 L 1181.641 73.122 L 1186.523 70.171 L 1191.406 67.221 L 1196.289 64.27 L 1201.172 61.32 L 1206.055 58.37 L 1210.938 55.42 L 1215.82 52.47 L 1220.703 49.52 L 1225.586 46.57 L 1230.469 43.62 L 1235.352 40.67 L 1240.234 37.721 L 1245.117 34.771 L 1250 31.821" stroke-opacity="0.6980392156862745" stroke-linecap="round" stroke-linejoin="round" stroke-miterlimit="10" stroke-width="2.5" clip-path="url(#lKGHbFGLyPyx)"/>
</svg>