<?xml version="1.0" encoding="utf-8"?>
<svg viewBox="313.875 -13.038 791.775 895.05" width="791.775" height="895.05" xmlns="http://www.w3.org/2000/svg">
  <defs>
    <clipPath id="byGNhebnbtEw">
      <path fill="none" stroke="none" d=" M 0 0 L 1087 0 L 1087 921 L 0 921 L 0 0 Z"/>
    </clipPath>
    <clipPath id="vlXTcZCysQKk">
      <path fill="none" stroke="none" d="M 175.984 -1.781 L 970.984 -1.781 L 970.984 919.219 L 175.984 919.219 L 175.984 -1.781 Z"/>
    </clipPath>
    <clipPath id="clip-1">
      <path fill="none" stroke="none" d=" M 0 0 L 795 0 L 795 921 L 0 921 L 0 0 Z"/>
    </clipPath>
  </defs>
  <path fill="none" stroke="rgb(192,192,192)" paint-order="fill stroke markers" d="M 26.5 0.5 L 26.5 921.5 M 26.5 0.5 L 26.5 921.5 M 93.5 0.5 L 93.5 921.5 M 161.5 0.5 L 161.5 921.5 M 228.5 0.5 L 228.5 921.5 M 296.5 0.5 L 296.5 921.5 M 431.5 0.5 L 431.5 921.5 M 499.5 0.5 L 499.5 921.5 M 566.5 0.5 L 566.5 921.5 M 634.5 0.5 L 634.5 921.5 M 701.5 0.5 L 701.5 921.5 M 769.5 0.5 L 769.5 921.5 M 837.5 0.5 L 837.5 921.5 M 904.5 0.5 L 904.5 921.5 M 972.5 0.5 L 972.5 921.5 M 1039.5 0.5 L 1039.5 921.5" stroke-opacity="1" stroke-linejoin="round" stroke-miterlimit="10" stroke-dasharray="5,4" clip-path="url(#byGNhebnbtEw)"/>
  <path fill="none" stroke="rgb(192,192,192)" paint-order="fill stroke markers" d="M 0.5 65.5 L 1087.5 65.5 M 0.5 65.5 L 1087.5 65.5 M 0.5 152.5 L 1087.5 152.5 M 0.5 238.5 L 1087.5 238.5 M 0.5 325.5 L 1087.5 325.5 M 0.5 412.5 L 1087.5 412.5 M 0.5 498.5 L 1087.5 498.5 M 0.5 585.5 L 1087.5 585.5 M 0.5 672.5 L 1087.5 672.5 M 0.5 759.5 L 1087.5 759.5" stroke-opacity="1" stroke-linejoin="round" stroke-miterlimit="10" stroke-dasharray="5,4" clip-path="url(#byGNhebnbtEw)"/>
  <path fill="none" stroke="rgb(0,0,0)" paint-order="fill stroke markers" d="M 364.5 2.5 L 364.5 921.5" stroke-opacity="1" stroke-miterlimit="10" clip-path="url(#byGNhebnbtEw)"/>
  <path fill="rgb(0,0,0)" stroke="none" paint-order="stroke fill markers" fill-rule="evenodd" d="M 364.103 1 L 360.103 17 L 368.103 17" fill-opacity="1" clip-path="url(#byGNhebnbtEw)"/>
  <path fill="none" stroke="rgb(0,0,0)" paint-order="fill stroke markers" d="M 0.5 845.5 L 1085.5 845.5" stroke-opacity="1" stroke-miterlimit="10" clip-path="url(#byGNhebnbtEw)"/>
  <path fill="rgb(0,0,0)" stroke="none" paint-order="stroke fill markers" fill-rule="evenodd" d="M 1086 845.766 L 1070 841.766 L 1070 849.766" fill-opacity="1" clip-path="url(#byGNhebnbtEw)"/>
  <text fill="none" stroke="rgb(255,255,255)" font-family="geogebra-sans-serif, sans-serif" font-size="12px" font-style="normal" font-weight="normal" text-decoration="normal" x="423" y="861" text-anchor="start" dominant-baseline="alphabetic" stroke-opacity="1" stroke-linejoin="bevel" stroke-miterlimit="10" stroke-width="3" style="white-space: pre; font-size: 12px;" clip-path="url(#byGNhebnbtEw)">100</text>
  <text fill="rgb(0,0,0)" stroke="none" font-family="geogebra-sans-serif, sans-serif" font-size="12px" font-style="normal" font-weight="normal" text-decoration="normal" x="423" y="861" text-anchor="start" dominant-baseline="alphabetic" fill-opacity="1" style="white-space: pre; font-size: 12px;" clip-path="url(#byGNhebnbtEw)">100</text>
  <text fill="none" stroke="rgb(255,255,255)" font-family="geogebra-sans-serif, sans-serif" font-size="12px" font-style="normal" font-weight="normal" text-decoration="normal" x="491" y="861" text-anchor="start" dominant-baseline="alphabetic" stroke-opacity="1" stroke-linejoin="bevel" stroke-miterlimit="10" stroke-width="3" style="white-space: pre; font-size: 12px;" clip-path="url(#byGNhebnbtEw)">200</text>
  <text fill="rgb(0,0,0)" stroke="none" font-family="geogebra-sans-serif, sans-serif" font-size="12px" font-style="normal" font-weight="normal" text-decoration="normal" x="491" y="861" text-anchor="start" dominant-baseline="alphabetic" fill-opacity="1" style="white-space: pre; font-size: 12px;" clip-path="url(#byGNhebnbtEw)">200</text>
  <text fill="none" stroke="rgb(255,255,255)" font-family="geogebra-sans-serif, sans-serif" font-size="12px" font-style="normal" font-weight="normal" text-decoration="normal" x="558" y="861" text-anchor="start" dominant-baseline="alphabetic" stroke-opacity="1" stroke-linejoin="bevel" stroke-miterlimit="10" stroke-width="3" style="white-space: pre; font-size: 12px;" clip-path="url(#byGNhebnbtEw)">300</text>
  <text fill="rgb(0,0,0)" stroke="none" font-family="geogebra-sans-serif, sans-serif" font-size="12px" font-style="normal" font-weight="normal" text-decoration="normal" x="558" y="861" text-anchor="start" dominant-baseline="alphabetic" fill-opacity="1" style="white-space: pre; font-size: 12px;" clip-path="url(#byGNhebnbtEw)">300</text>
  <text fill="none" stroke="rgb(255,255,255)" font-family="geogebra-sans-serif, sans-serif" font-size="12px" font-style="normal" font-weight="normal" text-decoration="normal" x="626" y="861" text-anchor="start" dominant-baseline="alphabetic" stroke-opacity="1" stroke-linejoin="bevel" stroke-miterlimit="10" stroke-width="3" style="white-space: pre; font-size: 12px;" clip-path="url(#byGNhebnbtEw)">400</text>
  <text fill="rgb(0,0,0)" stroke="none" font-family="geogebra-sans-serif, sans-serif" font-size="12px" font-style="normal" font-weight="normal" text-decoration="normal" x="626" y="861" text-anchor="start" dominant-baseline="alphabetic" fill-opacity="1" style="white-space: pre; font-size: 12px;" clip-path="url(#byGNhebnbtEw)">400</text>
  <text fill="none" stroke="rgb(255,255,255)" font-family="geogebra-sans-serif, sans-serif" font-size="12px" font-style="normal" font-weight="normal" text-decoration="normal" x="693" y="861" text-anchor="start" dominant-baseline="alphabetic" stroke-opacity="1" stroke-linejoin="bevel" stroke-miterlimit="10" stroke-width="3" style="white-space: pre; font-size: 12px;" clip-path="url(#byGNhebnbtEw)">500</text>
  <text fill="rgb(0,0,0)" stroke="none" font-family="geogebra-sans-serif, sans-serif" font-size="12px" font-style="normal" font-weight="normal" text-decoration="normal" x="693" y="861" text-anchor="start" dominant-baseline="alphabetic" fill-opacity="1" style="white-space: pre; font-size: 12px;" clip-path="url(#byGNhebnbtEw)">500</text>
  <text fill="none" stroke="rgb(255,255,255)" font-family="geogebra-sans-serif, sans-serif" font-size="12px" font-style="normal" font-weight="normal" text-decoration="normal" x="761" y="861" text-anchor="start" dominant-baseline="alphabetic" stroke-opacity="1" stroke-linejoin="bevel" stroke-miterlimit="10" stroke-width="3" style="white-space: pre; font-size: 12px;" clip-path="url(#byGNhebnbtEw)">600</text>
  <text fill="rgb(0,0,0)" stroke="none" font-family="geogebra-sans-serif, sans-serif" font-size="12px" font-style="normal" font-weight="normal" text-decoration="normal" x="761" y="861" text-anchor="start" dominant-baseline="alphabetic" fill-opacity="1" style="white-space: pre; font-size: 12px;" clip-path="url(#byGNhebnbtEw)">600</text>
  <text fill="none" stroke="rgb(255,255,255)" font-family="geogebra-sans-serif, sans-serif" font-size="12px" font-style="normal" font-weight="normal" text-decoration="normal" x="829" y="861" text-anchor="start" dominant-baseline="alphabetic" stroke-opacity="1" stroke-linejoin="bevel" stroke-miterlimit="10" stroke-width="3" style="white-space: pre; font-size: 12px;" clip-path="url(#byGNhebnbtEw)">700</text>
  <text fill="rgb(0,0,0)" stroke="none" font-family="geogebra-sans-serif, sans-serif" font-size="12px" font-style="normal" font-weight="normal" text-decoration="normal" x="829" y="861" text-anchor="start" dominant-baseline="alphabetic" fill-opacity="1" style="white-space: pre; font-size: 12px;" clip-path="url(#byGNhebnbtEw)">700</text>
  <text fill="none" stroke="rgb(255,255,255)" font-family="geogebra-sans-serif, sans-serif" font-size="12px" font-style="normal" font-weight="normal" text-decoration="normal" x="896" y="861" text-anchor="start" dominant-baseline="alphabetic" stroke-opacity="1" stroke-linejoin="bevel" stroke-miterlimit="10" stroke-width="3" style="white-space: pre; font-size: 12px;" clip-path="url(#byGNhebnbtEw)">800</text>
  <text fill="rgb(0,0,0)" stroke="none" font-family="geogebra-sans-serif, sans-serif" font-size="12px" font-style="normal" font-weight="normal" text-decoration="normal" x="896" y="861" text-anchor="start" dominant-baseline="alphabetic" fill-opacity="1" style="white-space: pre; font-size: 12px;" clip-path="url(#byGNhebnbtEw)">800</text>
  <text fill="none" stroke="rgb(255,255,255)" font-family="geogebra-sans-serif, sans-serif" font-size="12px" font-style="normal" font-weight="normal" text-decoration="normal" x="964" y="861" text-anchor="start" dominant-baseline="alphabetic" stroke-opacity="1" stroke-linejoin="bevel" stroke-miterlimit="10" stroke-width="3" style="white-space: pre; font-size: 12px;" clip-path="url(#byGNhebnbtEw)">900</text>
  <text fill="rgb(0,0,0)" stroke="none" font-family="geogebra-sans-serif, sans-serif" font-size="12px" font-style="normal" font-weight="normal" text-decoration="normal" x="964" y="861" text-anchor="start" dominant-baseline="alphabetic" fill-opacity="1" style="white-space: pre; font-size: 12px;" clip-path="url(#byGNhebnbtEw)">900</text>
  <text fill="none" stroke="rgb(255,255,255)" font-family="geogebra-sans-serif, sans-serif" font-size="12px" font-style="normal" font-weight="normal" text-decoration="normal" x="1028" y="861" text-anchor="start" dominant-baseline="alphabetic" stroke-opacity="1" stroke-linejoin="bevel" stroke-miterlimit="10" stroke-width="3" style="white-space: pre; font-size: 12px;" clip-path="url(#byGNhebnbtEw)">1000</text>
  <text fill="rgb(0,0,0)" stroke="none" font-family="geogebra-sans-serif, sans-serif" font-size="12px" font-style="normal" font-weight="normal" text-decoration="normal" x="1028" y="861" text-anchor="start" dominant-baseline="alphabetic" fill-opacity="1" style="white-space: pre; font-size: 12px;" clip-path="url(#byGNhebnbtEw)">1000</text>
  <text fill="none" stroke="rgb(255,255,255)" font-family="geogebra-sans-serif, sans-serif" font-size="12px" font-style="normal" font-weight="normal" text-decoration="normal" x="344" y="764" text-anchor="start" dominant-baseline="alphabetic" stroke-opacity="1" stroke-linejoin="bevel" stroke-miterlimit="10" stroke-width="3" style="white-space: pre; font-size: 12px;" clip-path="url(#byGNhebnbtEw)">10</text>
  <text fill="rgb(0,0,0)" stroke="none" font-family="geogebra-sans-serif, sans-serif" font-size="12px" font-style="normal" font-weight="normal" text-decoration="normal" x="344" y="764" text-anchor="start" dominant-baseline="alphabetic" fill-opacity="1" style="white-space: pre; font-size: 12px;" clip-path="url(#byGNhebnbtEw)">10</text>
  <text fill="none" stroke="rgb(255,255,255)" font-family="geogebra-sans-serif, sans-serif" font-size="12px" font-style="normal" font-weight="normal" text-decoration="normal" x="344" y="677" text-anchor="start" dominant-baseline="alphabetic" stroke-opacity="1" stroke-linejoin="bevel" stroke-miterlimit="10" stroke-width="3" style="white-space: pre; font-size: 12px;" clip-path="url(#byGNhebnbtEw)">20</text>
  <text fill="rgb(0,0,0)" stroke="none" font-family="geogebra-sans-serif, sans-serif" font-size="12px" font-style="normal" font-weight="normal" text-decoration="normal" x="344" y="677" text-anchor="start" dominant-baseline="alphabetic" fill-opacity="1" style="white-space: pre; font-size: 12px;" clip-path="url(#byGNhebnbtEw)">20</text>
  <text fill="none" stroke="rgb(255,255,255)" font-family="geogebra-sans-serif, sans-serif" font-size="12px" font-style="normal" font-weight="normal" text-decoration="normal" x="344" y="590" text-anchor="start" dominant-baseline="alphabetic" stroke-opacity="1" stroke-linejoin="bevel" stroke-miterlimit="10" stroke-width="3" style="white-space: pre; font-size: 12px;" clip-path="url(#byGNhebnbtEw)">30</text>
  <text fill="rgb(0,0,0)" stroke="none" font-family="geogebra-sans-serif, sans-serif" font-size="12px" font-style="normal" font-weight="normal" text-decoration="normal" x="344" y="590" text-anchor="start" dominant-baseline="alphabetic" fill-opacity="1" style="white-space: pre; font-size: 12px;" clip-path="url(#byGNhebnbtEw)">30</text>
  <text fill="none" stroke="rgb(255,255,255)" font-family="geogebra-sans-serif, sans-serif" font-size="12px" font-style="normal" font-weight="normal" text-decoration="normal" x="344" y="503" text-anchor="start" dominant-baseline="alphabetic" stroke-opacity="1" stroke-linejoin="bevel" stroke-miterlimit="10" stroke-width="3" style="white-space: pre; font-size: 12px;" clip-path="url(#byGNhebnbtEw)">40</text>
  <text fill="rgb(0,0,0)" stroke="none" font-family="geogebra-sans-serif, sans-serif" font-size="12px" font-style="normal" font-weight="normal" text-decoration="normal" x="344" y="503" text-anchor="start" dominant-baseline="alphabetic" fill-opacity="1" style="white-space: pre; font-size: 12px;" clip-path="url(#byGNhebnbtEw)">40</text>
  <text fill="none" stroke="rgb(255,255,255)" font-family="geogebra-sans-serif, sans-serif" font-size="12px" font-style="normal" font-weight="normal" text-decoration="normal" x="344" y="417" text-anchor="start" dominant-baseline="alphabetic" stroke-opacity="1" stroke-linejoin="bevel" stroke-miterlimit="10" stroke-width="3" style="white-space: pre; font-size: 12px;" clip-path="url(#byGNhebnbtEw)">50</text>
  <text fill="rgb(0,0,0)" stroke="none" font-family="geogebra-sans-serif, sans-serif" font-size="12px" font-style="normal" font-weight="normal" text-decoration="normal" x="344" y="417" text-anchor="start" dominant-baseline="alphabetic" fill-opacity="1" style="white-space: pre; font-size: 12px;" clip-path="url(#byGNhebnbtEw)">50</text>
  <text fill="none" stroke="rgb(255,255,255)" font-family="geogebra-sans-serif, sans-serif" font-size="12px" font-style="normal" font-weight="normal" text-decoration="normal" x="344" y="330" text-anchor="start" dominant-baseline="alphabetic" stroke-opacity="1" stroke-linejoin="bevel" stroke-miterlimit="10" stroke-width="3" style="white-space: pre; font-size: 12px;" clip-path="url(#byGNhebnbtEw)">60</text>
  <text fill="rgb(0,0,0)" stroke="none" font-family="geogebra-sans-serif, sans-serif" font-size="12px" font-style="normal" font-weight="normal" text-decoration="normal" x="344" y="330" text-anchor="start" dominant-baseline="alphabetic" fill-opacity="1" style="white-space: pre; font-size: 12px;" clip-path="url(#byGNhebnbtEw)">60</text>
  <text fill="none" stroke="rgb(255,255,255)" font-family="geogebra-sans-serif, sans-serif" font-size="12px" font-style="normal" font-weight="normal" text-decoration="normal" x="344" y="243" text-anchor="start" dominant-baseline="alphabetic" stroke-opacity="1" stroke-linejoin="bevel" stroke-miterlimit="10" stroke-width="3" style="white-space: pre; font-size: 12px;" clip-path="url(#byGNhebnbtEw)">70</text>
  <text fill="rgb(0,0,0)" stroke="none" font-family="geogebra-sans-serif, sans-serif" font-size="12px" font-style="normal" font-weight="normal" text-decoration="normal" x="344" y="243" text-anchor="start" dominant-baseline="alphabetic" fill-opacity="1" style="white-space: pre; font-size: 12px;" clip-path="url(#byGNhebnbtEw)">70</text>
  <text fill="none" stroke="rgb(255,255,255)" font-family="geogebra-sans-serif, sans-serif" font-size="12px" font-style="normal" font-weight="normal" text-decoration="normal" x="344" y="157" text-anchor="start" dominant-baseline="alphabetic" stroke-opacity="1" stroke-linejoin="bevel" stroke-miterlimit="10" stroke-width="3" style="white-space: pre; font-size: 12px;" clip-path="url(#byGNhebnbtEw)">80</text>
  <text fill="rgb(0,0,0)" stroke="none" font-family="geogebra-sans-serif, sans-serif" font-size="12px" font-style="normal" font-weight="normal" text-decoration="normal" x="344" y="157" text-anchor="start" dominant-baseline="alphabetic" fill-opacity="1" style="white-space: pre; font-size: 12px;" clip-path="url(#byGNhebnbtEw)">80</text>
  <text fill="none" stroke="rgb(255,255,255)" font-family="geogebra-sans-serif, sans-serif" font-size="12px" font-style="normal" font-weight="normal" text-decoration="normal" x="344" y="70" text-anchor="start" dominant-baseline="alphabetic" stroke-opacity="1" stroke-linejoin="bevel" stroke-miterlimit="10" stroke-width="3" style="white-space: pre; font-size: 12px;" clip-path="url(#byGNhebnbtEw)">90</text>
  <text fill="rgb(0,0,0)" stroke="none" font-family="geogebra-sans-serif, sans-serif" font-size="12px" font-style="normal" font-weight="normal" text-decoration="normal" x="344" y="70" text-anchor="start" dominant-baseline="alphabetic" fill-opacity="1" style="white-space: pre; font-size: 12px;" clip-path="url(#byGNhebnbtEw)">90</text>
  <text fill="none" stroke="rgb(255,255,255)" font-family="geogebra-sans-serif, sans-serif" font-size="12px" font-style="normal" font-weight="normal" text-decoration="normal" x="351" y="861" text-anchor="start" dominant-baseline="alphabetic" stroke-opacity="1" stroke-linejoin="bevel" stroke-miterlimit="10" stroke-width="3" style="white-space: pre; font-size: 12px;" clip-path="url(#byGNhebnbtEw)">0</text>
  <text fill="rgb(0,0,0)" stroke="none" font-family="geogebra-sans-serif, sans-serif" font-size="12px" font-style="normal" font-weight="normal" text-decoration="normal" x="351" y="861" text-anchor="start" dominant-baseline="alphabetic" fill-opacity="1" style="white-space: pre; font-size: 12px;" clip-path="url(#byGNhebnbtEw)">0</text>
  <path fill="none" stroke="rgb(96,96,96)" paint-order="fill stroke markers" d="M 426.682 95.044 L 436.682 105.044" stroke-opacity="1" stroke-linecap="square" stroke-miterlimit="10" stroke-width="2.5" clip-path="url(#byGNhebnbtEw)"/>
  <path fill="none" stroke="rgb(96,96,96)" paint-order="fill stroke markers" d="M 426.682 105.044 L 436.682 95.044" stroke-opacity="1" stroke-linecap="square" stroke-miterlimit="10" stroke-width="2.5" clip-path="url(#byGNhebnbtEw)"/>
  <path fill="none" stroke="rgb(96,96,96)" paint-order="fill stroke markers" d="M 480.745 277.139 L 490.745 287.139" stroke-opacity="1" stroke-linecap="square" stroke-miterlimit="10" stroke-width="2.5" clip-path="url(#byGNhebnbtEw)"/>
  <path fill="none" stroke="rgb(96,96,96)" paint-order="fill stroke markers" d="M 480.745 287.139 L 490.745 277.139" stroke-opacity="1" stroke-linecap="square" stroke-miterlimit="10" stroke-width="2.5" clip-path="url(#byGNhebnbtEw)"/>
  <path fill="none" stroke="rgb(96,96,96)" paint-order="fill stroke markers" d="M 497.639 320.495 L 507.639 330.495" stroke-opacity="1" stroke-linecap="square" stroke-miterlimit="10" stroke-width="2.5" clip-path="url(#byGNhebnbtEw)"/>
  <path fill="none" stroke="rgb(96,96,96)" paint-order="fill stroke markers" d="M 497.639 330.495 L 507.639 320.495" stroke-opacity="1" stroke-linecap="square" stroke-miterlimit="10" stroke-width="2.5" clip-path="url(#byGNhebnbtEw)"/>
  <path fill="none" stroke="rgb(96,96,96)" paint-order="fill stroke markers" d="M 531.428 372.522 L 541.428 382.522" stroke-opacity="1" stroke-linecap="square" stroke-miterlimit="10" stroke-width="2.5" clip-path="url(#byGNhebnbtEw)"/>
  <path fill="none" stroke="rgb(96,96,96)" paint-order="fill stroke markers" d="M 531.428 382.522 L 541.428 372.522" stroke-opacity="1" stroke-linecap="square" stroke-miterlimit="10" stroke-width="2.5" clip-path="url(#byGNhebnbtEw)"/>
  <path fill="none" stroke="rgb(96,96,96)" paint-order="fill stroke markers" d="M 555.081 407.207 L 565.081 417.207" stroke-opacity="1" stroke-linecap="square" stroke-miterlimit="10" stroke-width="2.5" clip-path="url(#byGNhebnbtEw)"/>
  <path fill="none" stroke="rgb(96,96,96)" paint-order="fill stroke markers" d="M 555.081 417.207 L 565.081 407.207" stroke-opacity="1" stroke-linecap="square" stroke-miterlimit="10" stroke-width="2.5" clip-path="url(#byGNhebnbtEw)"/>
  <path fill="none" stroke="rgb(96,96,96)" paint-order="fill stroke markers" d="M 703.754 511.261 L 713.754 521.261" stroke-opacity="1" stroke-linecap="square" stroke-miterlimit="10" stroke-width="2.5" clip-path="url(#byGNhebnbtEw)"/>
  <path fill="none" stroke="rgb(96,96,96)" paint-order="fill stroke markers" d="M 703.754 521.261 L 713.754 511.261" stroke-opacity="1" stroke-linecap="square" stroke-miterlimit="10" stroke-width="2.5" clip-path="url(#byGNhebnbtEw)"/>
  <path fill="none" stroke="rgb(96,96,96)" paint-order="fill stroke markers" d="M 751.059 528.603 L 761.059 538.603" stroke-opacity="1" stroke-linecap="square" stroke-miterlimit="10" stroke-width="2.5" clip-path="url(#byGNhebnbtEw)"/>
  <path fill="none" stroke="rgb(96,96,96)" paint-order="fill stroke markers" d="M 751.059 538.603 L 761.059 528.603" stroke-opacity="1" stroke-linecap="square" stroke-miterlimit="10" stroke-width="2.5" clip-path="url(#byGNhebnbtEw)"/>
  <path fill="none" stroke="rgb(96,96,96)" paint-order="fill stroke markers" d="M 913.247 580.631 L 923.247 590.631" stroke-opacity="1" stroke-linecap="square" stroke-miterlimit="10" stroke-width="2.5" clip-path="url(#byGNhebnbtEw)"/>
  <path fill="none" stroke="rgb(96,96,96)" paint-order="fill stroke markers" d="M 913.247 590.631 L 923.247 580.631" stroke-opacity="1" stroke-linecap="square" stroke-miterlimit="10" stroke-width="2.5" clip-path="url(#byGNhebnbtEw)"/>
  <path fill="none" stroke="rgb(96,96,96)" paint-order="fill stroke markers" d="M 974.068 589.302 L 984.068 599.302" stroke-opacity="1" stroke-linecap="square" stroke-miterlimit="10" stroke-width="2.5" clip-path="url(#byGNhebnbtEw)"/>
  <path fill="none" stroke="rgb(96,96,96)" paint-order="fill stroke markers" d="M 974.068 599.302 L 984.068 589.302" stroke-opacity="1" stroke-linecap="square" stroke-miterlimit="10" stroke-width="2.5" clip-path="url(#byGNhebnbtEw)"/>
  <path fill="none" stroke="rgb(255,0,0)" paint-order="fill stroke markers" d="M 415.056 -10 L 415.327 -10 L 416.117 -3.485 L 416.117 -3.485 L 416.117 -3.485 L 417.179 5.005 L 417.179 5.005 L 418.24 13.245 L 419.302 21.247 L 420.363 29.021 L 421.425 36.579 L 422.486 43.929 L 423.548 51.083 L 424.609 58.048 L 425.671 64.832 L 426.732 71.443 L 427.794 77.889 L 428.855 84.175 L 429.917 90.31 L 430.979 96.298 L 432.04 102.145 L 433.102 107.857 L 434.163 113.439 L 435.225 118.895 L 436.286 124.231 L 437.348 129.451 L 438.409 134.559 L 439.471 139.559 L 441.594 149.249 L 443.717 158.549 L 445.84 167.485 L 447.963 176.081 L 450.086 184.356 L 452.209 192.331 L 454.332 200.024 L 456.455 207.45 L 458.578 214.624 L 460.701 221.562 L 462.824 228.274 L 464.947 234.774 L 467.07 241.073 L 469.193 247.179 L 471.316 253.104 L 473.439 258.856 L 475.563 264.443 L 477.686 269.872 L 479.809 275.152 L 481.932 280.289 L 484.055 285.289 L 488.301 294.902 L 492.547 304.036 L 496.793 312.728 L 501.039 321.013 L 505.285 328.922 L 509.531 336.483 L 513.777 343.721 L 518.023 350.657 L 522.27 357.313 L 526.516 363.706 L 530.762 369.854 L 535.008 375.772 L 539.254 381.474 L 543.5 386.972 M 543.5 386.972 L 547.746 392.279 L 551.992 397.405 L 556.238 402.361 L 560.484 407.155 L 564.73 411.796 L 568.977 416.293 L 573.223 420.653 L 577.469 424.881 L 581.715 428.986 L 585.961 432.972 L 590.207 436.846 L 594.453 440.613 L 598.699 444.276 L 602.945 447.842 L 607.191 451.314 L 611.438 454.697 L 615.684 457.994 L 619.93 461.208 L 624.176 464.343 L 628.422 467.403 L 632.668 470.39 L 636.914 473.307 L 641.16 476.157 L 645.406 478.943 L 649.652 481.666 L 653.898 484.329 L 658.145 486.934 L 662.391 489.484 L 666.637 491.979 L 670.883 494.423 L 675.129 496.817 L 679.375 499.162 L 683.621 501.461 L 687.867 503.714 L 692.113 505.923 L 696.359 508.09 L 700.605 510.216 L 704.852 512.302 L 709.098 514.35 L 713.344 516.36 L 717.59 518.334 L 721.836 520.273 L 726.082 522.177 L 730.328 524.048 L 734.574 525.888 L 738.82 527.696 L 743.066 529.473 L 747.313 531.221 L 751.559 532.94 L 755.805 534.631 L 760.051 536.295 L 764.297 537.932 L 768.543 539.544 L 772.789 541.131 L 777.035 542.693 L 781.281 544.231 L 785.527 545.746 L 789.773 547.238 L 794.02 548.708 L 798.266 550.156 L 802.512 551.584 L 806.758 552.99 L 811.004 554.377 L 815.25 555.744 L 819.496 557.092 L 823.742 558.422 L 827.988 559.733 L 832.234 561.026 L 836.48 562.302 L 840.727 563.561 L 844.973 564.803 L 849.219 566.029 L 853.465 567.238 L 857.711 568.433 L 861.957 569.612 L 866.203 570.776 L 870.449 571.925 L 874.695 573.06 L 878.941 574.181 L 883.188 575.288 L 887.434 576.382 L 891.68 577.462 L 895.926 578.53 L 900.172 579.584 L 904.418 580.627 L 908.664 581.657 L 912.91 582.675 L 917.156 583.682 L 921.402 584.677 L 925.648 585.661 L 929.895 586.633 L 934.141 587.595 L 938.387 588.546 L 942.633 589.487 L 946.879 590.417 L 951.125 591.337 L 955.371 592.248 L 959.617 593.148 L 963.863 594.039 L 968.109 594.921 L 972.355 595.794 L 976.602 596.657 L 980.848 597.511 L 985.094 598.357 L 989.34 599.194 L 993.586 600.023 L 997.832 600.843 L 1002.078 601.655 L 1006.324 602.459 L 1010.57 603.255 L 1014.816 604.043 L 1019.063 604.824 L 1023.309 605.597 L 1027.555 606.363 L 1031.801 607.121 L 1036.047 607.873 L 1040.293 608.617 L 1044.539 609.354 L 1048.785 610.084 L 1053.031 610.808 L 1057.277 611.525 L 1061.523 612.235 L 1065.77 612.939 L 1070.016 613.636 L 1074.262 614.328 L 1078.508 615.013 L 1082.754 615.692 L 1082.754 615.692 L 1087 616.365 L 1087 616.365" stroke-opacity="0.6980392156862745" stroke-linecap="round" stroke-linejoin="round" stroke-miterlimit="10" stroke-width="2.5" clip-path="url(#byGNhebnbtEw)"/>
  <text fill="rgb(0,0,0)" stroke="none" font-family="geogebra-sans-serif, sans-serif" font-size="16px" font-style="normal" font-weight="normal" text-decoration="normal" x="463.988" y="15.227" text-anchor="start" dominant-baseline="alphabetic" fill-opacity="1" style="white-space: pre; font-size: 16px;" clip-path="url(#vlXTcZCysQKk)" transform="matrix(1, 0, 0, 1, -94.097519, 0.006963)">y</text>
  <text fill="rgb(0,0,0)" stroke="none" font-family="geogebra-sans-serif, sans-serif" font-size="16px" font-style="normal" font-weight="normal" text-decoration="normal" x="777" y="762" text-anchor="start" dominant-baseline="alphabetic" fill-opacity="1" style="white-space: pre; font-size: 16px;" clip-path="url(#clip-1)" transform="matrix(1, 0, 0, 1, 287.040466, 75.31517)">x</text>
</svg>