<?xml version="1.0" encoding="utf-8"?>
<svg viewBox="410.553 -8.817 859.532 874.701" width="859.532" height="874.701" xmlns="http://www.w3.org/2000/svg">
  <defs>
    <clipPath id="KvVqyPTdriEy">
      <path fill="none" stroke="none" d=" M 0 0 L 1250 0 L 1250 921 L 0 921 L 0 0 Z"/>
    </clipPath>
    <clipPath id="vlXTcZCysQKk">
      <path fill="none" stroke="none" d="M 175.984 -1.781 L 970.984 -1.781 L 970.984 919.219 L 175.984 919.219 L 175.984 -1.781 Z"/>
    </clipPath>
    <clipPath id="clip-1">
      <path fill="none" stroke="none" d=" M 0 0 L 795 0 L 795 921 L 0 921 L 0 0 Z"/>
    </clipPath>
  </defs>
  <path fill="none" stroke="rgb(192,192,192)" paint-order="fill stroke markers" d="M 14.5 0.5 L 14.5 921.5 M 14.5 0.5 L 14.5 921.5 M 87.5 0.5 L 87.5 921.5 M 160.5 0.5 L 160.5 921.5 M 233.5 0.5 L 233.5 921.5 M 306.5 0.5 L 306.5 921.5 M 380.5 0.5 L 380.5 921.5 M 526.5 0.5 L 526.5 921.5 M 599.5 0.5 L 599.5 921.5 M 672.5 0.5 L 672.5 921.5 M 746.5 0.5 L 746.5 921.5 M 819.5 0.5 L 819.5 921.5 M 892.5 0.5 L 892.5 921.5 M 965.5 0.5 L 965.5 921.5 M 1038.5 0.5 L 1038.5 921.5 M 1111.5 0.5 L 1111.5 921.5 M 1185.5 0.5 L 1185.5 921.5" stroke-opacity="1" stroke-linejoin="round" stroke-miterlimit="10" stroke-dasharray="5,4" clip-path="url(#KvVqyPTdriEy)"/>
  <path fill="none" stroke="rgb(192,192,192)" paint-order="fill stroke markers" d="M 0.5 35.5 L 1250.5 35.5 M 0.5 35.5 L 1250.5 35.5 M 0.5 114.5 L 1250.5 114.5 M 0.5 192.5 L 1250.5 192.5 M 0.5 271.5 L 1250.5 271.5 M 0.5 350.5 L 1250.5 350.5 M 0.5 429.5 L 1250.5 429.5 M 0.5 507.5 L 1250.5 507.5 M 0.5 586.5 L 1250.5 586.5 M 0.5 665.5 L 1250.5 665.5 M 0.5 744.5 L 1250.5 744.5 M 0.5 901.5 L 1250.5 901.5" stroke-opacity="1" stroke-linejoin="round" stroke-miterlimit="10" stroke-dasharray="5,4" clip-path="url(#KvVqyPTdriEy)"/>
  <path fill="none" stroke="rgb(0,0,0)" paint-order="fill stroke markers" d="M 453.5 2.5 L 453.5 921.5" stroke-opacity="1" stroke-miterlimit="10" clip-path="url(#KvVqyPTdriEy)"/>
  <path fill="rgb(0,0,0)" stroke="none" paint-order="stroke fill markers" fill-rule="evenodd" d="M 453.338 1 L 449.338 17 L 457.338 17" fill-opacity="1" clip-path="url(#KvVqyPTdriEy)"/>
  <path fill="none" stroke="rgb(0,0,0)" paint-order="fill stroke markers" d="M 0.5 822.5 L 1248.5 822.5" stroke-opacity="1" stroke-miterlimit="10" clip-path="url(#KvVqyPTdriEy)"/>
  <path fill="rgb(0,0,0)" stroke="none" paint-order="stroke fill markers" fill-rule="evenodd" d="M 1249 822.853 L 1233 818.853 L 1233 826.853" fill-opacity="1" clip-path="url(#KvVqyPTdriEy)"/>
  <text fill="none" stroke="rgb(255,255,255)" font-family="geogebra-sans-serif, sans-serif" font-size="12px" font-style="normal" font-weight="normal" text-decoration="normal" x="524" y="838" text-anchor="start" dominant-baseline="alphabetic" stroke-opacity="1" stroke-linejoin="bevel" stroke-miterlimit="10" stroke-width="3" style="white-space: pre; font-size: 12px;" clip-path="url(#KvVqyPTdriEy)">1</text>
  <text fill="rgb(0,0,0)" stroke="none" font-family="geogebra-sans-serif, sans-serif" font-size="12px" font-style="normal" font-weight="normal" text-decoration="normal" x="524" y="838" text-anchor="start" dominant-baseline="alphabetic" fill-opacity="1" style="white-space: pre; font-size: 12px;" clip-path="url(#KvVqyPTdriEy)">1</text>
  <text fill="none" stroke="rgb(255,255,255)" font-family="geogebra-sans-serif, sans-serif" font-size="12px" font-style="normal" font-weight="normal" text-decoration="normal" x="597" y="838" text-anchor="start" dominant-baseline="alphabetic" stroke-opacity="1" stroke-linejoin="bevel" stroke-miterlimit="10" stroke-width="3" style="white-space: pre; font-size: 12px;" clip-path="url(#KvVqyPTdriEy)">2</text>
  <text fill="rgb(0,0,0)" stroke="none" font-family="geogebra-sans-serif, sans-serif" font-size="12px" font-style="normal" font-weight="normal" text-decoration="normal" x="597" y="838" text-anchor="start" dominant-baseline="alphabetic" fill-opacity="1" style="white-space: pre; font-size: 12px;" clip-path="url(#KvVqyPTdriEy)">2</text>
  <text fill="none" stroke="rgb(255,255,255)" font-family="geogebra-sans-serif, sans-serif" font-size="12px" font-style="normal" font-weight="normal" text-decoration="normal" x="670" y="838" text-anchor="start" dominant-baseline="alphabetic" stroke-opacity="1" stroke-linejoin="bevel" stroke-miterlimit="10" stroke-width="3" style="white-space: pre; font-size: 12px;" clip-path="url(#KvVqyPTdriEy)">3</text>
  <text fill="rgb(0,0,0)" stroke="none" font-family="geogebra-sans-serif, sans-serif" font-size="12px" font-style="normal" font-weight="normal" text-decoration="normal" x="670" y="838" text-anchor="start" dominant-baseline="alphabetic" fill-opacity="1" style="white-space: pre; font-size: 12px;" clip-path="url(#KvVqyPTdriEy)">3</text>
  <text fill="none" stroke="rgb(255,255,255)" font-family="geogebra-sans-serif, sans-serif" font-size="12px" font-style="normal" font-weight="normal" text-decoration="normal" x="744" y="838" text-anchor="start" dominant-baseline="alphabetic" stroke-opacity="1" stroke-linejoin="bevel" stroke-miterlimit="10" stroke-width="3" style="white-space: pre; font-size: 12px;" clip-path="url(#KvVqyPTdriEy)">4</text>
  <text fill="rgb(0,0,0)" stroke="none" font-family="geogebra-sans-serif, sans-serif" font-size="12px" font-style="normal" font-weight="normal" text-decoration="normal" x="744" y="838" text-anchor="start" dominant-baseline="alphabetic" fill-opacity="1" style="white-space: pre; font-size: 12px;" clip-path="url(#KvVqyPTdriEy)">4</text>
  <text fill="none" stroke="rgb(255,255,255)" font-family="geogebra-sans-serif, sans-serif" font-size="12px" font-style="normal" font-weight="normal" text-decoration="normal" x="817" y="838" text-anchor="start" dominant-baseline="alphabetic" stroke-opacity="1" stroke-linejoin="bevel" stroke-miterlimit="10" stroke-width="3" style="white-space: pre; font-size: 12px;" clip-path="url(#KvVqyPTdriEy)">5</text>
  <text fill="rgb(0,0,0)" stroke="none" font-family="geogebra-sans-serif, sans-serif" font-size="12px" font-style="normal" font-weight="normal" text-decoration="normal" x="817" y="838" text-anchor="start" dominant-baseline="alphabetic" fill-opacity="1" style="white-space: pre; font-size: 12px;" clip-path="url(#KvVqyPTdriEy)">5</text>
  <text fill="none" stroke="rgb(255,255,255)" font-family="geogebra-sans-serif, sans-serif" font-size="12px" font-style="normal" font-weight="normal" text-decoration="normal" x="890" y="838" text-anchor="start" dominant-baseline="alphabetic" stroke-opacity="1" stroke-linejoin="bevel" stroke-miterlimit="10" stroke-width="3" style="white-space: pre; font-size: 12px;" clip-path="url(#KvVqyPTdriEy)">6</text>
  <text fill="rgb(0,0,0)" stroke="none" font-family="geogebra-sans-serif, sans-serif" font-size="12px" font-style="normal" font-weight="normal" text-decoration="normal" x="890" y="838" text-anchor="start" dominant-baseline="alphabetic" fill-opacity="1" style="white-space: pre; font-size: 12px;" clip-path="url(#KvVqyPTdriEy)">6</text>
  <text fill="none" stroke="rgb(255,255,255)" font-family="geogebra-sans-serif, sans-serif" font-size="12px" font-style="normal" font-weight="normal" text-decoration="normal" x="963" y="838" text-anchor="start" dominant-baseline="alphabetic" stroke-opacity="1" stroke-linejoin="bevel" stroke-miterlimit="10" stroke-width="3" style="white-space: pre; font-size: 12px;" clip-path="url(#KvVqyPTdriEy)">7</text>
  <text fill="rgb(0,0,0)" stroke="none" font-family="geogebra-sans-serif, sans-serif" font-size="12px" font-style="normal" font-weight="normal" text-decoration="normal" x="963" y="838" text-anchor="start" dominant-baseline="alphabetic" fill-opacity="1" style="white-space: pre; font-size: 12px;" clip-path="url(#KvVqyPTdriEy)">7</text>
  <text fill="none" stroke="rgb(255,255,255)" font-family="geogebra-sans-serif, sans-serif" font-size="12px" font-style="normal" font-weight="normal" text-decoration="normal" x="1036" y="838" text-anchor="start" dominant-baseline="alphabetic" stroke-opacity="1" stroke-linejoin="bevel" stroke-miterlimit="10" stroke-width="3" style="white-space: pre; font-size: 12px;" clip-path="url(#KvVqyPTdriEy)">8</text>
  <text fill="rgb(0,0,0)" stroke="none" font-family="geogebra-sans-serif, sans-serif" font-size="12px" font-style="normal" font-weight="normal" text-decoration="normal" x="1036" y="838" text-anchor="start" dominant-baseline="alphabetic" fill-opacity="1" style="white-space: pre; font-size: 12px;" clip-path="url(#KvVqyPTdriEy)">8</text>
  <text fill="none" stroke="rgb(255,255,255)" font-family="geogebra-sans-serif, sans-serif" font-size="12px" font-style="normal" font-weight="normal" text-decoration="normal" x="1109" y="838" text-anchor="start" dominant-baseline="alphabetic" stroke-opacity="1" stroke-linejoin="bevel" stroke-miterlimit="10" stroke-width="3" style="white-space: pre; font-size: 12px;" clip-path="url(#KvVqyPTdriEy)">9</text>
  <text fill="rgb(0,0,0)" stroke="none" font-family="geogebra-sans-serif, sans-serif" font-size="12px" font-style="normal" font-weight="normal" text-decoration="normal" x="1109" y="838" text-anchor="start" dominant-baseline="alphabetic" fill-opacity="1" style="white-space: pre; font-size: 12px;" clip-path="url(#KvVqyPTdriEy)">9</text>
  <text fill="none" stroke="rgb(255,255,255)" font-family="geogebra-sans-serif, sans-serif" font-size="12px" font-style="normal" font-weight="normal" text-decoration="normal" x="1180" y="838" text-anchor="start" dominant-baseline="alphabetic" stroke-opacity="1" stroke-linejoin="bevel" stroke-miterlimit="10" stroke-width="3" style="white-space: pre; font-size: 12px;" clip-path="url(#KvVqyPTdriEy)">10</text>
  <text fill="rgb(0,0,0)" stroke="none" font-family="geogebra-sans-serif, sans-serif" font-size="12px" font-style="normal" font-weight="normal" text-decoration="normal" x="1180" y="838" text-anchor="start" dominant-baseline="alphabetic" fill-opacity="1" style="white-space: pre; font-size: 12px;" clip-path="url(#KvVqyPTdriEy)">10</text>
  <text fill="none" stroke="rgb(255,255,255)" font-family="geogebra-sans-serif, sans-serif" font-size="12px" font-style="normal" font-weight="normal" text-decoration="normal" x="440" y="749" text-anchor="start" dominant-baseline="alphabetic" stroke-opacity="1" stroke-linejoin="bevel" stroke-miterlimit="10" stroke-width="3" style="white-space: pre; font-size: 12px;" clip-path="url(#KvVqyPTdriEy)">1</text>
  <text fill="rgb(0,0,0)" stroke="none" font-family="geogebra-sans-serif, sans-serif" font-size="12px" font-style="normal" font-weight="normal" text-decoration="normal" x="440" y="749" text-anchor="start" dominant-baseline="alphabetic" fill-opacity="1" style="white-space: pre; font-size: 12px;" clip-path="url(#KvVqyPTdriEy)">1</text>
  <text fill="none" stroke="rgb(255,255,255)" font-family="geogebra-sans-serif, sans-serif" font-size="12px" font-style="normal" font-weight="normal" text-decoration="normal" x="440" y="670" text-anchor="start" dominant-baseline="alphabetic" stroke-opacity="1" stroke-linejoin="bevel" stroke-miterlimit="10" stroke-width="3" style="white-space: pre; font-size: 12px;" clip-path="url(#KvVqyPTdriEy)">2</text>
  <text fill="rgb(0,0,0)" stroke="none" font-family="geogebra-sans-serif, sans-serif" font-size="12px" font-style="normal" font-weight="normal" text-decoration="normal" x="440" y="670" text-anchor="start" dominant-baseline="alphabetic" fill-opacity="1" style="white-space: pre; font-size: 12px;" clip-path="url(#KvVqyPTdriEy)">2</text>
  <text fill="none" stroke="rgb(255,255,255)" font-family="geogebra-sans-serif, sans-serif" font-size="12px" font-style="normal" font-weight="normal" text-decoration="normal" x="440" y="591" text-anchor="start" dominant-baseline="alphabetic" stroke-opacity="1" stroke-linejoin="bevel" stroke-miterlimit="10" stroke-width="3" style="white-space: pre; font-size: 12px;" clip-path="url(#KvVqyPTdriEy)">3</text>
  <text fill="rgb(0,0,0)" stroke="none" font-family="geogebra-sans-serif, sans-serif" font-size="12px" font-style="normal" font-weight="normal" text-decoration="normal" x="440" y="591" text-anchor="start" dominant-baseline="alphabetic" fill-opacity="1" style="white-space: pre; font-size: 12px;" clip-path="url(#KvVqyPTdriEy)">3</text>
  <text fill="none" stroke="rgb(255,255,255)" font-family="geogebra-sans-serif, sans-serif" font-size="12px" font-style="normal" font-weight="normal" text-decoration="normal" x="440" y="512" text-anchor="start" dominant-baseline="alphabetic" stroke-opacity="1" stroke-linejoin="bevel" stroke-miterlimit="10" stroke-width="3" style="white-space: pre; font-size: 12px;" clip-path="url(#KvVqyPTdriEy)">4</text>
  <text fill="rgb(0,0,0)" stroke="none" font-family="geogebra-sans-serif, sans-serif" font-size="12px" font-style="normal" font-weight="normal" text-decoration="normal" x="440" y="512" text-anchor="start" dominant-baseline="alphabetic" fill-opacity="1" style="white-space: pre; font-size: 12px;" clip-path="url(#KvVqyPTdriEy)">4</text>
  <text fill="none" stroke="rgb(255,255,255)" font-family="geogebra-sans-serif, sans-serif" font-size="12px" font-style="normal" font-weight="normal" text-decoration="normal" x="440" y="434" text-anchor="start" dominant-baseline="alphabetic" stroke-opacity="1" stroke-linejoin="bevel" stroke-miterlimit="10" stroke-width="3" style="white-space: pre; font-size: 12px;" clip-path="url(#KvVqyPTdriEy)">5</text>
  <text fill="rgb(0,0,0)" stroke="none" font-family="geogebra-sans-serif, sans-serif" font-size="12px" font-style="normal" font-weight="normal" text-decoration="normal" x="440" y="434" text-anchor="start" dominant-baseline="alphabetic" fill-opacity="1" style="white-space: pre; font-size: 12px;" clip-path="url(#KvVqyPTdriEy)">5</text>
  <text fill="none" stroke="rgb(255,255,255)" font-family="geogebra-sans-serif, sans-serif" font-size="12px" font-style="normal" font-weight="normal" text-decoration="normal" x="440" y="355" text-anchor="start" dominant-baseline="alphabetic" stroke-opacity="1" stroke-linejoin="bevel" stroke-miterlimit="10" stroke-width="3" style="white-space: pre; font-size: 12px;" clip-path="url(#KvVqyPTdriEy)">6</text>
  <text fill="rgb(0,0,0)" stroke="none" font-family="geogebra-sans-serif, sans-serif" font-size="12px" font-style="normal" font-weight="normal" text-decoration="normal" x="440" y="355" text-anchor="start" dominant-baseline="alphabetic" fill-opacity="1" style="white-space: pre; font-size: 12px;" clip-path="url(#KvVqyPTdriEy)">6</text>
  <text fill="none" stroke="rgb(255,255,255)" font-family="geogebra-sans-serif, sans-serif" font-size="12px" font-style="normal" font-weight="normal" text-decoration="normal" x="440" y="276" text-anchor="start" dominant-baseline="alphabetic" stroke-opacity="1" stroke-linejoin="bevel" stroke-miterlimit="10" stroke-width="3" style="white-space: pre; font-size: 12px;" clip-path="url(#KvVqyPTdriEy)">7</text>
  <text fill="rgb(0,0,0)" stroke="none" font-family="geogebra-sans-serif, sans-serif" font-size="12px" font-style="normal" font-weight="normal" text-decoration="normal" x="440" y="276" text-anchor="start" dominant-baseline="alphabetic" fill-opacity="1" style="white-space: pre; font-size: 12px;" clip-path="url(#KvVqyPTdriEy)">7</text>
  <text fill="none" stroke="rgb(255,255,255)" font-family="geogebra-sans-serif, sans-serif" font-size="12px" font-style="normal" font-weight="normal" text-decoration="normal" x="440" y="197" text-anchor="start" dominant-baseline="alphabetic" stroke-opacity="1" stroke-linejoin="bevel" stroke-miterlimit="10" stroke-width="3" style="white-space: pre; font-size: 12px;" clip-path="url(#KvVqyPTdriEy)">8</text>
  <text fill="rgb(0,0,0)" stroke="none" font-family="geogebra-sans-serif, sans-serif" font-size="12px" font-style="normal" font-weight="normal" text-decoration="normal" x="440" y="197" text-anchor="start" dominant-baseline="alphabetic" fill-opacity="1" style="white-space: pre; font-size: 12px;" clip-path="url(#KvVqyPTdriEy)">8</text>
  <text fill="none" stroke="rgb(255,255,255)" font-family="geogebra-sans-serif, sans-serif" font-size="12px" font-style="normal" font-weight="normal" text-decoration="normal" x="440" y="119" text-anchor="start" dominant-baseline="alphabetic" stroke-opacity="1" stroke-linejoin="bevel" stroke-miterlimit="10" stroke-width="3" style="white-space: pre; font-size: 12px;" clip-path="url(#KvVqyPTdriEy)">9</text>
  <text fill="rgb(0,0,0)" stroke="none" font-family="geogebra-sans-serif, sans-serif" font-size="12px" font-style="normal" font-weight="normal" text-decoration="normal" x="440" y="119" text-anchor="start" dominant-baseline="alphabetic" fill-opacity="1" style="white-space: pre; font-size: 12px;" clip-path="url(#KvVqyPTdriEy)">9</text>
  <text fill="none" stroke="rgb(255,255,255)" font-family="geogebra-sans-serif, sans-serif" font-size="12px" font-style="normal" font-weight="normal" text-decoration="normal" x="433" y="40" text-anchor="start" dominant-baseline="alphabetic" stroke-opacity="1" stroke-linejoin="bevel" stroke-miterlimit="10" stroke-width="3" style="white-space: pre; font-size: 12px;" clip-path="url(#KvVqyPTdriEy)">10</text>
  <text fill="rgb(0,0,0)" stroke="none" font-family="geogebra-sans-serif, sans-serif" font-size="12px" font-style="normal" font-weight="normal" text-decoration="normal" x="433" y="40" text-anchor="start" dominant-baseline="alphabetic" fill-opacity="1" style="white-space: pre; font-size: 12px;" clip-path="url(#KvVqyPTdriEy)">10</text>
  <text fill="none" stroke="rgb(255,255,255)" font-family="geogebra-sans-serif, sans-serif" font-size="12px" font-style="normal" font-weight="normal" text-decoration="normal" x="440" y="838" text-anchor="start" dominant-baseline="alphabetic" stroke-opacity="1" stroke-linejoin="bevel" stroke-miterlimit="10" stroke-width="3" style="white-space: pre; font-size: 12px;" clip-path="url(#KvVqyPTdriEy)">0</text>
  <text fill="rgb(0,0,0)" stroke="none" font-family="geogebra-sans-serif, sans-serif" font-size="12px" font-style="normal" font-weight="normal" text-decoration="normal" x="440" y="838" text-anchor="start" dominant-baseline="alphabetic" fill-opacity="1" style="white-space: pre; font-size: 12px;" clip-path="url(#KvVqyPTdriEy)">0</text>
  <path fill="none" stroke="rgb(96,96,96)" paint-order="fill stroke markers" d="M 521.508 46.083 L 531.508 56.083" stroke-opacity="1" stroke-linecap="square" stroke-miterlimit="10" stroke-width="2.5" clip-path="url(#KvVqyPTdriEy)"/>
  <path fill="none" stroke="rgb(96,96,96)" paint-order="fill stroke markers" d="M 521.508 56.083 L 531.508 46.083" stroke-opacity="1" stroke-linecap="square" stroke-miterlimit="10" stroke-width="2.5" clip-path="url(#KvVqyPTdriEy)"/>
  <path fill="none" stroke="rgb(96,96,96)" paint-order="fill stroke markers" d="M 594.677 439.843 L 604.677 449.843" stroke-opacity="1" stroke-linecap="square" stroke-miterlimit="10" stroke-width="2.5" clip-path="url(#KvVqyPTdriEy)"/>
  <path fill="none" stroke="rgb(96,96,96)" paint-order="fill stroke markers" d="M 594.677 449.843 L 604.677 439.843" stroke-opacity="1" stroke-linecap="square" stroke-miterlimit="10" stroke-width="2.5" clip-path="url(#KvVqyPTdriEy)"/>
  <path fill="none" stroke="rgb(96,96,96)" paint-order="fill stroke markers" d="M 667.847 565.847 L 677.847 575.847" stroke-opacity="1" stroke-linecap="square" stroke-miterlimit="10" stroke-width="2.5" clip-path="url(#KvVqyPTdriEy)"/>
  <path fill="none" stroke="rgb(96,96,96)" paint-order="fill stroke markers" d="M 667.847 575.847 L 677.847 565.847" stroke-opacity="1" stroke-linecap="square" stroke-miterlimit="10" stroke-width="2.5" clip-path="url(#KvVqyPTdriEy)"/>
  <path fill="none" stroke="rgb(96,96,96)" paint-order="fill stroke markers" d="M 741.017 620.973 L 751.017 630.973" stroke-opacity="1" stroke-linecap="square" stroke-miterlimit="10" stroke-width="2.5" clip-path="url(#KvVqyPTdriEy)"/>
  <path fill="none" stroke="rgb(96,96,96)" paint-order="fill stroke markers" d="M 741.017 630.973 L 751.017 620.973" stroke-opacity="1" stroke-linecap="square" stroke-miterlimit="10" stroke-width="2.5" clip-path="url(#KvVqyPTdriEy)"/>
  <path fill="none" stroke="rgb(96,96,96)" paint-order="fill stroke markers" d="M 814.186 660.349 L 824.186 670.349" stroke-opacity="1" stroke-linecap="square" stroke-miterlimit="10" stroke-width="2.5" clip-path="url(#KvVqyPTdriEy)"/>
  <path fill="none" stroke="rgb(96,96,96)" paint-order="fill stroke markers" d="M 814.186 670.349 L 824.186 660.349" stroke-opacity="1" stroke-linecap="square" stroke-miterlimit="10" stroke-width="2.5" clip-path="url(#KvVqyPTdriEy)"/>
  <path fill="none" stroke="rgb(96,96,96)" paint-order="fill stroke markers" d="M 887.356 691.85 L 897.356 701.85" stroke-opacity="1" stroke-linecap="square" stroke-miterlimit="10" stroke-width="2.5" clip-path="url(#KvVqyPTdriEy)"/>
  <path fill="none" stroke="rgb(96,96,96)" paint-order="fill stroke markers" d="M 887.356 701.85 L 897.356 691.85" stroke-opacity="1" stroke-linecap="square" stroke-miterlimit="10" stroke-width="2.5" clip-path="url(#KvVqyPTdriEy)"/>
  <path fill="none" stroke="rgb(96,96,96)" paint-order="fill stroke markers" d="M 960.526 707.6 L 970.526 717.6" stroke-opacity="1" stroke-linecap="square" stroke-miterlimit="10" stroke-width="2.5" clip-path="url(#KvVqyPTdriEy)"/>
  <path fill="none" stroke="rgb(96,96,96)" paint-order="fill stroke markers" d="M 960.526 717.6 L 970.526 707.6" stroke-opacity="1" stroke-linecap="square" stroke-miterlimit="10" stroke-width="2.5" clip-path="url(#KvVqyPTdriEy)"/>
  <path fill="none" stroke="rgb(96,96,96)" paint-order="fill stroke markers" d="M 1033.695 715.476 L 1043.695 725.476" stroke-opacity="1" stroke-linecap="square" stroke-miterlimit="10" stroke-width="2.5" clip-path="url(#KvVqyPTdriEy)"/>
  <path fill="none" stroke="rgb(96,96,96)" paint-order="fill stroke markers" d="M 1033.695 725.476 L 1043.695 715.476" stroke-opacity="1" stroke-linecap="square" stroke-miterlimit="10" stroke-width="2.5" clip-path="url(#KvVqyPTdriEy)"/>
  <path fill="none" stroke="rgb(96,96,96)" paint-order="fill stroke markers" d="M 1106.865 731.226 L 1116.865 741.226" stroke-opacity="1" stroke-linecap="square" stroke-miterlimit="10" stroke-width="2.5" clip-path="url(#KvVqyPTdriEy)"/>
  <path fill="none" stroke="rgb(96,96,96)" paint-order="fill stroke markers" d="M 1106.865 741.226 L 1116.865 731.226" stroke-opacity="1" stroke-linecap="square" stroke-miterlimit="10" stroke-width="2.5" clip-path="url(#KvVqyPTdriEy)"/>
  <path fill="none" stroke="rgb(255,0,0)" paint-order="fill stroke markers" d="M 520.02 -8.817 L 520.02 -8.817 L 520.63 -1.39 L 520.63 -1.39 L 520.63 -1.39 L 521.24 5.905 L 521.24 5.905 L 521.851 13.07 L 522.461 20.11 L 523.071 27.028 L 523.682 33.827 L 524.292 40.51 L 524.902 47.079 L 525.513 53.539 L 526.123 59.89 L 526.733 66.137 L 527.344 72.282 L 527.954 78.327 L 528.564 84.275 L 529.175 90.127 L 529.785 95.887 L 530.396 101.557 L 531.006 107.137 L 531.616 112.632 L 532.227 118.042 L 532.837 123.37 L 533.447 128.617 L 534.058 133.786 L 534.668 138.877 L 535.889 148.836 L 537.109 158.507 L 538.33 167.902 L 539.551 177.033 L 540.771 185.911 L 541.992 194.546 L 543.213 202.949 L 544.434 211.128 L 545.654 219.093 L 546.875 226.851 L 548.096 234.411 L 549.316 241.78 L 550.537 248.965 L 551.758 255.974 L 552.979 262.812 L 554.199 269.485 L 555.42 276.001 L 556.641 282.363 L 557.861 288.579 L 559.082 294.651 L 560.303 300.586 L 561.523 306.389 L 562.744 312.063 L 563.965 317.612 L 565.186 323.041 L 566.406 328.354 L 567.627 333.555 L 568.848 338.646 L 571.289 348.515 L 573.73 357.986 L 576.172 367.084 L 578.613 375.83 L 581.055 384.245 L 583.496 392.346 L 585.938 400.151 L 588.379 407.675 L 590.82 414.935 L 593.262 421.943 L 595.703 428.713 L 598.145 435.256 L 600.586 441.584 L 603.027 447.707 L 605.469 453.635 L 607.91 459.377 L 610.352 464.942 L 612.793 470.338 L 615.234 475.572 L 617.676 480.652 L 620.117 485.584 L 625 495.031 M 625 495.031 L 629.883 503.96 L 634.766 512.411 L 639.648 520.423 L 644.531 528.028 L 649.414 535.258 L 654.297 542.139 L 659.18 548.696 L 664.063 554.952 L 668.945 560.926 L 673.828 566.638 L 678.711 572.104 L 683.594 577.34 L 688.477 582.36 L 693.359 587.177 L 698.242 591.804 L 703.125 596.251 L 708.008 600.529 L 712.891 604.648 L 717.773 608.615 L 722.656 612.44 L 727.539 616.129 L 732.422 619.691 L 737.305 623.13 L 742.188 626.455 L 747.07 629.669 L 751.953 632.78 L 756.836 635.791 L 761.719 638.707 L 766.602 641.533 L 771.484 644.273 L 776.367 646.931 L 781.25 649.511 L 786.133 652.015 L 791.016 654.447 L 795.898 656.811 L 800.781 659.108 L 805.664 661.343 L 810.547 663.517 L 815.43 665.632 L 820.313 667.692 L 825.195 669.698 L 830.078 671.653 L 834.961 673.557 L 839.844 675.415 L 844.727 677.226 L 849.609 678.992 L 854.492 680.717 L 859.375 682.4 L 864.258 684.043 L 869.141 685.648 L 874.023 687.216 L 878.906 688.748 L 883.789 690.246 L 888.672 691.71 L 893.555 693.143 L 898.438 694.544 L 903.32 695.915 L 908.203 697.256 L 913.086 698.57 L 917.969 699.856 L 922.852 701.115 L 927.734 702.349 L 932.617 703.557 L 937.5 704.742 L 942.383 705.903 L 947.266 707.042 L 952.148 708.158 L 957.031 709.252 L 961.914 710.326 L 966.797 711.38 L 971.68 712.414 L 976.563 713.429 L 981.445 714.425 L 986.328 715.403 L 991.211 716.363 L 996.094 717.306 L 1000.977 718.233 L 1005.859 719.143 L 1010.742 720.038 L 1015.625 720.917 L 1020.508 721.781 L 1025.391 722.63 L 1030.273 723.466 L 1035.156 724.287 L 1040.039 725.094 L 1044.922 725.889 L 1049.805 726.67 L 1054.688 727.439 L 1059.57 728.196 L 1064.453 728.941 L 1069.336 729.674 L 1074.219 730.395 L 1079.102 731.105 L 1083.984 731.805 L 1088.867 732.494 L 1093.75 733.172 L 1098.633 733.84 L 1103.516 734.498 L 1108.398 735.147 L 1113.281 735.786 L 1118.164 736.415 L 1123.047 737.036 L 1127.93 737.647 L 1132.813 738.25 L 1137.695 738.844 L 1142.578 739.43 L 1147.461 740.008 L 1152.344 740.578 L 1157.227 741.14 L 1162.109 741.694 L 1166.992 742.241 L 1171.875 742.78 L 1176.758 743.312 L 1181.641 743.837 L 1186.523 744.356 L 1191.406 744.867 L 1196.289 745.371 L 1201.172 745.87 L 1206.055 746.361 L 1210.938 746.847 L 1215.82 747.326 L 1220.703 747.799 L 1225.586 748.266 L 1230.469 748.728 L 1235.352 749.183 L 1240.234 749.633 L 1245.117 750.078 L 1245.117 750.078 L 1250 750.517 L 1250 750.517" stroke-opacity="0.6980392156862745" stroke-linecap="round" stroke-linejoin="round" stroke-miterlimit="10" stroke-width="2.5" clip-path="url(#KvVqyPTdriEy)"/>
  <text fill="rgb(0,0,0)" stroke="none" font-family="geogebra-sans-serif, sans-serif" font-size="16px" font-style="normal" font-weight="normal" text-decoration="normal" x="463.988" y="15.227" text-anchor="start" dominant-baseline="alphabetic" fill-opacity="1" style="white-space: pre; font-size: 16px;" clip-path="url(#vlXTcZCysQKk)">y</text>
  <text fill="rgb(0,0,0)" stroke="none" font-family="geogebra-sans-serif, sans-serif" font-size="16px" font-style="normal" font-weight="normal" text-decoration="normal" x="777" y="762" text-anchor="start" dominant-baseline="alphabetic" fill-opacity="1" style="white-space: pre; font-size: 16px;" clip-path="url(#clip-1)" transform="matrix(1, 0, 0, 1, 454.230194, 51.089287)">x</text>
</svg>