<?xml version="1.0" encoding="utf-8"?>
<svg viewBox="166.027 -11.898 788.63 805.841" width="788.63" height="805.841" xmlns="http://www.w3.org/2000/svg">
  <defs>
    <clipPath id="dRgJATQQkBJv">
      <path fill="none" stroke="none" d=" M 0 0 L 945 0 L 945 921 L 0 921 L 0 0 Z"/>
    </clipPath>
  </defs>
  <path fill="none" stroke="rgb(192,192,192)" paint-order="fill stroke markers" d="M 14.5 0.5 L 14.5 921.5 M 14.5 0.5 L 14.5 921.5 M 79.5 0.5 L 79.5 921.5 M 144.5 0.5 L 144.5 921.5 M 274.5 0.5 L 274.5 921.5 M 339.5 0.5 L 339.5 921.5 M 404.5 0.5 L 404.5 921.5 M 469.5 0.5 L 469.5 921.5 M 534.5 0.5 L 534.5 921.5 M 599.5 0.5 L 599.5 921.5 M 664.5 0.5 L 664.5 921.5 M 729.5 0.5 L 729.5 921.5 M 794.5 0.5 L 794.5 921.5 M 859.5 0.5 L 859.5 921.5 M 924.5 0.5 L 924.5 921.5" stroke-opacity="1" stroke-linejoin="round" stroke-miterlimit="10" stroke-dasharray="5,4" clip-path="url(#dRgJATQQkBJv)"/>
  <path fill="none" stroke="rgb(192,192,192)" paint-order="fill stroke markers" d="M 0.5 22.5 L 945.5 22.5 M 0.5 22.5 L 945.5 22.5 M 0.5 103.5 L 945.5 103.5 M 0.5 184.5 L 945.5 184.5 M 0.5 265.5 L 945.5 265.5 M 0.5 347.5 L 945.5 347.5 M 0.5 428.5 L 945.5 428.5 M 0.5 509.5 L 945.5 509.5 M 0.5 590.5 L 945.5 590.5 M 0.5 672.5 L 945.5 672.5 M 0.5 834.5 L 945.5 834.5 M 0.5 915.5 L 945.5 915.5" stroke-opacity="1" stroke-linejoin="round" stroke-miterlimit="10" stroke-dasharray="5,4" clip-path="url(#dRgJATQQkBJv)"/>
  <path fill="none" stroke="rgb(0,0,0)" paint-order="fill stroke markers" d="M 209.5 2.5 L 209.5 921.5" stroke-opacity="1" stroke-miterlimit="10" clip-path="url(#dRgJATQQkBJv)"/>
  <path fill="rgb(0,0,0)" stroke="none" paint-order="stroke fill markers" fill-rule="evenodd" d="M 209.597 1 L 205.597 17 L 213.597 17" fill-opacity="1" clip-path="url(#dRgJATQQkBJv)"/>
  <text fill="rgb(0,0,0)" stroke="none" font-family="geogebra-sans-serif, sans-serif" font-size="16px" font-style="normal" font-weight="normal" text-decoration="normal" x="927" y="749" text-anchor="start" dominant-baseline="alphabetic" fill-opacity="1" style="white-space: pre; font-size: 16px;" clip-path="url(#dRgJATQQkBJv)">x</text>
  <path fill="none" stroke="rgb(0,0,0)" paint-order="fill stroke markers" d="M 0.5 753.5 L 943.5 753.5" stroke-opacity="1" stroke-miterlimit="10" clip-path="url(#dRgJATQQkBJv)"/>
  <path fill="rgb(0,0,0)" stroke="none" paint-order="stroke fill markers" fill-rule="evenodd" d="M 944 753.395 L 928 749.395 L 928 757.395" fill-opacity="1" clip-path="url(#dRgJATQQkBJv)"/>
  <text fill="rgb(0,0,0)" stroke="none" font-family="geogebra-sans-serif, sans-serif" font-size="12px" font-style="normal" font-weight="normal" text-decoration="normal" x="272" y="769" text-anchor="start" dominant-baseline="alphabetic" fill-opacity="1" style="white-space: pre; font-size: 12px;" clip-path="url(#dRgJATQQkBJv)">1</text>
  <text fill="rgb(0,0,0)" stroke="none" font-family="geogebra-sans-serif, sans-serif" font-size="12px" font-style="normal" font-weight="normal" text-decoration="normal" x="337" y="769" text-anchor="start" dominant-baseline="alphabetic" fill-opacity="1" style="white-space: pre; font-size: 12px;" clip-path="url(#dRgJATQQkBJv)">2</text>
  <text fill="rgb(0,0,0)" stroke="none" font-family="geogebra-sans-serif, sans-serif" font-size="12px" font-style="normal" font-weight="normal" text-decoration="normal" x="402" y="769" text-anchor="start" dominant-baseline="alphabetic" fill-opacity="1" style="white-space: pre; font-size: 12px;" clip-path="url(#dRgJATQQkBJv)">3</text>
  <text fill="rgb(0,0,0)" stroke="none" font-family="geogebra-sans-serif, sans-serif" font-size="12px" font-style="normal" font-weight="normal" text-decoration="normal" x="467" y="769" text-anchor="start" dominant-baseline="alphabetic" fill-opacity="1" style="white-space: pre; font-size: 12px;" clip-path="url(#dRgJATQQkBJv)">4</text>
  <text fill="rgb(0,0,0)" stroke="none" font-family="geogebra-sans-serif, sans-serif" font-size="12px" font-style="normal" font-weight="normal" text-decoration="normal" x="532" y="769" text-anchor="start" dominant-baseline="alphabetic" fill-opacity="1" style="white-space: pre; font-size: 12px;" clip-path="url(#dRgJATQQkBJv)">5</text>
  <text fill="rgb(0,0,0)" stroke="none" font-family="geogebra-sans-serif, sans-serif" font-size="12px" font-style="normal" font-weight="normal" text-decoration="normal" x="597" y="769" text-anchor="start" dominant-baseline="alphabetic" fill-opacity="1" style="white-space: pre; font-size: 12px;" clip-path="url(#dRgJATQQkBJv)">6</text>
  <text fill="rgb(0,0,0)" stroke="none" font-family="geogebra-sans-serif, sans-serif" font-size="12px" font-style="normal" font-weight="normal" text-decoration="normal" x="662" y="769" text-anchor="start" dominant-baseline="alphabetic" fill-opacity="1" style="white-space: pre; font-size: 12px;" clip-path="url(#dRgJATQQkBJv)">7</text>
  <text fill="rgb(0,0,0)" stroke="none" font-family="geogebra-sans-serif, sans-serif" font-size="12px" font-style="normal" font-weight="normal" text-decoration="normal" x="727" y="769" text-anchor="start" dominant-baseline="alphabetic" fill-opacity="1" style="white-space: pre; font-size: 12px;" clip-path="url(#dRgJATQQkBJv)">8</text>
  <text fill="rgb(0,0,0)" stroke="none" font-family="geogebra-sans-serif, sans-serif" font-size="12px" font-style="normal" font-weight="normal" text-decoration="normal" x="792" y="769" text-anchor="start" dominant-baseline="alphabetic" fill-opacity="1" style="white-space: pre; font-size: 12px;" clip-path="url(#dRgJATQQkBJv)">9</text>
  <text fill="rgb(0,0,0)" stroke="none" font-family="geogebra-sans-serif, sans-serif" font-size="12px" font-style="normal" font-weight="normal" text-decoration="normal" x="854" y="769" text-anchor="start" dominant-baseline="alphabetic" fill-opacity="1" style="white-space: pre; font-size: 12px;" clip-path="url(#dRgJATQQkBJv)">10</text>
  <text fill="rgb(0,0,0)" stroke="none" font-family="geogebra-sans-serif, sans-serif" font-size="12px" font-style="normal" font-weight="normal" text-decoration="normal" x="919" y="769" text-anchor="start" dominant-baseline="alphabetic" fill-opacity="1" style="white-space: pre; font-size: 12px;" clip-path="url(#dRgJATQQkBJv)">11</text>
  <text fill="rgb(0,0,0)" stroke="none" font-family="geogebra-sans-serif, sans-serif" font-size="16px" font-style="normal" font-weight="normal" text-decoration="normal" x="214" y="17" text-anchor="start" dominant-baseline="alphabetic" fill-opacity="1" style="white-space: pre; font-size: 16px;" clip-path="url(#dRgJATQQkBJv)">y</text>
  <text fill="rgb(0,0,0)" stroke="none" font-family="geogebra-sans-serif, sans-serif" font-size="12px" font-style="normal" font-weight="normal" text-decoration="normal" x="196" y="677" text-anchor="start" dominant-baseline="alphabetic" fill-opacity="1" style="white-space: pre; font-size: 12px;" clip-path="url(#dRgJATQQkBJv)">5</text>
  <text fill="rgb(0,0,0)" stroke="none" font-family="geogebra-sans-serif, sans-serif" font-size="12px" font-style="normal" font-weight="normal" text-decoration="normal" x="189" y="595" text-anchor="start" dominant-baseline="alphabetic" fill-opacity="1" style="white-space: pre; font-size: 12px;" clip-path="url(#dRgJATQQkBJv)">10</text>
  <text fill="rgb(0,0,0)" stroke="none" font-family="geogebra-sans-serif, sans-serif" font-size="12px" font-style="normal" font-weight="normal" text-decoration="normal" x="189" y="514" text-anchor="start" dominant-baseline="alphabetic" fill-opacity="1" style="white-space: pre; font-size: 12px;" clip-path="url(#dRgJATQQkBJv)">15</text>
  <text fill="rgb(0,0,0)" stroke="none" font-family="geogebra-sans-serif, sans-serif" font-size="12px" font-style="normal" font-weight="normal" text-decoration="normal" x="189" y="433" text-anchor="start" dominant-baseline="alphabetic" fill-opacity="1" style="white-space: pre; font-size: 12px;" clip-path="url(#dRgJATQQkBJv)">20</text>
  <text fill="rgb(0,0,0)" stroke="none" font-family="geogebra-sans-serif, sans-serif" font-size="12px" font-style="normal" font-weight="normal" text-decoration="normal" x="189" y="352" text-anchor="start" dominant-baseline="alphabetic" fill-opacity="1" style="white-space: pre; font-size: 12px;" clip-path="url(#dRgJATQQkBJv)">25</text>
  <text fill="rgb(0,0,0)" stroke="none" font-family="geogebra-sans-serif, sans-serif" font-size="12px" font-style="normal" font-weight="normal" text-decoration="normal" x="189" y="270" text-anchor="start" dominant-baseline="alphabetic" fill-opacity="1" style="white-space: pre; font-size: 12px;" clip-path="url(#dRgJATQQkBJv)">30</text>
  <text fill="rgb(0,0,0)" stroke="none" font-family="geogebra-sans-serif, sans-serif" font-size="12px" font-style="normal" font-weight="normal" text-decoration="normal" x="189" y="189" text-anchor="start" dominant-baseline="alphabetic" fill-opacity="1" style="white-space: pre; font-size: 12px;" clip-path="url(#dRgJATQQkBJv)">35</text>
  <text fill="rgb(0,0,0)" stroke="none" font-family="geogebra-sans-serif, sans-serif" font-size="12px" font-style="normal" font-weight="normal" text-decoration="normal" x="189" y="108" text-anchor="start" dominant-baseline="alphabetic" fill-opacity="1" style="white-space: pre; font-size: 12px;" clip-path="url(#dRgJATQQkBJv)">40</text>
  <text fill="rgb(0,0,0)" stroke="none" font-family="geogebra-sans-serif, sans-serif" font-size="12px" font-style="normal" font-weight="normal" text-decoration="normal" x="189" y="27" text-anchor="start" dominant-baseline="alphabetic" fill-opacity="1" style="white-space: pre; font-size: 12px;" clip-path="url(#dRgJATQQkBJv)">45</text>
  <text fill="rgb(0,0,0)" stroke="none" font-family="geogebra-sans-serif, sans-serif" font-size="12px" font-style="normal" font-weight="normal" text-decoration="normal" x="196" y="769" text-anchor="start" dominant-baseline="alphabetic" fill-opacity="1" style="white-space: pre; font-size: 12px;" clip-path="url(#dRgJATQQkBJv)">0</text>
  <path fill="none" stroke="rgb(96,96,96)" paint-order="fill stroke markers" d="M 204.597 715.901 L 214.597 725.901" stroke-opacity="1" stroke-linecap="square" stroke-miterlimit="10" stroke-width="2.5" clip-path="url(#dRgJATQQkBJv)"/>
  <path fill="none" stroke="rgb(96,96,96)" paint-order="fill stroke markers" d="M 204.597 725.901 L 214.597 715.901" stroke-opacity="1" stroke-linecap="square" stroke-miterlimit="10" stroke-width="2.5" clip-path="url(#dRgJATQQkBJv)"/>
  <path fill="none" stroke="rgb(96,96,96)" paint-order="fill stroke markers" d="M 269.585 702.904 L 279.585 712.904" stroke-opacity="1" stroke-linecap="square" stroke-miterlimit="10" stroke-width="2.5" clip-path="url(#dRgJATQQkBJv)"/>
  <path fill="none" stroke="rgb(96,96,96)" paint-order="fill stroke markers" d="M 269.585 712.904 L 279.585 702.904" stroke-opacity="1" stroke-linecap="square" stroke-miterlimit="10" stroke-width="2.5" clip-path="url(#dRgJATQQkBJv)"/>
  <path fill="none" stroke="rgb(96,96,96)" paint-order="fill stroke markers" d="M 334.573 685.032 L 344.573 695.032" stroke-opacity="1" stroke-linecap="square" stroke-miterlimit="10" stroke-width="2.5" clip-path="url(#dRgJATQQkBJv)"/>
  <path fill="none" stroke="rgb(96,96,96)" paint-order="fill stroke markers" d="M 334.573 695.032 L 344.573 685.032" stroke-opacity="1" stroke-linecap="square" stroke-miterlimit="10" stroke-width="2.5" clip-path="url(#dRgJATQQkBJv)"/>
  <path fill="none" stroke="rgb(96,96,96)" paint-order="fill stroke markers" d="M 399.56 659.037 L 409.56 669.037" stroke-opacity="1" stroke-linecap="square" stroke-miterlimit="10" stroke-width="2.5" clip-path="url(#dRgJATQQkBJv)"/>
  <path fill="none" stroke="rgb(96,96,96)" paint-order="fill stroke markers" d="M 399.56 669.037 L 409.56 659.037" stroke-opacity="1" stroke-linecap="square" stroke-miterlimit="10" stroke-width="2.5" clip-path="url(#dRgJATQQkBJv)"/>
  <path fill="none" stroke="rgb(96,96,96)" paint-order="fill stroke markers" d="M 464.548 623.294 L 474.548 633.294" stroke-opacity="1" stroke-linecap="square" stroke-miterlimit="10" stroke-width="2.5" clip-path="url(#dRgJATQQkBJv)"/>
  <path fill="none" stroke="rgb(96,96,96)" paint-order="fill stroke markers" d="M 464.548 633.294 L 474.548 623.294" stroke-opacity="1" stroke-linecap="square" stroke-miterlimit="10" stroke-width="2.5" clip-path="url(#dRgJATQQkBJv)"/>
  <path fill="none" stroke="rgb(96,96,96)" paint-order="fill stroke markers" d="M 529.536 574.553 L 539.536 584.553" stroke-opacity="1" stroke-linecap="square" stroke-miterlimit="10" stroke-width="2.5" clip-path="url(#dRgJATQQkBJv)"/>
  <path fill="none" stroke="rgb(96,96,96)" paint-order="fill stroke markers" d="M 529.536 584.553 L 539.536 574.553" stroke-opacity="1" stroke-linecap="square" stroke-miterlimit="10" stroke-width="2.5" clip-path="url(#dRgJATQQkBJv)"/>
  <path fill="none" stroke="rgb(96,96,96)" paint-order="fill stroke markers" d="M 594.523 504.691 L 604.523 514.691" stroke-opacity="1" stroke-linecap="square" stroke-miterlimit="10" stroke-width="2.5" clip-path="url(#dRgJATQQkBJv)"/>
  <path fill="none" stroke="rgb(96,96,96)" paint-order="fill stroke markers" d="M 594.523 514.691 L 604.523 504.691" stroke-opacity="1" stroke-linecap="square" stroke-miterlimit="10" stroke-width="2.5" clip-path="url(#dRgJATQQkBJv)"/>
  <path fill="none" stroke="rgb(96,96,96)" paint-order="fill stroke markers" d="M 659.511 405.585 L 669.511 415.585" stroke-opacity="1" stroke-linecap="square" stroke-miterlimit="10" stroke-width="2.5" clip-path="url(#dRgJATQQkBJv)"/>
  <path fill="none" stroke="rgb(96,96,96)" paint-order="fill stroke markers" d="M 659.511 415.585 L 669.511 405.585" stroke-opacity="1" stroke-linecap="square" stroke-miterlimit="10" stroke-width="2.5" clip-path="url(#dRgJATQQkBJv)"/>
  <path fill="none" stroke="rgb(96,96,96)" paint-order="fill stroke markers" d="M 724.499 269.111 L 734.499 279.111" stroke-opacity="1" stroke-linecap="square" stroke-miterlimit="10" stroke-width="2.5" clip-path="url(#dRgJATQQkBJv)"/>
  <path fill="none" stroke="rgb(96,96,96)" paint-order="fill stroke markers" d="M 724.499 279.111 L 734.499 269.111" stroke-opacity="1" stroke-linecap="square" stroke-miterlimit="10" stroke-width="2.5" clip-path="url(#dRgJATQQkBJv)"/>
  <path fill="none" stroke="rgb(96,96,96)" paint-order="fill stroke markers" d="M 789.486 77.398 L 799.486 87.398" stroke-opacity="1" stroke-linecap="square" stroke-miterlimit="10" stroke-width="2.5" clip-path="url(#dRgJATQQkBJv)"/>
  <path fill="none" stroke="rgb(96,96,96)" paint-order="fill stroke markers" d="M 789.486 87.398 L 799.486 77.398" stroke-opacity="1" stroke-linecap="square" stroke-miterlimit="10" stroke-width="2.5" clip-path="url(#dRgJATQQkBJv)"/>
  <path fill="none" stroke="rgb(255,0,0)" paint-order="fill stroke markers" d="M 0 742.426 L 3.691 742.215 L 7.383 741.999 L 11.074 741.779 L 14.766 741.555 L 18.457 741.326 L 22.148 741.094 L 25.84 740.856 L 29.531 740.614 L 33.223 740.368 L 36.914 740.116 L 40.605 739.86 L 44.297 739.599 L 47.988 739.333 L 51.68 739.061 L 55.371 738.785 L 59.063 738.503 L 62.754 738.216 L 66.445 737.923 L 70.137 737.624 L 73.828 737.32 L 77.52 737.01 L 81.211 736.694 L 84.902 736.371 L 88.594 736.043 L 92.285 735.708 L 95.977 735.367 L 99.668 735.019 L 103.359 734.664 L 107.051 734.303 L 110.742 733.935 L 114.434 733.559 L 118.125 733.177 L 121.816 732.786 L 125.508 732.389 L 129.199 731.983 L 132.891 731.57 L 136.582 731.149 L 140.273 730.72 L 143.965 730.283 L 147.656 729.837 L 151.348 729.382 L 155.039 728.919 L 158.73 728.446 L 162.422 727.965 L 166.113 727.474 L 169.805 726.974 L 173.496 726.465 L 177.188 725.945 L 180.879 725.415 L 184.57 724.875 L 188.262 724.325 L 191.953 723.764 L 195.645 723.193 L 199.336 722.61 L 203.027 722.016 L 206.719 721.41 L 210.41 720.793 L 214.102 720.164 L 217.793 719.523 L 221.484 718.87 L 225.176 718.203 L 228.867 717.524 L 232.559 716.832 L 236.25 716.127 L 239.941 715.408 L 243.633 714.675 L 247.324 713.928 L 251.016 713.166 L 254.707 712.39 L 258.398 711.599 L 262.09 710.793 L 265.781 709.971 L 269.473 709.133 L 273.164 708.279 L 276.855 707.408 L 280.547 706.521 L 284.238 705.617 L 287.93 704.695 L 291.621 703.755 L 295.313 702.797 L 299.004 701.821 L 302.695 700.826 L 306.387 699.812 L 310.078 698.778 L 313.77 697.724 L 317.461 696.65 L 321.152 695.555 L 324.844 694.439 L 328.535 693.301 L 332.227 692.142 L 335.918 690.96 L 339.609 689.755 L 343.301 688.528 L 346.992 687.276 L 350.684 686 L 354.375 684.7 L 358.066 683.375 L 361.758 682.024 L 365.449 680.646 L 369.141 679.243 L 372.832 677.812 L 376.523 676.354 L 380.215 674.867 L 383.906 673.352 L 387.598 671.808 L 391.289 670.234 L 394.98 668.629 L 398.672 666.994 L 402.363 665.327 L 406.055 663.627 L 409.746 661.895 L 413.438 660.13 L 417.129 658.33 L 420.82 656.496 L 424.512 654.627 L 428.203 652.721 L 431.895 650.778 L 435.586 648.799 L 439.277 646.78 L 442.969 644.723 L 446.66 642.627 L 450.352 640.489 L 454.043 638.311 L 457.734 636.09 L 461.426 633.827 L 465.117 631.52 L 468.809 629.169 L 472.5 626.772 L 476.191 624.329 L 479.883 621.838 L 483.574 619.3 L 487.266 616.713 L 490.957 614.076 L 494.648 611.388 L 498.34 608.648 L 502.031 605.855 L 505.723 603.008 L 509.414 600.107 L 513.105 597.149 L 516.797 594.134 L 520.488 591.061 L 524.18 587.929 L 527.871 584.737 L 531.563 581.483 L 535.254 578.166 L 538.945 574.785 L 542.637 571.339 L 546.328 567.826 L 550.02 564.245 L 553.711 560.596 L 557.402 556.876 L 561.094 553.084 L 564.785 549.219 L 568.477 545.28 L 572.168 541.265 L 575.859 537.172 L 579.551 533 L 583.242 528.747 L 586.934 524.413 L 590.625 519.995 L 594.316 515.492 L 598.008 510.901 L 601.699 506.223 L 605.391 501.454 L 609.082 496.593 L 612.773 491.638 L 616.465 486.587 L 620.156 481.439 L 623.848 476.192 L 627.539 470.844 L 631.23 465.392 L 634.922 459.835 L 638.613 454.171 L 642.305 448.398 L 645.996 442.513 L 649.688 436.515 L 653.379 430.401 L 657.07 424.169 L 660.762 417.817 L 664.453 411.342 L 668.145 404.742 L 671.836 398.015 L 675.527 391.158 L 679.219 384.169 L 682.91 377.045 L 686.602 369.784 L 690.293 362.382 L 693.984 354.838 L 697.676 347.148 L 701.367 339.31 L 705.059 331.32 L 708.75 323.177 L 712.441 314.876 L 716.133 306.415 L 719.824 297.791 L 723.516 289 L 727.207 280.04 L 730.898 270.907 L 734.59 261.598 L 738.281 252.109 L 741.973 242.437 L 745.664 232.578 L 747.51 227.578 L 749.355 222.529 L 751.201 217.432 L 753.047 212.287 L 754.893 207.091 L 756.738 201.846 L 758.584 196.551 L 760.43 191.205 L 762.275 185.807 L 764.121 180.357 L 765.967 174.856 L 767.813 169.301 L 769.658 163.693 L 771.504 158.031 L 773.35 152.315 L 775.195 146.544 L 777.041 140.718 L 778.887 134.835 L 780.732 128.897 L 782.578 122.901 L 784.424 116.847 L 786.27 110.736 L 788.115 104.565 L 789.961 98.336 L 791.807 92.047 L 793.652 85.697 L 795.498 79.286 L 797.344 72.814 L 799.189 66.28 L 801.035 59.683 L 802.881 53.023 L 804.727 46.298 L 806.572 39.509 L 808.418 32.655 L 810.264 25.735 L 812.109 18.749 L 813.955 11.696 L 815.801 4.574 L 817.646 -2.615 L 819.492 -9.874" stroke-opacity="0.6980392156862745" stroke-linecap="round" stroke-linejoin="round" stroke-miterlimit="10" stroke-width="2.5" clip-path="url(#dRgJATQQkBJv)"/>
</svg>