<?xml version="1.0" encoding="utf-8"?>
<svg viewBox="246.383 -4.454 691.689 804.783" width="691.689" height="804.783" xmlns="http://www.w3.org/2000/svg">
  <defs>
    <clipPath id="FITrwXIqxDXB">
      <path fill="none" stroke="none" d=" M 0 0 L 927 0 L 927 921 L 0 921 L 0 0 Z"/>
    </clipPath>
    <clipPath id="clip-1">
      <path fill="none" stroke="none" d=" M 0 0 L 795 0 L 795 921 L 0 921 L 0 0 Z"/>
    </clipPath>
    <clipPath id="vlXTcZCysQKk">
      <path fill="none" stroke="none" d="M 175.984 -1.781 L 970.984 -1.781 L 970.984 919.219 L 175.984 919.219 L 175.984 -1.781 Z"/>
    </clipPath>
  </defs>
  <path fill="none" stroke="rgb(192,192,192)" paint-order="fill stroke markers" d="M 2.5 0.5 L 2.5 921.5 M 2.5 0.5 L 2.5 921.5 M 96.5 0.5 L 96.5 921.5 M 190.5 0.5 L 190.5 921.5 M 378.5 0.5 L 378.5 921.5 M 472.5 0.5 L 472.5 921.5 M 567.5 0.5 L 567.5 921.5 M 661.5 0.5 L 661.5 921.5 M 755.5 0.5 L 755.5 921.5 M 849.5 0.5 L 849.5 921.5" stroke-opacity="1" stroke-linejoin="round" stroke-miterlimit="10" stroke-dasharray="5,4" clip-path="url(#FITrwXIqxDXB)"/>
  <path fill="none" stroke="rgb(192,192,192)" paint-order="fill stroke markers" d="M 0.5 49.5 L 927.5 49.5 M 0.5 49.5 L 927.5 49.5 M 0.5 113.5 L 927.5 113.5 M 0.5 178.5 L 927.5 178.5 M 0.5 243.5 L 927.5 243.5 M 0.5 307.5 L 927.5 307.5 M 0.5 372.5 L 927.5 372.5 M 0.5 437.5 L 927.5 437.5 M 0.5 501.5 L 927.5 501.5 M 0.5 566.5 L 927.5 566.5 M 0.5 631.5 L 927.5 631.5 M 0.5 695.5 L 927.5 695.5 M 0.5 825.5 L 927.5 825.5 M 0.5 889.5 L 927.5 889.5" stroke-opacity="1" stroke-linejoin="round" stroke-miterlimit="10" stroke-dasharray="5,4" clip-path="url(#FITrwXIqxDXB)"/>
  <path fill="none" stroke="rgb(0,0,0)" paint-order="fill stroke markers" d="M 284.5 2.5 L 284.5 921.5" stroke-opacity="1" stroke-miterlimit="10" clip-path="url(#FITrwXIqxDXB)"/>
  <path fill="rgb(0,0,0)" stroke="none" paint-order="stroke fill markers" fill-rule="evenodd" d="M 284.814 1 L 280.814 17 L 288.814 17" fill-opacity="1" clip-path="url(#FITrwXIqxDXB)"/>
  <path fill="none" stroke="rgb(0,0,0)" paint-order="fill stroke markers" d="M 0.5 760.5 L 925.5 760.5" stroke-opacity="1" stroke-miterlimit="10" clip-path="url(#FITrwXIqxDXB)"/>
  <path fill="rgb(0,0,0)" stroke="none" paint-order="stroke fill markers" fill-rule="evenodd" d="M 926 760.431 L 910 756.431 L 910 764.431" fill-opacity="1" clip-path="url(#FITrwXIqxDXB)"/>
  <text fill="none" stroke="rgb(255,255,255)" font-family="geogebra-sans-serif, sans-serif" font-size="12px" font-style="normal" font-weight="normal" text-decoration="normal" x="370" y="776" text-anchor="start" dominant-baseline="alphabetic" stroke-opacity="1" stroke-linejoin="bevel" stroke-miterlimit="10" stroke-width="3" style="white-space: pre; font-size: 12px;" clip-path="url(#FITrwXIqxDXB)">200</text>
  <text fill="rgb(0,0,0)" stroke="none" font-family="geogebra-sans-serif, sans-serif" font-size="12px" font-style="normal" font-weight="normal" text-decoration="normal" x="370" y="776" text-anchor="start" dominant-baseline="alphabetic" fill-opacity="1" style="white-space: pre; font-size: 12px;" clip-path="url(#FITrwXIqxDXB)">200</text>
  <text fill="none" stroke="rgb(255,255,255)" font-family="geogebra-sans-serif, sans-serif" font-size="12px" font-style="normal" font-weight="normal" text-decoration="normal" x="464" y="776" text-anchor="start" dominant-baseline="alphabetic" stroke-opacity="1" stroke-linejoin="bevel" stroke-miterlimit="10" stroke-width="3" style="white-space: pre; font-size: 12px;" clip-path="url(#FITrwXIqxDXB)">400</text>
  <text fill="rgb(0,0,0)" stroke="none" font-family="geogebra-sans-serif, sans-serif" font-size="12px" font-style="normal" font-weight="normal" text-decoration="normal" x="464" y="776" text-anchor="start" dominant-baseline="alphabetic" fill-opacity="1" style="white-space: pre; font-size: 12px;" clip-path="url(#FITrwXIqxDXB)">400</text>
  <text fill="none" stroke="rgb(255,255,255)" font-family="geogebra-sans-serif, sans-serif" font-size="12px" font-style="normal" font-weight="normal" text-decoration="normal" x="559" y="776" text-anchor="start" dominant-baseline="alphabetic" stroke-opacity="1" stroke-linejoin="bevel" stroke-miterlimit="10" stroke-width="3" style="white-space: pre; font-size: 12px;" clip-path="url(#FITrwXIqxDXB)">600</text>
  <text fill="rgb(0,0,0)" stroke="none" font-family="geogebra-sans-serif, sans-serif" font-size="12px" font-style="normal" font-weight="normal" text-decoration="normal" x="559" y="776" text-anchor="start" dominant-baseline="alphabetic" fill-opacity="1" style="white-space: pre; font-size: 12px;" clip-path="url(#FITrwXIqxDXB)">600</text>
  <text fill="none" stroke="rgb(255,255,255)" font-family="geogebra-sans-serif, sans-serif" font-size="12px" font-style="normal" font-weight="normal" text-decoration="normal" x="653" y="776" text-anchor="start" dominant-baseline="alphabetic" stroke-opacity="1" stroke-linejoin="bevel" stroke-miterlimit="10" stroke-width="3" style="white-space: pre; font-size: 12px;" clip-path="url(#FITrwXIqxDXB)">800</text>
  <text fill="rgb(0,0,0)" stroke="none" font-family="geogebra-sans-serif, sans-serif" font-size="12px" font-style="normal" font-weight="normal" text-decoration="normal" x="653" y="776" text-anchor="start" dominant-baseline="alphabetic" fill-opacity="1" style="white-space: pre; font-size: 12px;" clip-path="url(#FITrwXIqxDXB)">800</text>
  <text fill="none" stroke="rgb(255,255,255)" font-family="geogebra-sans-serif, sans-serif" font-size="12px" font-style="normal" font-weight="normal" text-decoration="normal" x="744" y="776" text-anchor="start" dominant-baseline="alphabetic" stroke-opacity="1" stroke-linejoin="bevel" stroke-miterlimit="10" stroke-width="3" style="white-space: pre; font-size: 12px;" clip-path="url(#FITrwXIqxDXB)">1000</text>
  <text fill="rgb(0,0,0)" stroke="none" font-family="geogebra-sans-serif, sans-serif" font-size="12px" font-style="normal" font-weight="normal" text-decoration="normal" x="744" y="776" text-anchor="start" dominant-baseline="alphabetic" fill-opacity="1" style="white-space: pre; font-size: 12px;" clip-path="url(#FITrwXIqxDXB)">1000</text>
  <text fill="none" stroke="rgb(255,255,255)" font-family="geogebra-sans-serif, sans-serif" font-size="12px" font-style="normal" font-weight="normal" text-decoration="normal" x="838" y="776" text-anchor="start" dominant-baseline="alphabetic" stroke-opacity="1" stroke-linejoin="bevel" stroke-miterlimit="10" stroke-width="3" style="white-space: pre; font-size: 12px;" clip-path="url(#FITrwXIqxDXB)">1200</text>
  <text fill="rgb(0,0,0)" stroke="none" font-family="geogebra-sans-serif, sans-serif" font-size="12px" font-style="normal" font-weight="normal" text-decoration="normal" x="838" y="776" text-anchor="start" dominant-baseline="alphabetic" fill-opacity="1" style="white-space: pre; font-size: 12px;" clip-path="url(#FITrwXIqxDXB)">1200</text>
  <text fill="none" stroke="rgb(255,255,255)" font-family="geogebra-sans-serif, sans-serif" font-size="12px" font-style="normal" font-weight="normal" text-decoration="normal" x="257" y="700" text-anchor="start" dominant-baseline="alphabetic" stroke-opacity="1" stroke-linejoin="bevel" stroke-miterlimit="10" stroke-width="3" style="white-space: pre; font-size: 12px;" clip-path="url(#FITrwXIqxDXB)">100</text>
  <text fill="rgb(0,0,0)" stroke="none" font-family="geogebra-sans-serif, sans-serif" font-size="12px" font-style="normal" font-weight="normal" text-decoration="normal" x="257" y="700" text-anchor="start" dominant-baseline="alphabetic" fill-opacity="1" style="white-space: pre; font-size: 12px;" clip-path="url(#FITrwXIqxDXB)">100</text>
  <text fill="none" stroke="rgb(255,255,255)" font-family="geogebra-sans-serif, sans-serif" font-size="12px" font-style="normal" font-weight="normal" text-decoration="normal" x="257" y="636" text-anchor="start" dominant-baseline="alphabetic" stroke-opacity="1" stroke-linejoin="bevel" stroke-miterlimit="10" stroke-width="3" style="white-space: pre; font-size: 12px;" clip-path="url(#FITrwXIqxDXB)">200</text>
  <text fill="rgb(0,0,0)" stroke="none" font-family="geogebra-sans-serif, sans-serif" font-size="12px" font-style="normal" font-weight="normal" text-decoration="normal" x="257" y="636" text-anchor="start" dominant-baseline="alphabetic" fill-opacity="1" style="white-space: pre; font-size: 12px;" clip-path="url(#FITrwXIqxDXB)">200</text>
  <text fill="none" stroke="rgb(255,255,255)" font-family="geogebra-sans-serif, sans-serif" font-size="12px" font-style="normal" font-weight="normal" text-decoration="normal" x="257" y="571" text-anchor="start" dominant-baseline="alphabetic" stroke-opacity="1" stroke-linejoin="bevel" stroke-miterlimit="10" stroke-width="3" style="white-space: pre; font-size: 12px;" clip-path="url(#FITrwXIqxDXB)">300</text>
  <text fill="rgb(0,0,0)" stroke="none" font-family="geogebra-sans-serif, sans-serif" font-size="12px" font-style="normal" font-weight="normal" text-decoration="normal" x="257" y="571" text-anchor="start" dominant-baseline="alphabetic" fill-opacity="1" style="white-space: pre; font-size: 12px;" clip-path="url(#FITrwXIqxDXB)">300</text>
  <text fill="none" stroke="rgb(255,255,255)" font-family="geogebra-sans-serif, sans-serif" font-size="12px" font-style="normal" font-weight="normal" text-decoration="normal" x="257" y="506" text-anchor="start" dominant-baseline="alphabetic" stroke-opacity="1" stroke-linejoin="bevel" stroke-miterlimit="10" stroke-width="3" style="white-space: pre; font-size: 12px;" clip-path="url(#FITrwXIqxDXB)">400</text>
  <text fill="rgb(0,0,0)" stroke="none" font-family="geogebra-sans-serif, sans-serif" font-size="12px" font-style="normal" font-weight="normal" text-decoration="normal" x="257" y="506" text-anchor="start" dominant-baseline="alphabetic" fill-opacity="1" style="white-space: pre; font-size: 12px;" clip-path="url(#FITrwXIqxDXB)">400</text>
  <text fill="none" stroke="rgb(255,255,255)" font-family="geogebra-sans-serif, sans-serif" font-size="12px" font-style="normal" font-weight="normal" text-decoration="normal" x="257" y="442" text-anchor="start" dominant-baseline="alphabetic" stroke-opacity="1" stroke-linejoin="bevel" stroke-miterlimit="10" stroke-width="3" style="white-space: pre; font-size: 12px;" clip-path="url(#FITrwXIqxDXB)">500</text>
  <text fill="rgb(0,0,0)" stroke="none" font-family="geogebra-sans-serif, sans-serif" font-size="12px" font-style="normal" font-weight="normal" text-decoration="normal" x="257" y="442" text-anchor="start" dominant-baseline="alphabetic" fill-opacity="1" style="white-space: pre; font-size: 12px;" clip-path="url(#FITrwXIqxDXB)">500</text>
  <text fill="none" stroke="rgb(255,255,255)" font-family="geogebra-sans-serif, sans-serif" font-size="12px" font-style="normal" font-weight="normal" text-decoration="normal" x="257" y="377" text-anchor="start" dominant-baseline="alphabetic" stroke-opacity="1" stroke-linejoin="bevel" stroke-miterlimit="10" stroke-width="3" style="white-space: pre; font-size: 12px;" clip-path="url(#FITrwXIqxDXB)">600</text>
  <text fill="rgb(0,0,0)" stroke="none" font-family="geogebra-sans-serif, sans-serif" font-size="12px" font-style="normal" font-weight="normal" text-decoration="normal" x="257" y="377" text-anchor="start" dominant-baseline="alphabetic" fill-opacity="1" style="white-space: pre; font-size: 12px;" clip-path="url(#FITrwXIqxDXB)">600</text>
  <text fill="none" stroke="rgb(255,255,255)" font-family="geogebra-sans-serif, sans-serif" font-size="12px" font-style="normal" font-weight="normal" text-decoration="normal" x="257" y="312" text-anchor="start" dominant-baseline="alphabetic" stroke-opacity="1" stroke-linejoin="bevel" stroke-miterlimit="10" stroke-width="3" style="white-space: pre; font-size: 12px;" clip-path="url(#FITrwXIqxDXB)">700</text>
  <text fill="rgb(0,0,0)" stroke="none" font-family="geogebra-sans-serif, sans-serif" font-size="12px" font-style="normal" font-weight="normal" text-decoration="normal" x="257" y="312" text-anchor="start" dominant-baseline="alphabetic" fill-opacity="1" style="white-space: pre; font-size: 12px;" clip-path="url(#FITrwXIqxDXB)">700</text>
  <text fill="none" stroke="rgb(255,255,255)" font-family="geogebra-sans-serif, sans-serif" font-size="12px" font-style="normal" font-weight="normal" text-decoration="normal" x="257" y="248" text-anchor="start" dominant-baseline="alphabetic" stroke-opacity="1" stroke-linejoin="bevel" stroke-miterlimit="10" stroke-width="3" style="white-space: pre; font-size: 12px;" clip-path="url(#FITrwXIqxDXB)">800</text>
  <text fill="rgb(0,0,0)" stroke="none" font-family="geogebra-sans-serif, sans-serif" font-size="12px" font-style="normal" font-weight="normal" text-decoration="normal" x="257" y="248" text-anchor="start" dominant-baseline="alphabetic" fill-opacity="1" style="white-space: pre; font-size: 12px;" clip-path="url(#FITrwXIqxDXB)">800</text>
  <text fill="none" stroke="rgb(255,255,255)" font-family="geogebra-sans-serif, sans-serif" font-size="12px" font-style="normal" font-weight="normal" text-decoration="normal" x="257" y="183" text-anchor="start" dominant-baseline="alphabetic" stroke-opacity="1" stroke-linejoin="bevel" stroke-miterlimit="10" stroke-width="3" style="white-space: pre; font-size: 12px;" clip-path="url(#FITrwXIqxDXB)">900</text>
  <text fill="rgb(0,0,0)" stroke="none" font-family="geogebra-sans-serif, sans-serif" font-size="12px" font-style="normal" font-weight="normal" text-decoration="normal" x="257" y="183" text-anchor="start" dominant-baseline="alphabetic" fill-opacity="1" style="white-space: pre; font-size: 12px;" clip-path="url(#FITrwXIqxDXB)">900</text>
  <text fill="none" stroke="rgb(255,255,255)" font-family="geogebra-sans-serif, sans-serif" font-size="12px" font-style="normal" font-weight="normal" text-decoration="normal" x="251" y="118" text-anchor="start" dominant-baseline="alphabetic" stroke-opacity="1" stroke-linejoin="bevel" stroke-miterlimit="10" stroke-width="3" style="white-space: pre; font-size: 12px;" clip-path="url(#FITrwXIqxDXB)">1000</text>
  <text fill="rgb(0,0,0)" stroke="none" font-family="geogebra-sans-serif, sans-serif" font-size="12px" font-style="normal" font-weight="normal" text-decoration="normal" x="251" y="118" text-anchor="start" dominant-baseline="alphabetic" fill-opacity="1" style="white-space: pre; font-size: 12px;" clip-path="url(#FITrwXIqxDXB)">1000</text>
  <text fill="none" stroke="rgb(255,255,255)" font-family="geogebra-sans-serif, sans-serif" font-size="12px" font-style="normal" font-weight="normal" text-decoration="normal" x="252" y="54" text-anchor="start" dominant-baseline="alphabetic" stroke-opacity="1" stroke-linejoin="bevel" stroke-miterlimit="10" stroke-width="3" style="white-space: pre; font-size: 12px;" clip-path="url(#FITrwXIqxDXB)">1100</text>
  <text fill="rgb(0,0,0)" stroke="none" font-family="geogebra-sans-serif, sans-serif" font-size="12px" font-style="normal" font-weight="normal" text-decoration="normal" x="252" y="54" text-anchor="start" dominant-baseline="alphabetic" fill-opacity="1" style="white-space: pre; font-size: 12px;" clip-path="url(#FITrwXIqxDXB)">1100</text>
  <text fill="none" stroke="rgb(255,255,255)" font-family="geogebra-sans-serif, sans-serif" font-size="12px" font-style="normal" font-weight="normal" text-decoration="normal" x="271" y="776" text-anchor="start" dominant-baseline="alphabetic" stroke-opacity="1" stroke-linejoin="bevel" stroke-miterlimit="10" stroke-width="3" style="white-space: pre; font-size: 12px;" clip-path="url(#FITrwXIqxDXB)">0</text>
  <text fill="rgb(0,0,0)" stroke="none" font-family="geogebra-sans-serif, sans-serif" font-size="12px" font-style="normal" font-weight="normal" text-decoration="normal" x="271" y="776" text-anchor="start" dominant-baseline="alphabetic" fill-opacity="1" style="white-space: pre; font-size: 12px;" clip-path="url(#FITrwXIqxDXB)">0</text>
  <path fill="none" stroke="rgb(96,96,96)" paint-order="fill stroke markers" d="M 326.854 532.384 L 336.854 542.384" stroke-opacity="1" stroke-linecap="square" stroke-miterlimit="10" stroke-width="2.5" clip-path="url(#FITrwXIqxDXB)"/>
  <path fill="none" stroke="rgb(96,96,96)" paint-order="fill stroke markers" d="M 326.854 542.384 L 336.854 532.384" stroke-opacity="1" stroke-linecap="square" stroke-miterlimit="10" stroke-width="2.5" clip-path="url(#FITrwXIqxDXB)"/>
  <path fill="none" stroke="rgb(96,96,96)" paint-order="fill stroke markers" d="M 364.486 456.096 L 374.486 466.096" stroke-opacity="1" stroke-linecap="square" stroke-miterlimit="10" stroke-width="2.5" clip-path="url(#FITrwXIqxDXB)"/>
  <path fill="none" stroke="rgb(96,96,96)" paint-order="fill stroke markers" d="M 364.486 466.096 L 374.486 456.096" stroke-opacity="1" stroke-linecap="square" stroke-miterlimit="10" stroke-width="2.5" clip-path="url(#FITrwXIqxDXB)"/>
  <path fill="none" stroke="rgb(96,96,96)" paint-order="fill stroke markers" d="M 376.246 437.994 L 386.246 447.994" stroke-opacity="1" stroke-linecap="square" stroke-miterlimit="10" stroke-width="2.5" clip-path="url(#FITrwXIqxDXB)"/>
  <path fill="none" stroke="rgb(96,96,96)" paint-order="fill stroke markers" d="M 376.246 447.994 L 386.246 437.994" stroke-opacity="1" stroke-linecap="square" stroke-miterlimit="10" stroke-width="2.5" clip-path="url(#FITrwXIqxDXB)"/>
  <path fill="none" stroke="rgb(96,96,96)" paint-order="fill stroke markers" d="M 399.766 399.85 L 409.766 409.85" stroke-opacity="1" stroke-linecap="square" stroke-miterlimit="10" stroke-width="2.5" clip-path="url(#FITrwXIqxDXB)"/>
  <path fill="none" stroke="rgb(96,96,96)" paint-order="fill stroke markers" d="M 399.766 409.85 L 409.766 399.85" stroke-opacity="1" stroke-linecap="square" stroke-miterlimit="10" stroke-width="2.5" clip-path="url(#FITrwXIqxDXB)"/>
  <path fill="none" stroke="rgb(96,96,96)" paint-order="fill stroke markers" d="M 416.23 375.282 L 426.23 385.282" stroke-opacity="1" stroke-linecap="square" stroke-miterlimit="10" stroke-width="2.5" clip-path="url(#FITrwXIqxDXB)"/>
  <path fill="none" stroke="rgb(96,96,96)" paint-order="fill stroke markers" d="M 416.23 385.282 L 426.23 375.282" stroke-opacity="1" stroke-linecap="square" stroke-miterlimit="10" stroke-width="2.5" clip-path="url(#FITrwXIqxDXB)"/>
  <path fill="none" stroke="rgb(96,96,96)" paint-order="fill stroke markers" d="M 519.718 251.152 L 529.718 261.152" stroke-opacity="1" stroke-linecap="square" stroke-miterlimit="10" stroke-width="2.5" clip-path="url(#FITrwXIqxDXB)"/>
  <path fill="none" stroke="rgb(96,96,96)" paint-order="fill stroke markers" d="M 519.718 261.152 L 529.718 251.152" stroke-opacity="1" stroke-linecap="square" stroke-miterlimit="10" stroke-width="2.5" clip-path="url(#FITrwXIqxDXB)"/>
  <path fill="none" stroke="rgb(96,96,96)" paint-order="fill stroke markers" d="M 552.646 218.827 L 562.646 228.827" stroke-opacity="1" stroke-linecap="square" stroke-miterlimit="10" stroke-width="2.5" clip-path="url(#FITrwXIqxDXB)"/>
  <path fill="none" stroke="rgb(96,96,96)" paint-order="fill stroke markers" d="M 552.646 228.827 L 562.646 218.827" stroke-opacity="1" stroke-linecap="square" stroke-miterlimit="10" stroke-width="2.5" clip-path="url(#FITrwXIqxDXB)"/>
  <path fill="none" stroke="rgb(96,96,96)" paint-order="fill stroke markers" d="M 665.542 118.617 L 675.542 128.617" stroke-opacity="1" stroke-linecap="square" stroke-miterlimit="10" stroke-width="2.5" clip-path="url(#FITrwXIqxDXB)"/>
  <path fill="none" stroke="rgb(96,96,96)" paint-order="fill stroke markers" d="M 665.542 128.617 L 675.542 118.617" stroke-opacity="1" stroke-linecap="square" stroke-miterlimit="10" stroke-width="2.5" clip-path="url(#FITrwXIqxDXB)"/>
  <path fill="none" stroke="rgb(96,96,96)" paint-order="fill stroke markers" d="M 707.878 83.059 L 717.878 93.059" stroke-opacity="1" stroke-linecap="square" stroke-miterlimit="10" stroke-width="2.5" clip-path="url(#FITrwXIqxDXB)"/>
  <path fill="none" stroke="rgb(96,96,96)" paint-order="fill stroke markers" d="M 707.878 93.059 L 717.878 83.059" stroke-opacity="1" stroke-linecap="square" stroke-miterlimit="10" stroke-width="2.5" clip-path="url(#FITrwXIqxDXB)"/>
  <path fill="none" stroke="rgb(255,0,0)" paint-order="fill stroke markers" d="M 284.814 760.431 L 284.892 751.339 L 284.97 747.573 L 285.127 742.247 L 285.44 734.716 L 285.753 728.938 L 286.066 724.066 M 286.066 724.066 L 286.519 718.002 L 286.972 712.703 L 287.877 703.567 L 288.782 695.708 L 289.688 688.706 M 289.688 688.706 L 290.593 682.329 L 291.498 676.434 L 292.403 670.927 L 293.309 665.74 L 295.119 656.137 L 296.93 647.347 L 298.74 639.192 L 300.551 631.553 L 302.361 624.342 L 304.172 617.494 L 305.982 610.959 L 307.793 604.699 L 309.604 598.681 L 311.414 592.879 L 313.225 587.271 L 315.035 581.839 L 316.846 576.568 L 318.656 571.443 L 322.277 561.59 L 325.898 552.203 L 329.52 543.222 L 333.141 534.597 L 336.762 526.29 L 340.383 518.267 L 344.004 510.502 L 347.625 502.972 M 347.625 502.972 L 351.246 495.655 L 354.867 488.535 L 358.488 481.597 L 362.109 474.828 L 365.73 468.215 L 369.352 461.749 L 372.973 455.42 L 376.594 449.219 L 380.215 443.14 L 383.836 437.175 L 387.457 431.318 L 391.078 425.563 L 394.699 419.906 L 398.32 414.342 L 401.941 408.865 L 405.563 403.472 L 409.184 398.16 L 412.805 392.925 L 416.426 387.763 L 420.047 382.671 L 423.668 377.647 L 427.289 372.689 L 430.91 367.793 L 434.531 362.957 L 438.152 358.18 L 441.773 353.458 L 445.395 348.791 L 449.016 344.176 L 452.637 339.612 L 456.258 335.096 L 459.879 330.629 L 463.5 326.207 M 463.5 326.207 L 467.121 321.829 L 470.742 317.495 L 474.363 313.203 L 477.984 308.952 L 481.605 304.74 L 485.227 300.567 L 488.848 296.432 L 492.469 292.333 L 496.09 288.27 L 499.711 284.241 L 503.332 280.246 L 506.953 276.284 L 510.574 272.355 L 514.195 268.456 L 517.816 264.589 L 521.438 260.751 L 525.059 256.942 L 528.68 253.163 L 532.301 249.411 L 535.922 245.686 L 539.543 241.988 L 543.164 238.317 L 546.785 234.671 L 550.406 231.05 L 554.027 227.454 L 557.648 223.881 L 561.27 220.333 L 564.891 216.808 L 568.512 213.305 L 572.133 209.825 L 575.754 206.366 L 579.375 202.929 L 582.996 199.513 L 586.617 196.118 L 590.238 192.743 L 593.859 189.388 L 597.48 186.053 L 601.102 182.737 L 604.723 179.439 L 608.344 176.161 L 611.965 172.9 L 615.586 169.658 L 619.207 166.433 L 622.828 163.226 L 626.449 160.036 L 630.07 156.863 L 633.691 153.706 L 637.313 150.566 L 640.934 147.442 L 644.555 144.334 L 648.176 141.241 L 651.797 138.164 L 655.418 135.101 L 659.039 132.054 L 662.66 129.022 L 666.281 126.004 L 669.902 123 L 673.523 120.01 L 677.145 117.034 L 680.766 114.072 L 684.387 111.124 L 688.008 108.188 L 691.629 105.266 L 695.25 102.357 L 698.871 99.461 L 702.492 96.577 L 706.113 93.706 L 709.734 90.847 L 713.355 88.001 L 716.977 85.166 L 720.598 82.343 L 724.219 79.532 L 727.84 76.732 L 731.461 73.944 L 735.082 71.167 L 738.703 68.401 L 742.324 65.647 L 745.945 62.903 L 749.566 60.17 L 753.188 57.447 L 756.809 54.735 L 760.43 52.034 L 764.051 49.342 L 767.672 46.661 L 771.293 43.99 L 774.914 41.329 L 778.535 38.677 L 782.156 36.036 L 785.777 33.404 L 789.398 30.781 L 793.02 28.168 L 796.641 25.564 L 800.262 22.969 L 803.883 20.384 L 807.504 17.807 L 811.125 15.239 L 814.746 12.68 L 818.367 10.13 L 821.988 7.589 L 825.609 5.056 L 829.23 2.531 L 832.852 0.015 L 836.473 -2.493 L 840.094 -4.992 L 843.715 -7.484" stroke-opacity="0.6980392156862745" stroke-linecap="round" stroke-linejoin="round" stroke-miterlimit="10" stroke-width="2.5" clip-path="url(#FITrwXIqxDXB)"/>
  <text fill="rgb(0,0,0)" stroke="none" font-family="geogebra-sans-serif, sans-serif" font-size="16px" font-style="normal" font-weight="normal" text-decoration="normal" x="777" y="762" text-anchor="start" dominant-baseline="alphabetic" fill-opacity="1" style="white-space: pre; font-size: 16px;" clip-path="url(#clip-1)" transform="matrix(1, 0, 0, 1, 129.399246, -7.586805)">x</text>
  <text fill="rgb(0,0,0)" stroke="none" font-family="geogebra-sans-serif, sans-serif" font-size="16px" font-style="normal" font-weight="normal" text-decoration="normal" x="463.988" y="15.227" text-anchor="start" dominant-baseline="alphabetic" fill-opacity="1" style="white-space: pre; font-size: 16px;" clip-path="url(#vlXTcZCysQKk)" transform="matrix(1, 0, 0, 1, -173.856552, 1.768315)">y</text>
</svg>