<?xml version="1.0" encoding="utf-8"?>
<svg viewBox="281.474 -4.938 620.663 906.187" width="620.663" height="906.187" xmlns="http://www.w3.org/2000/svg">
  <defs>
    <clipPath id="BbLDnkgfbuXx">
      <path fill="none" stroke="none" d="M 1.013 0 L 887.013 0 L 887.013 921 L 1.013 921 L 1.013 0 Z"/>
    </clipPath>
  </defs>
  <path fill="none" stroke="rgb(192,192,192)" paint-order="fill stroke markers" d="M 6.5 0.5 L 6.5 921.5 M 6.5 0.5 L 6.5 921.5 M 92.5 0.5 L 92.5 921.5 M 177.5 0.5 L 177.5 921.5 M 263.5 0.5 L 263.5 921.5 M 434.5 0.5 L 434.5 921.5 M 520.5 0.5 L 520.5 921.5 M 605.5 0.5 L 605.5 921.5 M 691.5 0.5 L 691.5 921.5 M 776.5 0.5 L 776.5 921.5 M 862.5 0.5 L 862.5 921.5" stroke-opacity="1" stroke-linejoin="round" stroke-miterlimit="10" stroke-dasharray="5,4" clip-path="url(#BbLDnkgfbuXx)"/>
  <path fill="none" stroke="rgb(192,192,192)" paint-order="fill stroke markers" d="M 0.5 21.5 L 886.5 21.5 M 0.5 21.5 L 886.5 21.5 M 0.5 106.5 L 886.5 106.5 M 0.5 192.5 L 886.5 192.5 M 0.5 277.5 L 886.5 277.5 M 0.5 363.5 L 886.5 363.5 M 0.5 449.5 L 886.5 449.5 M 0.5 534.5 L 886.5 534.5 M 0.5 620.5 L 886.5 620.5 M 0.5 705.5 L 886.5 705.5 M 0.5 791.5 L 886.5 791.5" stroke-opacity="1" stroke-linejoin="round" stroke-miterlimit="10" stroke-dasharray="5,4" clip-path="url(#BbLDnkgfbuXx)"/>
  <path fill="none" stroke="rgb(0,0,0)" paint-order="fill stroke markers" d="M 349.5 2.5 L 349.5 921.5" stroke-opacity="1" stroke-miterlimit="10" clip-path="url(#BbLDnkgfbuXx)"/>
  <path fill="rgb(0,0,0)" stroke="none" paint-order="stroke fill markers" fill-rule="evenodd" d="M 349.036 1 L 345.036 17 L 353.036 17" fill-opacity="1" clip-path="url(#BbLDnkgfbuXx)"/>
  <text fill="rgb(0,0,0)" stroke="none" font-family="geogebra-sans-serif, sans-serif" font-size="16px" font-style="normal" font-weight="normal" text-decoration="normal" x="868" y="872" text-anchor="start" dominant-baseline="alphabetic" fill-opacity="1" style="white-space: pre; font-size: 16px;" clip-path="url(#BbLDnkgfbuXx)">x</text>
  <path fill="none" stroke="rgb(0,0,0)" paint-order="fill stroke markers" d="M 0.5 876.5 L 884.5 876.5" stroke-opacity="1" stroke-miterlimit="10" clip-path="url(#BbLDnkgfbuXx)"/>
  <path fill="rgb(0,0,0)" stroke="none" paint-order="stroke fill markers" fill-rule="evenodd" d="M 885 876.826 L 869 872.826 L 869 880.826" fill-opacity="1" clip-path="url(#BbLDnkgfbuXx)"/>
  <text fill="none" stroke="rgb(255,255,255)" font-family="geogebra-sans-serif, sans-serif" font-size="12px" font-style="normal" font-weight="normal" text-decoration="normal" x="432" y="892" text-anchor="start" dominant-baseline="alphabetic" stroke-opacity="1" stroke-linejoin="bevel" stroke-miterlimit="10" stroke-width="3" style="white-space: pre; font-size: 12px;" clip-path="url(#BbLDnkgfbuXx)">2</text>
  <text fill="rgb(0,0,0)" stroke="none" font-family="geogebra-sans-serif, sans-serif" font-size="12px" font-style="normal" font-weight="normal" text-decoration="normal" x="432" y="892" text-anchor="start" dominant-baseline="alphabetic" fill-opacity="1" style="white-space: pre; font-size: 12px;" clip-path="url(#BbLDnkgfbuXx)">2</text>
  <text fill="none" stroke="rgb(255,255,255)" font-family="geogebra-sans-serif, sans-serif" font-size="12px" font-style="normal" font-weight="normal" text-decoration="normal" x="518" y="892" text-anchor="start" dominant-baseline="alphabetic" stroke-opacity="1" stroke-linejoin="bevel" stroke-miterlimit="10" stroke-width="3" style="white-space: pre; font-size: 12px;" clip-path="url(#BbLDnkgfbuXx)">4</text>
  <text fill="rgb(0,0,0)" stroke="none" font-family="geogebra-sans-serif, sans-serif" font-size="12px" font-style="normal" font-weight="normal" text-decoration="normal" x="518" y="892" text-anchor="start" dominant-baseline="alphabetic" fill-opacity="1" style="white-space: pre; font-size: 12px;" clip-path="url(#BbLDnkgfbuXx)">4</text>
  <text fill="none" stroke="rgb(255,255,255)" font-family="geogebra-sans-serif, sans-serif" font-size="12px" font-style="normal" font-weight="normal" text-decoration="normal" x="603" y="892" text-anchor="start" dominant-baseline="alphabetic" stroke-opacity="1" stroke-linejoin="bevel" stroke-miterlimit="10" stroke-width="3" style="white-space: pre; font-size: 12px;" clip-path="url(#BbLDnkgfbuXx)">6</text>
  <text fill="rgb(0,0,0)" stroke="none" font-family="geogebra-sans-serif, sans-serif" font-size="12px" font-style="normal" font-weight="normal" text-decoration="normal" x="603" y="892" text-anchor="start" dominant-baseline="alphabetic" fill-opacity="1" style="white-space: pre; font-size: 12px;" clip-path="url(#BbLDnkgfbuXx)">6</text>
  <text fill="none" stroke="rgb(255,255,255)" font-family="geogebra-sans-serif, sans-serif" font-size="12px" font-style="normal" font-weight="normal" text-decoration="normal" x="689" y="892" text-anchor="start" dominant-baseline="alphabetic" stroke-opacity="1" stroke-linejoin="bevel" stroke-miterlimit="10" stroke-width="3" style="white-space: pre; font-size: 12px;" clip-path="url(#BbLDnkgfbuXx)">8</text>
  <text fill="rgb(0,0,0)" stroke="none" font-family="geogebra-sans-serif, sans-serif" font-size="12px" font-style="normal" font-weight="normal" text-decoration="normal" x="689" y="892" text-anchor="start" dominant-baseline="alphabetic" fill-opacity="1" style="white-space: pre; font-size: 12px;" clip-path="url(#BbLDnkgfbuXx)">8</text>
  <text fill="none" stroke="rgb(255,255,255)" font-family="geogebra-sans-serif, sans-serif" font-size="12px" font-style="normal" font-weight="normal" text-decoration="normal" x="771" y="892" text-anchor="start" dominant-baseline="alphabetic" stroke-opacity="1" stroke-linejoin="bevel" stroke-miterlimit="10" stroke-width="3" style="white-space: pre; font-size: 12px;" clip-path="url(#BbLDnkgfbuXx)">10</text>
  <text fill="rgb(0,0,0)" stroke="none" font-family="geogebra-sans-serif, sans-serif" font-size="12px" font-style="normal" font-weight="normal" text-decoration="normal" x="771" y="892" text-anchor="start" dominant-baseline="alphabetic" fill-opacity="1" style="white-space: pre; font-size: 12px;" clip-path="url(#BbLDnkgfbuXx)">10</text>
  <text fill="none" stroke="rgb(255,255,255)" font-family="geogebra-sans-serif, sans-serif" font-size="12px" font-style="normal" font-weight="normal" text-decoration="normal" x="857" y="892" text-anchor="start" dominant-baseline="alphabetic" stroke-opacity="1" stroke-linejoin="bevel" stroke-miterlimit="10" stroke-width="3" style="white-space: pre; font-size: 12px;" clip-path="url(#BbLDnkgfbuXx)">12</text>
  <text fill="rgb(0,0,0)" stroke="none" font-family="geogebra-sans-serif, sans-serif" font-size="12px" font-style="normal" font-weight="normal" text-decoration="normal" x="857" y="892" text-anchor="start" dominant-baseline="alphabetic" fill-opacity="1" style="white-space: pre; font-size: 12px;" clip-path="url(#BbLDnkgfbuXx)">12</text>
  <text fill="rgb(0,0,0)" stroke="none" font-family="geogebra-sans-serif, sans-serif" font-size="16px" font-style="normal" font-weight="normal" text-decoration="normal" x="354" y="17" text-anchor="start" dominant-baseline="alphabetic" fill-opacity="1" style="white-space: pre; font-size: 16px;" clip-path="url(#BbLDnkgfbuXx)">y</text>
  <text fill="none" stroke="rgb(255,255,255)" font-family="geogebra-sans-serif, sans-serif" font-size="12px" font-style="normal" font-weight="normal" text-decoration="normal" x="336" y="796" text-anchor="start" dominant-baseline="alphabetic" stroke-opacity="1" stroke-linejoin="bevel" stroke-miterlimit="10" stroke-width="3" style="white-space: pre; font-size: 12px;" clip-path="url(#BbLDnkgfbuXx)">2</text>
  <text fill="rgb(0,0,0)" stroke="none" font-family="geogebra-sans-serif, sans-serif" font-size="12px" font-style="normal" font-weight="normal" text-decoration="normal" x="336" y="796" text-anchor="start" dominant-baseline="alphabetic" fill-opacity="1" style="white-space: pre; font-size: 12px;" clip-path="url(#BbLDnkgfbuXx)">2</text>
  <text fill="none" stroke="rgb(255,255,255)" font-family="geogebra-sans-serif, sans-serif" font-size="12px" font-style="normal" font-weight="normal" text-decoration="normal" x="336" y="710" text-anchor="start" dominant-baseline="alphabetic" stroke-opacity="1" stroke-linejoin="bevel" stroke-miterlimit="10" stroke-width="3" style="white-space: pre; font-size: 12px;" clip-path="url(#BbLDnkgfbuXx)">4</text>
  <text fill="rgb(0,0,0)" stroke="none" font-family="geogebra-sans-serif, sans-serif" font-size="12px" font-style="normal" font-weight="normal" text-decoration="normal" x="336" y="710" text-anchor="start" dominant-baseline="alphabetic" fill-opacity="1" style="white-space: pre; font-size: 12px;" clip-path="url(#BbLDnkgfbuXx)">4</text>
  <text fill="none" stroke="rgb(255,255,255)" font-family="geogebra-sans-serif, sans-serif" font-size="12px" font-style="normal" font-weight="normal" text-decoration="normal" x="336" y="625" text-anchor="start" dominant-baseline="alphabetic" stroke-opacity="1" stroke-linejoin="bevel" stroke-miterlimit="10" stroke-width="3" style="white-space: pre; font-size: 12px;" clip-path="url(#BbLDnkgfbuXx)">6</text>
  <text fill="rgb(0,0,0)" stroke="none" font-family="geogebra-sans-serif, sans-serif" font-size="12px" font-style="normal" font-weight="normal" text-decoration="normal" x="336" y="625" text-anchor="start" dominant-baseline="alphabetic" fill-opacity="1" style="white-space: pre; font-size: 12px;" clip-path="url(#BbLDnkgfbuXx)">6</text>
  <text fill="none" stroke="rgb(255,255,255)" font-family="geogebra-sans-serif, sans-serif" font-size="12px" font-style="normal" font-weight="normal" text-decoration="normal" x="336" y="539" text-anchor="start" dominant-baseline="alphabetic" stroke-opacity="1" stroke-linejoin="bevel" stroke-miterlimit="10" stroke-width="3" style="white-space: pre; font-size: 12px;" clip-path="url(#BbLDnkgfbuXx)">8</text>
  <text fill="rgb(0,0,0)" stroke="none" font-family="geogebra-sans-serif, sans-serif" font-size="12px" font-style="normal" font-weight="normal" text-decoration="normal" x="336" y="539" text-anchor="start" dominant-baseline="alphabetic" fill-opacity="1" style="white-space: pre; font-size: 12px;" clip-path="url(#BbLDnkgfbuXx)">8</text>
  <text fill="none" stroke="rgb(255,255,255)" font-family="geogebra-sans-serif, sans-serif" font-size="12px" font-style="normal" font-weight="normal" text-decoration="normal" x="329" y="454" text-anchor="start" dominant-baseline="alphabetic" stroke-opacity="1" stroke-linejoin="bevel" stroke-miterlimit="10" stroke-width="3" style="white-space: pre; font-size: 12px;" clip-path="url(#BbLDnkgfbuXx)">10</text>
  <text fill="rgb(0,0,0)" stroke="none" font-family="geogebra-sans-serif, sans-serif" font-size="12px" font-style="normal" font-weight="normal" text-decoration="normal" x="329" y="454" text-anchor="start" dominant-baseline="alphabetic" fill-opacity="1" style="white-space: pre; font-size: 12px;" clip-path="url(#BbLDnkgfbuXx)">10</text>
  <text fill="none" stroke="rgb(255,255,255)" font-family="geogebra-sans-serif, sans-serif" font-size="12px" font-style="normal" font-weight="normal" text-decoration="normal" x="329" y="368" text-anchor="start" dominant-baseline="alphabetic" stroke-opacity="1" stroke-linejoin="bevel" stroke-miterlimit="10" stroke-width="3" style="white-space: pre; font-size: 12px;" clip-path="url(#BbLDnkgfbuXx)">12</text>
  <text fill="rgb(0,0,0)" stroke="none" font-family="geogebra-sans-serif, sans-serif" font-size="12px" font-style="normal" font-weight="normal" text-decoration="normal" x="329" y="368" text-anchor="start" dominant-baseline="alphabetic" fill-opacity="1" style="white-space: pre; font-size: 12px;" clip-path="url(#BbLDnkgfbuXx)">12</text>
  <text fill="none" stroke="rgb(255,255,255)" font-family="geogebra-sans-serif, sans-serif" font-size="12px" font-style="normal" font-weight="normal" text-decoration="normal" x="329" y="282" text-anchor="start" dominant-baseline="alphabetic" stroke-opacity="1" stroke-linejoin="bevel" stroke-miterlimit="10" stroke-width="3" style="white-space: pre; font-size: 12px;" clip-path="url(#BbLDnkgfbuXx)">14</text>
  <text fill="rgb(0,0,0)" stroke="none" font-family="geogebra-sans-serif, sans-serif" font-size="12px" font-style="normal" font-weight="normal" text-decoration="normal" x="329" y="282" text-anchor="start" dominant-baseline="alphabetic" fill-opacity="1" style="white-space: pre; font-size: 12px;" clip-path="url(#BbLDnkgfbuXx)">14</text>
  <text fill="none" stroke="rgb(255,255,255)" font-family="geogebra-sans-serif, sans-serif" font-size="12px" font-style="normal" font-weight="normal" text-decoration="normal" x="329" y="197" text-anchor="start" dominant-baseline="alphabetic" stroke-opacity="1" stroke-linejoin="bevel" stroke-miterlimit="10" stroke-width="3" style="white-space: pre; font-size: 12px;" clip-path="url(#BbLDnkgfbuXx)">16</text>
  <text fill="rgb(0,0,0)" stroke="none" font-family="geogebra-sans-serif, sans-serif" font-size="12px" font-style="normal" font-weight="normal" text-decoration="normal" x="329" y="197" text-anchor="start" dominant-baseline="alphabetic" fill-opacity="1" style="white-space: pre; font-size: 12px;" clip-path="url(#BbLDnkgfbuXx)">16</text>
  <text fill="none" stroke="rgb(255,255,255)" font-family="geogebra-sans-serif, sans-serif" font-size="12px" font-style="normal" font-weight="normal" text-decoration="normal" x="329" y="111" text-anchor="start" dominant-baseline="alphabetic" stroke-opacity="1" stroke-linejoin="bevel" stroke-miterlimit="10" stroke-width="3" style="white-space: pre; font-size: 12px;" clip-path="url(#BbLDnkgfbuXx)">18</text>
  <text fill="rgb(0,0,0)" stroke="none" font-family="geogebra-sans-serif, sans-serif" font-size="12px" font-style="normal" font-weight="normal" text-decoration="normal" x="329" y="111" text-anchor="start" dominant-baseline="alphabetic" fill-opacity="1" style="white-space: pre; font-size: 12px;" clip-path="url(#BbLDnkgfbuXx)">18</text>
  <text fill="none" stroke="rgb(255,255,255)" font-family="geogebra-sans-serif, sans-serif" font-size="12px" font-style="normal" font-weight="normal" text-decoration="normal" x="329" y="26" text-anchor="start" dominant-baseline="alphabetic" stroke-opacity="1" stroke-linejoin="bevel" stroke-miterlimit="10" stroke-width="3" style="white-space: pre; font-size: 12px;" clip-path="url(#BbLDnkgfbuXx)">20</text>
  <text fill="rgb(0,0,0)" stroke="none" font-family="geogebra-sans-serif, sans-serif" font-size="12px" font-style="normal" font-weight="normal" text-decoration="normal" x="329" y="26" text-anchor="start" dominant-baseline="alphabetic" fill-opacity="1" style="white-space: pre; font-size: 12px;" clip-path="url(#BbLDnkgfbuXx)">20</text>
  <text fill="none" stroke="rgb(255,255,255)" font-family="geogebra-sans-serif, sans-serif" font-size="12px" font-style="normal" font-weight="normal" text-decoration="normal" x="336" y="892" text-anchor="start" dominant-baseline="alphabetic" stroke-opacity="1" stroke-linejoin="bevel" stroke-miterlimit="10" stroke-width="3" style="white-space: pre; font-size: 12px;" clip-path="url(#BbLDnkgfbuXx)">0</text>
  <text fill="rgb(0,0,0)" stroke="none" font-family="geogebra-sans-serif, sans-serif" font-size="12px" font-style="normal" font-weight="normal" text-decoration="normal" x="336" y="892" text-anchor="start" dominant-baseline="alphabetic" fill-opacity="1" style="white-space: pre; font-size: 12px;" clip-path="url(#BbLDnkgfbuXx)">0</text>
  <path fill="none" stroke="rgb(96,96,96)" paint-order="fill stroke markers" d="M 344.036 33.382 L 354.036 43.382" stroke-opacity="1" stroke-linecap="square" stroke-miterlimit="10" stroke-width="2.5" clip-path="url(#BbLDnkgfbuXx)"/>
  <path fill="none" stroke="rgb(96,96,96)" paint-order="fill stroke markers" d="M 344.036 43.382 L 354.036 33.382" stroke-opacity="1" stroke-linecap="square" stroke-miterlimit="10" stroke-width="2.5" clip-path="url(#BbLDnkgfbuXx)"/>
  <path fill="none" stroke="rgb(96,96,96)" paint-order="fill stroke markers" d="M 386.814 452.604 L 396.814 462.604" stroke-opacity="1" stroke-linecap="square" stroke-miterlimit="10" stroke-width="2.5" clip-path="url(#BbLDnkgfbuXx)"/>
  <path fill="none" stroke="rgb(96,96,96)" paint-order="fill stroke markers" d="M 386.814 462.604 L 396.814 452.604" stroke-opacity="1" stroke-linecap="square" stroke-miterlimit="10" stroke-width="2.5" clip-path="url(#BbLDnkgfbuXx)"/>
  <path fill="none" stroke="rgb(96,96,96)" paint-order="fill stroke markers" d="M 429.592 662.215 L 439.592 672.215" stroke-opacity="1" stroke-linecap="square" stroke-miterlimit="10" stroke-width="2.5" clip-path="url(#BbLDnkgfbuXx)"/>
  <path fill="none" stroke="rgb(96,96,96)" paint-order="fill stroke markers" d="M 429.592 672.215 L 439.592 662.215" stroke-opacity="1" stroke-linecap="square" stroke-miterlimit="10" stroke-width="2.5" clip-path="url(#BbLDnkgfbuXx)"/>
  <path fill="none" stroke="rgb(96,96,96)" paint-order="fill stroke markers" d="M 472.369 769.16 L 482.369 779.16" stroke-opacity="1" stroke-linecap="square" stroke-miterlimit="10" stroke-width="2.5" clip-path="url(#BbLDnkgfbuXx)"/>
  <path fill="none" stroke="rgb(96,96,96)" paint-order="fill stroke markers" d="M 472.369 779.16 L 482.369 769.16" stroke-opacity="1" stroke-linecap="square" stroke-miterlimit="10" stroke-width="2.5" clip-path="url(#BbLDnkgfbuXx)"/>
  <path fill="none" stroke="rgb(96,96,96)" paint-order="fill stroke markers" d="M 515.147 816.215 L 525.147 826.215" stroke-opacity="1" stroke-linecap="square" stroke-miterlimit="10" stroke-width="2.5" clip-path="url(#BbLDnkgfbuXx)"/>
  <path fill="none" stroke="rgb(96,96,96)" paint-order="fill stroke markers" d="M 515.147 826.215 L 525.147 816.215" stroke-opacity="1" stroke-linecap="square" stroke-miterlimit="10" stroke-width="2.5" clip-path="url(#BbLDnkgfbuXx)"/>
  <path fill="none" stroke="rgb(96,96,96)" paint-order="fill stroke markers" d="M 557.925 846.16 L 567.925 856.16" stroke-opacity="1" stroke-linecap="square" stroke-miterlimit="10" stroke-width="2.5" clip-path="url(#BbLDnkgfbuXx)"/>
  <path fill="none" stroke="rgb(96,96,96)" paint-order="fill stroke markers" d="M 557.925 856.16 L 567.925 846.16" stroke-opacity="1" stroke-linecap="square" stroke-miterlimit="10" stroke-width="2.5" clip-path="url(#BbLDnkgfbuXx)"/>
  <path fill="none" stroke="rgb(96,96,96)" paint-order="fill stroke markers" d="M 600.703 858.993 L 610.703 868.993" stroke-opacity="1" stroke-linecap="square" stroke-miterlimit="10" stroke-width="2.5" clip-path="url(#BbLDnkgfbuXx)"/>
  <path fill="none" stroke="rgb(96,96,96)" paint-order="fill stroke markers" d="M 600.703 868.993 L 610.703 858.993" stroke-opacity="1" stroke-linecap="square" stroke-miterlimit="10" stroke-width="2.5" clip-path="url(#BbLDnkgfbuXx)"/>
  <path fill="none" stroke="rgb(96,96,96)" paint-order="fill stroke markers" d="M 643.481 864.982 L 653.481 874.982" stroke-opacity="1" stroke-linecap="square" stroke-miterlimit="10" stroke-width="2.5" clip-path="url(#BbLDnkgfbuXx)"/>
  <path fill="none" stroke="rgb(96,96,96)" paint-order="fill stroke markers" d="M 643.481 874.982 L 653.481 864.982" stroke-opacity="1" stroke-linecap="square" stroke-miterlimit="10" stroke-width="2.5" clip-path="url(#BbLDnkgfbuXx)"/>
  <path fill="none" stroke="rgb(96,96,96)" paint-order="fill stroke markers" d="M 686.258 868.832 L 696.258 878.832" stroke-opacity="1" stroke-linecap="square" stroke-miterlimit="10" stroke-width="2.5" clip-path="url(#BbLDnkgfbuXx)"/>
  <path fill="none" stroke="rgb(96,96,96)" paint-order="fill stroke markers" d="M 686.258 878.832 L 696.258 868.832" stroke-opacity="1" stroke-linecap="square" stroke-miterlimit="10" stroke-width="2.5" clip-path="url(#BbLDnkgfbuXx)"/>
  <path fill="none" stroke="rgb(96,96,96)" paint-order="fill stroke markers" d="M 729.036 870.115 L 739.036 880.115" stroke-opacity="1" stroke-linecap="square" stroke-miterlimit="10" stroke-width="2.5" clip-path="url(#BbLDnkgfbuXx)"/>
  <path fill="none" stroke="rgb(96,96,96)" paint-order="fill stroke markers" d="M 729.036 880.115 L 739.036 870.115" stroke-opacity="1" stroke-linecap="square" stroke-miterlimit="10" stroke-width="2.5" clip-path="url(#BbLDnkgfbuXx)"/>
  <path fill="none" stroke="rgb(255,0,0)" paint-order="fill stroke markers" d="M 345.661 -10 L 345.706 -10 L 346.094 -4.444 L 346.094 -4.444 L 346.094 -4.444 L 346.526 1.717 L 346.526 1.717 L 346.959 7.835 L 347.392 13.91 L 347.824 19.943 L 348.257 25.933 L 348.689 31.882 L 349.122 37.789 L 349.555 43.654 L 349.987 49.479 L 350.42 55.263 L 350.853 61.007 L 351.285 66.71 L 351.718 72.374 L 352.15 77.997 L 352.583 83.582 L 353.016 89.128 L 353.448 94.634 L 353.881 100.103 L 354.313 105.533 L 354.746 110.925 L 355.179 116.279 L 355.611 121.596 L 356.044 126.876 L 356.477 132.119 L 356.909 137.325 L 357.342 142.495 L 357.774 147.629 L 358.207 152.727 L 358.64 157.789 L 359.072 162.816 L 359.937 172.764 L 360.803 182.574 L 361.668 192.247 L 362.533 201.785 L 363.398 211.191 L 364.264 220.465 L 365.129 229.61 L 365.994 238.628 L 366.859 247.52 L 367.725 256.288 L 368.59 264.934 L 369.455 273.46 L 370.32 281.867 L 371.186 290.156 L 372.051 298.33 L 372.916 306.391 L 373.781 314.339 L 374.646 322.176 L 375.512 329.904 L 376.377 337.524 L 377.242 345.038 L 378.107 352.448 L 378.973 359.754 L 379.838 366.959 L 380.703 374.063 L 381.568 381.068 L 382.434 387.975 L 383.299 394.786 L 384.164 401.503 L 385.029 408.125 L 385.895 414.656 L 386.76 421.095 L 387.625 427.445 L 388.49 433.706 L 389.355 439.88 L 390.221 445.969 L 391.086 451.972 L 391.951 457.891 L 392.816 463.728 L 393.682 469.484 L 394.547 475.16 L 395.412 480.756 L 396.277 486.275 L 397.143 491.716 L 398.008 497.082 L 398.873 502.373 L 399.738 507.59 L 400.604 512.735 L 401.469 517.808 L 403.199 527.743 L 404.93 537.403 L 406.66 546.795 L 408.391 555.928 L 410.121 564.808 L 411.852 573.442 L 413.582 581.837 L 415.313 590 L 417.043 597.937 L 418.773 605.655 L 420.504 613.159 L 422.234 620.455 L 423.965 627.549 L 425.695 634.447 L 427.426 641.154 L 429.156 647.676 L 430.887 654.017 L 432.617 660.183 L 434.348 666.178 L 436.078 672.007 L 437.809 677.674 L 439.539 683.185 L 441.27 688.544 L 443 693.754 L 446.461 703.746 L 449.922 713.192 L 453.383 722.123 L 456.844 730.567 L 460.305 738.549 L 463.766 746.096 L 467.227 753.231 L 470.687 759.977 L 474.148 766.354 L 477.609 772.384 L 481.07 778.084 L 484.531 783.473 L 487.992 788.568 L 491.453 793.385 L 494.914 797.939 L 498.375 802.245 L 501.836 806.315 L 505.297 810.164 L 508.758 813.802 L 512.219 817.242 L 515.68 820.494 L 519.141 823.568 L 522.602 826.475 L 526.063 829.223 L 529.523 831.821 L 532.984 834.278 L 536.445 836.6 L 539.906 838.795 L 543.367 840.871 L 546.828 842.833 L 550.289 844.689 L 553.75 846.443 L 557.211 848.101 L 560.672 849.669 L 564.133 851.151 L 567.594 852.552 L 571.055 853.877 L 574.516 855.13 L 577.977 856.314 L 581.438 857.433 L 584.898 858.492 L 588.359 859.492 L 591.82 860.439 L 595.281 861.333 L 598.742 862.179 L 602.203 862.978 L 605.664 863.734 L 609.125 864.448 L 612.586 865.124 L 616.047 865.763 L 619.508 866.366 L 622.969 866.937 L 626.43 867.477 L 629.891 867.987 L 633.352 868.47 L 636.813 868.926 L 640.273 869.357 L 643.734 869.765 L 647.195 870.15 L 650.656 870.514 L 654.117 870.859 L 657.578 871.185 L 661.039 871.493 L 664.5 871.784 L 667.961 872.059 L 671.422 872.319 L 674.883 872.565 L 678.344 872.798 L 681.805 873.017 L 685.266 873.225 L 688.727 873.422 L 692.188 873.608 L 695.648 873.783 L 699.109 873.949 L 702.57 874.106 L 706.031 874.255 L 709.492 874.395 L 712.953 874.528 L 716.414 874.653 L 719.875 874.772 L 723.336 874.884 L 726.797 874.99 L 730.258 875.09 L 733.719 875.185 L 737.18 875.275 L 740.641 875.359 L 744.102 875.439 L 747.563 875.515 L 751.023 875.587 L 754.484 875.654 L 757.945 875.718 L 761.406 875.779 L 764.867 875.836 L 768.328 875.89 L 771.789 875.941 L 775.25 875.989 L 778.711 876.035 L 782.172 876.078 L 785.633 876.119 L 789.094 876.158 L 792.555 876.194 L 796.016 876.229 L 799.477 876.261 L 802.938 876.292 L 806.398 876.321 L 809.859 876.349 L 813.32 876.375 L 816.781 876.399 L 820.242 876.423 L 823.703 876.445 L 827.164 876.466 L 830.625 876.485 L 834.086 876.504 L 837.547 876.521 L 841.008 876.538 L 844.469 876.554 L 847.93 876.569 L 851.391 876.583 L 854.852 876.596 L 858.313 876.609 L 861.773 876.62 L 865.234 876.632 L 868.695 876.642 L 872.156 876.652 L 875.617 876.662 L 879.078 876.671 L 882.539 876.679 L 882.539 876.679 L 886 876.687 L 886 876.687" stroke-opacity="0.6980392156862745" stroke-linecap="round" stroke-linejoin="round" stroke-miterlimit="10" stroke-width="2.5" clip-path="url(#BbLDnkgfbuXx)"/>
</svg>