<?xml version="1.0" encoding="utf-8"?>
<svg viewBox="71.115 -8.013 1145.866 718.169" width="1145.866" height="718.169" xmlns="http://www.w3.org/2000/svg">
  <defs>
    <clipPath id="uuWgGUQaHkhO">
      <path fill="none" stroke="none" d=" M 0 0 L 1201 0 L 1201 921 L 0 921 L 0 0 Z"/>
    </clipPath>
  </defs>
  <path fill="none" stroke="rgb(192,192,192)" paint-order="fill stroke markers" d="M 18.5 0.5 L 18.5 921.5 M 18.5 0.5 L 18.5 921.5 M 261.5 0.5 L 261.5 921.5 M 382.5 0.5 L 382.5 921.5 M 503.5 0.5 L 503.5 921.5 M 624.5 0.5 L 624.5 921.5 M 745.5 0.5 L 745.5 921.5 M 866.5 0.5 L 866.5 921.5 M 987.5 0.5 L 987.5 921.5 M 1108.5 0.5 L 1108.5 921.5" stroke-opacity="1" stroke-linejoin="round" stroke-miterlimit="10" stroke-dasharray="5,4" clip-path="url(#uuWgGUQaHkhO)"/>
  <path fill="none" stroke="rgb(192,192,192)" paint-order="fill stroke markers" d="M 0.5 1.5 L 1201.5 1.5 M 0.5 1.5 L 1201.5 1.5 M 0.5 49.5 L 1201.5 49.5 M 0.5 98.5 L 1201.5 98.5 M 0.5 146.5 L 1201.5 146.5 M 0.5 195.5 L 1201.5 195.5 M 0.5 243.5 L 1201.5 243.5 M 0.5 340.5 L 1201.5 340.5 M 0.5 388.5 L 1201.5 388.5 M 0.5 437.5 L 1201.5 437.5 M 0.5 485.5 L 1201.5 485.5 M 0.5 534.5 L 1201.5 534.5 M 0.5 582.5 L 1201.5 582.5 M 0.5 630.5 L 1201.5 630.5 M 0.5 679.5 L 1201.5 679.5 M 0.5 727.5 L 1201.5 727.5 M 0.5 776.5 L 1201.5 776.5 M 0.5 824.5 L 1201.5 824.5 M 0.5 873.5 L 1201.5 873.5" stroke-opacity="1" stroke-linejoin="round" stroke-miterlimit="10" stroke-dasharray="5,4" clip-path="url(#uuWgGUQaHkhO)"/>
  <path fill="none" stroke="rgb(0,0,0)" paint-order="fill stroke markers" d="M 140.5 2.5 L 140.5 921.5" stroke-opacity="1" stroke-miterlimit="10" clip-path="url(#uuWgGUQaHkhO)"/>
  <path fill="rgb(0,0,0)" stroke="none" paint-order="stroke fill markers" fill-rule="evenodd" d="M 140.041 1 L 136.041 17 L 144.041 17" fill-opacity="1" clip-path="url(#uuWgGUQaHkhO)"/>
  <text fill="rgb(0,0,0)" stroke="none" font-family="geogebra-sans-serif, sans-serif" font-size="16px" font-style="normal" font-weight="normal" text-decoration="normal" x="1183" y="287" text-anchor="start" dominant-baseline="alphabetic" fill-opacity="1" style="white-space: pre; font-size: 16px;" clip-path="url(#uuWgGUQaHkhO)">x</text>
  <path fill="none" stroke="rgb(0,0,0)" paint-order="fill stroke markers" d="M 0.5 291.5 L 1199.5 291.5" stroke-opacity="1" stroke-miterlimit="10" clip-path="url(#uuWgGUQaHkhO)"/>
  <path fill="rgb(0,0,0)" stroke="none" paint-order="stroke fill markers" fill-rule="evenodd" d="M 1200 291.996 L 1184 287.996 L 1184 295.996" fill-opacity="1" clip-path="url(#uuWgGUQaHkhO)"/>
  <text fill="rgb(0,0,0)" stroke="none" font-family="geogebra-sans-serif, sans-serif" font-size="12px" font-style="normal" font-weight="normal" text-decoration="normal" x="253" y="307" text-anchor="start" dominant-baseline="alphabetic" fill-opacity="1" style="white-space: pre; font-size: 12px;" clip-path="url(#uuWgGUQaHkhO)">0.5</text>
  <text fill="rgb(0,0,0)" stroke="none" font-family="geogebra-sans-serif, sans-serif" font-size="12px" font-style="normal" font-weight="normal" text-decoration="normal" x="380" y="307" text-anchor="start" dominant-baseline="alphabetic" fill-opacity="1" style="white-space: pre; font-size: 12px;" clip-path="url(#uuWgGUQaHkhO)">1</text>
  <text fill="rgb(0,0,0)" stroke="none" font-family="geogebra-sans-serif, sans-serif" font-size="12px" font-style="normal" font-weight="normal" text-decoration="normal" x="495" y="307" text-anchor="start" dominant-baseline="alphabetic" fill-opacity="1" style="white-space: pre; font-size: 12px;" clip-path="url(#uuWgGUQaHkhO)">1.5</text>
  <text fill="rgb(0,0,0)" stroke="none" font-family="geogebra-sans-serif, sans-serif" font-size="12px" font-style="normal" font-weight="normal" text-decoration="normal" x="622" y="307" text-anchor="start" dominant-baseline="alphabetic" fill-opacity="1" style="white-space: pre; font-size: 12px;" clip-path="url(#uuWgGUQaHkhO)">2</text>
  <text fill="rgb(0,0,0)" stroke="none" font-family="geogebra-sans-serif, sans-serif" font-size="12px" font-style="normal" font-weight="normal" text-decoration="normal" x="737" y="307" text-anchor="start" dominant-baseline="alphabetic" fill-opacity="1" style="white-space: pre; font-size: 12px;" clip-path="url(#uuWgGUQaHkhO)">2.5</text>
  <text fill="rgb(0,0,0)" stroke="none" font-family="geogebra-sans-serif, sans-serif" font-size="12px" font-style="normal" font-weight="normal" text-decoration="normal" x="864" y="307" text-anchor="start" dominant-baseline="alphabetic" fill-opacity="1" style="white-space: pre; font-size: 12px;" clip-path="url(#uuWgGUQaHkhO)">3</text>
  <text fill="rgb(0,0,0)" stroke="none" font-family="geogebra-sans-serif, sans-serif" font-size="12px" font-style="normal" font-weight="normal" text-decoration="normal" x="979" y="307" text-anchor="start" dominant-baseline="alphabetic" fill-opacity="1" style="white-space: pre; font-size: 12px;" clip-path="url(#uuWgGUQaHkhO)">3.5</text>
  <text fill="rgb(0,0,0)" stroke="none" font-family="geogebra-sans-serif, sans-serif" font-size="12px" font-style="normal" font-weight="normal" text-decoration="normal" x="1106" y="307" text-anchor="start" dominant-baseline="alphabetic" fill-opacity="1" style="white-space: pre; font-size: 12px;" clip-path="url(#uuWgGUQaHkhO)">4</text>
  <text fill="rgb(0,0,0)" stroke="none" font-family="geogebra-sans-serif, sans-serif" font-size="16px" font-style="normal" font-weight="normal" text-decoration="normal" x="145" y="17" text-anchor="start" dominant-baseline="alphabetic" fill-opacity="1" style="white-space: pre; font-size: 16px;" clip-path="url(#uuWgGUQaHkhO)">y</text>
  <text fill="rgb(0,0,0)" stroke="none" font-family="geogebra-sans-serif, sans-serif" font-size="12px" font-style="normal" font-weight="normal" text-decoration="normal" x="110" y="684" text-anchor="start" dominant-baseline="alphabetic" fill-opacity="1" style="white-space: pre; font-size: 12px;" clip-path="url(#uuWgGUQaHkhO)">–1.6</text>
  <text fill="rgb(0,0,0)" stroke="none" font-family="geogebra-sans-serif, sans-serif" font-size="12px" font-style="normal" font-weight="normal" text-decoration="normal" x="110" y="635" text-anchor="start" dominant-baseline="alphabetic" fill-opacity="1" style="white-space: pre; font-size: 12px;" clip-path="url(#uuWgGUQaHkhO)">–1.4</text>
  <text fill="rgb(0,0,0)" stroke="none" font-family="geogebra-sans-serif, sans-serif" font-size="12px" font-style="normal" font-weight="normal" text-decoration="normal" x="110" y="587" text-anchor="start" dominant-baseline="alphabetic" fill-opacity="1" style="white-space: pre; font-size: 12px;" clip-path="url(#uuWgGUQaHkhO)">–1.2</text>
  <text fill="rgb(0,0,0)" stroke="none" font-family="geogebra-sans-serif, sans-serif" font-size="12px" font-style="normal" font-weight="normal" text-decoration="normal" x="120" y="539" text-anchor="start" dominant-baseline="alphabetic" fill-opacity="1" style="white-space: pre; font-size: 12px;" clip-path="url(#uuWgGUQaHkhO)">–1</text>
  <text fill="rgb(0,0,0)" stroke="none" font-family="geogebra-sans-serif, sans-serif" font-size="12px" font-style="normal" font-weight="normal" text-decoration="normal" x="110" y="490" text-anchor="start" dominant-baseline="alphabetic" fill-opacity="1" style="white-space: pre; font-size: 12px;" clip-path="url(#uuWgGUQaHkhO)">–0.8</text>
  <text fill="rgb(0,0,0)" stroke="none" font-family="geogebra-sans-serif, sans-serif" font-size="12px" font-style="normal" font-weight="normal" text-decoration="normal" x="110" y="442" text-anchor="start" dominant-baseline="alphabetic" fill-opacity="1" style="white-space: pre; font-size: 12px;" clip-path="url(#uuWgGUQaHkhO)">–0.6</text>
  <text fill="rgb(0,0,0)" stroke="none" font-family="geogebra-sans-serif, sans-serif" font-size="12px" font-style="normal" font-weight="normal" text-decoration="normal" x="110" y="393" text-anchor="start" dominant-baseline="alphabetic" fill-opacity="1" style="white-space: pre; font-size: 12px;" clip-path="url(#uuWgGUQaHkhO)">–0.4</text>
  <text fill="rgb(0,0,0)" stroke="none" font-family="geogebra-sans-serif, sans-serif" font-size="12px" font-style="normal" font-weight="normal" text-decoration="normal" x="110" y="345" text-anchor="start" dominant-baseline="alphabetic" fill-opacity="1" style="white-space: pre; font-size: 12px;" clip-path="url(#uuWgGUQaHkhO)">–0.2</text>
  <text fill="rgb(0,0,0)" stroke="none" font-family="geogebra-sans-serif, sans-serif" font-size="12px" font-style="normal" font-weight="normal" text-decoration="normal" x="117" y="248" text-anchor="start" dominant-baseline="alphabetic" fill-opacity="1" style="white-space: pre; font-size: 12px;" clip-path="url(#uuWgGUQaHkhO)">0.2</text>
  <text fill="rgb(0,0,0)" stroke="none" font-family="geogebra-sans-serif, sans-serif" font-size="12px" font-style="normal" font-weight="normal" text-decoration="normal" x="117" y="200" text-anchor="start" dominant-baseline="alphabetic" fill-opacity="1" style="white-space: pre; font-size: 12px;" clip-path="url(#uuWgGUQaHkhO)">0.4</text>
  <text fill="rgb(0,0,0)" stroke="none" font-family="geogebra-sans-serif, sans-serif" font-size="12px" font-style="normal" font-weight="normal" text-decoration="normal" x="117" y="151" text-anchor="start" dominant-baseline="alphabetic" fill-opacity="1" style="white-space: pre; font-size: 12px;" clip-path="url(#uuWgGUQaHkhO)">0.6</text>
  <text fill="rgb(0,0,0)" stroke="none" font-family="geogebra-sans-serif, sans-serif" font-size="12px" font-style="normal" font-weight="normal" text-decoration="normal" x="117" y="103" text-anchor="start" dominant-baseline="alphabetic" fill-opacity="1" style="white-space: pre; font-size: 12px;" clip-path="url(#uuWgGUQaHkhO)">0.8</text>
  <text fill="rgb(0,0,0)" stroke="none" font-family="geogebra-sans-serif, sans-serif" font-size="12px" font-style="normal" font-weight="normal" text-decoration="normal" x="127" y="54" text-anchor="start" dominant-baseline="alphabetic" fill-opacity="1" style="white-space: pre; font-size: 12px;" clip-path="url(#uuWgGUQaHkhO)">1</text>
  <text fill="rgb(0,0,0)" stroke="none" font-family="geogebra-sans-serif, sans-serif" font-size="12px" font-style="normal" font-weight="normal" text-decoration="normal" x="127" y="307" text-anchor="start" dominant-baseline="alphabetic" fill-opacity="1" style="white-space: pre; font-size: 12px;" clip-path="url(#uuWgGUQaHkhO)">0</text>
  <path fill="none" stroke="rgb(96,96,96)" paint-order="fill stroke markers" d="M 135.041 659.842 L 145.041 669.842" stroke-opacity="1" stroke-linecap="square" stroke-miterlimit="10" stroke-width="2.5" clip-path="url(#uuWgGUQaHkhO)"/>
  <path fill="none" stroke="rgb(96,96,96)" paint-order="fill stroke markers" d="M 135.041 669.842 L 145.041 659.842" stroke-opacity="1" stroke-linecap="square" stroke-miterlimit="10" stroke-width="2.5" clip-path="url(#uuWgGUQaHkhO)"/>
  <path fill="none" stroke="rgb(96,96,96)" paint-order="fill stroke markers" d="M 256.095 582.367 L 266.095 592.367" stroke-opacity="1" stroke-linecap="square" stroke-miterlimit="10" stroke-width="2.5" clip-path="url(#uuWgGUQaHkhO)"/>
  <path fill="none" stroke="rgb(96,96,96)" paint-order="fill stroke markers" d="M 256.095 592.367 L 266.095 582.367" stroke-opacity="1" stroke-linecap="square" stroke-miterlimit="10" stroke-width="2.5" clip-path="url(#uuWgGUQaHkhO)"/>
  <path fill="none" stroke="rgb(96,96,96)" paint-order="fill stroke markers" d="M 377.148 507.314 L 387.148 517.314" stroke-opacity="1" stroke-linecap="square" stroke-miterlimit="10" stroke-width="2.5" clip-path="url(#uuWgGUQaHkhO)"/>
  <path fill="none" stroke="rgb(96,96,96)" paint-order="fill stroke markers" d="M 377.148 517.314 L 387.148 507.314" stroke-opacity="1" stroke-linecap="square" stroke-miterlimit="10" stroke-width="2.5" clip-path="url(#uuWgGUQaHkhO)"/>
  <path fill="none" stroke="rgb(96,96,96)" paint-order="fill stroke markers" d="M 498.202 437.103 L 508.202 447.103" stroke-opacity="1" stroke-linecap="square" stroke-miterlimit="10" stroke-width="2.5" clip-path="url(#uuWgGUQaHkhO)"/>
  <path fill="none" stroke="rgb(96,96,96)" paint-order="fill stroke markers" d="M 498.202 447.103 L 508.202 437.103" stroke-opacity="1" stroke-linecap="square" stroke-miterlimit="10" stroke-width="2.5" clip-path="url(#uuWgGUQaHkhO)"/>
  <path fill="none" stroke="rgb(96,96,96)" paint-order="fill stroke markers" d="M 619.256 378.997 L 629.256 388.997" stroke-opacity="1" stroke-linecap="square" stroke-miterlimit="10" stroke-width="2.5" clip-path="url(#uuWgGUQaHkhO)"/>
  <path fill="none" stroke="rgb(96,96,96)" paint-order="fill stroke markers" d="M 619.256 388.997 L 629.256 378.997" stroke-opacity="1" stroke-linecap="square" stroke-miterlimit="10" stroke-width="2.5" clip-path="url(#uuWgGUQaHkhO)"/>
  <path fill="none" stroke="rgb(96,96,96)" paint-order="fill stroke markers" d="M 740.309 332.997 L 750.309 342.997" stroke-opacity="1" stroke-linecap="square" stroke-miterlimit="10" stroke-width="2.5" clip-path="url(#uuWgGUQaHkhO)"/>
  <path fill="none" stroke="rgb(96,96,96)" paint-order="fill stroke markers" d="M 740.309 342.997 L 750.309 332.997" stroke-opacity="1" stroke-linecap="square" stroke-miterlimit="10" stroke-width="2.5" clip-path="url(#uuWgGUQaHkhO)"/>
  <path fill="none" stroke="rgb(96,96,96)" paint-order="fill stroke markers" d="M 861.363 260.365 L 871.363 270.365" stroke-opacity="1" stroke-linecap="square" stroke-miterlimit="10" stroke-width="2.5" clip-path="url(#uuWgGUQaHkhO)"/>
  <path fill="none" stroke="rgb(96,96,96)" paint-order="fill stroke markers" d="M 861.363 270.365 L 871.363 260.365" stroke-opacity="1" stroke-linecap="square" stroke-miterlimit="10" stroke-width="2.5" clip-path="url(#uuWgGUQaHkhO)"/>
  <path fill="none" stroke="rgb(96,96,96)" paint-order="fill stroke markers" d="M 982.417 190.153 L 992.417 200.153" stroke-opacity="1" stroke-linecap="square" stroke-miterlimit="10" stroke-width="2.5" clip-path="url(#uuWgGUQaHkhO)"/>
  <path fill="none" stroke="rgb(96,96,96)" paint-order="fill stroke markers" d="M 982.417 200.153 L 992.417 190.153" stroke-opacity="1" stroke-linecap="square" stroke-miterlimit="10" stroke-width="2.5" clip-path="url(#uuWgGUQaHkhO)"/>
  <path fill="none" stroke="rgb(96,96,96)" paint-order="fill stroke markers" d="M 1103.47 112.679 L 1113.47 122.679" stroke-opacity="1" stroke-linecap="square" stroke-miterlimit="10" stroke-width="2.5" clip-path="url(#uuWgGUQaHkhO)"/>
  <path fill="none" stroke="rgb(96,96,96)" paint-order="fill stroke markers" d="M 1103.47 122.679 L 1113.47 112.679" stroke-opacity="1" stroke-linecap="square" stroke-miterlimit="10" stroke-width="2.5" clip-path="url(#uuWgGUQaHkhO)"/>
  <path fill="rgb(0,100,0)" stroke="none" paint-order="stroke fill markers" fill-rule="evenodd" d="M 696.069 350.46 L 696.069 560.256 L 311.594 560.256 Z" fill-opacity="0.047058823529411764" clip-path="url(#uuWgGUQaHkhO)"/>
  <path fill="none" stroke="rgb(255,0,0)" paint-order="fill stroke markers" d="M 0 730.282 L 4.691 727.722 L 9.383 725.162 L 14.074 722.602 L 18.766 720.042 L 23.457 717.482 L 28.148 714.922 L 32.84 712.362 L 37.531 709.802 L 42.223 707.242 L 46.914 704.682 L 51.605 702.122 L 56.297 699.563 L 60.988 697.003 L 65.68 694.443 L 70.371 691.883 L 75.063 689.323 L 79.754 686.763 L 84.445 684.203 L 89.137 681.643 L 93.828 679.083 L 98.52 676.523 L 103.211 673.963 L 107.902 671.403 L 112.594 668.843 L 117.285 666.283 L 121.977 663.723 L 126.668 661.163 L 131.359 658.603 L 136.051 656.043 L 140.742 653.484 L 145.434 650.924 L 150.125 648.364 L 154.816 645.804 L 159.508 643.244 L 164.199 640.684 L 168.891 638.124 L 173.582 635.564 L 178.273 633.004 L 182.965 630.444 L 187.656 627.884 L 192.348 625.324 L 197.039 622.764 L 201.73 620.204 L 206.422 617.644 L 211.113 615.084 L 215.805 612.524 L 220.496 609.964 L 225.188 607.405 L 229.879 604.845 L 234.57 602.285 L 239.262 599.725 L 243.953 597.165 L 248.645 594.605 L 253.336 592.045 L 258.027 589.485 L 262.719 586.925 L 267.41 584.365 L 272.102 581.805 L 276.793 579.245 L 281.484 576.685 L 286.176 574.125 L 290.867 571.565 L 295.559 569.005 L 300.25 566.445 L 304.941 563.885 L 309.633 561.326 L 314.324 558.766 L 319.016 556.206 L 323.707 553.646 L 328.398 551.086 L 333.09 548.526 L 337.781 545.966 L 342.473 543.406 L 347.164 540.846 L 351.855 538.286 L 356.547 535.726 L 361.238 533.166 L 365.93 530.606 L 370.621 528.046 L 375.313 525.486 L 380.004 522.926 L 384.695 520.366 L 389.387 517.806 L 394.078 515.247 L 398.77 512.687 L 403.461 510.127 L 408.152 507.567 L 412.844 505.007 L 417.535 502.447 L 422.227 499.887 L 426.918 497.327 L 431.609 494.767 L 436.301 492.207 L 440.992 489.647 L 445.684 487.087 L 450.375 484.527 L 455.066 481.967 L 459.758 479.407 L 464.449 476.847 L 469.141 474.287 L 473.832 471.727 L 478.523 469.168 L 483.215 466.608 L 487.906 464.048 L 492.598 461.488 L 497.289 458.928 L 501.98 456.368 L 506.672 453.808 L 511.363 451.248 L 516.055 448.688 L 520.746 446.128 L 525.438 443.568 L 530.129 441.008 L 534.82 438.448 L 539.512 435.888 L 544.203 433.328 L 548.895 430.768 L 553.586 428.208 L 558.277 425.649 L 562.969 423.089 L 567.66 420.529 L 572.352 417.969 L 577.043 415.409 L 581.734 412.849 L 586.426 410.289 L 591.117 407.729 L 595.809 405.169 L 600.5 402.609 L 605.191 400.049 L 609.883 397.489 L 614.574 394.929 L 619.266 392.369 L 623.957 389.809 L 628.648 387.249 L 633.34 384.689 L 638.031 382.129 L 642.723 379.57 L 647.414 377.01 L 652.105 374.45 L 656.797 371.89 L 661.488 369.33 L 666.18 366.77 L 670.871 364.21 L 675.563 361.65 L 680.254 359.09 L 684.945 356.53 L 689.637 353.97 L 694.328 351.41 L 699.02 348.85 L 703.711 346.29 L 708.402 343.73 L 713.094 341.17 L 717.785 338.61 L 722.477 336.05 L 727.168 333.491 L 731.859 330.931 L 736.551 328.371 L 741.242 325.811 L 745.934 323.251 L 750.625 320.691 L 755.316 318.131 L 760.008 315.571 L 764.699 313.011 L 769.391 310.451 L 774.082 307.891 L 778.773 305.331 L 783.465 302.771 L 788.156 300.211 L 792.848 297.651 L 797.539 295.091 L 802.23 292.531 L 806.922 289.971 L 811.613 287.412 L 816.305 284.852 L 820.996 282.292 L 825.688 279.732 L 830.379 277.172 L 835.07 274.612 L 839.762 272.052 L 844.453 269.492 L 849.145 266.932 L 853.836 264.372 L 858.527 261.812 L 863.219 259.252 L 867.91 256.692 L 872.602 254.132 L 877.293 251.572 L 881.984 249.012 L 886.676 246.452 L 891.367 243.892 L 896.059 241.333 L 900.75 238.773 L 905.441 236.213 L 910.133 233.653 L 914.824 231.093 L 919.516 228.533 L 924.207 225.973 L 928.898 223.413 L 933.59 220.853 L 938.281 218.293 L 942.973 215.733 L 947.664 213.173 L 952.355 210.613 L 957.047 208.053 L 961.738 205.493 L 966.43 202.933 L 971.121 200.373 L 975.813 197.813 L 980.504 195.254 L 985.195 192.694 L 989.887 190.134 L 994.578 187.574 L 999.27 185.014 L 1003.961 182.454 L 1008.652 179.894 L 1013.344 177.334 L 1018.035 174.774 L 1022.727 172.214 L 1027.418 169.654 L 1032.109 167.094 L 1036.801 164.534 L 1041.492 161.974 L 1046.184 159.414 L 1050.875 156.854 L 1055.566 154.294 L 1060.258 151.734 L 1064.949 149.175 L 1069.641 146.615 L 1074.332 144.055 L 1079.023 141.495 L 1083.715 138.935 L 1088.406 136.375 L 1093.098 133.815 L 1097.789 131.255 L 1102.48 128.695 L 1107.172 126.135 L 1111.863 123.575 L 1116.555 121.015 L 1121.246 118.455 L 1125.938 115.895 L 1130.629 113.335 L 1135.32 110.775 L 1140.012 108.215 L 1144.703 105.656 L 1149.395 103.096 L 1154.086 100.536 L 1158.777 97.976 L 1163.469 95.416 L 1168.16 92.856 L 1172.852 90.296 L 1177.543 87.736 L 1182.234 85.176 L 1186.926 82.616 L 1191.617 80.056 L 1196.309 77.496 L 1201 74.936" stroke-opacity="0.6980392156862745" stroke-linecap="round" stroke-linejoin="round" stroke-miterlimit="10" stroke-width="2.5" clip-path="url(#uuWgGUQaHkhO)"/>
  <path fill="none" stroke="rgb(0,100,0)" paint-order="fill stroke markers" d="M 696.069 350.46 L 696.069 560.256" stroke-opacity="0.6980392156862745" stroke-linecap="round" stroke-linejoin="round" stroke-miterlimit="10" stroke-width="2.5" clip-path="url(#uuWgGUQaHkhO)"/>
  <path fill="none" stroke="rgb(0,100,0)" paint-order="fill stroke markers" d="M 696.069 560.256 L 311.594 560.256" stroke-opacity="0.6980392156862745" stroke-linecap="round" stroke-linejoin="round" stroke-miterlimit="10" stroke-width="2.5" clip-path="url(#uuWgGUQaHkhO)"/>
  <path fill="none" stroke="rgb(0,100,0)" paint-order="fill stroke markers" d="M 311.594 560.256 L 696.069 350.46" stroke-opacity="0.6980392156862745" stroke-linecap="round" stroke-linejoin="round" stroke-miterlimit="10" stroke-width="2.5" clip-path="url(#uuWgGUQaHkhO)"/>
  <g transform="matrix(25, 0, 0, 25, 0, 0)" clip-path="url(#uuWgGUQaHkhO)">
    <g transform="translate(19.92,23.803332)">
      <path fill="rgb(0,0,0)" stroke="none" paint-order="stroke fill markers" d=" M 0.442 -0.6980000000000001 L 0.78 -0.02 Q 0.785 -0.011 0.785 -0.008 Q 0.779 0 0.763 0 L 0.069 0 Q 0.048 0 0.047 -0.008 Q 0.047 -0.011 0.052000000000000005 -0.02 L 0.39 -0.6980000000000001 Q 0.398 -0.713 0.406 -0.715 Q 0.41000000000000003 -0.716 0.41600000000000004 -0.716 Q 0.432 -0.716 0.438 -0.705 Q 0.439 -0.7030000000000001 0.442 -0.6980000000000001 M 0.384 -0.616 L 0.114 -0.076 L 0.653 -0.076 L 0.384 -0.616 Z"/>
    </g>
    <g transform="translate(20.753336,23.803332)">
      <path fill="rgb(0,0,0)" stroke="none" paint-order="stroke fill markers" d=" M 0.334 -0.302 L 0.3 -0.165 Q 0.28300000000000003 -0.097 0.28300000000000003 -0.077 Q 0.28300000000000003 -0.025 0.32 -0.014 Q 0.328 -0.011 0.338 -0.011 Q 0.388 -0.011 0.429 -0.061 Q 0.456 -0.093 0.47100000000000003 -0.14200000000000002 Q 0.47400000000000003 -0.153 0.484 -0.153 Q 0.496 -0.153 0.496 -0.14300000000000002 Q 0.496 -0.11800000000000001 0.465 -0.07100000000000001 Q 0.41100000000000003 0.011 0.336 0.011 Q 0.268 0.011 0.23700000000000002 -0.046 Q 0.231 -0.055 0.228 -0.065 Q 0.20400000000000001 -0.017 0.162 0.002 Q 0.14300000000000002 0.011 0.123 0.011 Q 0.063 0.011 0.039 -0.024 Q 0.029 -0.037 0.029 -0.055 Q 0.029 -0.092 0.061 -0.107 Q 0.07200000000000001 -0.113 0.084 -0.113 Q 0.114 -0.113 0.12 -0.088 Q 0.121 -0.083 0.121 -0.078 Q 0.121 -0.044 0.08700000000000001 -0.028 Q 0.081 -0.025 0.074 -0.024 Q 0.095 -0.011 0.124 -0.011 Q 0.177 -0.011 0.20800000000000002 -0.082 Q 0.214 -0.097 0.219 -0.115 Q 0.273 -0.319 0.273 -0.353 Q 0.267 -0.41500000000000004 0.219 -0.42 Q 0.167 -0.42 0.124 -0.367 L 0.124 -0.366 Q 0.124 -0.365 0.123 -0.365 Q 0.108 -0.34500000000000003 0.096 -0.319 Q 0.091 -0.307 0.08700000000000001 -0.295 L 0.085 -0.289 Q 0.083 -0.278 0.07200000000000001 -0.278 Q 0.06 -0.278 0.06 -0.28800000000000003 Q 0.06 -0.313 0.092 -0.36 Q 0.146 -0.442 0.221 -0.442 Q 0.298 -0.442 0.329 -0.366 Q 0.361 -0.428 0.41400000000000003 -0.44 Q 0.424 -0.442 0.434 -0.442 Q 0.493 -0.442 0.517 -0.40900000000000003 Q 0.527 -0.395 0.527 -0.376 Q 0.527 -0.335 0.49 -0.321 Q 0.481 -0.318 0.47300000000000003 -0.318 Q 0.442 -0.318 0.436 -0.34500000000000003 Q 0.435 -0.34900000000000003 0.435 -0.353 Q 0.435 -0.383 0.464 -0.4 Q 0.47300000000000003 -0.405 0.483 -0.40700000000000003 Q 0.462 -0.42 0.433 -0.42 Q 0.365 -0.42 0.337 -0.314 Q 0.335 -0.308 0.334 -0.302 Z"/>
    </g>
  </g>
  <g transform="matrix(25, 0, 0, 25, 0, 0)" clip-path="url(#uuWgGUQaHkhO)">
    <g transform="translate(28.28,18.363332)">
      <path fill="rgb(0,0,0)" stroke="none" paint-order="stroke fill markers" d=" M 0.442 -0.6980000000000001 L 0.78 -0.02 Q 0.785 -0.011 0.785 -0.008 Q 0.779 0 0.763 0 L 0.069 0 Q 0.048 0 0.047 -0.008 Q 0.047 -0.011 0.052000000000000005 -0.02 L 0.39 -0.6980000000000001 Q 0.398 -0.713 0.406 -0.715 Q 0.41000000000000003 -0.716 0.41600000000000004 -0.716 Q 0.432 -0.716 0.438 -0.705 Q 0.439 -0.7030000000000001 0.442 -0.6980000000000001 M 0.384 -0.616 L 0.114 -0.076 L 0.653 -0.076 L 0.384 -0.616 Z"/>
    </g>
    <g transform="translate(29.113336,18.363332)">
      <path fill="rgb(0,0,0)" stroke="none" paint-order="stroke fill markers" d=" M 0.486 -0.381 L 0.39 0.001 Q 0.366 0.099 0.28300000000000003 0.16 Q 0.222 0.20500000000000002 0.156 0.20500000000000002 Q 0.089 0.20500000000000002 0.061 0.159 Q 0.05 0.14 0.05 0.11800000000000001 Q 0.05 0.067 0.091 0.055 Q 0.099 0.053 0.106 0.053 Q 0.138 0.053 0.14200000000000002 0.081 Q 0.14300000000000002 0.084 0.14300000000000002 0.088 Q 0.14300000000000002 0.111 0.123 0.129 Q 0.109 0.14100000000000001 0.08 0.14100000000000001 Q 0.098 0.183 0.156 0.183 Q 0.218 0.183 0.266 0.12 Q 0.305 0.068 0.328 -0.021 Q 0.329 -0.025 0.331 -0.034 Q 0.28600000000000003 0.011 0.23 0.011 Q 0.15 0.011 0.121 -0.048 Q 0.108 -0.074 0.108 -0.108 Q 0.108 -0.163 0.161 -0.305 Q 0.163 -0.311 0.166 -0.318 Q 0.183 -0.364 0.183 -0.388 Q 0.183 -0.42 0.158 -0.42 Q 0.10300000000000001 -0.42 0.068 -0.329 L 0.068 -0.328 Q 0.062 -0.313 0.057 -0.296 Q 0.046 -0.279 0.041 -0.278 Q 0.029 -0.278 0.029 -0.28800000000000003 Q 0.029 -0.306 0.05 -0.35100000000000003 Q 0.094 -0.442 0.161 -0.442 Q 0.214 -0.442 0.23500000000000001 -0.397 Q 0.243 -0.38 0.243 -0.36 Q 0.243 -0.339 0.223 -0.28800000000000003 Q 0.17200000000000001 -0.156 0.17200000000000001 -0.092 Q 0.17200000000000001 -0.011 0.234 -0.011 Q 0.292 -0.011 0.335 -0.073 Q 0.34500000000000003 -0.088 0.34700000000000003 -0.096 L 0.392 -0.276 Q 0.399 -0.309 0.41200000000000003 -0.356 Q 0.422 -0.399 0.426 -0.41000000000000003 Q 0.439 -0.431 0.461 -0.431 Q 0.486 -0.426 0.49 -0.404 Q 0.49 -0.395 0.486 -0.381 Z"/>
    </g>
  </g>
  <g transform="matrix(26.436525, 0, 0, 26.436525, 111.735786, 301.581543)" clip-path="url(#uuWgGUQaHkhO)" style="">
    <g transform="translate(25.02857142857143,12.75984)">
      <path fill="rgb(0,0,0)" stroke="none" paint-order="stroke fill markers" d=" M 0.28700000000000003 -0.683 L 0.183 -0.261 Q 0.226 -0.278 0.294 -0.354 Q 0.373 -0.442 0.44 -0.442 Q 0.488 -0.442 0.504 -0.402 Q 0.508 -0.391 0.508 -0.379 Q 0.508 -0.338 0.47400000000000003 -0.322 Q 0.463 -0.318 0.453 -0.318 Q 0.422 -0.318 0.41600000000000004 -0.34500000000000003 Q 0.41500000000000004 -0.34900000000000003 0.41500000000000004 -0.353 Q 0.41500000000000004 -0.381 0.44 -0.397 L 0.441 -0.398 L 0.441 -0.398 Q 0.454 -0.406 0.47200000000000003 -0.40700000000000003 L 0.468 -0.41100000000000003 Q 0.46 -0.417 0.447 -0.419 Q 0.445 -0.42 0.438 -0.42 Q 0.385 -0.42 0.309 -0.339 Q 0.305 -0.335 0.301 -0.33 L 0.295 -0.324 Q 0.243 -0.27 0.209 -0.25 Q 0.357 -0.231 0.357 -0.145 Q 0.357 -0.131 0.353 -0.114 Q 0.34500000000000003 -0.082 0.34500000000000003 -0.058 Q 0.34500000000000003 -0.011 0.377 -0.011 Q 0.423 -0.011 0.451 -0.094 Q 0.458 -0.111 0.464 -0.135 Q 0.47200000000000003 -0.152 0.47800000000000004 -0.153 Q 0.49 -0.153 0.49 -0.14300000000000002 Q 0.49 -0.127 0.47100000000000003 -0.078 Q 0.463 -0.058 0.454 -0.042 Q 0.422 0.011 0.375 0.011 Q 0.32 0.011 0.295 -0.037 Q 0.28300000000000003 -0.06 0.28300000000000003 -0.088 Q 0.28300000000000003 -0.099 0.28700000000000003 -0.123 Q 0.29 -0.133 0.29 -0.14400000000000002 Q 0.29 -0.20700000000000002 0.2 -0.225 Q 0.187 -0.228 0.17400000000000002 -0.229 Q 0.124 -0.021 0.11800000000000001 -0.01 Q 0.108 0.009000000000000001 0.084 0.011 Q 0.06 0.011 0.056 -0.01 Q 0.055 -0.014 0.055 -0.017 Q 0.055 -0.025 0.059000000000000004 -0.039 L 0.20400000000000001 -0.615 L 0.20700000000000002 -0.635 Q 0.20700000000000002 -0.646 0.193 -0.649 L 0.193 -0.649 Q 0.181 -0.652 0.157 -0.652 Q 0.135 -0.652 0.133 -0.664 Q 0.133 -0.681 0.152 -0.684 L 0.274 -0.6940000000000001 Q 0.28700000000000003 -0.6940000000000001 0.28700000000000003 -0.683 Z"/>
    </g>
    <g transform="translate(25.85843503968254,12.75984)">
      <path fill="rgb(0,0,0)" stroke="none" paint-order="stroke fill markers" d=" M 0.687 -0.327 L 0.09 -0.327 Q 0.058 -0.327 0.056 -0.34700000000000003 Q 0.056 -0.367 0.089 -0.367 L 0.6880000000000001 -0.367 Q 0.72 -0.367 0.721 -0.34700000000000003 Q 0.721 -0.327 0.687 -0.327 M 0.6880000000000001 -0.133 L 0.089 -0.133 Q 0.057 -0.133 0.056 -0.153 Q 0.056 -0.17300000000000001 0.09 -0.17300000000000001 L 0.687 -0.17300000000000001 Q 0.719 -0.17300000000000001 0.721 -0.153 Q 0.721 -0.133 0.6880000000000001 -0.133 Z"/>
    </g>
    <g transform="translate(27.05667814811144,12.083332)">
      <path fill="rgb(0,0,0)" stroke="none" paint-order="stroke fill markers" d=" M 0.442 -0.6980000000000001 L 0.78 -0.02 Q 0.785 -0.011 0.785 -0.008 Q 0.779 0 0.763 0 L 0.069 0 Q 0.048 0 0.047 -0.008 Q 0.047 -0.011 0.052000000000000005 -0.02 L 0.39 -0.6980000000000001 Q 0.398 -0.713 0.406 -0.715 Q 0.41000000000000003 -0.716 0.41600000000000004 -0.716 Q 0.432 -0.716 0.438 -0.705 Q 0.439 -0.7030000000000001 0.442 -0.6980000000000001 M 0.384 -0.616 L 0.114 -0.076 L 0.653 -0.076 L 0.384 -0.616 Z"/>
    </g>
    <g transform="translate(27.89001414811144,12.083332)">
      <path fill="rgb(0,0,0)" stroke="none" paint-order="stroke fill markers" d=" M 0.486 -0.381 L 0.39 0.001 Q 0.366 0.099 0.28300000000000003 0.16 Q 0.222 0.20500000000000002 0.156 0.20500000000000002 Q 0.089 0.20500000000000002 0.061 0.159 Q 0.05 0.14 0.05 0.11800000000000001 Q 0.05 0.067 0.091 0.055 Q 0.099 0.053 0.106 0.053 Q 0.138 0.053 0.14200000000000002 0.081 Q 0.14300000000000002 0.084 0.14300000000000002 0.088 Q 0.14300000000000002 0.111 0.123 0.129 Q 0.109 0.14100000000000001 0.08 0.14100000000000001 Q 0.098 0.183 0.156 0.183 Q 0.218 0.183 0.266 0.12 Q 0.305 0.068 0.328 -0.021 Q 0.329 -0.025 0.331 -0.034 Q 0.28600000000000003 0.011 0.23 0.011 Q 0.15 0.011 0.121 -0.048 Q 0.108 -0.074 0.108 -0.108 Q 0.108 -0.163 0.161 -0.305 Q 0.163 -0.311 0.166 -0.318 Q 0.183 -0.364 0.183 -0.388 Q 0.183 -0.42 0.158 -0.42 Q 0.10300000000000001 -0.42 0.068 -0.329 L 0.068 -0.328 Q 0.062 -0.313 0.057 -0.296 Q 0.046 -0.279 0.041 -0.278 Q 0.029 -0.278 0.029 -0.28800000000000003 Q 0.029 -0.306 0.05 -0.35100000000000003 Q 0.094 -0.442 0.161 -0.442 Q 0.214 -0.442 0.23500000000000001 -0.397 Q 0.243 -0.38 0.243 -0.36 Q 0.243 -0.339 0.223 -0.28800000000000003 Q 0.17200000000000001 -0.156 0.17200000000000001 -0.092 Q 0.17200000000000001 -0.011 0.234 -0.011 Q 0.292 -0.011 0.335 -0.073 Q 0.34500000000000003 -0.088 0.34700000000000003 -0.096 L 0.392 -0.276 Q 0.399 -0.309 0.41200000000000003 -0.356 Q 0.422 -0.399 0.426 -0.41000000000000003 Q 0.439 -0.431 0.461 -0.431 Q 0.486 -0.426 0.49 -0.404 Q 0.49 -0.395 0.486 -0.381 Z"/>
    </g>
    <rect fill="rgb(0,0,0)" stroke="none" x="27.03399464811144" y="12.4898405" width="1.404864" height="0.039999"/>
    <g transform="translate(27.03399464811144,13.445791)">
      <path fill="rgb(0,0,0)" stroke="none" paint-order="stroke fill markers" d=" M 0.442 -0.6980000000000001 L 0.78 -0.02 Q 0.785 -0.011 0.785 -0.008 Q 0.779 0 0.763 0 L 0.069 0 Q 0.048 0 0.047 -0.008 Q 0.047 -0.011 0.052000000000000005 -0.02 L 0.39 -0.6980000000000001 Q 0.398 -0.713 0.406 -0.715 Q 0.41000000000000003 -0.716 0.41600000000000004 -0.716 Q 0.432 -0.716 0.438 -0.705 Q 0.439 -0.7030000000000001 0.442 -0.6980000000000001 M 0.384 -0.616 L 0.114 -0.076 L 0.653 -0.076 L 0.384 -0.616 Z"/>
    </g>
    <g transform="translate(27.86733064811144,13.445791)">
      <path fill="rgb(0,0,0)" stroke="none" paint-order="stroke fill markers" d=" M 0.334 -0.302 L 0.3 -0.165 Q 0.28300000000000003 -0.097 0.28300000000000003 -0.077 Q 0.28300000000000003 -0.025 0.32 -0.014 Q 0.328 -0.011 0.338 -0.011 Q 0.388 -0.011 0.429 -0.061 Q 0.456 -0.093 0.47100000000000003 -0.14200000000000002 Q 0.47400000000000003 -0.153 0.484 -0.153 Q 0.496 -0.153 0.496 -0.14300000000000002 Q 0.496 -0.11800000000000001 0.465 -0.07100000000000001 Q 0.41100000000000003 0.011 0.336 0.011 Q 0.268 0.011 0.23700000000000002 -0.046 Q 0.231 -0.055 0.228 -0.065 Q 0.20400000000000001 -0.017 0.162 0.002 Q 0.14300000000000002 0.011 0.123 0.011 Q 0.063 0.011 0.039 -0.024 Q 0.029 -0.037 0.029 -0.055 Q 0.029 -0.092 0.061 -0.107 Q 0.07200000000000001 -0.113 0.084 -0.113 Q 0.114 -0.113 0.12 -0.088 Q 0.121 -0.083 0.121 -0.078 Q 0.121 -0.044 0.08700000000000001 -0.028 Q 0.081 -0.025 0.074 -0.024 Q 0.095 -0.011 0.124 -0.011 Q 0.177 -0.011 0.20800000000000002 -0.082 Q 0.214 -0.097 0.219 -0.115 Q 0.273 -0.319 0.273 -0.353 Q 0.267 -0.41500000000000004 0.219 -0.42 Q 0.167 -0.42 0.124 -0.367 L 0.124 -0.366 Q 0.124 -0.365 0.123 -0.365 Q 0.108 -0.34500000000000003 0.096 -0.319 Q 0.091 -0.307 0.08700000000000001 -0.295 L 0.085 -0.289 Q 0.083 -0.278 0.07200000000000001 -0.278 Q 0.06 -0.278 0.06 -0.28800000000000003 Q 0.06 -0.313 0.092 -0.36 Q 0.146 -0.442 0.221 -0.442 Q 0.298 -0.442 0.329 -0.366 Q 0.361 -0.428 0.41400000000000003 -0.44 Q 0.424 -0.442 0.434 -0.442 Q 0.493 -0.442 0.517 -0.40900000000000003 Q 0.527 -0.395 0.527 -0.376 Q 0.527 -0.335 0.49 -0.321 Q 0.481 -0.318 0.47300000000000003 -0.318 Q 0.442 -0.318 0.436 -0.34500000000000003 Q 0.435 -0.34900000000000003 0.435 -0.353 Q 0.435 -0.383 0.464 -0.4 Q 0.47300000000000003 -0.405 0.483 -0.40700000000000003 Q 0.462 -0.42 0.433 -0.42 Q 0.365 -0.42 0.337 -0.314 Q 0.335 -0.308 0.334 -0.302 Z"/>
    </g>
    <g transform="translate(28.836637256540342,12.75984)">
      <path fill="rgb(0,0,0)" stroke="none" paint-order="stroke fill markers" d=" M 0.687 -0.327 L 0.09 -0.327 Q 0.058 -0.327 0.056 -0.34700000000000003 Q 0.056 -0.367 0.089 -0.367 L 0.6880000000000001 -0.367 Q 0.72 -0.367 0.721 -0.34700000000000003 Q 0.721 -0.327 0.687 -0.327 M 0.6880000000000001 -0.133 L 0.089 -0.133 Q 0.057 -0.133 0.056 -0.153 Q 0.056 -0.17300000000000001 0.09 -0.17300000000000001 L 0.687 -0.17300000000000001 Q 0.719 -0.17300000000000001 0.721 -0.153 Q 0.721 -0.133 0.6880000000000001 -0.133 Z"/>
    </g>
    <g transform="translate(29.892196867651453,12.75984)">
      <path fill="rgb(0,0,0)" stroke="none" paint-order="stroke fill markers" d=" M 0.396 -0.38 L 0.396 -0.38 Q 0.368 -0.41600000000000004 0.31 -0.42 Q 0.245 -0.42 0.192 -0.354 Q 0.179 -0.338 0.169 -0.32 Q 0.129 -0.247 0.117 -0.148 Q 0.115 -0.132 0.115 -0.12 Q 0.115 -0.038 0.171 -0.017 Q 0.185 -0.011 0.20500000000000002 -0.011 Q 0.295 -0.011 0.367 -0.07100000000000001 Q 0.388 -0.088 0.405 -0.11 Q 0.41200000000000003 -0.12 0.418 -0.12 Q 0.427 -0.12 0.43 -0.107 Q 0.43 -0.096 0.396 -0.064 Q 0.313 0.011 0.203 0.011 Q 0.108 0.011 0.065 -0.065 Q 0.041 -0.106 0.041 -0.158 Q 0.041 -0.26 0.11900000000000001 -0.34700000000000003 Q 0.196 -0.433 0.291 -0.441 Q 0.3 -0.442 0.309 -0.442 Q 0.386 -0.442 0.41600000000000004 -0.395 Q 0.427 -0.377 0.427 -0.356 Q 0.427 -0.312 0.392 -0.296 Q 0.382 -0.292 0.371 -0.292 Q 0.341 -0.292 0.335 -0.318 Q 0.334 -0.322 0.334 -0.327 Q 0.334 -0.34900000000000003 0.352 -0.366 Q 0.366 -0.38 0.396 -0.38 Z"/>
    </g>
    <g transform="translate(30.324952867651454,12.75984)">
      <path fill="rgb(0,0,0)" stroke="none" paint-order="stroke fill markers" d=" M 0.46900000000000003 -0.273 Q 0.46900000000000003 -0.167 0.388 -0.08 Q 0.311 0.004 0.215 0.01 Q 0.20800000000000002 0.011 0.201 0.011 Q 0.114 0.011 0.069 -0.058 Q 0.041 -0.101 0.041 -0.158 Q 0.041 -0.261 0.121 -0.34900000000000003 Q 0.197 -0.433 0.293 -0.441 Q 0.301 -0.442 0.309 -0.442 Q 0.395 -0.442 0.44 -0.375 Q 0.46900000000000003 -0.332 0.46900000000000003 -0.273 M 0.202 -0.011 L 0.202 -0.011 Q 0.261 -0.011 0.313 -0.069 Q 0.327 -0.085 0.338 -0.10300000000000001 Q 0.38 -0.17500000000000002 0.394 -0.28200000000000003 Q 0.395 -0.29 0.395 -0.298 L 0.395 -0.299 L 0.396 -0.3 L 0.396 -0.312 Q 0.396 -0.386 0.34700000000000003 -0.41100000000000003 Q 0.33 -0.42 0.308 -0.42 Q 0.247 -0.42 0.193 -0.356 Q 0.186 -0.34700000000000003 0.18 -0.338 Q 0.176 -0.333 0.17300000000000001 -0.328 Q 0.137 -0.27 0.12 -0.166 Q 0.115 -0.138 0.115 -0.12 Q 0.115 -0.037 0.17300000000000001 -0.016 Q 0.187 -0.011 0.202 -0.011 Z"/>
    </g>
    <g transform="translate(30.809675867651453,12.75984)">
      <path fill="rgb(0,0,0)" stroke="none" paint-order="stroke fill markers" d=" M 0.088 -0.059000000000000004 L 0.088 -0.059000000000000004 L 0.146 -0.29 Q 0.162 -0.354 0.162 -0.374 Q 0.162 -0.42 0.131 -0.42 Q 0.09 -0.42 0.064 -0.325 Q 0.061 -0.314 0.058 -0.301 Q 0.047 -0.279 0.041 -0.278 Q 0.029 -0.278 0.029 -0.28800000000000003 Q 0.029 -0.304 0.049 -0.36 L 0.049 -0.361 Q 0.049 -0.362 0.05 -0.362 L 0.05 -0.363 L 0.05 -0.364 L 0.059000000000000004 -0.385 Q 0.081 -0.425 0.10400000000000001 -0.435 Q 0.11800000000000001 -0.442 0.134 -0.442 Q 0.19 -0.442 0.215 -0.395 Q 0.224 -0.377 0.226 -0.355 Q 0.29 -0.442 0.382 -0.442 Q 0.468 -0.442 0.491 -0.376 Q 0.497 -0.358 0.497 -0.335 Q 0.497 -0.28400000000000003 0.436 -0.115 Q 0.418 -0.07100000000000001 0.418 -0.044 Q 0.418 -0.011 0.442 -0.011 Q 0.508 -0.011 0.544 -0.135 Q 0.549 -0.151 0.554 -0.152 L 0.554 -0.153 L 0.559 -0.153 Q 0.5710000000000001 -0.153 0.5710000000000001 -0.14300000000000002 Q 0.5710000000000001 -0.126 0.55 -0.08 Q 0.507 0.011 0.44 0.011 Q 0.389 0.011 0.367 -0.032 Q 0.358 -0.05 0.358 -0.07100000000000001 Q 0.358 -0.091 0.368 -0.117 Q 0.433 -0.292 0.433 -0.35000000000000003 Q 0.433 -0.42 0.379 -0.42 Q 0.289 -0.42 0.228 -0.32 Q 0.221 -0.309 0.216 -0.298 L 0.203 -0.248 Q 0.198 -0.225 0.186 -0.181 L 0.164 -0.091 Q 0.147 -0.022 0.145 -0.017 Q 0.136 0.009000000000000001 0.108 0.011 Q 0.083 0.006 0.079 -0.016 Q 0.079 -0.014 0.088 -0.059000000000000004 Z"/>
    </g>
    <g transform="translate(31.409910867651455,12.75984)">
      <path fill="rgb(0,0,0)" stroke="none" paint-order="stroke fill markers" d=" M 0.391 -0.374 L 0.391 -0.374 Q 0.37 -0.418 0.301 -0.42 Q 0.22 -0.42 0.195 -0.359 Q 0.189 -0.34400000000000003 0.189 -0.33 Q 0.189 -0.291 0.23700000000000002 -0.277 L 0.23700000000000002 -0.277 L 0.23800000000000002 -0.276 Q 0.245 -0.274 0.265 -0.27 Q 0.327 -0.257 0.34800000000000003 -0.242 Q 0.357 -0.23600000000000002 0.365 -0.228 Q 0.396 -0.197 0.396 -0.155 Q 0.396 -0.10300000000000001 0.357 -0.056 Q 0.301 0.011 0.195 0.011 Q 0.10200000000000001 0.011 0.066 -0.041 Q 0.052000000000000005 -0.061 0.052000000000000005 -0.08600000000000001 Q 0.052000000000000005 -0.135 0.09 -0.149 Q 0.099 -0.152 0.108 -0.152 Q 0.14100000000000001 -0.147 0.145 -0.117 Q 0.145 -0.08600000000000001 0.11800000000000001 -0.07100000000000001 Q 0.10200000000000001 -0.061 0.082 -0.064 Q 0.105 -0.011 0.196 -0.011 Q 0.299 -0.011 0.331 -0.08600000000000001 Q 0.339 -0.105 0.339 -0.121 Q 0.339 -0.169 0.28 -0.187 L 0.28 -0.187 L 0.279 -0.187 Q 0.264 -0.191 0.23500000000000001 -0.197 Q 0.145 -0.216 0.134 -0.277 Q 0.132 -0.28600000000000003 0.132 -0.296 Q 0.132 -0.34600000000000003 0.17 -0.389 Q 0.217 -0.442 0.301 -0.442 Q 0.38 -0.442 0.41000000000000003 -0.393 Q 0.42 -0.376 0.42 -0.356 Q 0.42 -0.311 0.386 -0.302 Q 0.38 -0.3 0.374 -0.3 Q 0.34600000000000003 -0.304 0.343 -0.329 Q 0.343 -0.356 0.37 -0.369 Q 0.38 -0.374 0.391 -0.374 Z"/>
    </g>
    <g transform="translate(31.878660867651455,12.75984)">
      <path fill="rgb(0,0,0)" stroke="none" paint-order="stroke fill markers" d=" M 0.20600000000000002 -0.4 L 0.132 -0.105 Q 0.126 -0.08 0.126 -0.057 Q 0.126 -0.011 0.157 -0.011 Q 0.223 -0.011 0.273 -0.108 L 0.28700000000000003 -0.139 Q 0.293 -0.152 0.302 -0.153 Q 0.314 -0.153 0.314 -0.14300000000000002 Q 0.314 -0.13 0.28800000000000003 -0.08600000000000001 Q 0.23 0.011 0.155 0.011 Q 0.097 0.011 0.073 -0.037 Q 0.063 -0.057 0.063 -0.081 Q 0.063 -0.1 0.124 -0.34 L 0.139 -0.4 L 0.051000000000000004 -0.4 Q 0.026000000000000002 -0.4 0.024 -0.40800000000000003 L 0.023 -0.40800000000000003 L 0.023 -0.41200000000000003 Q 0.023 -0.429 0.039 -0.431 L 0.053 -0.431 L 0.147 -0.431 L 0.186 -0.59 Q 0.195 -0.625 0.226 -0.626 Q 0.252 -0.626 0.255 -0.599 Q 0.255 -0.593 0.214 -0.431 L 0.302 -0.431 Q 0.328 -0.431 0.33 -0.42 Q 0.33 -0.402 0.314 -0.4 L 0.313 -0.4 L 0.3 -0.4 L 0.20600000000000002 -0.4 Z"/>
    </g>
  </g>
</svg>