<?xml version="1.0" encoding="utf-8"?>
<svg viewBox="233.792 -5.572 577.902 790.44" width="577.902" height="790.44" xmlns="http://www.w3.org/2000/svg">
  <defs>
    <clipPath id="vlXTcZCysQKk">
      <path fill="none" stroke="none" d=" M 0 0 L 795 0 L 795 921 L 0 921 L 0 0 Z"/>
    </clipPath>
  </defs>
  <path fill="none" stroke="rgb(192,192,192)" paint-order="fill stroke markers" d="M 59.5 0.5 L 59.5 921.5 M 59.5 0.5 L 59.5 921.5 M 133.5 0.5 L 133.5 921.5 M 208.5 0.5 L 208.5 921.5 M 357.5 0.5 L 357.5 921.5 M 432.5 0.5 L 432.5 921.5 M 506.5 0.5 L 506.5 921.5 M 581.5 0.5 L 581.5 921.5 M 656.5 0.5 L 656.5 921.5 M 730.5 0.5 L 730.5 921.5" stroke-opacity="1" stroke-linecap="round" stroke-linejoin="round" stroke-miterlimit="10" clip-path="url(#vlXTcZCysQKk)"/>
  <path fill="none" stroke="rgb(192,192,192)" paint-order="fill stroke markers" d="M 0.5 11.5 L 795.5 11.5 M 0.5 11.5 L 795.5 11.5 M 0.5 53.5 L 795.5 53.5 M 0.5 95.5 L 795.5 95.5 M 0.5 137.5 L 795.5 137.5 M 0.5 179.5 L 795.5 179.5 M 0.5 221.5 L 795.5 221.5 M 0.5 263.5 L 795.5 263.5 M 0.5 305.5 L 795.5 305.5 M 0.5 346.5 L 795.5 346.5 M 0.5 388.5 L 795.5 388.5 M 0.5 430.5 L 795.5 430.5 M 0.5 472.5 L 795.5 472.5 M 0.5 514.5 L 795.5 514.5 M 0.5 556.5 L 795.5 556.5 M 0.5 598.5 L 795.5 598.5 M 0.5 640.5 L 795.5 640.5 M 0.5 682.5 L 795.5 682.5 M 0.5 724.5 L 795.5 724.5 M 0.5 807.5 L 795.5 807.5 M 0.5 849.5 L 795.5 849.5 M 0.5 891.5 L 795.5 891.5" stroke-opacity="1" stroke-linecap="round" stroke-linejoin="round" stroke-miterlimit="10" clip-path="url(#vlXTcZCysQKk)"/>
  <path fill="none" stroke="rgb(0,0,0)" paint-order="fill stroke markers" d="M 283.5 2.5 L 283.5 921.5" stroke-opacity="1" stroke-miterlimit="10" clip-path="url(#vlXTcZCysQKk)"/>
  <path fill="rgb(0,0,0)" stroke="none" paint-order="stroke fill markers" fill-rule="evenodd" d="M 283.071 1 L 279.071 17 L 287.071 17" fill-opacity="1" clip-path="url(#vlXTcZCysQKk)"/>
  <text fill="rgb(0,0,0)" stroke="none" font-family="geogebra-sans-serif, sans-serif" font-size="16px" font-style="normal" font-weight="normal" text-decoration="normal" x="777" y="762" text-anchor="start" dominant-baseline="alphabetic" fill-opacity="1" style="white-space: pre; font-size: 16px;" clip-path="url(#vlXTcZCysQKk)">x</text>
  <path fill="none" stroke="rgb(0,0,0)" paint-order="fill stroke markers" d="M 0.5 766.5 L 793.5 766.5" stroke-opacity="1" stroke-miterlimit="10" clip-path="url(#vlXTcZCysQKk)"/>
  <path fill="rgb(0,0,0)" stroke="none" paint-order="stroke fill markers" fill-rule="evenodd" d="M 794 766.064 L 778 762.064 L 778 770.064" fill-opacity="1" clip-path="url(#vlXTcZCysQKk)"/>
  <text fill="rgb(0,0,0)" stroke="none" font-family="geogebra-sans-serif, sans-serif" font-size="12px" font-style="normal" font-weight="normal" text-decoration="normal" x="352" y="782" text-anchor="start" dominant-baseline="alphabetic" fill-opacity="1" style="white-space: pre; font-size: 12px;" clip-path="url(#vlXTcZCysQKk)">10</text>
  <text fill="rgb(0,0,0)" stroke="none" font-family="geogebra-sans-serif, sans-serif" font-size="12px" font-style="normal" font-weight="normal" text-decoration="normal" x="427" y="782" text-anchor="start" dominant-baseline="alphabetic" fill-opacity="1" style="white-space: pre; font-size: 12px;" clip-path="url(#vlXTcZCysQKk)">20</text>
  <text fill="rgb(0,0,0)" stroke="none" font-family="geogebra-sans-serif, sans-serif" font-size="12px" font-style="normal" font-weight="normal" text-decoration="normal" x="501" y="782" text-anchor="start" dominant-baseline="alphabetic" fill-opacity="1" style="white-space: pre; font-size: 12px;" clip-path="url(#vlXTcZCysQKk)">30</text>
  <text fill="rgb(0,0,0)" stroke="none" font-family="geogebra-sans-serif, sans-serif" font-size="12px" font-style="normal" font-weight="normal" text-decoration="normal" x="576" y="782" text-anchor="start" dominant-baseline="alphabetic" fill-opacity="1" style="white-space: pre; font-size: 12px;" clip-path="url(#vlXTcZCysQKk)">40</text>
  <text fill="rgb(0,0,0)" stroke="none" font-family="geogebra-sans-serif, sans-serif" font-size="12px" font-style="normal" font-weight="normal" text-decoration="normal" x="651" y="782" text-anchor="start" dominant-baseline="alphabetic" fill-opacity="1" style="white-space: pre; font-size: 12px;" clip-path="url(#vlXTcZCysQKk)">50</text>
  <text fill="rgb(0,0,0)" stroke="none" font-family="geogebra-sans-serif, sans-serif" font-size="12px" font-style="normal" font-weight="normal" text-decoration="normal" x="725" y="782" text-anchor="start" dominant-baseline="alphabetic" fill-opacity="1" style="white-space: pre; font-size: 12px;" clip-path="url(#vlXTcZCysQKk)">60</text>
  <text fill="rgb(0,0,0)" stroke="none" font-family="geogebra-sans-serif, sans-serif" font-size="16px" font-style="normal" font-weight="normal" text-decoration="normal" x="288" y="17" text-anchor="start" dominant-baseline="alphabetic" fill-opacity="1" style="white-space: pre; font-size: 16px;" clip-path="url(#vlXTcZCysQKk)">y</text>
  <text fill="rgb(0,0,0)" stroke="none" font-family="geogebra-sans-serif, sans-serif" font-size="12px" font-style="normal" font-weight="normal" text-decoration="normal" x="256" y="729" text-anchor="start" dominant-baseline="alphabetic" fill-opacity="1" style="white-space: pre; font-size: 12px;" clip-path="url(#vlXTcZCysQKk)">200</text>
  <text fill="rgb(0,0,0)" stroke="none" font-family="geogebra-sans-serif, sans-serif" font-size="12px" font-style="normal" font-weight="normal" text-decoration="normal" x="256" y="687" text-anchor="start" dominant-baseline="alphabetic" fill-opacity="1" style="white-space: pre; font-size: 12px;" clip-path="url(#vlXTcZCysQKk)">400</text>
  <text fill="rgb(0,0,0)" stroke="none" font-family="geogebra-sans-serif, sans-serif" font-size="12px" font-style="normal" font-weight="normal" text-decoration="normal" x="256" y="645" text-anchor="start" dominant-baseline="alphabetic" fill-opacity="1" style="white-space: pre; font-size: 12px;" clip-path="url(#vlXTcZCysQKk)">600</text>
  <text fill="rgb(0,0,0)" stroke="none" font-family="geogebra-sans-serif, sans-serif" font-size="12px" font-style="normal" font-weight="normal" text-decoration="normal" x="256" y="603" text-anchor="start" dominant-baseline="alphabetic" fill-opacity="1" style="white-space: pre; font-size: 12px;" clip-path="url(#vlXTcZCysQKk)">800</text>
  <text fill="rgb(0,0,0)" stroke="none" font-family="geogebra-sans-serif, sans-serif" font-size="12px" font-style="normal" font-weight="normal" text-decoration="normal" x="250" y="561" text-anchor="start" dominant-baseline="alphabetic" fill-opacity="1" style="white-space: pre; font-size: 12px;" clip-path="url(#vlXTcZCysQKk)">1000</text>
  <text fill="rgb(0,0,0)" stroke="none" font-family="geogebra-sans-serif, sans-serif" font-size="12px" font-style="normal" font-weight="normal" text-decoration="normal" x="250" y="519" text-anchor="start" dominant-baseline="alphabetic" fill-opacity="1" style="white-space: pre; font-size: 12px;" clip-path="url(#vlXTcZCysQKk)">1200</text>
  <text fill="rgb(0,0,0)" stroke="none" font-family="geogebra-sans-serif, sans-serif" font-size="12px" font-style="normal" font-weight="normal" text-decoration="normal" x="250" y="477" text-anchor="start" dominant-baseline="alphabetic" fill-opacity="1" style="white-space: pre; font-size: 12px;" clip-path="url(#vlXTcZCysQKk)">1400</text>
  <text fill="rgb(0,0,0)" stroke="none" font-family="geogebra-sans-serif, sans-serif" font-size="12px" font-style="normal" font-weight="normal" text-decoration="normal" x="250" y="435" text-anchor="start" dominant-baseline="alphabetic" fill-opacity="1" style="white-space: pre; font-size: 12px;" clip-path="url(#vlXTcZCysQKk)">1600</text>
  <text fill="rgb(0,0,0)" stroke="none" font-family="geogebra-sans-serif, sans-serif" font-size="12px" font-style="normal" font-weight="normal" text-decoration="normal" x="250" y="393" text-anchor="start" dominant-baseline="alphabetic" fill-opacity="1" style="white-space: pre; font-size: 12px;" clip-path="url(#vlXTcZCysQKk)">1800</text>
  <text fill="rgb(0,0,0)" stroke="none" font-family="geogebra-sans-serif, sans-serif" font-size="12px" font-style="normal" font-weight="normal" text-decoration="normal" x="250" y="351" text-anchor="start" dominant-baseline="alphabetic" fill-opacity="1" style="white-space: pre; font-size: 12px;" clip-path="url(#vlXTcZCysQKk)">2000</text>
  <text fill="rgb(0,0,0)" stroke="none" font-family="geogebra-sans-serif, sans-serif" font-size="12px" font-style="normal" font-weight="normal" text-decoration="normal" x="250" y="310" text-anchor="start" dominant-baseline="alphabetic" fill-opacity="1" style="white-space: pre; font-size: 12px;" clip-path="url(#vlXTcZCysQKk)">2200</text>
  <text fill="rgb(0,0,0)" stroke="none" font-family="geogebra-sans-serif, sans-serif" font-size="12px" font-style="normal" font-weight="normal" text-decoration="normal" x="250" y="268" text-anchor="start" dominant-baseline="alphabetic" fill-opacity="1" style="white-space: pre; font-size: 12px;" clip-path="url(#vlXTcZCysQKk)">2400</text>
  <text fill="rgb(0,0,0)" stroke="none" font-family="geogebra-sans-serif, sans-serif" font-size="12px" font-style="normal" font-weight="normal" text-decoration="normal" x="250" y="226" text-anchor="start" dominant-baseline="alphabetic" fill-opacity="1" style="white-space: pre; font-size: 12px;" clip-path="url(#vlXTcZCysQKk)">2600</text>
  <text fill="rgb(0,0,0)" stroke="none" font-family="geogebra-sans-serif, sans-serif" font-size="12px" font-style="normal" font-weight="normal" text-decoration="normal" x="250" y="184" text-anchor="start" dominant-baseline="alphabetic" fill-opacity="1" style="white-space: pre; font-size: 12px;" clip-path="url(#vlXTcZCysQKk)">2800</text>
  <text fill="rgb(0,0,0)" stroke="none" font-family="geogebra-sans-serif, sans-serif" font-size="12px" font-style="normal" font-weight="normal" text-decoration="normal" x="250" y="142" text-anchor="start" dominant-baseline="alphabetic" fill-opacity="1" style="white-space: pre; font-size: 12px;" clip-path="url(#vlXTcZCysQKk)">3000</text>
  <text fill="rgb(0,0,0)" stroke="none" font-family="geogebra-sans-serif, sans-serif" font-size="12px" font-style="normal" font-weight="normal" text-decoration="normal" x="250" y="100" text-anchor="start" dominant-baseline="alphabetic" fill-opacity="1" style="white-space: pre; font-size: 12px;" clip-path="url(#vlXTcZCysQKk)">3200</text>
  <text fill="rgb(0,0,0)" stroke="none" font-family="geogebra-sans-serif, sans-serif" font-size="12px" font-style="normal" font-weight="normal" text-decoration="normal" x="250" y="58" text-anchor="start" dominant-baseline="alphabetic" fill-opacity="1" style="white-space: pre; font-size: 12px;" clip-path="url(#vlXTcZCysQKk)">3400</text>
  <text fill="rgb(0,0,0)" stroke="none" font-family="geogebra-sans-serif, sans-serif" font-size="12px" font-style="normal" font-weight="normal" text-decoration="normal" x="250" y="16" text-anchor="start" dominant-baseline="alphabetic" fill-opacity="1" style="white-space: pre; font-size: 12px;" clip-path="url(#vlXTcZCysQKk)">3600</text>
  <text fill="rgb(0,0,0)" stroke="none" font-family="geogebra-sans-serif, sans-serif" font-size="12px" font-style="normal" font-weight="normal" text-decoration="normal" x="270" y="782" text-anchor="start" dominant-baseline="alphabetic" fill-opacity="1" style="white-space: pre; font-size: 12px;" clip-path="url(#vlXTcZCysQKk)">0</text>
  <path fill="none" stroke="rgb(96,96,96)" paint-order="fill stroke markers" d="M 352.714 732.771 L 362.714 742.771" stroke-opacity="1" stroke-linecap="square" stroke-miterlimit="10" stroke-width="2.5" clip-path="url(#vlXTcZCysQKk)"/>
  <path fill="none" stroke="rgb(96,96,96)" paint-order="fill stroke markers" d="M 352.714 742.771 L 362.714 732.771" stroke-opacity="1" stroke-linecap="square" stroke-miterlimit="10" stroke-width="2.5" clip-path="url(#vlXTcZCysQKk)"/>
  <path fill="none" stroke="rgb(96,96,96)" paint-order="fill stroke markers" d="M 390.036 697.144 L 400.036 707.144" stroke-opacity="1" stroke-linecap="square" stroke-miterlimit="10" stroke-width="2.5" clip-path="url(#vlXTcZCysQKk)"/>
  <path fill="none" stroke="rgb(96,96,96)" paint-order="fill stroke markers" d="M 390.036 707.144 L 400.036 697.144" stroke-opacity="1" stroke-linecap="square" stroke-miterlimit="10" stroke-width="2.5" clip-path="url(#vlXTcZCysQKk)"/>
  <path fill="none" stroke="rgb(96,96,96)" paint-order="fill stroke markers" d="M 427.357 648.314 L 437.357 658.314" stroke-opacity="1" stroke-linecap="square" stroke-miterlimit="10" stroke-width="2.5" clip-path="url(#vlXTcZCysQKk)"/>
  <path fill="none" stroke="rgb(96,96,96)" paint-order="fill stroke markers" d="M 427.357 658.314 L 437.357 648.314" stroke-opacity="1" stroke-linecap="square" stroke-miterlimit="10" stroke-width="2.5" clip-path="url(#vlXTcZCysQKk)"/>
  <path fill="none" stroke="rgb(96,96,96)" paint-order="fill stroke markers" d="M 464.679 585.023 L 474.679 595.023" stroke-opacity="1" stroke-linecap="square" stroke-miterlimit="10" stroke-width="2.5" clip-path="url(#vlXTcZCysQKk)"/>
  <path fill="none" stroke="rgb(96,96,96)" paint-order="fill stroke markers" d="M 464.679 595.023 L 474.679 585.023" stroke-opacity="1" stroke-linecap="square" stroke-miterlimit="10" stroke-width="2.5" clip-path="url(#vlXTcZCysQKk)"/>
  <path fill="none" stroke="rgb(96,96,96)" paint-order="fill stroke markers" d="M 502 505.595 L 512 515.595" stroke-opacity="1" stroke-linecap="square" stroke-miterlimit="10" stroke-width="2.5" clip-path="url(#vlXTcZCysQKk)"/>
  <path fill="none" stroke="rgb(96,96,96)" paint-order="fill stroke markers" d="M 502 515.595 L 512 505.595" stroke-opacity="1" stroke-linecap="square" stroke-miterlimit="10" stroke-width="2.5" clip-path="url(#vlXTcZCysQKk)"/>
  <path fill="none" stroke="rgb(96,96,96)" paint-order="fill stroke markers" d="M 539.321 415.06 L 549.321 425.06" stroke-opacity="1" stroke-linecap="square" stroke-miterlimit="10" stroke-width="2.5" clip-path="url(#vlXTcZCysQKk)"/>
  <path fill="none" stroke="rgb(96,96,96)" paint-order="fill stroke markers" d="M 539.321 425.06 L 549.321 415.06" stroke-opacity="1" stroke-linecap="square" stroke-miterlimit="10" stroke-width="2.5" clip-path="url(#vlXTcZCysQKk)"/>
  <path fill="none" stroke="rgb(96,96,96)" paint-order="fill stroke markers" d="M 576.643 307.759 L 586.643 317.759" stroke-opacity="1" stroke-linecap="square" stroke-miterlimit="10" stroke-width="2.5" clip-path="url(#vlXTcZCysQKk)"/>
  <path fill="none" stroke="rgb(96,96,96)" paint-order="fill stroke markers" d="M 576.643 317.759 L 586.643 307.759" stroke-opacity="1" stroke-linecap="square" stroke-miterlimit="10" stroke-width="2.5" clip-path="url(#vlXTcZCysQKk)"/>
  <path fill="none" stroke="rgb(96,96,96)" paint-order="fill stroke markers" d="M 613.964 187.884 L 623.964 197.884" stroke-opacity="1" stroke-linecap="square" stroke-miterlimit="10" stroke-width="2.5" clip-path="url(#vlXTcZCysQKk)"/>
  <path fill="none" stroke="rgb(96,96,96)" paint-order="fill stroke markers" d="M 613.964 197.884 L 623.964 187.884" stroke-opacity="1" stroke-linecap="square" stroke-miterlimit="10" stroke-width="2.5" clip-path="url(#vlXTcZCysQKk)"/>
  <path fill="none" stroke="rgb(96,96,96)" paint-order="fill stroke markers" d="M 651.286 53.129 L 661.286 63.129" stroke-opacity="1" stroke-linecap="square" stroke-miterlimit="10" stroke-width="2.5" clip-path="url(#vlXTcZCysQKk)"/>
  <path fill="none" stroke="rgb(96,96,96)" paint-order="fill stroke markers" d="M 651.286 63.129 L 661.286 53.129" stroke-opacity="1" stroke-linecap="square" stroke-miterlimit="10" stroke-width="2.5" clip-path="url(#vlXTcZCysQKk)"/>
  <path fill="none" stroke="rgb(255,0,0)" paint-order="fill stroke markers" d="M 283.071 766.064 L 285.703 766.029 M 285.703 766.029 L 288.809 765.897 L 291.914 765.667 L 295.02 765.339 L 298.125 764.913 M 298.125 764.913 L 301.23 764.39 L 304.336 763.768 L 307.441 763.049 L 310.547 762.231 L 313.652 761.316 L 316.758 760.302 L 319.863 759.191 L 322.969 757.982 L 326.074 756.675 L 329.18 755.27 L 332.285 753.767 L 335.391 752.166 L 338.496 750.467 L 341.602 748.67 L 344.707 746.775 L 347.813 744.782 L 350.918 742.691 L 354.023 740.503 L 357.129 738.216 L 360.234 735.831 L 363.34 733.349 L 366.445 730.768 L 369.551 728.09 L 372.656 725.313 L 375.762 722.439 L 378.867 719.467 L 381.973 716.396 L 385.078 713.228 L 388.184 709.962 L 391.289 706.598 L 394.395 703.136 L 397.5 699.576 M 397.5 699.576 L 400.605 695.917 L 403.711 692.161 L 406.816 688.308 L 409.922 684.356 L 413.027 680.306 L 416.133 676.158 L 419.238 671.912 L 422.344 667.568 L 425.449 663.127 L 428.555 658.587 L 431.66 653.949 L 434.766 649.214 L 437.871 644.38 L 440.977 639.449 L 444.082 634.419 L 447.188 629.292 L 450.293 624.066 L 453.398 618.743 L 456.504 613.322 L 459.609 607.802 L 462.715 602.185 L 465.82 596.47 L 468.926 590.657 L 472.031 584.746 L 475.137 578.736 L 478.242 572.629 L 481.348 566.424 L 484.453 560.121 L 487.559 553.72 L 490.664 547.221 L 493.77 540.624 L 496.875 533.93 L 499.98 527.137 L 503.086 520.246 L 506.191 513.257 L 509.297 506.17 L 512.402 498.986 L 515.508 491.703 L 518.613 484.322 L 521.719 476.844 L 524.824 469.267 L 527.93 461.593 L 531.035 453.82 L 534.141 445.95 L 537.246 437.981 L 540.352 429.915 L 543.457 421.751 L 546.563 413.488 L 549.668 405.128 L 552.773 396.67 L 555.879 388.113 L 558.984 379.459 L 562.09 370.707 L 565.195 361.857 L 568.301 352.909 L 571.406 343.863 L 574.512 334.718 L 577.617 325.476 L 580.723 316.136 L 583.828 306.698 L 586.934 297.163 L 590.039 287.529 L 593.145 277.797 L 596.25 267.967 L 599.355 258.039 L 600.908 253.038 L 602.461 248.013 L 604.014 242.964 L 605.566 237.89 L 607.119 232.791 L 608.672 227.668 L 610.225 222.52 L 611.777 217.348 L 613.33 212.151 L 614.883 206.93 L 616.436 201.685 L 617.988 196.415 L 619.541 191.12 L 621.094 185.801 L 622.646 180.458 L 624.199 175.09 L 625.752 169.697 L 627.305 164.28 L 628.857 158.838 L 630.41 153.372 L 631.963 147.882 L 633.516 142.367 L 635.068 136.827 L 636.621 131.263 L 638.174 125.675 L 639.727 120.062 L 641.279 114.425 L 642.832 108.763 L 644.385 103.076 L 645.938 97.365 L 647.49 91.63 L 649.043 85.87 L 650.596 80.085 L 652.148 74.277 L 653.701 68.443 L 655.254 62.585 L 656.807 56.703 L 658.359 50.796 L 659.912 44.865 L 661.465 38.909 L 663.018 32.928 L 664.57 26.923 L 666.123 20.894 L 667.676 14.84 L 669.229 8.762 L 670.781 2.659 L 672.334 -3.468 L 673.887 -9.62" stroke-opacity="0.6980392156862745" stroke-linecap="round" stroke-linejoin="round" stroke-miterlimit="10" stroke-width="2.5" clip-path="url(#vlXTcZCysQKk)"/>
</svg>